<?xml version="1.0" encoding="utf-8"?>
<!-- Generator: Adobe Illustrator 16.0.0, SVG Export Plug-In . SVG Version: 6.00 Build 0)  -->
<!DOCTYPE svg PUBLIC "-//W3C//DTD SVG 1.1//EN" "http://www.w3.org/Graphics/SVG/1.1/DTD/svg11.dtd">
<svg version="1.1" xmlns="http://www.w3.org/2000/svg" xmlns:xlink="http://www.w3.org/1999/xlink" x="0px" y="0px" width="110px"
	 height="165px" viewBox="289.5 -81.226 110 165" enable-background="new 289.5 -81.226 110 165" xml:space="preserve">
<g id="Layer_1">
	<g>
		<g>
			<g>
				<path fill="#1E87C9" d="M25.3-188.907c-1.313,0-2.375-1.063-2.375-2.375v-18.536c0-1.312,1.063-2.375,2.375-2.375
					c1.31,0,2.375,1.063,2.375,2.375v18.536C27.675-189.97,26.611-188.907,25.3-188.907z"/>
			</g>
			<g>
				<path fill="#1E87C9" d="M58.945-173.198H40.414c-1.313,0-2.377-1.062-2.377-2.373s1.064-2.376,2.377-2.376h18.531
					c1.311,0,2.375,1.064,2.375,2.376S60.258-173.198,58.945-173.198z"/>
			</g>
			<g>
				<path fill="#1E87C9" d="M37.717-186.14c-0.607,0-1.217-0.233-1.68-0.696c-0.93-0.927-0.93-2.431,0-3.359l13.104-13.107
					c0.93-0.927,2.432-0.927,3.361,0c0.926,0.928,0.926,2.432,0,3.358l-13.107,13.106C38.928-186.373,38.322-186.14,37.717-186.14z"
					/>
			</g>
		</g>
		<g>
			<g>
				<path fill="#1E87C9" d="M-125.737-223.567c1.313,0,2.375-1.064,2.375-2.376v-18.536c0-1.312-1.062-2.373-2.375-2.373
					c-1.31,0-2.375,1.062-2.375,2.373v18.536C-128.112-224.632-127.048-223.567-125.737-223.567z"/>
			</g>
			<g>
				<path fill="#1E87C9" d="M-159.805-207.857h18.53c1.313,0,2.375-1.063,2.375-2.375s-1.062-2.375-2.375-2.375h-18.53
					c-1.311,0-2.375,1.063-2.375,2.375S-161.115-207.857-159.805-207.857z"/>
			</g>
			<g>
				<path fill="#1E87C9" d="M-138.151-220.802c0.608,0,1.217-0.232,1.681-0.696c0.929-0.927,0.929-2.431,0-3.359l-13.104-13.106
					c-0.93-0.929-2.434-0.929-3.361,0c-0.926,0.928-0.926,2.431,0,3.357l13.107,13.108
					C-139.366-221.035-138.757-220.802-138.151-220.802z"/>
			</g>
		</g>
		<path fill="none" stroke="#1E87C9" stroke-width="5" stroke-miterlimit="10" d="M27.345-121.023c0,1.032-0.838,1.87-1.871,1.87
			h-11.9l-9.354,18.709l-11.226-18.709h-58.201c-1.033,0-1.871-0.838-1.871-1.87v-58.303c0-1.034,0.838-1.87,1.871-1.87h90.682
			c1.033,0,1.871,0.836,1.871,1.87V-121.023z"/>
		<path fill="none" stroke="#1E87C9" stroke-width="5" stroke-miterlimit="10" d="M-67.079-179.327c0-1.034,0.838-1.87,1.871-1.87
			h26.379v-31.773c0-1.032-0.837-1.871-1.871-1.871h-86.065c-1.033,0-1.87,0.839-1.87,1.871v60.845c0,1.033,0.837,1.87,1.87,1.87
			h9.663l10.314,18.085l11.512-18.085h28.197V-179.327L-67.079-179.327z"/>
		<g>
			<path fill="#333333" d="M-78.032-192.079c0,0.606-0.069,1.195-0.21,1.768c-0.14,0.571-0.314,1.119-0.524,1.645
				s-0.438,1.021-0.683,1.487c-0.245,0.468-0.484,0.888-0.718,1.261l-2.695,4.55c-0.257,0.327-0.455,0.729-0.595,1.207
				c-0.14,0.479-0.21,0.939-0.21,1.383v1.05h-6.44v-1.05c0-0.653,0.146-1.423,0.438-2.312c0.292-0.886,0.706-1.819,1.243-2.8
				l2.659-4.55c0.373-0.653,0.631-1.266,0.771-1.838c0.14-0.571,0.21-1.067,0.21-1.487c0-1.026-0.146-1.831-0.438-2.415
				c-0.292-0.583-0.904-0.875-1.838-0.875c-0.678,0-1.214,0.339-1.609,1.016c-0.397,0.677-0.596,1.609-0.596,2.8h-6.79
				c0-1.283,0.204-2.497,0.612-3.641c0.407-1.143,0.997-2.14,1.769-2.992c0.77-0.852,1.709-1.522,2.816-2.013
				c1.107-0.489,2.374-0.734,3.798-0.734c1.609,0,2.986,0.198,4.13,0.595s2.077,0.963,2.801,1.697
				c0.723,0.735,1.254,1.634,1.592,2.695C-78.201-194.569-78.032-193.385-78.032-192.079z M-83.176-169.784
				c0,0.606-0.176,1.062-0.525,1.365c-0.35,0.303-0.887,0.454-1.609,0.454h-5.25v-7.034h7.386L-83.176-169.784L-83.176-169.784z"/>
		</g>
		<g>
			<path fill="#333333" d="M-17.062-143.949h-5.529l-1.19-22.854h7.945L-17.062-143.949z M-16.221-136.178
				c0,0.606-0.176,1.062-0.525,1.364c-0.35,0.304-0.887,0.455-1.609,0.455h-5.25v-7.069h7.386L-16.221-136.178L-16.221-136.178z"/>
		</g>
	</g>
</g>
<g id="Layer_4">
	<g>
		<path fill="none" stroke="#999999" stroke-width="5" stroke-miterlimit="10" d="M-23.742,71.063c0,0.668-0.541,1.209-1.209,1.209
			h-79.442c-0.668,0-1.209-0.541-1.209-1.209V-32.482c0-0.668,0.541-1.21,1.209-1.21h79.442c0.668,0,1.209,0.542,1.209,1.21V71.063z
			"/>
		<line fill="none" stroke="#999999" stroke-width="5" stroke-miterlimit="10" x1="-96.304" y1="-3.716" x2="-33.417" y2="-3.716"/>
		
			<line fill="none" stroke="#999999" stroke-width="5" stroke-miterlimit="10" x1="-96.304" y1="-20.042" x2="-33.417" y2="-20.042"/>
		<line fill="none" stroke="#999999" stroke-width="5" stroke-miterlimit="10" x1="-96.304" y1="12.006" x2="-33.417" y2="12.006"/>
		<line fill="none" stroke="#999999" stroke-width="5" stroke-miterlimit="10" x1="-96.115" y1="27.324" x2="-33.229" y2="27.324"/>
		<line fill="none" stroke="#999999" stroke-width="5" stroke-miterlimit="10" x1="-96.304" y1="42.44" x2="-33.417" y2="42.44"/>
		<line fill="none" stroke="#212121" stroke-width="5" stroke-miterlimit="10" x1="-96.304" y1="58.162" x2="-33.417" y2="58.162"/>
		<path fill="#FB625D" stroke="#333333" stroke-width="2" stroke-miterlimit="10" d="M18.664-26.797
			c-0.324,0.838-1.268,1.255-2.106,0.93L-4.996-34.22c-0.84-0.324-1.256-1.268-0.932-2.107l3.924-10.126
			c0.326-0.838,1.27-1.255,2.107-0.93l21.555,8.353c0.84,0.325,1.256,1.269,0.931,2.107L18.664-26.797z"/>
		<path fill="#FECF04" stroke="#333333" stroke-width="2" stroke-miterlimit="10" d="M-8.782-28.959
			c1.301-3.354,4.683-4.009,8.038-2.708l12.439,4.82c3.355,1.3,5.414,4.062,4.113,7.418l-23.99,61.912
			c-1.302,3.355-5.076,5.021-8.431,3.723l-12.44-4.82c-3.354-1.302-5.021-5.076-3.722-8.431L-8.782-28.959z"/>
		<path fill="#FFF2B0" stroke="#333333" stroke-width="2" stroke-miterlimit="10" d="M-9.488,44.36
			c0.62,1.404-17.424,16.812-19.766,15.901c-2.342-0.906-4.327-23.938-3.889-25.067C-32.704,34.061-10.107,42.956-9.488,44.36z"/>
		
			<rect x="-13.292" y="-31.907" transform="matrix(0.9324 0.3614 -0.3614 0.9324 1.1383 3.2843)" fill="none" stroke="#333333" stroke-miterlimit="10" width="10.159" height="73.185"/>
		
			<rect x="-7.78" y="-33.429" transform="matrix(0.9324 0.3613 -0.3613 0.9324 -10.1353 -3.9168)" fill="#333333" stroke="#333333" stroke-width="2" stroke-miterlimit="10" width="26.372" height="8.736"/>
		<path fill="#333333" stroke="#333333" stroke-width="2" stroke-miterlimit="10" d="M-31.327,54.017l8.012,3.104
			c0,0-4.694,3.863-5.938,3.141C-30.432,59.58-31.25,54.452-31.327,54.017z"/>
	</g>
</g>
<g id="Layer_3">
	<g>
		<path fill="#FECF04" d="M-19.719,157.782c-2.417-15.577-19.259-27.645-39.689-27.645s-37.272,12.067-39.689,27.645h-0.31v67.99
			h79.998v-67.99H-19.719z"/>
		<path fill="#333333" d="M-5.409,234.438c0,3.314-2.687,6-6,6h-96c-3.313,0-6-2.686-6-6v-6.666c0-3.314,2.687-6,6-6h96
			c3.313,0,6,2.686,6,6V234.438z"/>
		<path fill="none" stroke="#F2F2F2" stroke-width="4" stroke-linecap="round" stroke-miterlimit="10" d="M-88.643,162.383
			c0,0,2.729-20.037,26.986-20.037"/>
		
			<line fill="none" stroke="#ED1D1D" stroke-width="6" stroke-linecap="round" stroke-miterlimit="10" x1="-59.409" y1="97.469" x2="-59.409" y2="119.803"/>
		
			<line fill="none" stroke="#ED1D1D" stroke-width="6" stroke-linecap="round" stroke-miterlimit="10" x1="-7.62" y1="114.346" x2="-23.411" y2="130.137"/>
		
			<line fill="none" stroke="#ED1D1D" stroke-width="6" stroke-linecap="round" stroke-miterlimit="10" x1="-113.411" y1="114.346" x2="-97.62" y2="130.137"/>
	</g>
</g>
<g id="Layer_2">
	<g>
		<g>
			
				<circle fill="none" stroke="#333333" stroke-width="6" stroke-linecap="round" stroke-miterlimit="10" stroke-dasharray="0,19.8195" cx="342.998" cy="-366.821" r="148.25"/>
		</g>
		<path fill="#1E87C9" d="M372.415-331.662c0,29.765-29.066,29.067-29.066,29.067s-29.767,1.697-29.767-29.768"/>
		<path fill="#1E87C9" d="M382.078-330.249c0,3.74-3.032,6.772-6.772,6.772H310.69c-3.739,0-6.773-3.032-6.773-6.772v-2.82
			c0-3.74,3.034-6.773,6.773-6.773h64.615c3.74,0,6.772,3.033,6.772,6.773V-330.249z"/>
		<path fill="#1E87C9" d="M350.192-288.489c0,1.248-1.009,2.258-2.256,2.258h-9.877c-1.247,0-2.256-1.01-2.256-2.258v-20.596
			c0-1.248,1.009-2.256,2.256-2.256h9.877c1.247,0,2.256,1.008,2.256,2.256V-288.489z"/>
		<path fill="#1E87C9" d="M366.599-409.693"/>
		<path fill="#1E87C9" d="M319.397-410.028"/>
		<path fill="#1E87C9" d="M371.456-387.676v-12.07c0-11.372-12.742-20.59-28.458-20.59c-15.717,0-28.457,9.218-28.457,20.59v12.07
			h17.303v3.096h-17.303v10.164h17.303v3.095h-17.303v10.478h17.303v3.096h-17.303v22.779c0,11.37,12.74,20.589,28.457,20.589
			c15.716,0,28.458-9.219,28.458-20.589v-22.779H355.01v-3.096h16.446v-10.478H355.01v-3.095h16.446v-10.164H355.01v-3.096H371.456z
			"/>
		<path fill="none" stroke="#1E87C9" stroke-width="4" stroke-linecap="round" stroke-miterlimit="10" d="M328.211-429.777
			c0,0,13.958-11.257,29.743,0.018"/>
		<path fill="none" stroke="#1E87C9" stroke-width="4" stroke-linecap="round" stroke-miterlimit="10" d="M319.012-439.332
			c0,0,22.578-18.224,48.143,0.068"/>
		<g>
			<circle fill="#333333" cx="342.998" cy="-562.429" r="30.289"/>
			<path fill="#333333" d="M365.205-536.689c-6.037,5.416-13.773,8.669-22.207,8.669s-16.17-3.253-22.207-8.669
				c-16.26,8.974-27.557,31.477-28.041,52.993h100.496C392.764-505.213,381.467-527.717,365.205-536.689z"/>
		</g>
		<g>
			<circle fill="#333333" cx="194.748" cy="-325.587" r="30.289"/>
			<path fill="#333333" d="M216.955-299.847c-6.037,5.416-13.773,8.67-22.207,8.67s-16.17-3.254-22.207-8.67
				c-16.26,8.975-27.557,31.477-28.041,52.994h100.496C244.514-268.37,233.217-290.874,216.955-299.847z"/>
		</g>
		<g>
			<circle fill="#333333" cx="491.248" cy="-325.587" r="30.289"/>
			<path fill="#333333" d="M513.455-299.847c-6.037,5.416-13.773,8.67-22.207,8.67s-16.17-3.254-22.207-8.67
				c-16.26,8.975-27.557,31.477-28.041,52.994h100.496C541.014-268.37,529.717-290.874,513.455-299.847z"/>
		</g>
	</g>
</g>
<g id="Layer_5">
	<g>
		<path fill="#FFCACA" d="M333.982,78.583c0,2.314-1.877,4.191-4.192,4.191h-2.199c-2.315,0-4.192-1.877-4.192-4.191V27.003
			c0-2.315,1.877-4.192,4.192-4.192h2.199c2.315,0,4.192,1.877,4.192,4.192V78.583z"/>
		<path fill="#FFCACA" d="M366.313,78.583c0,2.314-1.877,4.191-4.192,4.191h-2.199c-2.315,0-4.192-1.877-4.192-4.191V27.003
			c0-2.315,1.877-4.192,4.192-4.192h2.199c2.315,0,4.192,1.877,4.192,4.192V78.583z"/>
		<path fill="#FFCACA" d="M394.909,45.172c1.371,1.866,0.97,4.49-0.896,5.861l-1.772,1.302c-1.865,1.372-4.489,0.971-5.86-0.895
			L355.835,9.878c-1.371-1.866-0.97-4.49,0.896-5.861l1.772-1.302c1.865-1.372,4.489-0.971,5.86,0.895L394.909,45.172z"/>
		<path fill="#FFCACA" d="M293.835,45.172c-1.371,1.866-0.97,4.49,0.896,5.861l1.772,1.302c1.865,1.372,4.489,0.971,5.86-0.895
			l30.546-41.562c1.371-1.866,0.97-4.49-0.896-5.861l-1.772-1.302c-1.865-1.372-4.489-0.971-5.86,0.895L293.835,45.172z"/>
	</g>
	<path fill="#ECECEC" stroke="#CCCCCC" stroke-width="4" stroke-miterlimit="10" d="M375.666,63.907
		c0,1.975-1.602,3.576-3.576,3.576h-55.436c-1.975,0-3.576-1.602-3.576-3.576l-1.788-43.514c0-1.975,1.601-3.577,3.576-3.577h59.012
		c1.975,0,3.576,1.602,3.576,3.577L375.666,63.907z"/>
	<path fill="#ECECEC" stroke="#CCCCCC" stroke-width="4" stroke-miterlimit="10" d="M391.841,17.144
		c0,2.304-1.868,4.173-4.173,4.173h-86.592c-2.305,0-4.173-1.869-4.173-4.173v-63.988c0-2.304,1.868-4.173,4.173-4.173h86.592
		c2.305,0,4.173,1.869,4.173,4.173V17.144z"/>
	<g>
		<path fill="#FF6861" d="M510-106.897c0,1.381-1.119,2.5-2.5,2.5l0,0c-1.381,0-2.5-1.119-2.5-2.5v-26.25c0-1.381,1.119-2.5,2.5-2.5
			l0,0c1.381,0,2.5,1.119,2.5,2.5V-106.897z"/>
		<path fill="#FF6861" d="M573.25-106.897c0,1.381-1.119,2.5-2.5,2.5l0,0c-1.381,0-2.5-1.119-2.5-2.5v-26.25
			c0-1.381,1.119-2.5,2.5-2.5l0,0c1.381,0,2.5,1.119,2.5,2.5V-106.897z"/>
		<g>
			<path fill="#FF6861" d="M574.976-143.752l-0.395-0.205l0.806-1.552c0.018-0.047,0.055-0.114,0.133-0.171
				c0.145-0.106,0.361-0.134,0.663-0.087l1.195,0.31l-0.113,0.432l-1.174-0.306c-0.183-0.027-0.268-0.006-0.297,0.005l-0.002,0.005
				L574.976-143.752z"/>
			<path fill="#FF6861" d="M571.743-135.557l2.117,0.729l0.216-0.628c0.525-0.065,0.69-0.287,0.72-0.333l0.021-0.047l2.147-6.293
				l-0.3-1.163l-3.885-1.338l-0.065,0.208l3.541,1.219l0.243,1.055l-2.091,6.126c-0.032,0.025-0.168,0.115-0.508,0.134l-0.149,0.008
				l-0.237,0.687l-1.696-0.584L571.743-135.557z"/>
			<path fill="#FF6861" d="M571.698-135.572l-2.118-0.729l0.217-0.629c-0.374-0.375-0.367-0.65-0.361-0.706l0.011-0.05l2.183-6.282
				l0.949-0.732l3.886,1.338l-0.075,0.205l-3.541-1.22l-0.841,0.682l-2.125,6.114c0.011,0.04,0.064,0.195,0.318,0.419l0.113,0.099
				l-0.235,0.687l1.695,0.584L571.698-135.572z"/>
			
				<rect x="571.861" y="-144.12" transform="matrix(0.9455 0.3255 -0.3255 0.9455 -15.5547 -194.8664)" fill="#FF6861" width="5.457" height="0.402"/>
			
				<rect x="569.04" y="-135.926" transform="matrix(0.9455 0.3255 -0.3255 0.9455 -13.0413 -193.5019)" fill="#FF6861" width="5.457" height="0.401"/>
		</g>
		<g>
			<path fill="#FF6861" d="M503.524-143.752l0.395-0.205l-0.806-1.552c-0.018-0.047-0.055-0.114-0.133-0.171
				c-0.145-0.106-0.361-0.134-0.663-0.087l-1.195,0.31l0.113,0.432l1.174-0.306c0.183-0.027,0.268-0.006,0.297,0.005l0.002,0.005
				L503.524-143.752z"/>
			<path fill="#FF6861" d="M506.757-135.557l-2.117,0.729l-0.216-0.628c-0.525-0.065-0.69-0.287-0.72-0.333l-0.021-0.047
				l-2.147-6.293l0.3-1.163l3.885-1.338l0.065,0.208l-3.541,1.219l-0.243,1.055l2.091,6.126c0.032,0.025,0.168,0.115,0.508,0.134
				l0.149,0.008l0.237,0.687l1.696-0.584L506.757-135.557z"/>
			<path fill="#FF6861" d="M506.802-135.572l2.118-0.729l-0.217-0.629c0.374-0.375,0.367-0.65,0.361-0.706l-0.011-0.05l-2.183-6.282
				l-0.949-0.732l-3.886,1.338l0.075,0.205l3.541-1.22l0.841,0.682l2.125,6.114c-0.011,0.04-0.064,0.195-0.318,0.419l-0.113,0.099
				l0.235,0.687l-1.695,0.584L506.802-135.572z"/>
			
				<rect x="501.181" y="-144.12" transform="matrix(-0.9455 0.3255 -0.3255 -0.9455 933.5327 -444.0235)" fill="#FF6861" width="5.457" height="0.402"/>
			
				<rect x="504.003" y="-135.926" transform="matrix(-0.9455 0.3255 -0.3255 -0.9455 941.6888 -429.0004)" fill="#FF6861" width="5.457" height="0.401"/>
		</g>
	</g>
	<g>
		<path fill="#FFCACA" d="M345.717-71.938l-1.434-0.214l0.835-5.617c0.003-0.164,0.046-0.407,0.227-0.665
			c0.331-0.477,0.968-0.793,1.943-0.969l3.999-0.311l0.111,1.444l-3.93,0.303c-0.591,0.108-0.827,0.264-0.904,0.329l-0.005,0.021
			L345.717-71.938z"/>
		<path fill="#FFCACA" d="M344.448-43.357h7.276v-2.16c1.544-0.755,1.813-1.609,1.852-1.785l0.021-0.166l-0.062-21.596l-2.149-3.253
			h-13.345l0.022,0.71h12.161l1.861,2.981l0.059,21.021c-0.073,0.111-0.396,0.531-1.421,0.949l-0.45,0.184l-0.003,2.358h-5.827
			L344.448-43.357z"/>
		<path fill="#FFCACA" d="M344.296-43.357h-7.276v-2.16c-1.541-0.755-1.811-1.609-1.854-1.785l-0.018-0.166l0.062-21.596
			l2.145-3.253h13.342l-0.012,0.71H338.52l-1.861,2.981l-0.062,21.021c0.076,0.111,0.405,0.531,1.424,0.949l0.448,0.184l0.002,2.358
			h5.825V-43.357z"/>
		<rect x="335.488" y="-72.698" fill="#FFCACA" width="17.724" height="1.307"/>
		<rect x="335.488" y="-44.555" fill="#FFCACA" width="17.724" height="1.305"/>
		<polygon fill="#FFCACA" points="350.695,-71.606 344.622,-71.606 344.35,-71.606 338.275,-71.606 336.329,-68.563 336.329,-47.73 
			338.275,-44.165 344.35,-44.165 344.622,-44.165 350.695,-44.165 352.645,-47.73 352.645,-68.563 		"/>
	</g>
	<g>
		<path fill="#FF6861" d="M540.738-124.468l-0.995-0.148l0.58-3.9c0.001-0.114,0.03-0.283,0.157-0.462
			c0.229-0.331,0.671-0.551,1.349-0.672l2.777-0.216l0.077,1.003l-2.729,0.21c-0.411,0.075-0.575,0.184-0.629,0.229l-0.002,0.015
			L540.738-124.468z"/>
		<path fill="#FF6861" d="M539.857-104.621h5.053v-1.5c1.071-0.524,1.259-1.118,1.286-1.24l0.014-0.115l-0.042-14.997l-1.492-2.259
			h-9.268l0.016,0.493h8.444l1.294,2.07l0.04,14.598c-0.052,0.077-0.276,0.369-0.987,0.659l-0.313,0.128l-0.001,1.638h-4.046
			L539.857-104.621z"/>
		<path fill="#FF6861" d="M539.751-104.621h-5.053v-1.5c-1.069-0.524-1.258-1.118-1.287-1.24l-0.013-0.115l0.042-14.997l1.489-2.259
			h9.267l-0.01,0.493h-8.446l-1.294,2.07l-0.041,14.598c0.053,0.077,0.28,0.369,0.988,0.659l0.312,0.128l0.002,1.638h4.045
			L539.751-104.621z"/>
		<rect x="533.635" y="-124.996" fill="#FF6861" width="12.309" height="0.908"/>
		<polygon fill="#FF6861" points="544.196,-105.181 539.788,-105.181 539.788,-124.238 544.196,-124.238 545.549,-122.125 
			545.549,-107.657 		"/>
		<polygon fill="#FF6861" points="535.57,-105.181 539.978,-105.181 539.978,-124.238 535.57,-124.238 534.219,-122.125 
			534.219,-107.657 		"/>
	</g>
	<g>
		<g>
			
				<rect x="316.673" y="-24.385" transform="matrix(-0.7409 0.6716 -0.6716 -0.7409 552.4438 -259.2409)" fill="#CCCCCC" width="19.103" height="2.642"/>
			
				<rect x="316.674" y="-24.385" transform="matrix(0.7409 0.6716 -0.6716 0.7409 69.0262 -225.0634)" fill="#CCCCCC" width="19.103" height="2.641"/>
		</g>
		<g>
			
				<rect x="352.967" y="-24.385" transform="matrix(-0.7409 0.6716 -0.6716 -0.7409 615.629 -283.6153)" fill="#CCCCCC" width="19.103" height="2.641"/>
			
				<rect x="352.968" y="-24.385" transform="matrix(0.7409 0.6716 -0.6716 0.7409 78.4289 -249.4378)" fill="#CCCCCC" width="19.103" height="2.642"/>
		</g>
	</g>
	<path fill="#CCCCCC" d="M355.967,7.65c0,1.104-0.896,2-2,2h-19.189c-1.104,0-2-0.896-2-2v-5c0-1.104,0.896-2,2-2h19.189
		c1.104,0,2,0.896,2,2V7.65z"/>
</g>
</svg>
