<?xml version="1.0" encoding="utf-8"?>
<!-- Generator: Adobe Illustrator 16.0.0, SVG Export Plug-In . SVG Version: 6.00 Build 0)  -->
<!DOCTYPE svg PUBLIC "-//W3C//DTD SVG 1.1//EN" "http://www.w3.org/Graphics/SVG/1.1/DTD/svg11.dtd">
<svg version="1.1" xmlns="http://www.w3.org/2000/svg" xmlns:xlink="http://www.w3.org/1999/xlink" x="0px" y="0px" width="400px"
	 height="380px" viewBox="359.666 -353.526 400 380" enable-background="new 359.666 -353.526 400 380" xml:space="preserve">
<g id="Layer_1">
	<g>
		<g>
			<g>
				<path fill="#1E87C9" d="M25.3-188.907c-1.313,0-2.375-1.063-2.375-2.375v-18.536c0-1.312,1.063-2.375,2.375-2.375
					c1.31,0,2.375,1.063,2.375,2.375v18.536C27.675-189.97,26.611-188.907,25.3-188.907z"/>
			</g>
			<g>
				<path fill="#1E87C9" d="M58.945-173.198H40.414c-1.313,0-2.377-1.062-2.377-2.373s1.064-2.376,2.377-2.376h18.531
					c1.311,0,2.375,1.064,2.375,2.376S60.258-173.198,58.945-173.198z"/>
			</g>
			<g>
				<path fill="#1E87C9" d="M37.717-186.14c-0.607,0-1.217-0.233-1.68-0.696c-0.93-0.927-0.93-2.431,0-3.359l13.104-13.107
					c0.93-0.927,2.432-0.927,3.361,0c0.926,0.928,0.926,2.432,0,3.358l-13.107,13.106C38.928-186.373,38.322-186.14,37.717-186.14z"
					/>
			</g>
		</g>
		<g>
			<g>
				<path fill="#1E87C9" d="M-125.737-223.567c1.313,0,2.375-1.064,2.375-2.376v-18.536c0-1.312-1.062-2.373-2.375-2.373
					c-1.31,0-2.375,1.062-2.375,2.373v18.536C-128.112-224.632-127.048-223.567-125.737-223.567z"/>
			</g>
			<g>
				<path fill="#1E87C9" d="M-159.805-207.857h18.53c1.313,0,2.375-1.063,2.375-2.375s-1.062-2.375-2.375-2.375h-18.53
					c-1.311,0-2.375,1.063-2.375,2.375S-161.115-207.857-159.805-207.857z"/>
			</g>
			<g>
				<path fill="#1E87C9" d="M-138.151-220.802c0.608,0,1.217-0.232,1.681-0.696c0.929-0.927,0.929-2.431,0-3.359l-13.104-13.106
					c-0.93-0.929-2.434-0.929-3.361,0c-0.926,0.928-0.926,2.431,0,3.357l13.107,13.108
					C-139.366-221.035-138.757-220.802-138.151-220.802z"/>
			</g>
		</g>
		<path fill="none" stroke="#1E87C9" stroke-width="5" stroke-miterlimit="10" d="M27.345-121.023c0,1.032-0.838,1.87-1.871,1.87
			h-11.9l-9.354,18.709l-11.226-18.709h-58.201c-1.033,0-1.871-0.838-1.871-1.87v-58.303c0-1.034,0.838-1.87,1.871-1.87h90.682
			c1.033,0,1.871,0.836,1.871,1.87V-121.023z"/>
		<path fill="none" stroke="#1E87C9" stroke-width="5" stroke-miterlimit="10" d="M-67.079-179.327c0-1.034,0.838-1.87,1.871-1.87
			h26.379v-31.773c0-1.032-0.837-1.871-1.871-1.871h-86.065c-1.033,0-1.87,0.839-1.87,1.871v60.845c0,1.033,0.837,1.87,1.87,1.87
			h9.663l10.314,18.085l11.512-18.085h28.197V-179.327L-67.079-179.327z"/>
		<g>
			<path fill="#333333" d="M-78.032-192.079c0,0.606-0.069,1.195-0.21,1.768c-0.14,0.571-0.314,1.119-0.524,1.645
				s-0.438,1.021-0.683,1.487c-0.245,0.468-0.484,0.888-0.718,1.261l-2.695,4.55c-0.257,0.327-0.455,0.729-0.595,1.207
				c-0.14,0.479-0.21,0.939-0.21,1.383v1.05h-6.44v-1.05c0-0.653,0.146-1.423,0.438-2.312c0.292-0.886,0.706-1.819,1.243-2.8
				l2.659-4.55c0.373-0.653,0.631-1.266,0.771-1.838c0.14-0.571,0.21-1.067,0.21-1.487c0-1.026-0.146-1.831-0.438-2.415
				c-0.292-0.583-0.904-0.875-1.838-0.875c-0.678,0-1.214,0.339-1.609,1.016c-0.397,0.677-0.596,1.609-0.596,2.8h-6.79
				c0-1.283,0.204-2.497,0.612-3.641c0.407-1.143,0.997-2.14,1.769-2.992c0.77-0.852,1.709-1.522,2.816-2.013
				c1.107-0.489,2.374-0.734,3.798-0.734c1.609,0,2.986,0.198,4.13,0.595s2.077,0.963,2.801,1.697
				c0.723,0.735,1.254,1.634,1.592,2.695C-78.201-194.569-78.032-193.385-78.032-192.079z M-83.176-169.784
				c0,0.606-0.176,1.062-0.525,1.365c-0.35,0.303-0.887,0.454-1.609,0.454h-5.25v-7.034h7.386L-83.176-169.784L-83.176-169.784z"/>
		</g>
		<g>
			<path fill="#333333" d="M-17.062-143.949h-5.529l-1.19-22.854h7.945L-17.062-143.949z M-16.221-136.178
				c0,0.606-0.176,1.062-0.525,1.364c-0.35,0.304-0.887,0.455-1.609,0.455h-5.25v-7.069h7.386L-16.221-136.178L-16.221-136.178z"/>
		</g>
	</g>
</g>
<g id="Layer_4">
	<g>
		<path fill="none" stroke="#999999" stroke-width="5" stroke-miterlimit="10" d="M-23.742,71.063c0,0.668-0.541,1.209-1.209,1.209
			h-79.442c-0.668,0-1.209-0.541-1.209-1.209V-32.482c0-0.668,0.541-1.21,1.209-1.21h79.442c0.668,0,1.209,0.542,1.209,1.21V71.063z
			"/>
		<line fill="none" stroke="#999999" stroke-width="5" stroke-miterlimit="10" x1="-96.304" y1="-3.716" x2="-33.417" y2="-3.716"/>
		
			<line fill="none" stroke="#999999" stroke-width="5" stroke-miterlimit="10" x1="-96.304" y1="-20.042" x2="-33.417" y2="-20.042"/>
		<line fill="none" stroke="#999999" stroke-width="5" stroke-miterlimit="10" x1="-96.304" y1="12.006" x2="-33.417" y2="12.006"/>
		<line fill="none" stroke="#999999" stroke-width="5" stroke-miterlimit="10" x1="-96.115" y1="27.324" x2="-33.229" y2="27.324"/>
		<line fill="none" stroke="#999999" stroke-width="5" stroke-miterlimit="10" x1="-96.304" y1="42.44" x2="-33.417" y2="42.44"/>
		<line fill="none" stroke="#212121" stroke-width="5" stroke-miterlimit="10" x1="-96.304" y1="58.162" x2="-33.417" y2="58.162"/>
		<path fill="#FB625D" stroke="#333333" stroke-width="2" stroke-miterlimit="10" d="M18.664-26.797
			c-0.324,0.838-1.268,1.255-2.106,0.93L-4.996-34.22c-0.84-0.324-1.256-1.268-0.932-2.107l3.924-10.126
			c0.326-0.838,1.27-1.255,2.107-0.93l21.555,8.353c0.84,0.325,1.256,1.269,0.931,2.107L18.664-26.797z"/>
		<path fill="#FECF04" stroke="#333333" stroke-width="2" stroke-miterlimit="10" d="M-8.782-28.959
			c1.301-3.354,4.683-4.009,8.038-2.708l12.439,4.82c3.355,1.3,5.414,4.062,4.113,7.418l-23.99,61.912
			c-1.302,3.355-5.076,5.021-8.431,3.723l-12.44-4.82c-3.354-1.302-5.021-5.076-3.722-8.431L-8.782-28.959z"/>
		<path fill="#FFF2B0" stroke="#333333" stroke-width="2" stroke-miterlimit="10" d="M-9.488,44.36
			c0.62,1.404-17.424,16.812-19.766,15.901c-2.342-0.906-4.327-23.938-3.889-25.067C-32.704,34.061-10.107,42.956-9.488,44.36z"/>
		
			<rect x="-13.292" y="-31.907" transform="matrix(0.9324 0.3614 -0.3614 0.9324 1.1383 3.2843)" fill="none" stroke="#333333" stroke-miterlimit="10" width="10.159" height="73.185"/>
		
			<rect x="-7.78" y="-33.429" transform="matrix(0.9324 0.3613 -0.3613 0.9324 -10.1353 -3.9168)" fill="#333333" stroke="#333333" stroke-width="2" stroke-miterlimit="10" width="26.372" height="8.736"/>
		<path fill="#333333" stroke="#333333" stroke-width="2" stroke-miterlimit="10" d="M-31.327,54.017l8.012,3.104
			c0,0-4.694,3.863-5.938,3.141C-30.432,59.58-31.25,54.452-31.327,54.017z"/>
	</g>
</g>
<g id="Layer_3">
	<g>
		<path fill="#FECF04" d="M-19.719,157.782c-2.417-15.577-19.259-27.645-39.689-27.645s-37.272,12.067-39.689,27.645h-0.31v67.99
			h79.998v-67.99H-19.719z"/>
		<path fill="#333333" d="M-5.409,234.438c0,3.314-2.687,6-6,6h-96c-3.313,0-6-2.686-6-6v-6.666c0-3.314,2.687-6,6-6h96
			c3.313,0,6,2.686,6,6V234.438z"/>
		<path fill="none" stroke="#F2F2F2" stroke-width="4" stroke-linecap="round" stroke-miterlimit="10" d="M-88.643,162.383
			c0,0,2.729-20.037,26.986-20.037"/>
		
			<line fill="none" stroke="#ED1D1D" stroke-width="6" stroke-linecap="round" stroke-miterlimit="10" x1="-59.409" y1="97.469" x2="-59.409" y2="119.803"/>
		
			<line fill="none" stroke="#ED1D1D" stroke-width="6" stroke-linecap="round" stroke-miterlimit="10" x1="-7.62" y1="114.346" x2="-23.411" y2="130.137"/>
		
			<line fill="none" stroke="#ED1D1D" stroke-width="6" stroke-linecap="round" stroke-miterlimit="10" x1="-113.411" y1="114.346" x2="-97.62" y2="130.137"/>
	</g>
</g>
<g id="Layer_2">
	<g>
		
			<circle fill="none" stroke="#E8E8E8" stroke-width="10" stroke-linecap="round" stroke-miterlimit="10" stroke-dasharray="0,25.8755" cx="560.416" cy="-137.392" r="148.25"/>
	</g>
	<path fill="#D8D8D8" d="M586.373-115.717h-3.093v-14.385h-13.213v-2.487h13.213v-8.418h-13.213v-2.487h13.213v-8.166h-13.213
		v-2.487h13.213v-9.697c0-9.136-10.237-16.542-22.863-16.542c-12.627,0-22.862,7.406-22.862,16.542v9.697h13.9v2.487h-13.9v8.166
		h13.9v2.487h-13.9v8.418h13.9v2.487h-13.9v14.385h-3.094c-3.004,0-5.441,2.437-5.441,5.441v2.266c0,3.005,2.438,5.441,5.441,5.441
		h3.081c2.557,11.288,11.126,15.013,17.095,16.218v11.891c0,1.003,0.811,1.814,1.813,1.814h7.936c1.002,0,1.813-0.811,1.813-1.814
		v-11.951c5.874-1.243,14.666-4.985,17.162-16.158h3.014c3.005,0,5.44-2.436,5.44-5.441v-2.266
		C591.813-113.281,589.378-115.717,586.373-115.717z"/>
	<path fill="none" stroke="#D8D8D8" stroke-width="4" stroke-linecap="round" stroke-miterlimit="10" d="M548.537-187.971
		c0,0,11.214-9.044,23.896,0.015"/>
	<path fill="none" stroke="#D8D8D8" stroke-width="4" stroke-linecap="round" stroke-miterlimit="10" d="M541.146-195.647
		c0,0,18.139-14.642,38.678,0.055"/>
	<path fill="#1378AA" d="M570.028-301.394c7.61-3.583,12.881-11.319,12.881-20.289c0-12.381-10.036-22.417-22.417-22.417
		c-12.38,0-22.416,10.036-22.416,22.417c0,8.97,5.27,16.705,12.881,20.289c-28.506,11.878-28.484,51.68-28.484,51.709
		c0,0.646,0.524,1.169,1.17,1.169h73.722c0.646,0,1.169-0.523,1.169-1.169C598.533-249.713,598.533-290.515,570.028-301.394z"/>
	<polygon fill="#63C3EA" points="562.41,-294.783 565.26,-300.498 555.727,-300.498 558.576,-294.783 554.26,-266.582 
		560.492,-261.032 566.727,-266.582 	"/>
	<circle fill="#333333" cx="236.827" cy="-396.599" r="22.417"/>
	<path fill="#333333" d="M236.826-378.165c-32.992,0-38.041,59.482-38.041,59.482h38.041h38.041
		C274.867-318.682,269.818-378.165,236.826-378.165z"/>
	<circle fill="#333333" cx="148.826" cy="-396.599" r="22.417"/>
	<path fill="#333333" d="M148.825-378.165c-32.992,0-38.041,59.482-38.041,59.482h38.041h38.041
		C186.866-318.682,181.817-378.165,148.825-378.165z"/>
	<g>
		<path fill="#FFE473" d="M272.357-290.802c-0.036-0.372-0.08-0.744-0.133-1.118c-1.761-12.243-13.182-20.729-25.506-18.957
			c-12.323,1.774-20.887,13.136-19.124,25.379c0.055,0.374,0.116,0.744,0.189,1.109L272.357-290.802z"/>
		<path fill="#FFE473" d="M227.469-291.767c-9.502,1.367-16.653,6.302-16.158,9.749l34.407-4.952
			C245.222-290.417,236.969-293.133,227.469-291.767z"/>
		
			<ellipse transform="matrix(0.9898 -0.1424 0.1424 0.9898 46.827 31.9588)" fill="#FFE473" cx="246.75" cy="-311.26" rx="2.78" ry="1.689"/>
	</g>
	<path fill="#FFCE00" d="M421.532-84.987c7.61-3.583,12.881-11.319,12.881-20.289c0-12.381-10.036-22.417-22.417-22.417
		c-12.38,0-22.416,10.036-22.416,22.417c0,8.97,5.27,16.705,12.881,20.289c-28.506,11.878-28.484,51.68-28.484,51.709
		c0,0.646,0.524,1.169,1.17,1.169h73.722c0.646,0,1.169-0.523,1.169-1.169C450.037-33.307,450.037-74.108,421.532-84.987z"/>
	<polygon fill="#FFF688" points="413.914,-78.376 416.764,-84.091 407.23,-84.091 410.08,-78.376 405.764,-50.175 411.996,-44.625 
		418.23,-50.175 	"/>
	<path fill="#C9354E" d="M718.102-84.987c7.61-3.583,12.881-11.319,12.881-20.289c0-12.381-10.036-22.417-22.417-22.417
		c-12.38,0-22.416,10.036-22.416,22.417c0,8.97,5.27,16.705,12.881,20.289c-28.506,11.878-28.484,51.68-28.484,51.709
		c0,0.646,0.524,1.169,1.17,1.169h73.722c0.646,0,1.169-0.523,1.169-1.169C746.606-33.307,746.606-74.108,718.102-84.987z"/>
	<polygon fill="#FFB3D2" points="710.483,-78.376 713.333,-84.091 703.8,-84.091 706.649,-78.376 702.333,-50.175 708.565,-44.625 
		714.8,-50.175 	"/>
	
		<line fill="none" stroke="#FFF688" stroke-width="3" stroke-linecap="round" stroke-miterlimit="10" x1="377.587" y1="-105.829" x2="386.549" y2="-101.589"/>
	
		<line fill="none" stroke="#FFF688" stroke-width="3" stroke-linecap="round" stroke-miterlimit="10" x1="379.936" y1="-87.283" x2="388.1" y2="-92.907"/>
	
		<line fill="none" stroke="#FFF688" stroke-width="3" stroke-linecap="round" stroke-miterlimit="10" x1="370.75" y1="-95.261" x2="386.176" y2="-97.147"/>
	
		<line fill="none" stroke="#63C3EA" stroke-width="3" stroke-linecap="round" stroke-miterlimit="10" x1="595.859" y1="-305.11" x2="587.895" y2="-311.015"/>
	
		<line fill="none" stroke="#63C3EA" stroke-width="3" stroke-linecap="round" stroke-miterlimit="10" x1="597.169" y1="-323.758" x2="588.065" y2="-319.833"/>
	
		<line fill="none" stroke="#63C3EA" stroke-width="3" stroke-linecap="round" stroke-miterlimit="10" x1="604.624" y1="-314.144" x2="589.127" y2="-315.298"/>
	
		<line fill="none" stroke="#FFB3D2" stroke-width="3" stroke-linecap="round" stroke-miterlimit="10" x1="743.173" y1="-88.419" x2="735.208" y2="-94.324"/>
	
		<line fill="none" stroke="#FFB3D2" stroke-width="3" stroke-linecap="round" stroke-miterlimit="10" x1="744.482" y1="-107.067" x2="735.379" y2="-103.142"/>
	
		<line fill="none" stroke="#FFB3D2" stroke-width="3" stroke-linecap="round" stroke-miterlimit="10" x1="751.938" y1="-97.453" x2="736.44" y2="-98.607"/>
	<g>
		<path fill="#ECECEC" d="M276.051-170.618c0,23.913-23.353,23.353-23.353,23.353s-23.914,1.364-23.914-23.915"/>
		<path fill="#ECECEC" d="M283.813-169.483c0,3.005-2.436,5.441-5.44,5.441h-51.912c-3.004,0-5.441-2.436-5.441-5.441v-2.266
			c0-3.005,2.438-5.441,5.441-5.441h51.912c3.005,0,5.44,2.437,5.44,5.441V-169.483z"/>
		<path fill="#ECECEC" d="M258.197-135.933c0,1.003-0.811,1.814-1.813,1.814h-7.936c-1.002,0-1.813-0.811-1.813-1.814v-16.546
			c0-1.003,0.811-1.813,1.813-1.813h7.936c1.002,0,1.813,0.81,1.813,1.813V-135.933z"/>
		<path fill="#1E87C9" d="M271.378-233.309"/>
		<path fill="#1E87C9" d="M233.456-233.578"/>
		<path fill="#ECECEC" d="M275.28-215.62v-9.697c0-9.136-10.237-16.542-22.863-16.542c-12.627,0-22.862,7.406-22.862,16.542v9.697
			h13.9v2.487h-13.9v8.166h13.9v2.487h-13.9v8.418h13.9v2.487h-13.9v18.3c0,9.135,10.235,16.541,22.862,16.541
			c12.626,0,22.863-7.406,22.863-16.541v-18.3h-13.213v-2.487h13.213v-8.418h-13.213v-2.487h13.213v-8.166h-13.213v-2.487H275.28z"
			/>
		<path fill="none" stroke="#ECECEC" stroke-width="4" stroke-linecap="round" stroke-miterlimit="10" d="M240.537-249.444
			c0,0,11.214-9.044,23.896,0.015"/>
		<path fill="none" stroke="#ECECEC" stroke-width="4" stroke-linecap="round" stroke-miterlimit="10" d="M233.146-257.12
			c0,0,18.139-14.642,38.678,0.055"/>
	</g>
</g>
<g id="Layer_5">
	<g>
		<path fill="#FF6861" d="M84,239.77c0,1.381-1.119,2.5-2.5,2.5l0,0c-1.381,0-2.5-1.119-2.5-2.5v-26.25c0-1.381,1.119-2.5,2.5-2.5
			l0,0c1.381,0,2.5,1.119,2.5,2.5V239.77z"/>
		<path fill="#FF6861" d="M147.25,239.77c0,1.381-1.119,2.5-2.5,2.5l0,0c-1.381,0-2.5-1.119-2.5-2.5v-26.25
			c0-1.381,1.119-2.5,2.5-2.5l0,0c1.381,0,2.5,1.119,2.5,2.5V239.77z"/>
		<g>
			<path fill="#FF6861" d="M148.976,202.915l-0.395-0.205l0.806-1.551c0.018-0.048,0.055-0.114,0.133-0.172
				c0.145-0.105,0.361-0.134,0.663-0.086l1.195,0.31l-0.113,0.433l-1.174-0.307c-0.183-0.027-0.268-0.006-0.297,0.006l-0.002,0.005
				L148.976,202.915z"/>
			<path fill="#FF6861" d="M145.743,211.11l2.117,0.729l0.216-0.628c0.525-0.065,0.69-0.286,0.72-0.333l0.021-0.047l2.147-6.294
				l-0.3-1.163l-3.885-1.338l-0.065,0.209l3.541,1.219l0.243,1.055l-2.091,6.127c-0.032,0.024-0.168,0.115-0.508,0.134l-0.149,0.009
				l-0.237,0.686l-1.696-0.584L145.743,211.11z"/>
			<path fill="#FF6861" d="M145.698,211.094l-2.118-0.729l0.217-0.629c-0.374-0.375-0.367-0.65-0.361-0.706l0.011-0.05l2.183-6.281
				l0.949-0.732l3.886,1.338l-0.075,0.205l-3.541-1.221l-0.841,0.682l-2.125,6.115c0.011,0.039,0.064,0.195,0.318,0.418l0.113,0.1
				l-0.235,0.687l1.695,0.584L145.698,211.094z"/>
			
				<rect x="145.861" y="202.547" transform="matrix(0.9455 0.3257 -0.3257 0.9455 74.127 -37.3373)" fill="#FF6861" width="5.458" height="0.402"/>
			
				<rect x="143.04" y="210.741" transform="matrix(0.9455 0.3257 -0.3257 0.9455 76.6416 -35.9719)" fill="#FF6861" width="5.458" height="0.401"/>
		</g>
		<g>
			<path fill="#FF6861" d="M77.524,202.915l0.395-0.205l-0.806-1.551c-0.018-0.048-0.055-0.114-0.133-0.172
				c-0.145-0.105-0.361-0.134-0.663-0.086l-1.195,0.31l0.113,0.433l1.174-0.307c0.183-0.027,0.268-0.006,0.297,0.006l0.002,0.005
				L77.524,202.915z"/>
			<path fill="#FF6861" d="M80.757,211.11l-2.117,0.729l-0.216-0.628c-0.525-0.065-0.69-0.286-0.72-0.333l-0.021-0.047l-2.147-6.294
				l0.3-1.163l3.885-1.338l0.065,0.209l-3.541,1.219l-0.243,1.055l2.091,6.127c0.032,0.024,0.168,0.115,0.508,0.134l0.149,0.009
				l0.237,0.686l1.696-0.584L80.757,211.11z"/>
			<path fill="#FF6861" d="M80.802,211.094l2.118-0.729l-0.217-0.629c0.374-0.375,0.367-0.65,0.361-0.706l-0.011-0.05l-2.183-6.281
				l-0.949-0.732l-3.886,1.338l0.075,0.205l3.541-1.221l0.841,0.682l2.125,6.115c-0.011,0.039-0.064,0.195-0.318,0.418l-0.113,0.1
				l0.235,0.687l-1.695,0.584L80.802,211.094z"/>
			
				<rect x="75.181" y="202.547" transform="matrix(-0.9455 0.3257 -0.3257 -0.9455 217.6001 369.0715)" fill="#FF6861" width="5.458" height="0.402"/>
			
				<rect x="78.003" y="210.741" transform="matrix(-0.9455 0.3257 -0.3257 -0.9455 225.7573 384.0938)" fill="#FF6861" width="5.458" height="0.401"/>
		</g>
	</g>
	<g>
		<path fill="#FF6861" d="M114.738,222.199l-0.995-0.148l0.58-3.9c0.001-0.114,0.03-0.282,0.157-0.462
			c0.229-0.33,0.671-0.551,1.349-0.672l2.777-0.217l0.077,1.004l-2.729,0.21c-0.411,0.075-0.575,0.184-0.629,0.229l-0.002,0.015
			L114.738,222.199z"/>
		<path fill="#FF6861" d="M113.857,242.046h5.053v-1.5c1.071-0.524,1.259-1.118,1.286-1.239l0.014-0.115l-0.042-14.998l-1.492-2.258
			h-9.268l0.016,0.492h8.444l1.294,2.07l0.04,14.598c-0.052,0.078-0.276,0.369-0.987,0.66l-0.313,0.127l-0.001,1.639h-4.046
			L113.857,242.046z"/>
		<path fill="#FF6861" d="M113.751,242.046h-5.053v-1.5c-1.069-0.524-1.258-1.118-1.287-1.239l-0.013-0.115l0.042-14.998
			l1.489-2.258h9.267l-0.01,0.492h-8.446l-1.294,2.07l-0.041,14.598c0.053,0.078,0.28,0.369,0.988,0.66l0.312,0.127l0.002,1.639
			h4.045L113.751,242.046z"/>
		<rect x="107.635" y="221.67" fill="#FF6861" width="12.309" height="0.908"/>
		<polygon fill="#FF6861" points="118.196,241.486 113.788,241.486 113.788,222.428 118.196,222.428 119.549,224.542 
			119.549,239.01 		"/>
		<polygon fill="#FF6861" points="109.57,241.486 113.978,241.486 113.978,222.428 109.57,222.428 108.219,224.542 108.219,239.01 
					"/>
	</g>
	<g>
		<g>
			<path fill="#FF6861" d="M206.982,242.522c0,2.314-1.877,4.191-4.192,4.191h-2.199c-2.315,0-4.192-1.877-4.192-4.191v-51.579
				c0-2.315,1.877-4.192,4.192-4.192h2.199c2.315,0,4.192,1.877,4.192,4.192V242.522z"/>
			<path fill="#FF6861" d="M239.313,242.522c0,2.314-1.877,4.191-4.192,4.191h-2.199c-2.315,0-4.192-1.877-4.192-4.191v-51.579
				c0-2.315,1.877-4.192,4.192-4.192h2.199c2.315,0,4.192,1.877,4.192,4.192V242.522z"/>
			<path fill="#FF6861" d="M267.909,209.112c1.371,1.865,0.97,4.489-0.896,5.86l-1.772,1.302c-1.865,1.372-4.489,0.971-5.86-0.895
				l-30.546-41.563c-1.371-1.865-0.97-4.489,0.896-5.86l1.772-1.302c1.865-1.372,4.489-0.971,5.86,0.895L267.909,209.112z"/>
			<path fill="#FF6861" d="M166.835,209.112c-1.371,1.865-0.97,4.489,0.896,5.86l1.772,1.302c1.865,1.372,4.489,0.971,5.86-0.895
				l30.546-41.563c1.371-1.865,0.97-4.489-0.896-5.86l-1.772-1.302c-1.865-1.372-4.489-0.971-5.86,0.895L166.835,209.112z"/>
		</g>
		<path fill="#455D7A" d="M264.841,181.083c0,2.305-1.868,4.174-4.173,4.174h-86.592c-2.305,0-4.173-1.869-4.173-4.174v-63.987
			c0-2.304,1.868-4.173,4.173-4.173h86.592c2.305,0,4.173,1.869,4.173,4.173V181.083z"/>
		<path fill="#455D7A" d="M248.666,227.846c0,1.975-1.602,3.576-3.576,3.576h-55.436c-1.975,0-3.576-1.602-3.576-3.576
			l-1.788-43.514c0-1.975,1.601-3.576,3.576-3.576h59.012c1.975,0,3.576,1.602,3.576,3.576L248.666,227.846z"/>
		<g>
			<path fill="#FF6861" d="M218.403,96.69l-1.1-0.164l0.641-4.309c0.002-0.125,0.035-0.312,0.174-0.51
				c0.254-0.365,0.742-0.607,1.49-0.742l3.066-0.238l0.086,1.107l-3.014,0.232c-0.453,0.083-0.635,0.203-0.693,0.252l-0.004,0.017
				L218.403,96.69z"/>
			<path fill="#FF6861" d="M217.431,118.608h5.58v-1.656c1.184-0.58,1.391-1.234,1.42-1.369l0.016-0.128l-0.047-16.562l-1.648-2.494
				h-10.234l0.018,0.545h9.326l1.428,2.285l0.045,16.121c-0.057,0.085-0.305,0.407-1.09,0.729l-0.346,0.141l-0.002,1.809h-4.469
				L217.431,118.608z"/>
			<path fill="#FF6861" d="M217.313,118.608h-5.58v-1.656c-1.182-0.58-1.389-1.234-1.422-1.369l-0.014-0.128l0.047-16.562
				l1.645-2.494h10.232l-0.01,0.545h-9.328l-1.428,2.285l-0.047,16.121c0.059,0.085,0.311,0.407,1.092,0.729l0.344,0.141
				l0.002,1.809h4.467V118.608z"/>
			<rect x="210.56" y="96.106" fill="#FF6861" width="13.592" height="1.003"/>
			<rect x="210.56" y="117.689" fill="#FF6861" width="13.592" height="1.001"/>
			<polygon fill="#FF6861" points="222.222,96.944 217.563,96.944 217.354,96.944 212.696,96.944 211.204,99.277 211.204,115.254 
				212.696,117.989 217.354,117.989 217.563,117.989 222.222,117.989 223.716,115.254 223.716,99.277 			"/>
		</g>
		<g>
			<g>
				
					<rect x="189.673" y="137.554" transform="matrix(-0.7409 0.6716 -0.6716 -0.7409 440.1014 107.9707)" fill="#FFFFFF" width="19.104" height="2.642"/>
				
					<rect x="189.674" y="137.555" transform="matrix(0.7409 0.6716 -0.6716 0.7409 144.8845 -97.8192)" fill="#FFFFFF" width="19.104" height="2.64"/>
			</g>
			<g>
				
					<rect x="225.967" y="137.555" transform="matrix(-0.7409 0.6716 -0.6716 -0.7409 503.2861 83.5957)" fill="#FFFFFF" width="19.104" height="2.64"/>
				
					<rect x="225.968" y="137.554" transform="matrix(0.7409 0.6716 -0.6716 0.7409 154.2877 -122.1942)" fill="#FFFFFF" width="19.104" height="2.642"/>
			</g>
		</g>
		<path fill="#FFFFFF" d="M228.967,169.589c0,1.104-0.896,2-2,2h-19.189c-1.104,0-2-0.896-2-2v-5c0-1.104,0.896-2,2-2h19.189
			c1.104,0,2,0.896,2,2V169.589z"/>
	</g>
</g>
</svg>
