<?xml version="1.0" encoding="utf-8"?>
<!-- Generator: Adobe Illustrator 16.0.0, SVG Export Plug-In . SVG Version: 6.00 Build 0)  -->
<!DOCTYPE svg PUBLIC "-//W3C//DTD SVG 1.1//EN" "http://www.w3.org/Graphics/SVG/1.1/DTD/svg11.dtd">
<svg version="1.1" xmlns="http://www.w3.org/2000/svg" xmlns:xlink="http://www.w3.org/1999/xlink" x="0px" y="0px" width="100px"
	 height="130px" viewBox="258.5 -70.128 100 130" enable-background="new 258.5 -70.128 100 130" xml:space="preserve">
<g id="Layer_1">
	<g>
		<g>
			<g>
				<path fill="#1E87C9" d="M61.88-356.751c-1.313,0-2.375-1.063-2.375-2.375v-18.536c0-1.312,1.063-2.375,2.375-2.375
					c1.31,0,2.375,1.063,2.375,2.375v18.536C64.255-357.814,63.191-356.751,61.88-356.751z"/>
			</g>
			<g>
				<path fill="#1E87C9" d="M95.525-341.042H76.994c-1.313,0-2.377-1.062-2.377-2.373s1.064-2.376,2.377-2.376h18.531
					c1.311,0,2.375,1.064,2.375,2.376S96.838-341.042,95.525-341.042z"/>
			</g>
			<g>
				<path fill="#1E87C9" d="M74.297-353.984c-0.607,0-1.217-0.233-1.68-0.696c-0.93-0.927-0.93-2.431,0-3.359l13.104-13.107
					c0.93-0.927,2.432-0.927,3.361,0c0.926,0.928,0.926,2.432,0,3.358l-13.107,13.106C75.508-354.217,74.902-353.984,74.297-353.984
					z"/>
			</g>
		</g>
		<g>
			<g>
				<path fill="#1E87C9" d="M-89.157-391.412c1.313,0,2.375-1.064,2.375-2.376v-18.536c0-1.312-1.062-2.373-2.375-2.373
					c-1.31,0-2.375,1.062-2.375,2.373v18.536C-91.532-392.477-90.468-391.412-89.157-391.412z"/>
			</g>
			<g>
				<path fill="#1E87C9" d="M-123.225-375.702h18.53c1.313,0,2.375-1.063,2.375-2.375s-1.062-2.375-2.375-2.375h-18.53
					c-1.311,0-2.375,1.063-2.375,2.375S-124.535-375.702-123.225-375.702z"/>
			</g>
			<g>
				<path fill="#1E87C9" d="M-101.571-388.646c0.608,0,1.217-0.232,1.681-0.696c0.929-0.927,0.929-2.431,0-3.359l-13.104-13.106
					c-0.93-0.929-2.434-0.929-3.361,0c-0.926,0.928-0.926,2.431,0,3.357l13.107,13.108
					C-102.786-388.879-102.177-388.646-101.571-388.646z"/>
			</g>
		</g>
		<path fill="none" stroke="#1E87C9" stroke-width="5" stroke-miterlimit="10" d="M63.925-288.868c0,1.032-0.838,1.87-1.871,1.87
			h-11.9l-9.354,18.709l-11.226-18.709h-58.201c-1.033,0-1.871-0.838-1.871-1.87v-58.303c0-1.034,0.838-1.87,1.871-1.87h90.682
			c1.033,0,1.871,0.836,1.871,1.87V-288.868z"/>
		<path fill="none" stroke="#1E87C9" stroke-width="5" stroke-miterlimit="10" d="M-30.499-347.171c0-1.034,0.838-1.87,1.871-1.87
			h26.379v-31.773c0-1.032-0.837-1.871-1.871-1.871h-86.065c-1.033,0-1.87,0.839-1.87,1.871v60.845c0,1.033,0.837,1.87,1.87,1.87
			h9.663l10.314,18.085l11.512-18.085h28.197V-347.171L-30.499-347.171z"/>
		<g>
			<path fill="#333333" d="M-41.452-359.923c0,0.606-0.069,1.195-0.21,1.768c-0.14,0.571-0.314,1.119-0.524,1.645
				s-0.438,1.021-0.683,1.487c-0.245,0.468-0.484,0.888-0.718,1.261l-2.695,4.55c-0.257,0.327-0.455,0.729-0.595,1.207
				c-0.14,0.479-0.21,0.939-0.21,1.383v1.05h-6.44v-1.05c0-0.653,0.146-1.423,0.438-2.312c0.292-0.886,0.706-1.819,1.243-2.8
				l2.659-4.55c0.373-0.653,0.631-1.266,0.771-1.838c0.14-0.571,0.21-1.067,0.21-1.487c0-1.026-0.146-1.831-0.438-2.415
				c-0.292-0.583-0.904-0.875-1.838-0.875c-0.678,0-1.214,0.339-1.609,1.016c-0.397,0.677-0.596,1.609-0.596,2.8h-6.79
				c0-1.283,0.204-2.497,0.612-3.641c0.407-1.143,0.997-2.14,1.769-2.992c0.77-0.852,1.709-1.522,2.816-2.013
				c1.107-0.489,2.374-0.734,3.798-0.734c1.609,0,2.986,0.198,4.13,0.595s2.077,0.963,2.801,1.697
				c0.723,0.735,1.254,1.634,1.592,2.695C-41.621-362.414-41.452-361.229-41.452-359.923z M-46.596-337.628
				c0,0.606-0.176,1.062-0.525,1.365c-0.35,0.303-0.887,0.454-1.609,0.454h-5.25v-7.034h7.386L-46.596-337.628L-46.596-337.628z"/>
		</g>
		<g>
			<path fill="#333333" d="M19.518-311.793h-5.529l-1.19-22.854h7.945L19.518-311.793z M20.359-304.022
				c0,0.606-0.176,1.062-0.525,1.364c-0.35,0.304-0.887,0.455-1.609,0.455h-5.25v-7.069h7.386L20.359-304.022L20.359-304.022z"/>
		</g>
	</g>
	<g>
		<path fill="none" stroke="#999999" stroke-width="5" stroke-miterlimit="10" d="M-29.38,80.702c0,0.668-0.541,1.209-1.209,1.209
			h-79.443c-0.668,0-1.209-0.541-1.209-1.209V-22.843c0-0.668,0.542-1.21,1.209-1.21h79.443c0.668,0,1.209,0.542,1.209,1.21V80.702z
			"/>
		<line fill="none" stroke="#999999" stroke-width="5" stroke-miterlimit="10" x1="-101.941" y1="5.923" x2="-39.055" y2="5.923"/>
		
			<line fill="none" stroke="#999999" stroke-width="5" stroke-miterlimit="10" x1="-101.941" y1="-10.403" x2="-39.055" y2="-10.403"/>
		
			<line fill="none" stroke="#999999" stroke-width="5" stroke-miterlimit="10" x1="-101.941" y1="21.645" x2="-39.055" y2="21.645"/>
		
			<line fill="none" stroke="#999999" stroke-width="5" stroke-miterlimit="10" x1="-101.753" y1="36.963" x2="-38.866" y2="36.963"/>
		
			<line fill="none" stroke="#999999" stroke-width="5" stroke-miterlimit="10" x1="-101.941" y1="52.079" x2="-39.055" y2="52.079"/>
		
			<line fill="none" stroke="#212121" stroke-width="5" stroke-miterlimit="10" x1="-101.941" y1="67.801" x2="-39.055" y2="67.801"/>
		<path fill="#FB625D" stroke="#333333" stroke-width="2" stroke-miterlimit="10" d="M13.026-17.158
			c-0.324,0.838-1.268,1.255-2.106,0.93l-21.554-8.353c-0.84-0.324-1.256-1.268-0.932-2.107l3.924-10.126
			c0.326-0.838,1.27-1.255,2.107-0.93l21.555,8.353c0.84,0.325,1.256,1.269,0.931,2.107L13.026-17.158z"/>
		<path fill="#FECF04" stroke="#333333" stroke-width="2" stroke-miterlimit="10" d="M-14.42-19.32
			c1.301-3.354,4.683-4.009,8.038-2.708l12.439,4.82c3.355,1.3,5.414,4.062,4.113,7.418l-23.99,61.913
			c-1.302,3.355-5.076,5.021-8.431,3.723l-12.44-4.821c-3.354-1.302-5.021-5.075-3.722-8.431L-14.42-19.32z"/>
		<path fill="#FFF2B0" stroke="#333333" stroke-width="2" stroke-miterlimit="10" d="M-15.126,54
			c0.62,1.403-17.424,16.811-19.766,15.901c-2.342-0.906-4.327-23.938-3.889-25.067C-38.342,43.7-15.745,52.596-15.126,54z"/>
		
			<rect x="-18.929" y="-22.268" transform="matrix(0.9324 0.3614 -0.3614 0.9324 4.2412 5.974)" fill="none" stroke="#333333" stroke-miterlimit="10" width="10.159" height="73.185"/>
		
			<rect x="-13.417" y="-23.789" transform="matrix(0.9324 0.3613 -0.3613 0.9324 -7.0332 -1.2285)" fill="#333333" stroke="#333333" stroke-width="2" stroke-miterlimit="10" width="26.372" height="8.736"/>
		<path fill="#333333" stroke="#333333" stroke-width="2" stroke-miterlimit="10" d="M-36.965,63.656l8.012,3.104
			c0,0-4.694,3.863-5.938,3.141C-36.069,69.219-36.888,64.092-36.965,63.656z"/>
	</g>
	<g>
		
			<image overflow="visible" opacity="0.5" width="46" height="46" xlink:href="4AB85ECC.png"  transform="matrix(1 0 0 1 38.6929 -182.665)">
		</image>
		<g>
			<g>
				<g>
					<path fill="#1E87C9" d="M43.922-158.704c-1.313,0-2.375-1.063-2.375-2.375v-18.536c0-1.312,1.063-2.375,2.375-2.375
						c1.31,0,2.375,1.063,2.375,2.375v18.536C46.297-159.767,45.233-158.704,43.922-158.704z"/>
				</g>
				<g>
					<path fill="#1E87C9" d="M77.568-142.995H59.036c-1.313,0-2.376-1.062-2.376-2.373s1.063-2.376,2.376-2.376h18.533
						c1.309,0,2.375,1.064,2.375,2.376S78.879-142.995,77.568-142.995z"/>
				</g>
				<g>
					<path fill="#1E87C9" d="M56.338-155.937c-0.606,0-1.216-0.233-1.68-0.696c-0.929-0.927-0.929-2.431,0-3.359l13.104-13.107
						c0.93-0.927,2.432-0.927,3.362,0c0.924,0.928,0.924,2.432,0,3.358l-13.108,13.106C57.55-156.17,56.945-155.937,56.338-155.937z
						"/>
				</g>
			</g>
		</g>
	</g>
	<g>
		
			<image overflow="visible" opacity="0.5" width="46" height="46" xlink:href="4AB85ECD.png"  transform="matrix(1 0 0 1 -146.3071 -216.665)">
		</image>
		<g>
			<g>
				<g>
					<path fill="#1E87C9" d="M-107.115-193.365c1.313,0,2.375-1.064,2.375-2.376v-18.536c0-1.312-1.062-2.373-2.375-2.373
						c-1.31,0-2.375,1.062-2.375,2.373v18.536C-109.49-194.429-108.426-193.365-107.115-193.365z"/>
				</g>
				<g>
					<path fill="#1E87C9" d="M-141.183-177.655h18.53c1.313,0,2.375-1.063,2.375-2.375s-1.062-2.375-2.375-2.375h-18.53
						c-1.311,0-2.375,1.063-2.375,2.375S-142.493-177.655-141.183-177.655z"/>
				</g>
				<g>
					<path fill="#1E87C9" d="M-119.529-190.599c0.608,0,1.217-0.232,1.681-0.696c0.929-0.927,0.929-2.431,0-3.359l-13.104-13.106
						c-0.93-0.929-2.434-0.929-3.361,0c-0.926,0.928-0.926,2.431,0,3.357l13.107,13.108
						C-120.744-190.832-120.135-190.599-119.529-190.599z"/>
				</g>
			</g>
		</g>
	</g>
	<g>
		
			<image overflow="visible" opacity="0.5" width="106" height="95" xlink:href="4AB85ECB.png"  transform="matrix(1 0 0 1 -53.3071 -153.665)">
		</image>
		<g>
			<path fill="none" stroke="#1E87C9" stroke-width="5" stroke-miterlimit="10" d="M45.967-90.821c0,1.032-0.838,1.87-1.871,1.87
				h-11.9l-9.354,18.71l-11.226-18.71h-58.201c-1.033,0-1.871-0.838-1.871-1.87v-58.303c0-1.034,0.838-1.87,1.871-1.87h90.682
				c1.033,0,1.871,0.836,1.871,1.87V-90.821z"/>
		</g>
	</g>
	<path fill="none" stroke="#1E87C9" stroke-width="5" stroke-miterlimit="10" d="M-48.457-149.124c0-1.034,0.838-1.87,1.871-1.87
		h26.379v-31.773c0-1.032-0.837-1.871-1.871-1.871h-86.065c-1.033,0-1.87,0.839-1.87,1.871v60.845c0,1.032,0.837,1.87,1.87,1.87
		h9.663l10.314,18.085l11.512-18.085h28.197V-149.124L-48.457-149.124z"/>
	<g>
		
			<image overflow="visible" opacity="0.5" width="25" height="39" xlink:href="4AB85ED4.png"  transform="matrix(1 0 0 1 -80.3071 -170.665)">
		</image>
		<g>
			<g>
				<path fill="#333333" d="M-59.41-161.876c0,0.606-0.069,1.195-0.21,1.768c-0.14,0.571-0.314,1.119-0.524,1.645
					s-0.438,1.021-0.683,1.487c-0.245,0.468-0.484,0.888-0.718,1.261l-2.695,4.55c-0.257,0.327-0.455,0.729-0.595,1.207
					c-0.14,0.479-0.21,0.939-0.21,1.383v1.05h-6.44v-1.05c0-0.653,0.146-1.423,0.438-2.312c0.292-0.886,0.706-1.819,1.243-2.8
					l2.659-4.55c0.373-0.653,0.631-1.266,0.771-1.838c0.14-0.571,0.21-1.067,0.21-1.487c0-1.026-0.146-1.831-0.438-2.415
					c-0.292-0.583-0.904-0.875-1.838-0.875c-0.678,0-1.214,0.339-1.609,1.016c-0.397,0.677-0.596,1.609-0.596,2.8h-6.79
					c0-1.283,0.204-2.497,0.612-3.641c0.407-1.143,0.997-2.14,1.769-2.992c0.77-0.852,1.709-1.522,2.816-2.013
					c1.107-0.489,2.374-0.734,3.798-0.734c1.609,0,2.986,0.198,4.13,0.595s2.077,0.963,2.801,1.697
					c0.723,0.735,1.254,1.634,1.592,2.695C-59.579-164.367-59.41-163.182-59.41-161.876z M-64.554-139.581
					c0,0.606-0.176,1.062-0.525,1.365c-0.35,0.303-0.887,0.454-1.609,0.454h-5.25v-7.034h7.386L-64.554-139.581L-64.554-139.581z"/>
			</g>
		</g>
	</g>
	<g>
		
			<image overflow="visible" opacity="0.5" width="15" height="39" xlink:href="4AB85ED7.png"  transform="matrix(1 0 0 1 -7.3071 -136.665)">
		</image>
		<g>
			<g>
				<path fill="#333333" d="M1.56-113.746h-5.529L-5.16-136.6h7.945L1.56-113.746z M2.401-105.976c0,0.606-0.176,1.063-0.525,1.365
					s-0.887,0.455-1.609,0.455h-5.25v-7.07h7.386L2.401-105.976L2.401-105.976z"/>
			</g>
		</g>
	</g>
	<path fill="none" stroke="#1E87C9" stroke-width="5" stroke-miterlimit="10" d="M44.312-150.994h-64.303H-46.37
		c-1.033,0-1.871,0.836-1.871,1.87v29.072v29.23c0,1.032,0.838,1.87,1.871,1.87h58.201l11.226,18.71l9.354-18.71h11.9
		c1.033,0,1.871-0.838,1.871-1.87v-58.303C46.183-150.158,45.345-150.994,44.312-150.994z"/>
	<path fill="#FECF04" d="M340.727-13.242c-1.963-12.647-15.637-22.444-32.225-22.444s-30.262,9.797-32.225,22.444h-0.251v55.202
		h64.951v-55.202H340.727z"/>
	<path fill="#333333" d="M353.041,49.703c0,2.733-2.216,4.948-4.949,4.948h-79.18c-2.733,0-4.949-2.215-4.949-4.948v-5.499
		c0-2.733,2.216-4.949,4.949-4.949h79.18c2.733,0,4.949,2.216,4.949,4.949V49.703z"/>
	<path fill="none" stroke="#F2F2F2" stroke-width="4" stroke-linecap="round" stroke-miterlimit="10" d="M284.767-9.505
		c0,0,2.215-16.269,21.91-16.269"/>
	
		<line fill="none" stroke="#ED1D1D" stroke-width="6" stroke-linecap="round" stroke-miterlimit="10" x1="308.502" y1="-63.015" x2="308.502" y2="-45.015"/>
	
		<line fill="none" stroke="#ED1D1D" stroke-width="6" stroke-linecap="round" stroke-miterlimit="10" x1="354.282" y1="-45.015" x2="340.978" y2="-32.892"/>
	
		<line fill="none" stroke="#ED1D1D" stroke-width="6" stroke-linecap="round" stroke-miterlimit="10" x1="263.978" y1="-45.015" x2="277.282" y2="-32.892"/>
</g>
<g id="Layer_2">
	<path d="M879.779-24.249"/>
	<path fill="#212121" d="M760.631-196.238v-17.176c0,0,0.739-6.722,9.221-8.463l23.232-1.246v62.483
		C793.084-160.64,765.331-155.682,760.631-196.238z"/>
	<path fill="#212121" d="M825.128-196.238v-17.176c0,0-0.738-6.722-9.219-8.463l-23.234-1.246v62.483
		C792.675-160.64,820.327-155.372,825.128-196.238z"/>
	
		<ellipse transform="matrix(0.9948 -0.1021 0.1021 0.9948 23.65 76.6752)" fill="#212121" cx="760.653" cy="-192.633" rx="6.507" ry="7.792"/>
	
		<ellipse transform="matrix(0.9453 0.3261 -0.3261 0.9453 -17.8467 -278.8068)" fill="#212121" cx="822.64" cy="-192.633" rx="6.507" ry="7.791"/>
	<path fill="#212121" d="M813.424-207.813c0,0,4.962,6.689,7.292,14.481l1.941,6.656c0,0,2.36-5.366,3.222-17.329l-11.662-3.519"/>
	<path fill="#212121" d="M771.49-213.872c0,0-3.228,3.737-5.537,13.058l-3.186,13.827c0,0-3.264-9.011-3.175-20.97L771.49-213.872"
		/>
	<path fill="#212121" d="M818.229-221.455c0,0-5.98-13.149-37.984-9.862c0,0-4.291-1.409-6.107-3.287c0,0-0.262,3.569,0.825,6.575
		c0,0-2.796-4.133-3.729-6.575c0,0-0.311,7.702,0.776,8.829c0,0-10.253-0.939-12.117-5.26c0,0-0.623,7.54-0.021,14.002
		c0.077,0.821,0.174,1.624,0.294,2.393l0,0c0,0-1.59,9.558,0.155,15.265l2.422-9.069c6.019,4.388,34.484,6.631,48.87-2.542
		c1.695,6.062,13.567,10.91,13.567,10.91c1.364-6.408,1.32-11.729,1.32-11.729C827.24-220.699,818.229-221.455,818.229-221.455z"/>
	<path fill="#212121" d="M842.923-112.116c-0.683-27.898-22.909-50.304-50.248-50.304s-49.565,22.405-50.248,50.304H842.923z"/>
	<g>
		<g>
			
				<circle fill="none" stroke="#333333" stroke-width="6" stroke-linecap="round" stroke-miterlimit="10" stroke-dasharray="0,19.8195" cx="557.452" cy="-416.574" r="148.25"/>
		</g>
		<path fill="#1E87C9" d="M586.869-381.415c0,29.765-29.066,29.067-29.066,29.067s-29.767,1.697-29.767-29.768"/>
		<path fill="#1E87C9" d="M596.532-380.002c0,3.74-3.032,6.772-6.772,6.772h-64.615c-3.739,0-6.773-3.032-6.773-6.772v-2.82
			c0-3.74,3.034-6.773,6.773-6.773h64.615c3.74,0,6.772,3.033,6.772,6.773V-380.002z"/>
		<path fill="#1E87C9" d="M564.646-338.242c0,1.248-1.009,2.258-2.256,2.258h-9.877c-1.247,0-2.256-1.01-2.256-2.258v-20.596
			c0-1.248,1.009-2.256,2.256-2.256h9.877c1.247,0,2.256,1.008,2.256,2.256V-338.242z"/>
		<path fill="#1E87C9" d="M581.053-459.446"/>
		<path fill="#1E87C9" d="M533.852-459.781"/>
		<path fill="#1E87C9" d="M585.91-437.429v-12.07c0-11.372-12.742-20.59-28.458-20.59c-15.717,0-28.457,9.218-28.457,20.59v12.07
			h17.303v3.096h-17.303v10.164h17.303v3.095h-17.303v10.478h17.303v3.096h-17.303v22.779c0,11.37,12.74,20.589,28.457,20.589
			c15.716,0,28.458-9.219,28.458-20.589V-407.5h-16.446v-3.096h16.446v-10.478h-16.446v-3.095h16.446v-10.164h-16.446v-3.096H585.91
			z"/>
		<path fill="none" stroke="#1E87C9" stroke-width="4" stroke-linecap="round" stroke-miterlimit="10" d="M542.665-479.53
			c0,0,13.958-11.257,29.743,0.018"/>
		<path fill="none" stroke="#1E87C9" stroke-width="4" stroke-linecap="round" stroke-miterlimit="10" d="M533.466-489.084
			c0,0,22.578-18.224,48.143,0.068"/>
		<g>
			<circle fill="#333333" cx="557.452" cy="-612.182" r="30.289"/>
			<path fill="#333333" d="M579.659-586.442c-6.037,5.416-13.773,8.669-22.207,8.669s-16.17-3.253-22.207-8.669
				c-16.26,8.974-27.557,31.477-28.041,52.993H607.7C607.218-554.966,595.921-577.47,579.659-586.442z"/>
		</g>
		<g>
			<circle fill="#333333" cx="409.202" cy="-375.34" r="30.289"/>
			<path fill="#333333" d="M431.409-349.6c-6.037,5.416-13.773,8.67-22.207,8.67s-16.17-3.254-22.207-8.67
				c-16.26,8.975-27.557,31.477-28.041,52.994H459.45C458.968-318.123,447.671-340.627,431.409-349.6z"/>
		</g>
		<g>
			<circle fill="#333333" cx="705.702" cy="-375.34" r="30.289"/>
			<path fill="#333333" d="M727.909-349.6c-6.037,5.416-13.773,8.67-22.207,8.67s-16.17-3.254-22.207-8.67
				c-16.26,8.975-27.557,31.477-28.041,52.994H755.95C755.468-318.123,744.171-340.627,727.909-349.6z"/>
		</g>
	</g>
</g>
</svg>
