<?xml version="1.0" encoding="utf-8"?>
<!-- Generator: Adobe Illustrator 16.0.0, SVG Export Plug-In . SVG Version: 6.00 Build 0)  -->
<!DOCTYPE svg PUBLIC "-//W3C//DTD SVG 1.1//EN" "http://www.w3.org/Graphics/SVG/1.1/DTD/svg11.dtd">
<svg version="1.1" id="Layer_1" xmlns="http://www.w3.org/2000/svg" xmlns:xlink="http://www.w3.org/1999/xlink" x="0px" y="0px"
	 width="100px" height="100px" viewBox="243.375 -24.755 100 100" enable-background="new 243.375 -24.755 100 100"
	 xml:space="preserve">
<path fill="#FFFFFF" stroke="#999999" stroke-width="10" stroke-miterlimit="10" d="M47.5-204.461c0,1.657-1.343,3-3,3h-197.071
	c-1.657,0-3-1.343-3-3V-461.32c0-1.657,1.343-3,3-3H44.5c1.657,0,3,1.343,3,3V-204.461z"/>
<line fill="none" stroke="#999999" stroke-width="10" stroke-miterlimit="10" x1="-132.5" y1="-389.961" x2="23.5" y2="-389.961"/>
<line fill="none" stroke="#999999" stroke-width="10" stroke-miterlimit="10" x1="-132.5" y1="-430.461" x2="23.5" y2="-430.461"/>
<line fill="none" stroke="#999999" stroke-width="10" stroke-miterlimit="10" x1="-132.5" y1="-350.961" x2="23.5" y2="-350.961"/>
<line fill="none" stroke="#999999" stroke-width="10" stroke-miterlimit="10" x1="-132.036" y1="-312.961" x2="23.964" y2="-312.961"/>
<line fill="none" stroke="#999999" stroke-width="10" stroke-miterlimit="10" x1="-132.5" y1="-275.461" x2="23.5" y2="-275.461"/>
<line fill="none" stroke="#212121" stroke-width="10" stroke-miterlimit="10" x1="-132.5" y1="-236.461" x2="23.5" y2="-236.461"/>
<g>
	<path fill="#FFFFFF" stroke="#666666" stroke-width="5" stroke-miterlimit="10" d="M216.639-665.397c0-6.627,5.373-10,12-10h24.571
		c6.627,0,12,3.373,12,10v122.286c0,6.627-5.373,12-12,12h-24.571c-6.627,0-12-5.373-12-12V-665.397L216.639-665.397z"/>
	<path fill="#FFFFFF" stroke="#666666" stroke-width="5" stroke-miterlimit="10" d="M264.216-539.021
		c1.999,1.999-18.735,40.46-23.36,40.46c-4.623,0-23.358-38.225-23.358-40.46S262.217-541.02,264.216-539.021z"/>
	
		<rect x="230.639" y="-675.397" fill="none" stroke="#666666" stroke-width="5" stroke-miterlimit="10" width="18.713" height="134.788"/>
	
		<rect x="216.639" y="-683.058" fill="#FFFFFF" stroke="#666666" stroke-width="5" stroke-miterlimit="10" width="48.571" height="16.089"/>
	
		<line fill="none" stroke="#666666" stroke-width="5" stroke-miterlimit="10" x1="249.609" y1="-508.917" x2="232.525" y2="-508.917"/>
</g>
<line fill="none" stroke="#333333" stroke-width="5" stroke-miterlimit="10" x1="413.629" y1="-508.918" x2="547.936" y2="-508.918"/>
<g>
	<path fill="#FCB9B9" stroke="#333333" stroke-width="2" stroke-miterlimit="10" d="M351.964-679.95c0,1.657-1.343,3-3,3h-42.571
		c-1.656,0-3-1.343-3-3v-20c0-1.657,1.344-3,3-3h42.571c1.657,0,3,1.343,3,3V-679.95z"/>
	<path fill="#FF7900" stroke="#333333" stroke-width="2" stroke-miterlimit="10" d="M303.393-665.397c0-6.627,5.373-10,12-10h24.571
		c6.627,0,12,3.373,12,10v122.286c0,6.627-5.373,12-12,12h-24.571c-6.627,0-12-5.373-12-12V-665.397z"/>
	<path fill="#FFF2B0" stroke="#333333" stroke-width="2" stroke-miterlimit="10" d="M350.97-539.02
		c1.999,1.998-18.734,40.461-23.359,40.461c-4.624,0-23.359-38.227-23.359-40.461C304.25-541.256,348.971-541.02,350.97-539.02z"/>
	<rect x="317.393" y="-675.397" fill="none" stroke="#333333" stroke-miterlimit="10" width="18.714" height="134.788"/>
	
		<rect x="303.393" y="-683.058" fill="#333333" stroke="#333333" stroke-width="2" stroke-miterlimit="10" width="48.571" height="16.089"/>
	<path fill="#333333" stroke="#333333" stroke-width="2" stroke-miterlimit="10" d="M319.892-507.906h15.824
		c0,0-5.492,9.758-8.105,9.347C325.131-498.949,320.314-507.209,319.892-507.906z"/>
</g>
<g>
	<path fill="#FCB9B9" stroke="#333333" stroke-width="2" stroke-miterlimit="10" d="M152.699-447.218
		c-0.807,2.081-3.146,3.115-5.229,2.308l-53.469-20.72c-2.081-0.807-3.113-3.147-2.309-5.228l9.734-25.119
		c0.807-2.081,3.146-3.115,5.229-2.308l53.469,20.719c2.082,0.807,3.113,3.147,2.309,5.228L152.699-447.218z"/>
	<path fill="#FF7900" stroke="#333333" stroke-width="2" stroke-miterlimit="10" d="M84.611-452.581
		c3.226-8.323,11.615-9.944,19.938-6.719l30.861,11.958c8.322,3.226,13.43,10.077,10.203,18.4L86.102-275.354
		c-3.227,8.324-12.59,12.457-20.913,9.231l-30.861-11.959c-8.324-3.228-12.457-12.59-9.231-20.913L84.611-452.581z"/>
	<path fill="#FFF2B0" stroke="#333333" stroke-width="2" stroke-miterlimit="10" d="M82.859-270.699
		c1.539,3.483-43.223,41.7-49.032,39.448c-5.808-2.249-10.734-59.381-9.646-62.188C25.27-296.247,81.323-274.183,82.859-270.699z"/>
	
		<rect x="73.423" y="-459.916" transform="matrix(0.9324 0.3613 -0.3613 0.9324 -127.5651 -56.0198)" fill="none" stroke="#333333" stroke-miterlimit="10" width="25.204" height="181.547"/>
	
		<rect x="87.102" y="-463.686" transform="matrix(0.9324 0.3613 -0.3613 0.9324 -155.5298 -73.8844)" fill="#333333" stroke="#333333" stroke-width="2" stroke-miterlimit="10" width="65.422" height="21.67"/>
	<path fill="#333333" stroke="#333333" stroke-width="2" stroke-miterlimit="10" d="M28.683-246.743l19.875,7.7
		c0,0-11.646,9.584-14.73,7.792C30.903-232.945,28.875-245.665,28.683-246.743z"/>
</g>
<g>
	<g>
		<path fill="#1E87C9" d="M878.502-268.289c-1.313,0-2.375-1.063-2.375-2.375V-289.2c0-1.312,1.063-2.375,2.375-2.375
			c1.309,0,2.375,1.063,2.375,2.375v18.536C880.877-269.353,879.813-268.289,878.502-268.289z"/>
	</g>
	<g>
		<path fill="#1E87C9" d="M912.146-252.58h-18.531c-1.313,0-2.376-1.062-2.376-2.373s1.063-2.376,2.376-2.376h18.531
			c1.311,0,2.375,1.064,2.375,2.376S913.459-252.58,912.146-252.58z"/>
	</g>
	<g>
		<path fill="#1E87C9" d="M890.918-265.522c-0.607,0-1.216-0.233-1.68-0.696c-0.93-0.927-0.93-2.431,0-3.359l13.104-13.107
			c0.93-0.927,2.432-0.927,3.361,0c0.925,0.928,0.925,2.432,0,3.358l-13.108,13.106C892.13-265.756,891.524-265.522,890.918-265.522
			z"/>
	</g>
</g>
<g>
	<g>
		<path fill="#1E87C9" d="M727.465-302.95c1.313,0,2.375-1.064,2.375-2.376v-18.536c0-1.312-1.062-2.373-2.375-2.373
			c-1.31,0-2.375,1.062-2.375,2.373v18.536C725.09-304.015,726.153-302.95,727.465-302.95z"/>
	</g>
	<g>
		<path fill="#1E87C9" d="M693.396-287.24h18.53c1.313,0,2.375-1.063,2.375-2.375c0-1.312-1.062-2.375-2.375-2.375h-18.53
			c-1.311,0-2.375,1.063-2.375,2.375C691.021-288.303,692.087-287.24,693.396-287.24z"/>
	</g>
	<g>
		<path fill="#1E87C9" d="M715.051-300.185c0.608,0,1.216-0.232,1.681-0.696c0.929-0.927,0.929-2.431,0-3.359l-13.104-13.106
			c-0.93-0.929-2.434-0.929-3.362,0c-0.925,0.928-0.925,2.431,0,3.357l13.108,13.108
			C713.836-300.417,714.444-300.185,715.051-300.185z"/>
	</g>
</g>
<path fill="none" stroke="#000000" stroke-width="5" stroke-miterlimit="10" d="M586.594-104.217c0,2.452-1.986,4.439-4.438,4.439
	H452.648l-27.314,42.913l-24.477-42.913H377.93c-2.452,0-4.438-1.987-4.438-4.439v-144.375c0-2.451,1.986-4.439,4.438-4.439h204.226
	c2.452,0,4.438,1.988,4.438,4.439V-104.217L586.594-104.217z"/>
<path fill="none" stroke="#1E87C9" stroke-width="5" stroke-miterlimit="10" d="M880.547-200.406c0,1.032-0.838,1.87-1.871,1.87
	h-11.9l-9.354,18.709l-11.225-18.709h-58.201c-1.033,0-1.871-0.838-1.871-1.87v-58.303c0-1.034,0.838-1.87,1.871-1.87h90.682
	c1.033,0,1.871,0.836,1.871,1.87L880.547-200.406L880.547-200.406z"/>
<path fill="none" stroke="#1E87C9" stroke-width="5" stroke-miterlimit="10" d="M786.123-258.709c0-1.034,0.838-1.87,1.871-1.87
	h26.379v-31.773c0-1.032-0.837-1.871-1.871-1.871h-86.066c-1.032,0-1.869,0.839-1.869,1.871v60.845c0,1.033,0.837,1.87,1.869,1.87
	h9.663l10.315,18.085l11.511-18.085h28.198V-258.709L786.123-258.709z"/>
<text transform="matrix(1 0 0 1 755.5 -254.0308)" fill="#333333" font-family="'TmonMonsoriBlack'" font-size="35">?</text>
<text transform="matrix(1 0 0 1 825.5 -220.4604)" fill="#333333" font-family="'TmonMonsoriBlack'" font-size="35">!</text>
<g>
	<g>
		<path fill="#1E87C9" d="M855.219-61.515c-1.313,0-2.375-1.063-2.375-2.375v-18.536c0-1.312,1.063-2.375,2.375-2.375
			c1.31,0,2.375,1.063,2.375,2.375v18.536C857.594-62.578,856.529-61.515,855.219-61.515z"/>
	</g>
	<g>
		<path fill="#1E87C9" d="M888.864-45.806h-18.532c-1.313,0-2.376-1.062-2.376-2.373s1.063-2.376,2.376-2.376h18.532
			c1.31,0,2.375,1.064,2.375,2.376S890.176-45.806,888.864-45.806z"/>
	</g>
	<g>
		<path fill="#1E87C9" d="M867.635-58.748c-0.606,0-1.216-0.233-1.68-0.696c-0.929-0.927-0.929-2.431,0-3.359L879.06-75.91
			c0.93-0.927,2.432-0.927,3.361,0c0.925,0.928,0.925,2.432,0,3.358l-13.107,13.106C868.847-58.981,868.241-58.748,867.635-58.748z"
			/>
	</g>
</g>
<g>
	<g>
		<path fill="#1E87C9" d="M704.182-96.176c1.313,0,2.375-1.064,2.375-2.376v-18.536c0-1.312-1.062-2.373-2.375-2.373
			c-1.31,0-2.375,1.062-2.375,2.373v18.536C701.807-97.24,702.87-96.176,704.182-96.176z"/>
	</g>
	<g>
		<path fill="#1E87C9" d="M670.113-80.466h18.53c1.313,0,2.375-1.063,2.375-2.375s-1.062-2.375-2.375-2.375h-18.53
			c-1.311,0-2.375,1.063-2.375,2.375S668.804-80.466,670.113-80.466z"/>
	</g>
	<g>
		<path fill="#1E87C9" d="M691.768-93.41c0.608,0,1.217-0.232,1.681-0.696c0.929-0.927,0.929-2.431,0-3.359l-13.104-13.106
			c-0.93-0.929-2.434-0.929-3.361,0c-0.926,0.928-0.926,2.431,0,3.357l13.107,13.108C690.553-93.643,691.161-93.41,691.768-93.41z"
			/>
	</g>
</g>
<path fill="none" stroke="#1E87C9" stroke-width="5" stroke-miterlimit="10" d="M857.264,6.368c0,1.032-0.838,1.87-1.871,1.87h-11.9
	l-9.354,18.709L822.912,8.238h-58.201c-1.033,0-1.871-0.838-1.871-1.87v-58.303c0-1.034,0.838-1.87,1.871-1.87h90.682
	c1.033,0,1.871,0.836,1.871,1.87V6.368z"/>
<path fill="none" stroke="#1E87C9" stroke-width="5" stroke-miterlimit="10" d="M762.84-51.935c0-1.034,0.838-1.87,1.871-1.87
	h26.379v-31.773c0-1.032-0.837-1.871-1.871-1.871h-86.065c-1.033,0-1.87,0.839-1.87,1.871v60.845c0,1.033,0.837,1.87,1.87,1.87
	h9.663l10.314,18.085l11.512-18.085h28.197V-51.935L762.84-51.935z"/>
<g>
	<path fill="#333333" d="M751.887-64.687c0,0.606-0.069,1.195-0.21,1.768c-0.14,0.571-0.314,1.119-0.524,1.645
		s-0.438,1.021-0.683,1.487c-0.245,0.468-0.484,0.888-0.718,1.261l-2.695,4.55c-0.257,0.327-0.455,0.729-0.595,1.207
		c-0.14,0.479-0.21,0.939-0.21,1.383v1.05h-6.44v-1.05c0-0.653,0.146-1.423,0.438-2.312c0.292-0.886,0.706-1.819,1.243-2.8
		l2.659-4.55c0.373-0.653,0.631-1.266,0.771-1.838c0.14-0.571,0.21-1.067,0.21-1.487c0-1.026-0.146-1.831-0.438-2.415
		c-0.292-0.583-0.904-0.875-1.838-0.875c-0.678,0-1.214,0.339-1.609,1.016c-0.397,0.677-0.596,1.609-0.596,2.8h-6.79
		c0-1.283,0.204-2.497,0.612-3.641c0.407-1.143,0.997-2.14,1.769-2.992c0.77-0.852,1.709-1.522,2.816-2.013
		c1.107-0.489,2.374-0.734,3.798-0.734c1.609,0,2.986,0.198,4.13,0.595s2.077,0.963,2.801,1.697
		c0.723,0.735,1.254,1.634,1.592,2.695C751.718-67.178,751.887-65.993,751.887-64.687z M746.742-42.392
		c0,0.606-0.176,1.062-0.525,1.365c-0.35,0.303-0.887,0.454-1.609,0.454h-5.25v-7.034h7.386L746.742-42.392L746.742-42.392z"/>
</g>
<g>
	<path fill="#333333" d="M812.856-16.557h-5.529l-1.19-22.854h7.945L812.856-16.557z M813.697-8.786
		c0,0.606-0.176,1.062-0.525,1.364c-0.35,0.304-0.887,0.455-1.609,0.455h-5.25v-7.069h7.386L813.697-8.786L813.697-8.786z"/>
</g>
<g>
	
		<image overflow="visible" opacity="0.75" enable-background="new    " width="51" height="52" xlink:href="7D7ACCD.png"  transform="matrix(1 0 0 1 1103.5 -171.4609)">
	</image>
	<g>
		<g>
			<g>
				<path fill="#1E87C9" d="M1110.219-143.446c-1.313,0-2.375-1.063-2.375-2.375v-18.536c0-1.312,1.063-2.375,2.375-2.375
					c1.31,0,2.375,1.063,2.375,2.375v18.536C1112.594-144.51,1111.529-143.446,1110.219-143.446z"/>
			</g>
			<g>
				<path fill="#1E87C9" d="M1143.864-127.737h-18.532c-1.313,0-2.376-1.062-2.376-2.373s1.063-2.376,2.376-2.376h18.532
					c1.31,0,2.375,1.064,2.375,2.376S1145.176-127.737,1143.864-127.737z"/>
			</g>
			<g>
				<path fill="#1E87C9" d="M1122.635-140.68c-0.606,0-1.216-0.233-1.68-0.696c-0.929-0.927-0.929-2.431,0-3.359l13.104-13.107
					c0.93-0.927,2.432-0.927,3.361,0c0.925,0.928,0.925,2.432,0,3.358l-13.108,13.106
					C1123.847-140.913,1123.241-140.68,1122.635-140.68z"/>
			</g>
		</g>
	</g>
</g>
<g>
	
		<image overflow="visible" opacity="0.75" enable-background="new    " width="52" height="52" xlink:href="7D7ACCF.png"  transform="matrix(1 0 0 1 918.5 -205.4609)">
	</image>
	<g>
		<g>
			<g>
				<path fill="#1E87C9" d="M959.182-178.107c1.313,0,2.375-1.064,2.375-2.376v-18.536c0-1.312-1.062-2.373-2.375-2.373
					c-1.31,0-2.375,1.062-2.375,2.373v18.536C956.807-179.172,957.87-178.107,959.182-178.107z"/>
			</g>
			<g>
				<path fill="#1E87C9" d="M925.113-162.397h18.53c1.313,0,2.375-1.063,2.375-2.375s-1.062-2.375-2.375-2.375h-18.53
					c-1.311,0-2.375,1.063-2.375,2.375S923.804-162.397,925.113-162.397z"/>
			</g>
			<g>
				<path fill="#1E87C9" d="M946.768-175.342c0.608,0,1.217-0.232,1.681-0.696c0.929-0.927,0.929-2.431,0-3.359l-13.104-13.106
					c-0.93-0.929-2.434-0.929-3.361,0c-0.926,0.928-0.926,2.431,0,3.357l13.107,13.108
					C945.553-175.574,946.161-175.342,946.768-175.342z"/>
			</g>
		</g>
	</g>
</g>
<g>
	
		<image overflow="visible" opacity="0.75" enable-background="new    " width="174" height="135" xlink:href="7D7ACCA.png"  transform="matrix(1 0 0 1 949.5 -176.4609)">
	</image>
	<g>
		<path fill="none" stroke="#1E87C9" stroke-width="5" stroke-miterlimit="10" d="M1110.393-135.736h-64.303v-31.773
			c0-1.032-0.837-1.871-1.871-1.871h-86.065c-1.033,0-1.87,0.839-1.87,1.871v60.845c0,1.033,0.837,1.87,1.87,1.87h9.663
			l10.314,18.085l11.511-18.085h28.198v29.231c0,1.032,0.838,1.87,1.871,1.87h58.201l11.225,18.709l9.354-18.709h11.9
			c1.033,0,1.871-0.838,1.871-1.87v-58.303C1112.264-134.9,1111.426-135.736,1110.393-135.736z"/>
	</g>
</g>
<g>
	
		<image overflow="visible" opacity="0.75" enable-background="new    " width="31" height="45" xlink:href="7D7ACCB.png"  transform="matrix(1 0 0 1 984.5 -159.4609)">
	</image>
	<g>
		<g>
			<path fill="#333333" d="M1006.887-146.618c0,0.606-0.069,1.195-0.21,1.768c-0.14,0.571-0.314,1.119-0.524,1.645
				c-0.21,0.526-0.438,1.021-0.683,1.487c-0.245,0.468-0.484,0.888-0.718,1.261l-2.695,4.55c-0.257,0.327-0.455,0.729-0.595,1.207
				c-0.14,0.479-0.21,0.939-0.21,1.383v1.05h-6.44v-1.05c0-0.653,0.146-1.423,0.438-2.311c0.292-0.886,0.706-1.819,1.243-2.8
				l2.659-4.55c0.373-0.653,0.631-1.266,0.771-1.838c0.14-0.571,0.21-1.067,0.21-1.487c0-1.026-0.146-1.831-0.438-2.415
				c-0.292-0.583-0.904-0.875-1.838-0.875c-0.678,0-1.214,0.339-1.609,1.016c-0.397,0.677-0.596,1.609-0.596,2.8h-6.79
				c0-1.283,0.204-2.497,0.612-3.641c0.407-1.143,0.997-2.14,1.769-2.992c0.77-0.852,1.709-1.522,2.816-2.013
				c1.107-0.489,2.374-0.734,3.798-0.734c1.609,0,2.986,0.198,4.13,0.595s2.077,0.963,2.801,1.697
				c0.723,0.735,1.254,1.634,1.592,2.695S1006.887-147.925,1006.887-146.618z M1001.742-124.323c0,0.606-0.176,1.063-0.525,1.365
				s-0.887,0.454-1.609,0.454h-5.25v-7.034h7.386L1001.742-124.323L1001.742-124.323z"/>
		</g>
	</g>
</g>
<g>
	
		<image overflow="visible" opacity="0.75" enable-background="new    " width="21" height="45" xlink:href="7D7ACD5.png"  transform="matrix(1 0 0 1 1056.5 -125.4609)">
	</image>
	<g>
		<g>
			<path fill="#333333" d="M1067.855-98.488h-5.528l-1.19-22.854h7.945L1067.855-98.488z M1068.697-90.718
				c0,0.606-0.176,1.062-0.525,1.364c-0.35,0.304-0.887,0.455-1.609,0.455h-5.25v-7.069h7.386L1068.697-90.718L1068.697-90.718z"/>
		</g>
	</g>
</g>
<path fill="none" stroke="#1E87C9" stroke-width="5" stroke-miterlimit="10" d="M1112.321-75.563c0,1.032-0.838,1.87-1.871,1.87
	h-11.901l-9.354,18.709l-11.226-18.709h-58.2c-1.033,0-1.871-0.838-1.871-1.87v-58.303c0-1.034,0.838-1.87,1.871-1.87h90.682
	c1.033,0,1.871,0.836,1.871,1.87L1112.321-75.563L1112.321-75.563z"/>
<g>
	<path fill="none" stroke="#999999" stroke-width="4" stroke-miterlimit="10" d="M307.972,67.226c0,0.479-0.387,0.865-0.865,0.865
		h-56.843c-0.478,0-0.865-0.387-0.865-0.865V-6.861c0-0.478,0.389-0.866,0.865-0.866h56.843c0.479,0,0.865,0.388,0.865,0.866V67.226
		z"/>
	<line fill="none" stroke="#999999" stroke-width="4" stroke-miterlimit="10" x1="256.054" y1="13.722" x2="301.049" y2="13.722"/>
	<line fill="none" stroke="#999999" stroke-width="4" stroke-miterlimit="10" x1="256.054" y1="2.04" x2="301.049" y2="2.04"/>
	<line fill="none" stroke="#999999" stroke-width="4" stroke-miterlimit="10" x1="256.054" y1="24.971" x2="301.049" y2="24.971"/>
	<line fill="none" stroke="#999999" stroke-width="4" stroke-miterlimit="10" x1="256.188" y1="35.931" x2="301.184" y2="35.931"/>
	<line fill="none" stroke="#999999" stroke-width="4" stroke-miterlimit="10" x1="256.054" y1="46.747" x2="301.049" y2="46.747"/>
	<line fill="none" stroke="#212121" stroke-width="4" stroke-miterlimit="10" x1="256.054" y1="57.995" x2="301.049" y2="57.995"/>
	<path fill="#FB625D" stroke="#333333" stroke-width="2" stroke-miterlimit="10" d="M338.314-2.793
		c-0.232,0.6-0.907,0.898-1.508,0.666l-15.422-5.977c-0.601-0.232-0.898-0.907-0.667-1.508l2.808-7.246
		c0.233-0.599,0.909-0.897,1.508-0.665l15.423,5.977c0.602,0.232,0.899,0.908,0.666,1.508L338.314-2.793z"/>
	<path fill="#FECF04" stroke="#333333" stroke-width="2" stroke-miterlimit="10" d="M318.676-4.34
		c0.931-2.4,3.351-2.868,5.751-1.938l8.901,3.449c2.4,0.93,3.873,2.907,2.942,5.308l-17.165,44.299
		c-0.932,2.401-3.632,3.594-6.032,2.664l-8.901-3.449c-2.4-0.932-3.592-3.632-2.663-6.033L318.676-4.34z"/>
	<path fill="#FFF2B0" stroke="#333333" stroke-width="2" stroke-miterlimit="10" d="M318.171,48.121
		c0.443,1.005-12.468,12.029-14.143,11.378c-1.676-0.648-3.097-17.129-2.783-17.937C301.56,40.752,317.728,47.116,318.171,48.121z"
		/>
	
		<rect x="315.449" y="-6.45" transform="matrix(0.9324 0.3614 -0.3614 0.9324 28.6928 -113.9718)" fill="none" stroke="#333333" stroke-miterlimit="10" width="7.27" height="52.365"/>
	
		<rect x="319.393" y="-7.538" transform="matrix(0.9324 0.3613 -0.3613 0.9324 20.6229 -119.1168)" fill="#333333" stroke="#333333" stroke-width="2" stroke-miterlimit="10" width="18.87" height="6.251"/>
	<path fill="#333333" stroke="#333333" stroke-width="2" stroke-miterlimit="10" d="M302.545,55.03l5.732,2.221
		c0,0-3.359,2.764-4.249,2.248C303.186,59.01,302.6,55.342,302.545,55.03z"/>
</g>
<image overflow="visible" enable-background="new    " width="414" height="272" xlink:href="7D7ACD7.jpg"  transform="matrix(0.9976 0 0 0.9963 -534.0742 -141.5693)">
</image>
<g>
	<g>
		
			<image overflow="visible" opacity="0.5" width="46" height="46" xlink:href="7D7ACDA.png"  transform="matrix(1 0 0 1 654.124 1.6318)">
		</image>
		<g>
			<g>
				<g>
					<path fill="#1E87C9" d="M659.354,25.593c-1.313,0-2.375-1.063-2.375-2.375V4.682c0-1.312,1.063-2.375,2.375-2.375
						c1.31,0,2.375,1.063,2.375,2.375v18.536C661.729,24.53,660.664,25.593,659.354,25.593z"/>
				</g>
				<g>
					<path fill="#1E87C9" d="M692.999,41.302h-18.532c-1.313,0-2.376-1.062-2.376-2.373s1.063-2.376,2.376-2.376h18.532
						c1.31,0,2.375,1.064,2.375,2.376S694.311,41.302,692.999,41.302z"/>
				</g>
				<g>
					<path fill="#1E87C9" d="M671.77,28.36c-0.606,0-1.216-0.233-1.68-0.696c-0.929-0.927-0.929-2.431,0-3.359l13.104-13.107
						c0.93-0.927,2.432-0.927,3.361,0c0.925,0.928,0.925,2.432,0,3.358l-13.107,13.106C672.981,28.127,672.376,28.36,671.77,28.36z"
						/>
				</g>
			</g>
		</g>
	</g>
	<g>
		
			<image overflow="visible" opacity="0.5" width="46" height="46" xlink:href="7D7ACDB.png"  transform="matrix(1 0 0 1 469.124 -32.3682)">
		</image>
		<g>
			<g>
				<g>
					<path fill="#1E87C9" d="M508.316-9.068c1.313,0,2.375-1.064,2.375-2.376V-29.98c0-1.312-1.062-2.373-2.375-2.373
						c-1.31,0-2.375,1.062-2.375,2.373v18.536C505.941-10.132,507.005-9.068,508.316-9.068z"/>
				</g>
				<g>
					<path fill="#1E87C9" d="M474.248,6.642h18.53c1.313,0,2.375-1.063,2.375-2.375s-1.062-2.375-2.375-2.375h-18.53
						c-1.311,0-2.375,1.063-2.375,2.375S472.938,6.642,474.248,6.642z"/>
				</g>
				<g>
					<path fill="#1E87C9" d="M495.902-6.302c0.608,0,1.217-0.232,1.681-0.696c0.929-0.927,0.929-2.431,0-3.359l-13.104-13.106
						c-0.93-0.929-2.434-0.929-3.361,0c-0.926,0.928-0.926,2.431,0,3.357l13.107,13.108C494.688-6.535,495.296-6.302,495.902-6.302z
						"/>
				</g>
			</g>
		</g>
	</g>
	<g>
		
			<image overflow="visible" opacity="0.5" width="106" height="95" xlink:href="7D7ACDD.png"  transform="matrix(1 0 0 1 562.124 30.6318)">
		</image>
		<g>
			<path fill="none" stroke="#1E87C9" stroke-width="5" stroke-miterlimit="10" d="M661.398,93.475c0,1.033-0.838,1.871-1.871,1.871
				h-11.9l-9.354,18.709l-11.226-18.709h-58.201c-1.033,0-1.871-0.838-1.871-1.871V35.173c0-1.034,0.838-1.87,1.871-1.87h90.682
				c1.033,0,1.871,0.836,1.871,1.87V93.475z"/>
		</g>
	</g>
	<path fill="none" stroke="#1E87C9" stroke-width="5" stroke-miterlimit="10" d="M566.975,35.173c0-1.034,0.838-1.87,1.871-1.87
		h26.379V1.53c0-1.032-0.837-1.871-1.871-1.871h-86.065c-1.033,0-1.87,0.839-1.87,1.871v60.845c0,1.032,0.837,1.87,1.87,1.87h9.663
		l10.314,18.085l11.512-18.085h28.197V35.173L566.975,35.173z"/>
	<g>
		
			<image overflow="visible" opacity="0.5" width="25" height="39" xlink:href="222BF9A6.png"  transform="matrix(1 0 0 1 535.124 13.6318)">
		</image>
		<g>
			<g>
				<path fill="#333333" d="M556.021,22.421c0,0.606-0.069,1.195-0.21,1.768c-0.14,0.571-0.314,1.119-0.524,1.645
					s-0.438,1.021-0.683,1.487c-0.245,0.468-0.484,0.888-0.718,1.261l-2.695,4.55c-0.257,0.327-0.455,0.729-0.595,1.207
					c-0.14,0.479-0.21,0.939-0.21,1.383v1.05h-6.44v-1.05c0-0.653,0.146-1.423,0.438-2.312c0.292-0.886,0.706-1.819,1.243-2.8
					l2.659-4.55c0.373-0.653,0.631-1.266,0.771-1.838c0.14-0.571,0.21-1.067,0.21-1.487c0-1.026-0.146-1.831-0.438-2.415
					c-0.292-0.583-0.904-0.875-1.838-0.875c-0.678,0-1.214,0.339-1.609,1.016c-0.397,0.677-0.596,1.609-0.596,2.8h-6.79
					c0-1.283,0.204-2.497,0.612-3.641c0.407-1.143,0.997-2.14,1.769-2.992c0.77-0.852,1.709-1.522,2.816-2.013
					c1.107-0.489,2.374-0.734,3.798-0.734c1.609,0,2.986,0.198,4.13,0.595s2.077,0.963,2.801,1.697
					c0.723,0.735,1.254,1.634,1.592,2.695C555.853,19.93,556.021,21.115,556.021,22.421z M550.877,44.716
					c0,0.606-0.176,1.062-0.525,1.365c-0.35,0.303-0.887,0.454-1.609,0.454h-5.25v-7.034h7.386L550.877,44.716L550.877,44.716z"/>
			</g>
		</g>
	</g>
	<g>
		
			<image overflow="visible" opacity="0.5" width="15" height="39" xlink:href="222BF9A1.png"  transform="matrix(1 0 0 1 608.124 47.6318)">
		</image>
		<g>
			<g>
				<path fill="#333333" d="M616.991,70.551h-5.529l-1.19-22.854h7.945L616.991,70.551z M617.832,78.321
					c0,0.607-0.176,1.063-0.525,1.365s-0.887,0.455-1.609,0.455h-5.25v-7.07h7.386L617.832,78.321L617.832,78.321z"/>
			</g>
		</g>
	</g>
	<path fill="none" stroke="#1E87C9" stroke-width="5" stroke-miterlimit="10" d="M659.743,33.303H595.44h-26.379
		c-1.033,0-1.871,0.836-1.871,1.87v29.072v29.23c0,1.033,0.838,1.871,1.871,1.871h58.201l11.226,18.709l9.354-18.709h11.9
		c1.033,0,1.871-0.838,1.871-1.871V35.173C661.614,34.139,660.776,33.303,659.743,33.303z"/>
</g>
</svg>
