<?xml version="1.0" encoding="utf-8"?>
<!-- Generator: Adobe Illustrator 16.0.0, SVG Export Plug-In . SVG Version: 6.00 Build 0)  -->
<!DOCTYPE svg PUBLIC "-//W3C//DTD SVG 1.1//EN" "http://www.w3.org/Graphics/SVG/1.1/DTD/svg11.dtd">
<svg version="1.1" xmlns="http://www.w3.org/2000/svg" xmlns:xlink="http://www.w3.org/1999/xlink" x="0px" y="0px" width="400px"
	 height="400px" viewBox="144.5 -198.726 400 400" enable-background="new 144.5 -198.726 400 400" xml:space="preserve">
<g id="Layer_1">
	<g>
		<g>
			<g>
				<path fill="#1E87C9" d="M61.88-356.751c-1.313,0-2.375-1.063-2.375-2.375v-18.536c0-1.312,1.063-2.375,2.375-2.375
					c1.31,0,2.375,1.063,2.375,2.375v18.536C64.255-357.814,63.191-356.751,61.88-356.751z"/>
			</g>
			<g>
				<path fill="#1E87C9" d="M95.525-341.042H76.994c-1.313,0-2.377-1.062-2.377-2.373s1.064-2.376,2.377-2.376h18.531
					c1.311,0,2.375,1.064,2.375,2.376S96.838-341.042,95.525-341.042z"/>
			</g>
			<g>
				<path fill="#1E87C9" d="M74.297-353.984c-0.607,0-1.217-0.233-1.68-0.696c-0.93-0.927-0.93-2.431,0-3.359l13.104-13.107
					c0.93-0.927,2.432-0.927,3.361,0c0.926,0.928,0.926,2.432,0,3.358l-13.107,13.106C75.508-354.217,74.902-353.984,74.297-353.984
					z"/>
			</g>
		</g>
		<g>
			<g>
				<path fill="#1E87C9" d="M-89.157-391.412c1.313,0,2.375-1.064,2.375-2.376v-18.536c0-1.312-1.062-2.373-2.375-2.373
					c-1.31,0-2.375,1.062-2.375,2.373v18.536C-91.532-392.477-90.468-391.412-89.157-391.412z"/>
			</g>
			<g>
				<path fill="#1E87C9" d="M-123.225-375.702h18.53c1.313,0,2.375-1.063,2.375-2.375s-1.062-2.375-2.375-2.375h-18.53
					c-1.311,0-2.375,1.063-2.375,2.375S-124.535-375.702-123.225-375.702z"/>
			</g>
			<g>
				<path fill="#1E87C9" d="M-101.571-388.646c0.608,0,1.217-0.232,1.681-0.696c0.929-0.927,0.929-2.431,0-3.359l-13.104-13.106
					c-0.93-0.929-2.434-0.929-3.361,0c-0.926,0.928-0.926,2.431,0,3.357l13.107,13.108
					C-102.786-388.879-102.177-388.646-101.571-388.646z"/>
			</g>
		</g>
		<path fill="none" stroke="#1E87C9" stroke-width="5" stroke-miterlimit="10" d="M63.925-288.868c0,1.032-0.838,1.87-1.871,1.87
			h-11.9l-9.354,18.709l-11.226-18.709h-58.201c-1.033,0-1.871-0.838-1.871-1.87v-58.303c0-1.034,0.838-1.87,1.871-1.87h90.682
			c1.033,0,1.871,0.836,1.871,1.87V-288.868z"/>
		<path fill="none" stroke="#1E87C9" stroke-width="5" stroke-miterlimit="10" d="M-30.499-347.171c0-1.034,0.838-1.87,1.871-1.87
			h26.379v-31.773c0-1.032-0.837-1.871-1.871-1.871h-86.065c-1.033,0-1.87,0.839-1.87,1.871v60.845c0,1.033,0.837,1.87,1.87,1.87
			h9.663l10.314,18.085l11.512-18.085h28.197V-347.171L-30.499-347.171z"/>
		<g>
			<path fill="#333333" d="M-41.452-359.923c0,0.606-0.069,1.195-0.21,1.768c-0.14,0.571-0.314,1.119-0.524,1.645
				s-0.438,1.021-0.683,1.487c-0.245,0.468-0.484,0.888-0.718,1.261l-2.695,4.55c-0.257,0.327-0.455,0.729-0.595,1.207
				c-0.14,0.479-0.21,0.939-0.21,1.383v1.05h-6.44v-1.05c0-0.653,0.146-1.423,0.438-2.312c0.292-0.886,0.706-1.819,1.243-2.8
				l2.659-4.55c0.373-0.653,0.631-1.266,0.771-1.838c0.14-0.571,0.21-1.067,0.21-1.487c0-1.026-0.146-1.831-0.438-2.415
				c-0.292-0.583-0.904-0.875-1.838-0.875c-0.678,0-1.214,0.339-1.609,1.016c-0.397,0.677-0.596,1.609-0.596,2.8h-6.79
				c0-1.283,0.204-2.497,0.612-3.641c0.407-1.143,0.997-2.14,1.769-2.992c0.77-0.852,1.709-1.522,2.816-2.013
				c1.107-0.489,2.374-0.734,3.798-0.734c1.609,0,2.986,0.198,4.13,0.595s2.077,0.963,2.801,1.697
				c0.723,0.735,1.254,1.634,1.592,2.695C-41.621-362.414-41.452-361.229-41.452-359.923z M-46.596-337.628
				c0,0.606-0.176,1.062-0.525,1.365c-0.35,0.303-0.887,0.454-1.609,0.454h-5.25v-7.034h7.386L-46.596-337.628L-46.596-337.628z"/>
		</g>
		<g>
			<path fill="#333333" d="M19.518-311.793h-5.529l-1.19-22.854h7.945L19.518-311.793z M20.359-304.022
				c0,0.606-0.176,1.062-0.525,1.364c-0.35,0.304-0.887,0.455-1.609,0.455h-5.25v-7.069h7.386L20.359-304.022L20.359-304.022z"/>
		</g>
	</g>
	<g>
		<path fill="none" stroke="#999999" stroke-width="5" stroke-miterlimit="10" d="M-29.38,80.702c0,0.668-0.541,1.209-1.209,1.209
			h-79.443c-0.668,0-1.209-0.541-1.209-1.209V-22.843c0-0.668,0.542-1.21,1.209-1.21h79.443c0.668,0,1.209,0.542,1.209,1.21V80.702z
			"/>
		<line fill="none" stroke="#999999" stroke-width="5" stroke-miterlimit="10" x1="-101.941" y1="5.923" x2="-39.055" y2="5.923"/>
		
			<line fill="none" stroke="#999999" stroke-width="5" stroke-miterlimit="10" x1="-101.941" y1="-10.403" x2="-39.055" y2="-10.403"/>
		
			<line fill="none" stroke="#999999" stroke-width="5" stroke-miterlimit="10" x1="-101.941" y1="21.645" x2="-39.055" y2="21.645"/>
		
			<line fill="none" stroke="#999999" stroke-width="5" stroke-miterlimit="10" x1="-101.753" y1="36.963" x2="-38.866" y2="36.963"/>
		
			<line fill="none" stroke="#999999" stroke-width="5" stroke-miterlimit="10" x1="-101.941" y1="52.079" x2="-39.055" y2="52.079"/>
		
			<line fill="none" stroke="#212121" stroke-width="5" stroke-miterlimit="10" x1="-101.941" y1="67.801" x2="-39.055" y2="67.801"/>
		<path fill="#FB625D" stroke="#333333" stroke-width="2" stroke-miterlimit="10" d="M13.026-17.158
			c-0.324,0.838-1.268,1.255-2.106,0.93l-21.554-8.353c-0.84-0.324-1.256-1.268-0.932-2.107l3.924-10.126
			c0.326-0.838,1.27-1.255,2.107-0.93l21.555,8.353c0.84,0.325,1.256,1.269,0.931,2.107L13.026-17.158z"/>
		<path fill="#FECF04" stroke="#333333" stroke-width="2" stroke-miterlimit="10" d="M-14.42-19.32
			c1.301-3.354,4.683-4.009,8.038-2.708l12.439,4.82c3.355,1.3,5.414,4.062,4.113,7.418l-23.99,61.913
			c-1.302,3.355-5.076,5.021-8.431,3.723l-12.44-4.821c-3.354-1.302-5.021-5.075-3.722-8.431L-14.42-19.32z"/>
		<path fill="#FFF2B0" stroke="#333333" stroke-width="2" stroke-miterlimit="10" d="M-15.126,54
			c0.62,1.403-17.424,16.811-19.766,15.901c-2.342-0.906-4.327-23.938-3.889-25.067C-38.342,43.7-15.745,52.596-15.126,54z"/>
		
			<rect x="-18.929" y="-22.268" transform="matrix(0.9324 0.3614 -0.3614 0.9324 4.2412 5.974)" fill="none" stroke="#333333" stroke-miterlimit="10" width="10.159" height="73.185"/>
		
			<rect x="-13.417" y="-23.789" transform="matrix(0.9324 0.3613 -0.3613 0.9324 -7.0332 -1.2285)" fill="#333333" stroke="#333333" stroke-width="2" stroke-miterlimit="10" width="26.372" height="8.736"/>
		<path fill="#333333" stroke="#333333" stroke-width="2" stroke-miterlimit="10" d="M-36.965,63.656l8.012,3.104
			c0,0-4.694,3.863-5.938,3.141C-36.069,69.219-36.888,64.092-36.965,63.656z"/>
	</g>
	<g>
		<g>
			
				<image overflow="visible" opacity="0.5" width="46" height="46" xlink:href="90A4F6CB.png"  transform="matrix(1 0 0 1 38.6929 -182.665)">
			</image>
			<g>
				<g>
					<g>
						<path fill="#1E87C9" d="M43.922-158.704c-1.313,0-2.375-1.063-2.375-2.375v-18.536c0-1.312,1.063-2.375,2.375-2.375
							c1.31,0,2.375,1.063,2.375,2.375v18.536C46.297-159.767,45.233-158.704,43.922-158.704z"/>
					</g>
					<g>
						<path fill="#1E87C9" d="M77.568-142.995H59.036c-1.313,0-2.376-1.062-2.376-2.373s1.063-2.376,2.376-2.376h18.533
							c1.309,0,2.375,1.064,2.375,2.376S78.879-142.995,77.568-142.995z"/>
					</g>
					<g>
						<path fill="#1E87C9" d="M56.338-155.937c-0.606,0-1.216-0.233-1.68-0.696c-0.929-0.927-0.929-2.431,0-3.359l13.104-13.107
							c0.93-0.927,2.432-0.927,3.362,0c0.924,0.928,0.924,2.432,0,3.358l-13.108,13.106C57.55-156.17,56.945-155.937,56.338-155.937
							z"/>
					</g>
				</g>
			</g>
		</g>
		<g>
			
				<image overflow="visible" opacity="0.5" width="46" height="46" xlink:href="90A4F6CC.png"  transform="matrix(1 0 0 1 -146.3071 -216.665)">
			</image>
			<g>
				<g>
					<g>
						<path fill="#1E87C9" d="M-107.115-193.365c1.313,0,2.375-1.064,2.375-2.376v-18.536c0-1.312-1.062-2.373-2.375-2.373
							c-1.31,0-2.375,1.062-2.375,2.373v18.536C-109.49-194.429-108.426-193.365-107.115-193.365z"/>
					</g>
					<g>
						<path fill="#1E87C9" d="M-141.183-177.655h18.53c1.313,0,2.375-1.063,2.375-2.375s-1.062-2.375-2.375-2.375h-18.53
							c-1.311,0-2.375,1.063-2.375,2.375S-142.493-177.655-141.183-177.655z"/>
					</g>
					<g>
						<path fill="#1E87C9" d="M-119.529-190.599c0.608,0,1.217-0.232,1.681-0.696c0.929-0.927,0.929-2.431,0-3.359l-13.104-13.106
							c-0.93-0.929-2.434-0.929-3.361,0c-0.926,0.928-0.926,2.431,0,3.357l13.107,13.108
							C-120.744-190.832-120.135-190.599-119.529-190.599z"/>
					</g>
				</g>
			</g>
		</g>
		<g>
			
				<image overflow="visible" opacity="0.5" width="106" height="95" xlink:href="90A4F6CD.png"  transform="matrix(1 0 0 1 -53.3071 -153.665)">
			</image>
			<g>
				<path fill="none" stroke="#1E87C9" stroke-width="5" stroke-miterlimit="10" d="M45.967-90.821c0,1.032-0.838,1.87-1.871,1.87
					h-11.9l-9.354,18.71l-11.226-18.71h-58.201c-1.033,0-1.871-0.838-1.871-1.87v-58.303c0-1.034,0.838-1.87,1.871-1.87h90.682
					c1.033,0,1.871,0.836,1.871,1.87V-90.821z"/>
			</g>
		</g>
		<path fill="none" stroke="#1E87C9" stroke-width="5" stroke-miterlimit="10" d="M-48.457-149.124c0-1.034,0.838-1.87,1.871-1.87
			h26.379v-31.773c0-1.032-0.837-1.871-1.871-1.871h-86.065c-1.033,0-1.87,0.839-1.87,1.871v60.845c0,1.032,0.837,1.87,1.87,1.87
			h9.663l10.314,18.085l11.512-18.085h28.197V-149.124L-48.457-149.124z"/>
		<g>
			
				<image overflow="visible" opacity="0.5" width="25" height="39" xlink:href="90A4F6CF.png"  transform="matrix(1 0 0 1 -80.3071 -170.665)">
			</image>
			<g>
				<g>
					<path fill="#333333" d="M-59.41-161.876c0,0.606-0.069,1.195-0.21,1.768c-0.14,0.571-0.314,1.119-0.524,1.645
						s-0.438,1.021-0.683,1.487c-0.245,0.468-0.484,0.888-0.718,1.261l-2.695,4.55c-0.257,0.327-0.455,0.729-0.595,1.207
						c-0.14,0.479-0.21,0.939-0.21,1.383v1.05h-6.44v-1.05c0-0.653,0.146-1.423,0.438-2.312c0.292-0.886,0.706-1.819,1.243-2.8
						l2.659-4.55c0.373-0.653,0.631-1.266,0.771-1.838c0.14-0.571,0.21-1.067,0.21-1.487c0-1.026-0.146-1.831-0.438-2.415
						c-0.292-0.583-0.904-0.875-1.838-0.875c-0.678,0-1.214,0.339-1.609,1.016c-0.397,0.677-0.596,1.609-0.596,2.8h-6.79
						c0-1.283,0.204-2.497,0.612-3.641c0.407-1.143,0.997-2.14,1.769-2.992c0.77-0.852,1.709-1.522,2.816-2.013
						c1.107-0.489,2.374-0.734,3.798-0.734c1.609,0,2.986,0.198,4.13,0.595s2.077,0.963,2.801,1.697
						c0.723,0.735,1.254,1.634,1.592,2.695C-59.579-164.367-59.41-163.182-59.41-161.876z M-64.554-139.581
						c0,0.606-0.176,1.062-0.525,1.365c-0.35,0.303-0.887,0.454-1.609,0.454h-5.25v-7.034h7.386L-64.554-139.581L-64.554-139.581z"
						/>
				</g>
			</g>
		</g>
		<g>
			
				<image overflow="visible" opacity="0.5" width="15" height="39" xlink:href="90A4F6CA.png"  transform="matrix(1 0 0 1 -7.3071 -136.665)">
			</image>
			<g>
				<g>
					<path fill="#333333" d="M1.56-113.746h-5.529L-5.16-136.6h7.945L1.56-113.746z M2.401-105.976c0,0.606-0.176,1.063-0.525,1.365
						s-0.887,0.455-1.609,0.455h-5.25v-7.07h7.386L2.401-105.976L2.401-105.976z"/>
				</g>
			</g>
		</g>
		<path fill="none" stroke="#1E87C9" stroke-width="5" stroke-miterlimit="10" d="M44.312-150.994h-64.303H-46.37
			c-1.033,0-1.871,0.836-1.871,1.87v29.072v29.23c0,1.032,0.838,1.87,1.871,1.87h58.201l11.226,18.71l9.354-18.71h11.9
			c1.033,0,1.871-0.838,1.871-1.87v-58.303C46.183-150.158,45.345-150.994,44.312-150.994z"/>
	</g>
</g>
<g id="Layer_2">
	<g>
		
			<image overflow="visible" opacity="0.2" width="317" height="318" xlink:href="90A4F6D8.png"  transform="matrix(1 0 0 1 186.5 -120.0151)">
		</image>
		<g>
			
				<circle fill="none" stroke="#C3C3C3" stroke-width="8" stroke-linecap="round" stroke-miterlimit="10" stroke-dasharray="0,26.6148" cx="343.998" cy="37.93" r="148.25"/>
		</g>
	</g>
	<path d="M879.779-24.249"/>
	<g>
		
			<image overflow="visible" opacity="0.2" width="69" height="119" xlink:href="90A4F6D9.png"  transform="matrix(1 0 0 1 310.5 -21.0151)">
		</image>
		<g>
			<path fill="#C3C3C3" d="M372.456,17.076V5.005c0-11.372-12.742-20.59-28.458-20.59c-15.717,0-28.457,9.218-28.457,20.59v12.07
				h17.303v3.096h-17.303v10.164h17.303v3.095h-17.303v10.478h17.303v3.096h-17.303v22.779c0,11.37,12.74,20.589,28.457,20.589
				c15.716,0,28.458-9.219,28.458-20.589V47.004H356.01v-3.096h16.446V33.43H356.01v-3.095h16.446V20.171H356.01v-3.096H372.456z"/>
		</g>
	</g>
	<g>
		
			<image overflow="visible" opacity="0.2" width="27" height="38" xlink:href="90A4F6DA.png"  transform="matrix(1 0 0 1 331.5 87.9849)">
		</image>
		<g>
			<path fill="#C3C3C3" d="M351.192,116.262c0,1.248-1.009,2.258-2.256,2.258h-9.877c-1.247,0-2.256-1.01-2.256-2.258V95.667
				c0-1.248,1.009-2.256,2.256-2.256h9.877c1.247,0,2.256,1.008,2.256,2.256V116.262z"/>
		</g>
	</g>
	<g>
		
			<image overflow="visible" opacity="0.2" width="71" height="43" xlink:href="90A4F6DB.png"  transform="matrix(1 0 0 1 309.5 66.9849)">
		</image>
		<g>
			<path fill="#C3C3C3" d="M373.415,73.089c0,29.765-29.066,29.067-29.066,29.067s-29.767,1.697-29.767-29.768"/>
		</g>
	</g>
	<g>
		
			<image overflow="visible" opacity="0.2" width="91" height="30" xlink:href="E7D7AA54.png"  transform="matrix(1 0 0 1 299.5 58.9849)">
		</image>
		<g>
			<path fill="#C3C3C3" d="M383.078,74.502c0,3.74-3.032,6.772-6.772,6.772H311.69c-3.739,0-6.773-3.032-6.773-6.772v-2.82
				c0-3.74,3.034-6.773,6.773-6.773h64.615c3.74,0,6.772,3.033,6.772,6.773V74.502z"/>
		</g>
	</g>
	<g>
		<g opacity="0.2">
			<path d="M368.599-3.942"/>
		</g>
		<g>
			<path fill="#C4C4C4" d="M367.599-4.942"/>
		</g>
	</g>
	<g>
		<g opacity="0.2">
			<path d="M321.397-4.276"/>
		</g>
		<g>
			<path fill="#C4C4C4" d="M320.397-5.276"/>
		</g>
	</g>
	<g>
		
			<image overflow="visible" opacity="0.2" width="47" height="23" xlink:href="E7D7AA6E.png"  transform="matrix(1 0 0 1 321.5 -38.0151)">
		</image>
		<g>
			<path fill="none" stroke="#C3C3C3" stroke-width="4" stroke-linecap="round" stroke-miterlimit="10" d="M329.211-25.025
				c0,0,13.958-11.257,29.743,0.018"/>
		</g>
	</g>
	<g>
		
			<image overflow="visible" opacity="0.2" width="65" height="25" xlink:href="E7D7AA71.png"  transform="matrix(1 0 0 1 312.5 -50.0151)">
		</image>
		<g>
			<path fill="none" stroke="#C3C3C3" stroke-width="4" stroke-linecap="round" stroke-miterlimit="10" d="M320.012-34.58
				c0,0,22.578-18.224,48.143,0.068"/>
		</g>
	</g>
	<g>
		
			<image overflow="visible" opacity="0.2" width="113" height="122" xlink:href="E7D7AA72.png"  transform="matrix(1 0 0 1 288.5 -193.0151)">
		</image>
		<g>
			<g>
				<circle fill="#1B87C9" cx="343.998" cy="-157.678" r="30.289"/>
				<path fill="#1B87C9" d="M366.205-131.938c-6.037,5.416-13.773,8.669-22.207,8.669s-16.17-3.253-22.207-8.669
					c-16.26,8.974-27.557,31.477-28.041,52.993h100.496C393.764-100.462,382.467-122.966,366.205-131.938z"/>
			</g>
		</g>
	</g>
	<g>
		
			<image overflow="visible" opacity="0.2" width="113" height="122" xlink:href="E7D7AA73.png"  transform="matrix(1 0 0 1 140.5 42.9849)">
		</image>
		<g>
			<g>
				<circle fill="#1B87C9" cx="195.748" cy="79.165" r="30.289"/>
				<path fill="#1B87C9" d="M217.955,104.905c-6.037,5.416-13.773,8.67-22.207,8.67s-16.17-3.254-22.207-8.67
					c-16.26,8.975-27.557,31.477-28.041,52.994h100.496C245.514,136.381,234.217,113.877,217.955,104.905z"/>
			</g>
		</g>
	</g>
	<g>
		
			<image overflow="visible" opacity="0.2" width="113" height="122" xlink:href="E7D7AA75.png"  transform="matrix(1 0 0 1 436.5 42.9849)">
		</image>
		<g>
			<g>
				<circle fill="#1B87C9" cx="492.248" cy="79.165" r="30.289"/>
				<path fill="#1B87C9" d="M514.455,104.905c-6.037,5.416-13.773,8.67-22.207,8.67s-16.17-3.254-22.207-8.67
					c-16.26,8.975-27.557,31.477-28.041,52.994h100.496C542.014,136.381,530.717,113.877,514.455,104.905z"/>
			</g>
		</g>
	</g>
	<g>
		
			<circle fill="none" stroke="#666666" stroke-width="8" stroke-linecap="round" stroke-miterlimit="10" stroke-dasharray="0,26.6148" cx="1067.465" cy="28.221" r="148.25"/>
	</g>
	<path fill="#ECECEC" d="M1096.882,63.38c0,29.765-29.066,29.067-29.066,29.067s-29.767,1.697-29.767-29.768"/>
	<path fill="#ECECEC" d="M1106.545,64.793c0,3.74-3.032,6.772-6.772,6.772h-64.615c-3.739,0-6.773-3.032-6.773-6.772v-2.82
		c0-3.74,3.034-6.773,6.773-6.773h64.615c3.74,0,6.772,3.033,6.772,6.773V64.793z"/>
	<path fill="#ECECEC" d="M1074.659,106.553c0,1.248-1.009,2.258-2.256,2.258h-9.877c-1.247,0-2.256-1.01-2.256-2.258V85.958
		c0-1.248,1.009-2.256,2.256-2.256h9.877c1.247,0,2.256,1.008,2.256,2.256V106.553z"/>
	<path fill="#ECECEC" d="M1091.065-14.651"/>
	<path fill="#ECECEC" d="M1043.864-14.985"/>
	<path fill="#ECECEC" d="M1095.923,7.367v-12.07c0-11.372-12.742-20.59-28.458-20.59c-15.717,0-28.457,9.218-28.457,20.59v12.07
		h17.303v3.096h-17.303v10.164h17.303v3.095h-17.303v10.478h17.303v3.096h-17.303v22.779c0,11.37,12.74,20.589,28.457,20.589
		c15.716,0,28.458-9.219,28.458-20.589V37.295h-16.446v-3.096h16.446V23.721h-16.446v-3.095h16.446V10.462h-16.446V7.367H1095.923z"
		/>
	<path fill="none" stroke="#ECECEC" stroke-width="4" stroke-linecap="round" stroke-miterlimit="10" d="M1052.678-34.734
		c0,0,13.958-11.257,29.743,0.018"/>
	<path fill="none" stroke="#ECECEC" stroke-width="4" stroke-linecap="round" stroke-miterlimit="10" d="M1043.479-44.289
		c0,0,22.578-18.224,48.143,0.068"/>
	<g>
		<circle fill="#00D39C" cx="1067.465" cy="-167.387" r="30.289"/>
		<path fill="#00D39C" d="M1089.672-141.646c-6.037,5.416-13.773,8.669-22.207,8.669s-16.17-3.253-22.207-8.669
			c-16.26,8.974-27.557,31.477-28.041,52.993h100.496C1117.23-110.171,1105.934-132.675,1089.672-141.646z"/>
	</g>
	<g>
		<circle fill="#00D39C" cx="919.215" cy="69.456" r="30.289"/>
		<path fill="#00D39C" d="M941.422,95.196c-6.037,5.416-13.773,8.67-22.207,8.67s-16.17-3.254-22.207-8.67
			c-16.26,8.975-27.557,31.477-28.041,52.994h100.496C968.98,126.672,957.684,104.168,941.422,95.196z"/>
	</g>
	<g>
		<circle fill="#00D39C" cx="1215.715" cy="69.456" r="30.289"/>
		<path fill="#00D39C" d="M1237.922,95.196c-6.037,5.416-13.773,8.67-22.207,8.67s-16.17-3.254-22.207-8.67
			c-16.26,8.975-27.557,31.477-28.041,52.994h100.496C1265.48,126.672,1254.184,104.168,1237.922,95.196z"/>
	</g>
</g>
</svg>
