<?xml version="1.0" encoding="utf-8"?>
<!-- Generator: Adobe Illustrator 16.0.0, SVG Export Plug-In . SVG Version: 6.00 Build 0)  -->
<!DOCTYPE svg PUBLIC "-//W3C//DTD SVG 1.1//EN" "http://www.w3.org/Graphics/SVG/1.1/DTD/svg11.dtd">
<svg version="1.1" id="강의" xmlns="http://www.w3.org/2000/svg" xmlns:xlink="http://www.w3.org/1999/xlink" x="0px" y="0px"
	 width="50px" height="25px" viewBox="0.708 2.5 50 25" enable-background="new 0.708 2.5 50 25" xml:space="preserve">
<g>
	<path fill="#FFFFFF" d="M-49.694,9.57h4.271c0.182,0,0.324,0.075,0.429,0.225c0.104,0.149,0.152,0.292,0.143,0.428h2.693V9.706
		c0-0.272-0.057-0.449-0.17-0.53c-0.114-0.082-0.279-0.146-0.497-0.191c-0.209-0.027-0.358-0.075-0.448-0.143
		c-0.091-0.068-0.137-0.152-0.137-0.252c0-0.127,0.052-0.222,0.156-0.286c0.104-0.063,0.22-0.095,0.347-0.095h1.333
		c0.163,0,0.304,0.07,0.421,0.211c0.117,0.141,0.177,0.292,0.177,0.456v5.373c0,0.436-0.082,0.767-0.245,0.993
		c-0.163,0.226-0.376,0.34-0.639,0.34h-0.299v-1.727h-2.788c-0.091,0-0.177-0.048-0.258-0.143c-0.081-0.095-0.123-0.211-0.123-0.347
		c0-0.136,0.041-0.252,0.123-0.347c0.082-0.095,0.172-0.143,0.272-0.143h2.775v-1.673h-2.72c-0.046,0-0.088-0.011-0.129-0.034
		c-0.041-0.022-0.08-0.057-0.116-0.102c-0.208,0.49-0.492,0.948-0.85,1.374c-0.358,0.426-0.746,0.807-1.163,1.142
		c-0.426,0.345-0.866,0.644-1.319,0.898s-0.875,0.45-1.265,0.584c-0.1,0.045-0.204,0.063-0.313,0.055
		c-0.109-0.01-0.19-0.063-0.245-0.163c-0.055-0.072-0.075-0.166-0.062-0.279c0.013-0.113,0.075-0.197,0.184-0.251
		c0.345-0.172,0.716-0.395,1.116-0.667c0.399-0.272,0.78-0.576,1.142-0.912c0.363-0.326,0.689-0.687,0.979-1.081
		s0.499-0.805,0.626-1.231h-3.441c-0.136,0-0.243-0.05-0.32-0.15c-0.077-0.1-0.115-0.204-0.115-0.313c0-0.1,0.038-0.208,0.115-0.327
		C-49.978,9.629-49.857,9.57-49.694,9.57z M-47.015,18.207c0-0.363,0.073-0.708,0.218-1.034c0.145-0.327,0.344-0.612,0.599-0.856
		c0.263-0.236,0.569-0.426,0.918-0.571c0.349-0.146,0.732-0.218,1.149-0.218c0.399,0,0.773,0.072,1.122,0.218
		c0.349,0.146,0.655,0.335,0.918,0.571c0.254,0.244,0.458,0.529,0.612,0.856c0.154,0.326,0.231,0.671,0.231,1.034
		c0,0.372-0.077,0.718-0.231,1.041c-0.154,0.322-0.358,0.605-0.612,0.85c-0.263,0.235-0.569,0.424-0.918,0.564
		c-0.349,0.14-0.723,0.21-1.122,0.21c-0.408,0-0.789-0.07-1.143-0.21c-0.354-0.141-0.658-0.329-0.912-0.564
		c-0.263-0.244-0.467-0.527-0.612-0.85C-46.941,18.925-47.015,18.579-47.015,18.207z M-45.817,18.207
		c0,0.471,0.166,0.87,0.497,1.197c0.331,0.326,0.728,0.49,1.19,0.49c0.453,0,0.848-0.164,1.183-0.49
		c0.335-0.327,0.503-0.727,0.503-1.197c0-0.463-0.168-0.861-0.503-1.197c-0.335-0.335-0.73-0.503-1.183-0.503
		c-0.462,0-0.859,0.167-1.19,0.503C-45.652,17.346-45.817,17.744-45.817,18.207z"/>
	<path fill="#FFFFFF" d="M-39.058,13.011c0-0.399,0.077-0.778,0.231-1.136c0.154-0.358,0.372-0.669,0.653-0.932
		c0.272-0.263,0.594-0.474,0.966-0.632c0.372-0.159,0.771-0.238,1.197-0.238c0.417,0,0.809,0.079,1.177,0.238
		c0.367,0.159,0.687,0.37,0.958,0.632c0.272,0.263,0.488,0.574,0.646,0.932s0.238,0.737,0.238,1.136c0,0.417-0.08,0.805-0.238,1.163
		c-0.159,0.358-0.374,0.665-0.646,0.918c-0.272,0.264-0.591,0.467-0.958,0.612c-0.368,0.146-0.76,0.218-1.177,0.218
		c-0.435,0-0.839-0.074-1.21-0.225c-0.372-0.149-0.694-0.355-0.966-0.619c-0.272-0.264-0.485-0.571-0.639-0.925
		C-38.98,13.8-39.058,13.419-39.058,13.011z M-37.833,13.011c0,0.571,0.172,1.036,0.517,1.394c0.344,0.358,0.78,0.537,1.306,0.537
		c0.517,0,0.947-0.178,1.292-0.537c0.345-0.358,0.517-0.823,0.517-1.394c0-0.544-0.175-1.004-0.524-1.381
		c-0.349-0.376-0.777-0.564-1.285-0.564c-0.526,0-0.961,0.186-1.306,0.558C-37.662,11.996-37.833,12.458-37.833,13.011z
		 M-29.468,8.862v9.848c0,0.454-0.08,0.791-0.238,1.015c-0.159,0.221-0.37,0.332-0.632,0.332h-0.286V9.679
		c0-0.263-0.054-0.436-0.163-0.517s-0.272-0.145-0.49-0.19c-0.218-0.027-0.372-0.075-0.462-0.143
		c-0.091-0.068-0.136-0.157-0.136-0.265c0-0.118,0.052-0.211,0.157-0.279c0.104-0.068,0.22-0.102,0.347-0.102h1.305
		c0.163,0,0.304,0.072,0.422,0.217C-29.527,8.545-29.468,8.699-29.468,8.862z"/>
	<path fill="#FFFFFF" d="M-25.088,12.045h5.223v-1.578h-4.924c-0.109,0-0.209-0.045-0.299-0.136
		c-0.092-0.091-0.137-0.208-0.137-0.354c0-0.136,0.045-0.252,0.137-0.347c0.09-0.095,0.189-0.143,0.299-0.143h5.536
		c0.172,0,0.308,0.059,0.407,0.177c0.101,0.118,0.15,0.272,0.15,0.462v2.122c0,0.208-0.058,0.383-0.171,0.523
		c-0.112,0.14-0.274,0.211-0.483,0.211h-4.271v1.278c0,0.118,0.022,0.202,0.067,0.252c0.046,0.05,0.123,0.075,0.232,0.075h4.584
		c0.127,0,0.232,0.052,0.318,0.156c0.086,0.104,0.129,0.211,0.129,0.319c0,0.119-0.043,0.229-0.129,0.334
		c-0.086,0.104-0.191,0.156-0.318,0.156h-2.436v1.877h4.747c0.153,0,0.272,0.055,0.354,0.163c0.081,0.109,0.122,0.214,0.122,0.313
		c0,0.117-0.043,0.229-0.129,0.332c-0.086,0.104-0.202,0.158-0.347,0.158h-10.664c-0.136,0-0.25-0.053-0.34-0.158
		c-0.091-0.104-0.136-0.223-0.136-0.359c0-0.1,0.045-0.199,0.136-0.299c0.09-0.1,0.204-0.148,0.34-0.148h4.773v-1.877h-1.631
		c-0.272,0-0.482-0.085-0.627-0.253c-0.145-0.167-0.217-0.392-0.217-0.673v-1.292c0-0.19-0.031-0.317-0.095-0.381
		c-0.063-0.063-0.164-0.118-0.3-0.163c-0.037-0.009-0.076-0.021-0.123-0.034c-0.045-0.013-0.086-0.034-0.123-0.061
		c-0.036-0.027-0.065-0.063-0.088-0.109c-0.021-0.046-0.033-0.109-0.033-0.19c0-0.127,0.05-0.218,0.148-0.272
		C-25.303,12.072-25.198,12.045-25.088,12.045z"/>
	<path fill="#FFFFFF" d="M-14.848,14.222h10.664c0.154,0,0.272,0.054,0.354,0.163c0.082,0.109,0.123,0.208,0.123,0.299
		c0,0.109-0.043,0.214-0.129,0.319s-0.202,0.157-0.347,0.157H-8.93v0.218c0,0.299-0.033,0.552-0.102,0.755
		c-0.068,0.204-0.156,0.36-0.265,0.469h2.489c0.162,0,0.283,0.065,0.359,0.197c0.077,0.133,0.116,0.256,0.116,0.375V18.9
		c0,0.209-0.009,0.393-0.026,0.552c-0.019,0.159-0.041,0.271-0.068,0.333h0.068c0.082,0,0.149,0.059,0.203,0.177
		c0.055,0.118,0.082,0.228,0.082,0.327s-0.031,0.202-0.095,0.306c-0.063,0.104-0.146,0.157-0.245,0.157h-5.143
		c-0.026,0.072-0.088,0.154-0.184,0.245s-0.193,0.136-0.291,0.136h-0.422v-3.115c0-0.244-0.025-0.402-0.074-0.476
		c-0.051-0.073-0.156-0.131-0.32-0.177c-0.117-0.027-0.217-0.07-0.299-0.129c-0.08-0.06-0.123-0.156-0.123-0.293
		c0-0.135,0.053-0.227,0.158-0.271c0.104-0.045,0.215-0.068,0.332-0.068h2.707v-1.441h-4.773c-0.137,0-0.25-0.055-0.34-0.163
		c-0.092-0.108-0.137-0.218-0.137-0.327c0-0.1,0.045-0.199,0.137-0.299C-15.096,14.272-14.983,14.222-14.848,14.222z
		 M-12.399,11.012c0-0.335,0.063-0.658,0.19-0.966s0.313-0.576,0.558-0.803c0.246-0.235,0.549-0.421,0.912-0.558
		c0.362-0.136,0.775-0.204,1.237-0.204c0.437,0,0.83,0.07,1.185,0.211c0.354,0.141,0.656,0.324,0.91,0.551
		c0.254,0.236,0.449,0.506,0.586,0.81c0.135,0.304,0.203,0.624,0.203,0.959c0,0.335-0.068,0.653-0.203,0.952
		c-0.137,0.299-0.332,0.562-0.586,0.789c-0.244,0.236-0.546,0.419-0.904,0.551c-0.357,0.132-0.754,0.197-1.189,0.197
		c-0.471,0-0.889-0.065-1.251-0.197c-0.363-0.131-0.667-0.315-0.912-0.551c-0.245-0.227-0.428-0.49-0.551-0.789
		C-12.337,11.665-12.399,11.347-12.399,11.012z M-7.502,17.566h-3.781v1.918c0,0.037-0.002,0.07-0.007,0.103
		s-0.007,0.062-0.007,0.088c-0.01,0.027-0.014,0.06-0.014,0.095h3.809V17.566z M-11.203,11.012c0,0.453,0.147,0.825,0.442,1.115
		c0.294,0.29,0.714,0.435,1.258,0.435c0.525,0,0.939-0.145,1.238-0.435s0.449-0.662,0.449-1.115c0-0.436-0.152-0.807-0.457-1.116
		c-0.304-0.308-0.713-0.462-1.23-0.462c-0.544,0-0.963,0.15-1.258,0.449C-11.055,10.182-11.203,10.558-11.203,11.012z"/>
</g>
<g>
	<path fill="#FFFFFF" d="M2.5,10.496h4.466c0.187,0,0.345,0.077,0.476,0.231c0.131,0.154,0.196,0.306,0.196,0.455h2.548v-0.532
		c0-0.28-0.042-0.459-0.126-0.539c-0.084-0.08-0.238-0.147-0.462-0.203C9.364,9.88,9.196,9.829,9.093,9.753
		C8.991,9.679,8.939,9.59,8.939,9.488c0-0.14,0.058-0.245,0.175-0.315C9.231,9.103,9.359,9.068,9.5,9.068h1.47
		c0.168,0,0.329,0.077,0.483,0.231c0.154,0.154,0.231,0.32,0.231,0.497v5.544c0,0.448-0.105,0.796-0.315,1.043
		c-0.21,0.247-0.483,0.37-0.819,0.37h-0.364v-1.75H7.414c-0.094,0-0.196-0.051-0.308-0.153s-0.168-0.224-0.168-0.364
		c0-0.149,0.056-0.275,0.168-0.378c0.112-0.103,0.219-0.154,0.322-0.154h2.758v-1.708H7.483c-0.028,0-0.054-0.002-0.077-0.007
		s-0.049-0.021-0.077-0.049c-0.224,0.504-0.518,0.976-0.882,1.414c-0.364,0.439-0.761,0.835-1.19,1.19
		c-0.429,0.355-0.875,0.661-1.337,0.917c-0.462,0.258-0.903,0.451-1.323,0.582c-0.122,0.037-0.259,0.049-0.413,0.035
		c-0.154-0.015-0.264-0.078-0.329-0.189c-0.075-0.074-0.103-0.17-0.084-0.287c0.019-0.117,0.098-0.207,0.238-0.273
		c0.364-0.168,0.744-0.392,1.141-0.672c0.396-0.28,0.772-0.592,1.127-0.938c0.345-0.354,0.656-0.735,0.931-1.141
		c0.275-0.406,0.474-0.833,0.595-1.281h-3.36c-0.14,0-0.257-0.053-0.35-0.161s-0.14-0.222-0.14-0.343
		c0-0.103,0.049-0.219,0.147-0.35C2.198,10.561,2.332,10.496,2.5,10.496z M5.173,19.413c0-0.382,0.077-0.741,0.231-1.078
		c0.154-0.336,0.371-0.629,0.651-0.881c0.28-0.252,0.611-0.451,0.994-0.596s0.798-0.217,1.246-0.217
		c0.429,0,0.833,0.072,1.211,0.217s0.712,0.344,1.001,0.596c0.28,0.252,0.502,0.545,0.665,0.881
		c0.163,0.337,0.245,0.696,0.245,1.078c0,0.383-0.082,0.742-0.245,1.078s-0.385,0.631-0.665,0.883
		c-0.289,0.252-0.623,0.447-1.001,0.588c-0.378,0.14-0.782,0.21-1.211,0.21c-0.439,0-0.85-0.07-1.232-0.21
		c-0.383-0.141-0.714-0.336-0.994-0.588c-0.28-0.252-0.5-0.547-0.658-0.883C5.252,20.155,5.173,19.796,5.173,19.413z M6.686,19.413
		c0,0.495,0.154,0.903,0.462,1.226c0.308,0.321,0.69,0.483,1.148,0.483c0.448,0,0.828-0.162,1.141-0.483
		c0.313-0.322,0.469-0.73,0.469-1.226c0-0.484-0.156-0.893-0.469-1.225c-0.313-0.331-0.693-0.497-1.141-0.497
		c-0.458,0-0.84,0.166-1.148,0.497C6.839,18.521,6.686,18.929,6.686,19.413z"/>
	<path fill="#FFFFFF" d="M13.377,14.065c0-0.42,0.084-0.814,0.252-1.183s0.401-0.693,0.7-0.973c0.29-0.271,0.632-0.488,1.029-0.651
		c0.396-0.163,0.819-0.245,1.267-0.245c0.438,0,0.854,0.082,1.246,0.245c0.392,0.163,0.732,0.38,1.022,0.651
		c0.289,0.28,0.52,0.604,0.693,0.973c0.172,0.369,0.259,0.763,0.259,1.183c0,0.439-0.086,0.843-0.259,1.211
		c-0.173,0.369-0.404,0.688-0.693,0.959c-0.29,0.271-0.63,0.48-1.022,0.631c-0.392,0.148-0.808,0.224-1.246,0.224
		c-0.448,0-0.871-0.077-1.267-0.231c-0.397-0.154-0.74-0.371-1.029-0.65c-0.298-0.271-0.532-0.59-0.7-0.959
		S13.377,14.486,13.377,14.065z M14.917,14.065c0,0.56,0.168,1.027,0.504,1.4s0.737,0.561,1.204,0.561
		c0.466,0,0.865-0.189,1.197-0.568c0.331-0.377,0.497-0.841,0.497-1.393c0-0.261-0.049-0.513-0.147-0.756s-0.222-0.453-0.371-0.63
		c-0.159-0.177-0.341-0.32-0.546-0.427c-0.206-0.107-0.416-0.161-0.63-0.161c-0.495,0-0.903,0.196-1.225,0.588
		C15.078,13.072,14.917,13.534,14.917,14.065z M23.499,9.81v10.164c0,0.477-0.1,0.833-0.301,1.07
		c-0.201,0.238-0.469,0.357-0.805,0.357h-0.35V10.649c0-0.28-0.043-0.459-0.127-0.539c-0.084-0.08-0.229-0.143-0.434-0.189
		c-0.252-0.028-0.43-0.08-0.531-0.154c-0.104-0.075-0.154-0.168-0.154-0.28c0-0.131,0.059-0.233,0.175-0.308
		s0.245-0.112,0.386-0.112h1.428c0.186,0,0.352,0.079,0.496,0.238S23.499,9.632,23.499,9.81z"/>
	<path fill="#FFFFFF" d="M27.84,13.156h5.236v-1.68h-4.943c-0.111,0-0.219-0.051-0.322-0.154c-0.102-0.103-0.152-0.229-0.152-0.378
		s0.051-0.275,0.152-0.378c0.104-0.103,0.211-0.154,0.322-0.154H33.9c0.188,0,0.344,0.063,0.471,0.189
		c0.125,0.126,0.188,0.296,0.188,0.511v2.268c0,0.214-0.07,0.396-0.209,0.546c-0.141,0.149-0.318,0.224-0.533,0.224h-4.27v1.288
		c0,0.112,0.023,0.201,0.07,0.267c0.047,0.064,0.135,0.098,0.266,0.098h4.564c0.131,0,0.248,0.061,0.35,0.182
		c0.104,0.121,0.154,0.234,0.154,0.336c0,0.121-0.051,0.24-0.154,0.357c-0.102,0.117-0.219,0.175-0.35,0.175h-2.422v1.651h4.844
		c0.178,0,0.311,0.062,0.398,0.183c0.09,0.122,0.133,0.233,0.133,0.336c0,0.14-0.049,0.265-0.146,0.371
		c-0.098,0.107-0.227,0.161-0.385,0.161H25.725c-0.148,0-0.272-0.057-0.371-0.168c-0.098-0.112-0.146-0.238-0.146-0.378
		c0-0.112,0.049-0.224,0.146-0.336c0.099-0.112,0.222-0.169,0.371-0.169h4.873v-1.651H29.1c-0.281,0-0.523-0.101-0.729-0.301
		s-0.309-0.446-0.309-0.735v-1.302c0-0.196-0.02-0.329-0.063-0.399c-0.041-0.07-0.129-0.124-0.258-0.161
		c-0.039-0.009-0.082-0.021-0.135-0.035c-0.051-0.014-0.1-0.035-0.146-0.063c-0.047-0.028-0.084-0.067-0.111-0.119
		c-0.029-0.051-0.043-0.119-0.043-0.203c0-0.131,0.066-0.226,0.197-0.287C27.635,13.186,27.746,13.156,27.84,13.156z"/>
	<path fill="#FFFFFF" d="M38.324,15.27h11.145c0.168,0,0.299,0.062,0.393,0.183C49.953,15.573,50,15.676,50,15.76
		c0,0.121-0.049,0.237-0.146,0.351c-0.098,0.111-0.227,0.168-0.385,0.168h-4.844v0.195c0,0.262-0.031,0.49-0.092,0.686
		c-0.061,0.196-0.137,0.355-0.23,0.477h2.52c0.168,0,0.299,0.072,0.393,0.217s0.141,0.277,0.141,0.398v1.834
		c0,0.215-0.012,0.4-0.035,0.554s-0.049,0.272-0.078,0.356h0.016c0.084,0,0.168,0.057,0.252,0.168
		c0.084,0.113,0.125,0.22,0.125,0.322c0,0.112-0.039,0.231-0.119,0.357s-0.174,0.189-0.287,0.189h-5.305
		c-0.029,0.064-0.102,0.148-0.219,0.252c-0.115,0.102-0.24,0.153-0.371,0.153h-0.572v-3.29c0-0.271-0.021-0.443-0.064-0.518
		c-0.041-0.074-0.143-0.141-0.301-0.196c-0.139-0.028-0.246-0.069-0.322-0.126c-0.074-0.057-0.111-0.154-0.111-0.294
		c0-0.149,0.064-0.249,0.195-0.301s0.258-0.077,0.379-0.077h2.66v-1.357h-4.873c-0.148,0-0.271-0.059-0.371-0.176
		c-0.098-0.117-0.146-0.23-0.146-0.343s0.049-0.222,0.146-0.329C38.053,15.323,38.176,15.27,38.324,15.27z M40.816,12.008
		c0-0.355,0.072-0.691,0.217-1.008c0.145-0.317,0.354-0.597,0.623-0.84c0.271-0.233,0.596-0.42,0.973-0.56
		c0.379-0.14,0.807-0.21,1.281-0.21c0.439,0,0.848,0.072,1.227,0.217c0.377,0.145,0.701,0.334,0.973,0.567
		c0.27,0.243,0.484,0.522,0.643,0.84c0.16,0.317,0.238,0.649,0.238,0.994c0,0.354-0.078,0.688-0.238,1.001
		c-0.158,0.313-0.373,0.585-0.643,0.819c-0.281,0.233-0.607,0.418-0.98,0.553s-0.779,0.203-1.219,0.203
		c-0.475,0-0.904-0.067-1.287-0.203s-0.709-0.32-0.98-0.553c-0.262-0.233-0.465-0.506-0.609-0.819S40.816,12.362,40.816,12.008z
		 M45.885,18.686h-3.641v2.017c0,0.064-0.002,0.109-0.006,0.133c-0.006,0.023-0.012,0.072-0.021,0.146h3.668V18.686z M42.328,12.008
		c0,0.448,0.15,0.821,0.449,1.12c0.299,0.299,0.676,0.448,1.133,0.448c0.439,0,0.811-0.156,1.113-0.469
		c0.303-0.313,0.455-0.679,0.455-1.099s-0.148-0.791-0.447-1.113c-0.299-0.322-0.672-0.483-1.121-0.483
		c-0.447,0-0.822,0.156-1.127,0.469C42.48,11.193,42.328,11.569,42.328,12.008z"/>
</g>
</svg>
