<?xml version="1.0" encoding="utf-8"?>
<!-- Generator: Adobe Illustrator 16.0.0, SVG Export Plug-In . SVG Version: 6.00 Build 0)  -->
<!DOCTYPE svg PUBLIC "-//W3C//DTD SVG 1.1//EN" "http://www.w3.org/Graphics/SVG/1.1/DTD/svg11.dtd">
<svg version="1.1" id="Layer_1" xmlns="http://www.w3.org/2000/svg" xmlns:xlink="http://www.w3.org/1999/xlink" x="0px" y="0px"
	 width="246.667px" height="283.332px" viewBox="0 0 246.667 283.332" enable-background="new 0 0 246.667 283.332"
	 xml:space="preserve">
<path fill="none" stroke="#ECECEC" stroke-width="4" stroke-miterlimit="10" d="M241.309,171.819c0,2.528-2.054,4.578-4.582,4.578
	H8.907c-2.537,0-4.581-2.05-4.581-4.578V10.01c0-2.528,2.044-4.577,4.581-4.577h227.82c2.528,0,4.582,2.048,4.582,4.577V171.819z"/>
<g>
	<g>
		<path fill="#1F87C9" d="M146.665,59.607c0,14.296-11.59,25.884-25.887,25.884c-14.291,0-25.881-11.588-25.881-25.884
			c0-14.293,11.591-25.884,25.881-25.884C135.075,33.723,146.665,45.313,146.665,59.607z"/>
		<path fill="#1F87C9" d="M114.413,82.611c0,0-18.216-0.479-33.979,24.068c0,0-11.91,19.255,3.606,30.086
			c0,0,28.407,18.17,70.644,3.25c0,0,17.21-7.222,14.683-19.855c0,0-1.199-28.744-40.677-37.888c0,0,0.486,0.62,0.38,2.666
			c-0.08,1.546-3.014,6.115-5.073,8.145l4.671,34.975l-6.619,9.778l-1.381,0.066v-0.05l-7.293-9.668l5.211-35.102
			c0,0-3.205-4.316-4.219-7.501C113.739,83.558,114.485,82.532,114.413,82.611z"/>
	</g>
</g>
<polygon fill="#ECECEC" points="162.235,280.28 84.227,280.28 61.571,144.344 184.063,144.344 "/>
<path fill="#ECECEC" d="M184.067,277.773c0,1.387-0.967,2.507-2.166,2.507H63.734c-1.2,0-2.167-1.12-2.167-2.507V265.23
	c0-1.387,0.967-2.514,2.167-2.514h118.167c1.199,0,2.166,1.127,2.166,2.514V277.773z"/>
<path fill="#ECECEC" d="M202.179,147.504c0,2.02-1.26,3.658-2.813,3.658H46.269c-1.553,0-2.813-1.639-2.813-3.658v-18.29
	c0-2.02,1.26-3.656,2.813-3.656h153.098c1.553,0,2.813,1.636,2.813,3.656V147.504z"/>
</svg>
