<?xml version="1.0" encoding="utf-8"?>
<!-- Generator: Adobe Illustrator 16.0.0, SVG Export Plug-In . SVG Version: 6.00 Build 0)  -->
<!DOCTYPE svg PUBLIC "-//W3C//DTD SVG 1.1//EN" "http://www.w3.org/Graphics/SVG/1.1/DTD/svg11.dtd">
<svg version="1.1" xmlns="http://www.w3.org/2000/svg" xmlns:xlink="http://www.w3.org/1999/xlink" x="0px" y="0px"
	 width="241.167px" height="92.167px" viewBox="0 0 241.167 92.167" enable-background="new 0 0 241.167 92.167"
	 xml:space="preserve">
<g id="Layer_1">
	<g>
		<path fill="#1B87C9" d="M201.165,18.759c0,0-1.751,4.23-4.165,7.459v56.446c0,0,1,2.319,5,4.048v4.478c0,0,17-0.029,34-0.029
			v-4.448c0,0,3.865-0.955,5-4.185v-56.4c0,0-2.613-3.411-3.539-7.414L201.165,18.759z"/>
		<rect x="199" y="17" fill="#1B87C9" width="41" height="3"/>
		<rect x="199" y="90" fill="#1B87C9" width="40" height="2"/>
		<path fill="none" stroke="#1B87C9" stroke-width="3.9742" stroke-miterlimit="10" d="M220.234,18.9l4.063-12.959
			c0,0,0.896-1.977,2.33-2.27l10.934-0.952"/>
	</g>
	<g display="none">
		<path display="inline" fill="#FFFFFF" d="M218.219,38.815h-0.13l-7.332,3.958l-1.103-4.347l9.214-4.931h4.866V75.67h-5.515V38.815
			z"/>
	</g>
	<g display="none">
		<path display="inline" fill="#FFFFFF" d="M205.826,75.67v-3.504l4.477-4.349c10.771-10.251,15.638-15.701,15.703-22.059
			c0-4.283-2.076-8.241-8.371-8.241c-3.828,0-7.007,1.946-8.954,3.568l-1.816-4.022c2.919-2.466,7.072-4.283,11.938-4.283
			c9.084,0,12.911,6.229,12.911,12.263c0,7.787-5.644,14.08-14.534,22.645l-3.374,3.114v0.13h18.945v4.737H205.826z"/>
	</g>
	<g display="none">
		<path display="inline" fill="#FFFFFF" d="M207.188,69.115c1.622,1.039,5.386,2.661,9.343,2.661c7.333,0,9.604-4.672,9.539-8.176
			c-0.065-5.903-5.387-8.435-10.901-8.435h-3.18v-4.281h3.18c4.152,0,9.408-2.142,9.408-7.138c0-3.374-2.142-6.359-7.397-6.359
			c-3.374,0-6.618,1.493-8.435,2.791l-1.493-4.153c2.207-1.622,6.489-3.245,11.03-3.245c8.306,0,12.068,4.931,12.068,10.057
			c0,4.348-2.595,8.047-7.785,9.928v0.129c5.19,1.039,9.408,4.932,9.408,10.837c0,6.748-5.256,12.651-15.378,12.651
			c-4.737,0-8.89-1.492-10.966-2.854L207.188,69.115z"/>
	</g>
	<g display="none">
		<path display="inline" fill="#FFFFFF" d="M223.474,75.67V64.186h-19.594v-3.765l18.817-26.926h6.163v26.213h5.905v4.478h-5.905
			V75.67H223.474z M223.474,59.708v-14.08c0-2.206,0.066-4.412,0.195-6.618h-0.195c-1.298,2.466-2.335,4.282-3.503,6.229
			l-10.317,14.34v0.13H223.474z"/>
	</g>
	<g>
		<path fill="#FFFFFF" d="M231.001,38.296H214.91l-1.622,10.836c0.973-0.131,1.882-0.26,3.439-0.26c3.244,0,6.488,0.715,9.084,2.271
			c3.309,1.882,6.034,5.516,6.034,10.836c0,8.241-6.554,14.404-15.702,14.404c-4.607,0-8.5-1.298-10.512-2.596l1.428-4.346
			c1.752,1.038,5.19,2.335,9.019,2.335c5.386,0,9.993-3.503,9.993-9.149c-0.065-5.45-3.699-9.343-12.134-9.343
			c-2.4,0-4.282,0.259-5.839,0.454l2.725-20.243h20.179V38.296z"/>
	</g>
	<g display="none">
		<path display="inline" fill="#FFFFFF" d="M229.898,37.518c-1.168-0.064-2.661,0-4.283,0.26
			c-8.954,1.492-13.691,8.045-14.664,14.988h0.195c2.011-2.661,5.515-4.867,10.187-4.867c7.461,0,12.716,5.385,12.716,13.625
			c0,7.722-5.255,14.858-14.015,14.858c-9.019,0-14.923-7.007-14.923-17.973c0-8.306,2.985-14.858,7.137-19.011
			c3.504-3.439,8.176-5.58,13.496-6.229c1.688-0.26,3.114-0.324,4.153-0.324V37.518z M228.274,61.85
			c0-6.034-3.437-9.668-8.693-9.668c-3.438,0-6.618,2.141-8.176,5.19c-0.389,0.649-0.648,1.492-0.648,2.531
			c0.13,6.941,3.309,12.066,9.278,12.066C224.967,71.97,228.274,67.884,228.274,61.85z"/>
	</g>
	<g>
		<path fill="#212121" d="M-1.026,139.232c3.073,0,5.93,0.58,8.569,1.739c2.639,1.161,4.916,2.784,6.829,4.872
			c1.914,2.088,3.408,4.567,4.482,7.438c1.072,2.871,1.609,5.989,1.609,9.352c0,3.191-0.494,6.164-1.48,8.918
			s-2.379,5.133-4.176,7.135c-1.798,2-3.944,3.58-6.438,4.742c-2.495,1.158-5.25,1.738-8.265,1.738h-33.756v-13.746H-3.81
			c1.449,0,2.841-0.174,4.176-0.521c1.333-0.348,2.479-0.883,3.437-1.609c0.957-0.725,1.725-1.639,2.305-2.74
			c0.579-1.102,0.87-2.406,0.87-3.916c0-2.84-0.928-5.045-2.784-6.611c-1.857-1.566-4.176-2.349-6.96-2.349h-8.787
			c-3.712,0-7.077-0.405-10.092-1.218c-3.017-0.813-5.583-2.088-7.699-3.828c-2.118-1.74-3.756-3.987-4.916-6.743
			c-1.161-2.754-1.74-6.046-1.74-9.874c0-2.726,0.463-5.351,1.392-7.874c0.927-2.522,2.232-4.74,3.915-6.654
			c1.682-1.914,3.711-3.451,6.09-4.611c2.377-1.16,5.016-1.74,7.917-1.74h30.625v14.441h-24.969c-1.392,0-2.712,0.088-3.958,0.262
			c-1.248,0.174-2.335,0.508-3.263,1c-0.929,0.494-1.653,1.205-2.175,2.132c-0.522,0.929-0.783,2.175-0.783,3.741
			c0,1.856,0.609,3.408,1.827,4.654c1.218,1.248,2.899,1.871,5.046,1.871H-1.026z"/>
		<path fill="#212121" d="M44.822,124.789H25.856v-13.658h51.33v13.658H58.046v60.378H44.822V124.789z"/>
		<path fill="#212121" d="M98.5,172.64h36.888v12.527H84.493v-74.036h50.895v12.527H98.5v18.271h36.888v12.354H98.5V172.64z"/>
		<path fill="#212121" d="M176.451,111.131c2.784,0,5.407,0.521,7.873,1.566c2.465,1.043,4.597,2.479,6.395,4.307
			c1.798,1.826,3.22,3.958,4.264,6.395c1.044,2.436,1.565,5.045,1.565,7.829v3.22c0,2.783-0.521,5.394-1.565,7.83
			c-1.044,2.436-2.466,4.567-4.264,6.394c-1.798,1.827-3.93,3.263-6.395,4.307c-2.466,1.045-5.089,1.566-7.873,1.566h-18.705v30.623
			h-13.05v-74.036H176.451z M157.746,124.094v17.486h16.53c3.132,0,5.407-0.768,6.829-2.305c1.421-1.536,2.132-3.668,2.132-6.395
			c0-2.609-0.726-4.727-2.175-6.352c-1.451-1.623-3.713-2.436-6.786-2.436H157.746z"/>
	</g>
	<g>
		<path fill="#333333" d="M30.379,77.645c-1.273,1.37-2.9,2.533-4.882,3.488c-1.982,0.954-4.075,1.528-6.278,1.725
			c-1.175,0.098-2.485,0.098-3.928,0c-1.444-0.099-2.839-0.257-4.185-0.477c-1.347-0.221-2.569-0.466-3.671-0.734
			c-1.101-0.27-1.897-0.526-2.386-0.771c-0.734-0.343-1.175-0.6-1.322-0.771c-0.146-0.172-0.172-0.526-0.073-1.064l0.514-5.434
			c0.048-0.391,0.171-0.636,0.367-0.734c0.195-0.098,0.562-0.023,1.101,0.221c0.587,0.245,1.419,0.526,2.497,0.844
			c1.076,0.319,2.276,0.588,3.598,0.808c1.321,0.221,2.654,0.356,4.001,0.404c1.346,0.05,2.557-0.048,3.634-0.294
			c1.419-0.342,2.57-0.795,3.451-1.358c0.881-0.562,1.579-1.223,2.093-1.982c0.514-0.758,0.868-1.59,1.064-2.496
			c0.195-0.905,0.293-1.847,0.293-2.826c0-0.93-0.6-2.203-1.799-3.818c-1.2-1.615-2.925-3.084-5.176-4.405
			c-2.742-1.615-5.116-3.12-7.122-4.516c-2.008-1.395-3.66-2.777-4.956-4.148c-1.297-1.369-2.265-2.79-2.9-4.258
			C3.677,43.577,3.36,41.962,3.36,40.2c0-2.006,0.428-3.928,1.285-5.764c0.856-1.835,2.031-3.438,3.524-4.809
			c1.492-1.37,3.279-2.46,5.36-3.268c2.08-0.808,4.369-1.211,6.865-1.211c2.544,0,4.637,0.16,6.278,0.478
			c1.639,0.319,3.047,0.697,4.222,1.138c0.538,0.196,0.868,0.404,0.991,0.625c0.122,0.22,0.134,0.502,0.037,0.844l-0.955,4.699
			c-0.099,0.54-0.257,0.906-0.477,1.102c-0.22,0.196-0.6,0.196-1.138,0c-0.734-0.245-1.542-0.477-2.423-0.698
			c-0.881-0.22-1.788-0.404-2.717-0.55c-0.93-0.147-1.824-0.245-2.68-0.294c-0.857-0.048-1.628-0.024-2.313,0.074
			c-2.742,0.44-4.662,1.334-5.764,2.68c-1.101,1.347-1.652,3.047-1.652,5.103c0,1.224,0.636,2.582,1.909,4.075
			c1.272,1.494,3.132,2.973,5.58,4.442c3.083,1.861,5.617,3.524,7.599,4.993c1.982,1.468,3.548,2.876,4.699,4.222
			c1.149,1.347,1.957,2.705,2.423,4.074c0.465,1.371,0.698,2.864,0.698,4.479C34.711,70.939,33.267,74.61,30.379,77.645z"/>
		<path fill="#333333" d="M62.978,33.959v46.77c0,0.587-0.294,0.881-0.881,0.881h-6.535c-0.587,0-0.881-0.294-0.881-0.881v-46.77
			H40.438c-0.246,0-0.453-0.085-0.624-0.257c-0.172-0.171-0.257-0.404-0.257-0.697V27.13c0-0.244,0.084-0.452,0.257-0.624
			c0.171-0.171,0.378-0.257,0.624-0.257h36.858c0.244,0,0.452,0.086,0.624,0.257c0.171,0.172,0.257,0.38,0.257,0.624v5.874
			c0,0.637-0.293,0.955-0.881,0.955H62.978z"/>
		<path fill="#333333" d="M87.648,81.683c-0.979,0-1.567-0.086-1.762-0.257c-0.196-0.172-0.293-0.796-0.293-1.872V28.232
			c0-0.979,0.085-1.553,0.257-1.726c0.171-0.171,0.722-0.257,1.652-0.257h26.065c0.538,0,0.856,0.086,0.955,0.257
			c0.097,0.172,0.146,0.478,0.146,0.918v5.433c0,0.49-0.073,0.82-0.22,0.991c-0.146,0.172-0.44,0.257-0.881,0.257H93.668v14.979
			h18.943c0.734,0,1.102,0.392,1.102,1.175v5.506c0,0.833-0.367,1.249-1.102,1.249H93.668v16.74h20.778
			c0.685,0,1.028,0.416,1.028,1.248v5.506c0,0.783-0.343,1.175-1.028,1.175H87.648z"/>
		<path fill="#333333" d="M136.179,59.143v21.513c0,0.636-0.319,0.954-0.954,0.954h-6.535c-0.587,0-0.881-0.318-0.881-0.954V27.13
			c0-0.244,0.085-0.452,0.257-0.624c0.171-0.171,0.378-0.257,0.624-0.257h14.831c5.433,0,9.729,1.322,12.886,3.965
			s4.735,6.755,4.735,12.335c0,2.692-0.453,5.079-1.358,7.159c-0.906,2.081-2.179,3.817-3.818,5.213
			c-1.64,1.395-3.573,2.448-5.8,3.157c-2.228,0.71-4.662,1.064-7.305,1.064H136.179z M136.179,33.959v17.548h5.947
			c3.279,0,5.874-0.697,7.783-2.093c1.909-1.395,2.863-3.708,2.863-6.938c0-2.79-0.759-4.907-2.276-6.351
			c-1.518-1.443-3.5-2.166-5.947-2.166H136.179z"/>
	</g>
</g>
<g id="Layer_2" display="none">
	<g display="inline">
		<path fill="none" stroke="#1B87C9" stroke-width="2" stroke-miterlimit="10" d="M202.306,20.477c0,0-1.306,3.986-4.306,7.029
			v53.188c0,0,1,2.186,5,3.814v4.22c0,0,15-0.028,32-0.028v-4.191c0,0,4-0.9,5-3.942V27.42c0,0-2.542-3.215-3.413-6.986
			L202.306,20.477z"/>
		<rect x="200" y="19" fill="#1B87C9" width="38" height="2"/>
		<rect x="201" y="87" fill="#1B87C9" width="37" height="3"/>
		<path fill="none" stroke="#1B87C9" stroke-width="3.7448" stroke-miterlimit="10" d="M220.655,20.61l3.83-12.211
			c0,0,0.843-1.863,2.194-2.139l10.302-0.897"/>
	</g>
	<text transform="matrix(1 0 0 1 206.2544 70.334)" fill="#1B87C9" font-family="'MyriadPro-Regular'" font-size="50">1</text>
	<text transform="matrix(1 0 0 1 206.2544 70.334)" fill="#1B87C9" font-family="'MyriadPro-Regular'" font-size="50">2</text>
	<text transform="matrix(1 0 0 1 206.2544 70.334)" fill="#1B87C9" font-family="'MyriadPro-Regular'" font-size="50">3</text>
	<text transform="matrix(1 0 0 1 206.2544 70.334)" fill="#1B87C9" font-family="'MyriadPro-Regular'" font-size="50">4</text>
	
		<text transform="matrix(1 0 0 1 206.2544 70.334)" display="inline" fill="#1B87C9" font-family="'MyriadPro-Regular'" font-size="50">5</text>
</g>
</svg>
