<?xml version="1.0" encoding="utf-8"?>
<!-- Generator: Adobe Illustrator 16.0.0, SVG Export Plug-In . SVG Version: 6.00 Build 0)  -->
<!DOCTYPE svg PUBLIC "-//W3C//DTD SVG 1.1//EN" "http://www.w3.org/Graphics/SVG/1.1/DTD/svg11.dtd">
<svg version="1.1" id="Layer_1" xmlns="http://www.w3.org/2000/svg" xmlns:xlink="http://www.w3.org/1999/xlink" x="0px" y="0px"
	 width="469px" height="552px" viewBox="0 0 469 552" enable-background="new 0 0 469 552" xml:space="preserve">
<path fill="#FCCC00" d="M348.192,62.23H95.825c-3.314,0-6,2.686-6,6V487.77c0,3.314,2.686,6,6,6h252.367c3.314,0,6-2.686,6-6V68.23
	C354.192,64.917,351.507,62.23,348.192,62.23z M173.158,84.519c0-2.209,1.791-4,4-4h89.701c2.209,0,4,1.791,4,4v8.092
	c0,2.209-1.791,4-4,4h-89.701c-2.209,0-4-1.791-4-4V84.519z M222.008,481.885c-13.648,0-24.712-11.063-24.712-24.712
	s11.064-24.713,24.712-24.713c13.649,0,24.713,11.064,24.713,24.713S235.657,481.885,222.008,481.885z M322.009,415.759
	c0,3.313-2.687,6-6,6h-188c-3.313,0-6-2.687-6-6V126.609c0-3.313,2.687-6,6-6h188c3.313,0,6,2.687,6,6V415.759z"/>
<circle fill="#ECECEC" stroke="#FCCC00" stroke-width="5" stroke-miterlimit="10" cx="222.009" cy="457.172" r="16.471"/>
<path fill="none" stroke="#FCCC00" stroke-width="5" stroke-miterlimit="10" d="M188.207,180.125c0,2.692-2.183,4.875-4.875,4.875
	h-40.627c-2.692,0-4.875-2.183-4.875-4.875v-40.627c0-2.692,2.183-4.875,4.875-4.875h40.627c2.692,0,4.875,2.183,4.875,4.875
	V180.125z"/>
<path fill="none" stroke="#FCCC00" stroke-width="5" stroke-miterlimit="10" d="M247.738,180.125c0,2.692-2.184,4.875-4.875,4.875
	h-40.626c-2.693,0-4.875-2.183-4.875-4.875v-40.627c0-2.692,2.183-4.875,4.875-4.875h40.626c2.691,0,4.875,2.183,4.875,4.875
	V180.125z"/>
<path fill="#ECECEC" stroke="#ECECEC" stroke-width="5" stroke-miterlimit="10" d="M188.207,239.125
	c0,2.692-2.183,4.875-4.875,4.875h-40.627c-2.692,0-4.875-2.183-4.875-4.875v-40.627c0-2.692,2.183-4.875,4.875-4.875h40.627
	c2.692,0,4.875,2.183,4.875,4.875V239.125z"/>
<path fill="none" stroke="#ECECEC" stroke-width="5" stroke-miterlimit="10" d="M247.738,239.125c0,2.692-2.184,4.875-4.875,4.875
	h-40.626c-2.693,0-4.875-2.183-4.875-4.875v-40.627c0-2.692,2.183-4.875,4.875-4.875h40.626c2.691,0,4.875,2.183,4.875,4.875
	V239.125z"/>
<path fill="none" stroke="#FCCC00" stroke-width="5" stroke-miterlimit="10" d="M306.188,239.125c0,2.692-2.184,4.875-4.875,4.875
	h-40.627c-2.693,0-4.875-2.183-4.875-4.875v-40.627c0-2.692,2.182-4.875,4.875-4.875h40.627c2.691,0,4.875,2.183,4.875,4.875
	V239.125z"/>
<path fill="none" stroke="#ECECEC" stroke-width="5" stroke-miterlimit="10" d="M188.207,298.313c0,2.692-2.183,4.875-4.875,4.875
	h-40.627c-2.692,0-4.875-2.183-4.875-4.875v-40.627c0-2.692,2.183-4.875,4.875-4.875h40.627c2.692,0,4.875,2.183,4.875,4.875
	V298.313z"/>
<path fill="none" stroke="#FCCC00" stroke-width="5" stroke-miterlimit="10" d="M247.738,298.313c0,2.692-2.184,4.875-4.875,4.875
	h-40.626c-2.693,0-4.875-2.183-4.875-4.875v-40.627c0-2.692,2.183-4.875,4.875-4.875h40.626c2.691,0,4.875,2.183,4.875,4.875
	V298.313z"/>
<path fill="none" stroke="#ECECEC" stroke-width="5" stroke-miterlimit="10" d="M306.188,298.313c0,2.692-2.184,4.875-4.875,4.875
	h-40.627c-2.693,0-4.875-2.183-4.875-4.875v-40.627c0-2.692,2.182-4.875,4.875-4.875h40.627c2.691,0,4.875,2.183,4.875,4.875
	V298.313z"/>
<path fill="none" stroke="#ECECEC" stroke-width="5" stroke-miterlimit="10" d="M188.207,357.813c0,2.692-2.183,4.875-4.875,4.875
	h-40.627c-2.692,0-4.875-2.183-4.875-4.875v-40.627c0-2.692,2.183-4.875,4.875-4.875h40.627c2.692,0,4.875,2.183,4.875,4.875
	V357.813z"/>
<path fill="#FCCC00" stroke="#FCCC00" stroke-miterlimit="10" d="M247.738,357.813c0,2.692-2.184,4.875-4.875,4.875h-40.626
	c-2.693,0-4.875-2.183-4.875-4.875v-40.627c0-2.692,2.183-4.875,4.875-4.875h40.626c2.691,0,4.875,2.183,4.875,4.875V357.813z"/>
<path fill="#ECECEC" stroke="#ECECEC" stroke-width="5" stroke-miterlimit="10" d="M306.188,357.813
	c0,2.692-2.184,4.875-4.875,4.875h-40.627c-2.693,0-4.875-2.183-4.875-4.875v-40.627c0-2.692,2.182-4.875,4.875-4.875h40.627
	c2.691,0,4.875,2.183,4.875,4.875V357.813z"/>
<line fill="#FCCC00" stroke="#FCCC00" stroke-width="6" stroke-miterlimit="10" x1="46.854" y1="33.924" x2="82.258" y2="59.411"/>
<line fill="#FCCC00" stroke="#FCCC00" stroke-width="6" stroke-miterlimit="10" x1="78.691" y1="10.431" x2="93.825" y2="51.345"/>
<line fill="#FCCC00" stroke="#FCCC00" stroke-width="6" stroke-miterlimit="10" x1="75.5" y1="73.5" x2="51" y2="73.5"/>
<line fill="#FCCC00" stroke="#FCCC00" stroke-width="6" stroke-miterlimit="10" x1="110.5" y1="51.345" x2="110.5" y2="33.924"/>
<line fill="#FCCC00" stroke="#FCCC00" stroke-width="6" stroke-miterlimit="10" x1="403.65" y1="518.844" x2="366.126" y2="496.598"/>
<line fill="#FCCC00" stroke="#FCCC00" stroke-width="6" stroke-miterlimit="10" x1="374.021" y1="545.068" x2="355.318" y2="505.656"/>
<line fill="#FCCC00" stroke="#FCCC00" stroke-width="6" stroke-miterlimit="10" x1="371.608" y1="481.963" x2="396.011" y2="479.792"/>
<line fill="#FCCC00" stroke="#FCCC00" stroke-width="6" stroke-miterlimit="10" x1="338.71" y1="507.136" x2="340.256" y2="524.488"/>
<polygon fill="#FCCC00" points="16.252,170.275 18.645,175.123 23.994,175.9 20.123,179.673 21.037,185 16.252,182.485 11.468,185 
	12.382,179.673 8.511,175.9 13.86,175.123 "/>
<polygon fill="#FCCC00" points="411.511,59.411 414.985,66.449 422.753,67.578 417.132,73.057 418.459,80.792 411.511,77.14 
	404.564,80.792 405.891,73.057 400.271,67.578 408.038,66.449 "/>
<polygon fill="#FCCC00" points="51,397.775 53.392,402.623 58.741,403.4 54.871,407.173 55.784,412.5 51,409.984 46.216,412.5 
	47.129,407.173 43.259,403.4 48.608,402.623 "/>
<polygon fill="#FCCC00" points="382.129,397.775 384.521,402.623 389.871,403.4 386,407.173 386.914,412.5 382.129,409.984 
	377.346,412.5 378.259,407.173 374.389,403.4 379.737,402.623 "/>
<polygon fill="#FCCC00" points="454.582,283.109 456.975,287.957 462.324,288.734 458.453,292.507 459.367,297.834 454.582,295.318 
	449.799,297.834 450.712,292.507 446.842,288.734 452.19,287.957 "/>
<polygon fill="#FCCC00" points="422.752,84.708 424.679,88.612 428.987,89.238 425.87,92.277 426.606,96.567 422.752,94.541 
	418.899,96.567 419.635,92.277 416.518,89.238 420.826,88.612 "/>
<polygon fill="#FCCC00" points="397.271,80.867 399.125,85.428 403.934,86.486 400.169,89.659 400.649,94.559 396.467,91.958 
	391.957,93.929 393.136,89.149 389.868,85.467 394.779,85.113 "/>
<polygon fill="#FCCC00" points="40.415,410.281 40.233,418.31 46.743,423.01 39.053,425.317 36.595,432.96 32.023,426.359 
	23.994,426.384 28.858,419.996 26.354,412.367 33.933,415.021 "/>
<polygon fill="#FCCC00" points="163.019,209.209 166.183,215.622 173.26,216.65 168.139,221.642 169.348,228.689 163.019,225.362 
	156.689,228.689 157.898,221.642 152.777,216.65 159.854,215.622 "/>
<path fill="#FCCC00" stroke="#FCCC00" stroke-miterlimit="10" d="M301.313,134.623h-40.627c-2.693,0-4.875,2.183-4.875,4.875v40.627
	c0,2.692,2.182,4.875,4.875,4.875h40.627c2.691,0,4.875-2.183,4.875-4.875v-40.627C306.188,136.806,304.004,134.623,301.313,134.623
	z M287.328,169.551l-6.33-3.327l-6.328,3.327l1.208-7.047l-5.12-4.991l7.076-1.028l3.164-6.413l3.165,6.413l7.077,1.028
	l-5.121,4.991L287.328,169.551z"/>
</svg>
