<?xml version="1.0" encoding="utf-8"?>
<!-- Generator: Adobe Illustrator 16.0.0, SVG Export Plug-In . SVG Version: 6.00 Build 0)  -->
<!DOCTYPE svg PUBLIC "-//W3C//DTD SVG 1.1//EN" "http://www.w3.org/Graphics/SVG/1.1/DTD/svg11.dtd">
<svg version="1.1" id="Layer_1" xmlns="http://www.w3.org/2000/svg" xmlns:xlink="http://www.w3.org/1999/xlink" x="0px" y="0px"
	 width="469px" height="552px" viewBox="0 0 469 552" enable-background="new 0 0 469 552" xml:space="preserve">
<path fill="#FCCC00" d="M348.192,62.23H95.825c-3.314,0-6,2.686-6,6V487.77c0,3.314,2.686,6,6,6h252.367c3.314,0,6-2.686,6-6V68.23
	C354.192,64.917,351.507,62.23,348.192,62.23z M173.158,84.519c0-2.209,1.791-4,4-4h89.701c2.209,0,4,1.791,4,4v8.092
	c0,2.209-1.791,4-4,4h-89.701c-2.209,0-4-1.791-4-4V84.519z M222.008,481.885c-13.648,0-24.712-11.063-24.712-24.712
	s11.064-24.713,24.712-24.713c13.649,0,24.713,11.064,24.713,24.713S235.657,481.885,222.008,481.885z M322.009,415.759
	c0,3.313-2.687,6-6,6h-188c-3.313,0-6-2.687-6-6V126.609c0-3.313,2.687-6,6-6h188c3.313,0,6,2.687,6,6V415.759z"/>
<circle fill="#ECECEC" stroke="#FCCC00" stroke-width="5" stroke-miterlimit="10" cx="222.009" cy="457.172" r="16.471"/>
<path fill="none" stroke="#FCCC00" stroke-width="5" stroke-miterlimit="10" d="M188.207,180.125c0,2.692-2.183,4.875-4.875,4.875
	h-40.627c-2.692,0-4.875-2.183-4.875-4.875v-40.627c0-2.692,2.183-4.875,4.875-4.875h40.627c2.692,0,4.875,2.183,4.875,4.875
	V180.125z"/>
<path fill="none" stroke="#FCCC00" stroke-width="5" stroke-miterlimit="10" d="M247.738,180.125c0,2.692-2.184,4.875-4.875,4.875
	h-40.626c-2.693,0-4.875-2.183-4.875-4.875v-40.627c0-2.692,2.183-4.875,4.875-4.875h40.626c2.691,0,4.875,2.183,4.875,4.875
	V180.125z"/>
<path fill="#ECECEC" stroke="#ECECEC" stroke-width="5" stroke-miterlimit="10" d="M188.207,239.125
	c0,2.692-2.183,4.875-4.875,4.875h-40.627c-2.692,0-4.875-2.183-4.875-4.875v-40.627c0-2.692,2.183-4.875,4.875-4.875h40.627
	c2.692,0,4.875,2.183,4.875,4.875V239.125z"/>
<path fill="none" stroke="#ECECEC" stroke-width="5" stroke-miterlimit="10" d="M247.738,239.125c0,2.692-2.184,4.875-4.875,4.875
	h-40.626c-2.693,0-4.875-2.183-4.875-4.875v-40.627c0-2.692,2.183-4.875,4.875-4.875h40.626c2.691,0,4.875,2.183,4.875,4.875
	V239.125z"/>
<path fill="none" stroke="#FCCC00" stroke-width="5" stroke-miterlimit="10" d="M306.188,239.125c0,2.692-2.184,4.875-4.875,4.875
	h-40.627c-2.693,0-4.875-2.183-4.875-4.875v-40.627c0-2.692,2.182-4.875,4.875-4.875h40.627c2.691,0,4.875,2.183,4.875,4.875
	V239.125z"/>
<path fill="none" stroke="#ECECEC" stroke-width="5" stroke-miterlimit="10" d="M188.207,298.313c0,2.692-2.183,4.875-4.875,4.875
	h-40.627c-2.692,0-4.875-2.183-4.875-4.875v-40.627c0-2.692,2.183-4.875,4.875-4.875h40.627c2.692,0,4.875,2.183,4.875,4.875
	V298.313z"/>
<path fill="none" stroke="#FCCC00" stroke-width="5" stroke-miterlimit="10" d="M247.738,298.313c0,2.692-2.184,4.875-4.875,4.875
	h-40.626c-2.693,0-4.875-2.183-4.875-4.875v-40.627c0-2.692,2.183-4.875,4.875-4.875h40.626c2.691,0,4.875,2.183,4.875,4.875
	V298.313z"/>
<path fill="none" stroke="#ECECEC" stroke-width="5" stroke-miterlimit="10" d="M306.188,298.313c0,2.692-2.184,4.875-4.875,4.875
	h-40.627c-2.693,0-4.875-2.183-4.875-4.875v-40.627c0-2.692,2.182-4.875,4.875-4.875h40.627c2.691,0,4.875,2.183,4.875,4.875
	V298.313z"/>
<path fill="none" stroke="#ECECEC" stroke-width="5" stroke-miterlimit="10" d="M188.207,357.813c0,2.692-2.183,4.875-4.875,4.875
	h-40.627c-2.692,0-4.875-2.183-4.875-4.875v-40.627c0-2.692,2.183-4.875,4.875-4.875h40.627c2.692,0,4.875,2.183,4.875,4.875
	V357.813z"/>
<path fill="#FCCC00" stroke="#FCCC00" stroke-miterlimit="10" d="M247.738,357.813c0,2.692-2.184,4.875-4.875,4.875h-40.626
	c-2.693,0-4.875-2.183-4.875-4.875v-40.627c0-2.692,2.183-4.875,4.875-4.875h40.626c2.691,0,4.875,2.183,4.875,4.875V357.813z"/>
<path fill="#ECECEC" stroke="#ECECEC" stroke-width="5" stroke-miterlimit="10" d="M306.188,357.813
	c0,2.692-2.184,4.875-4.875,4.875h-40.627c-2.693,0-4.875-2.183-4.875-4.875v-40.627c0-2.692,2.182-4.875,4.875-4.875h40.627
	c2.691,0,4.875,2.183,4.875,4.875V357.813z"/>
<line fill="#FCCC00" stroke="#FCCC00" stroke-width="6" stroke-miterlimit="10" x1="46.854" y1="33.924" x2="82.258" y2="59.411"/>
<line fill="#FCCC00" stroke="#FCCC00" stroke-width="6" stroke-miterlimit="10" x1="78.691" y1="10.431" x2="93.825" y2="51.345"/>
<line fill="#FCCC00" stroke="#FCCC00" stroke-width="6" stroke-miterlimit="10" x1="75.5" y1="73.5" x2="51" y2="73.5"/>
<line fill="#FCCC00" stroke="#FCCC00" stroke-width="6" stroke-miterlimit="10" x1="110.5" y1="51.345" x2="110.5" y2="33.924"/>
<line fill="#FCCC00" stroke="#FCCC00" stroke-width="6" stroke-miterlimit="10" x1="403.65" y1="518.844" x2="366.126" y2="496.598"/>
<line fill="#FCCC00" stroke="#FCCC00" stroke-width="6" stroke-miterlimit="10" x1="374.021" y1="545.068" x2="355.318" y2="505.656"/>
<line fill="#FCCC00" stroke="#FCCC00" stroke-width="6" stroke-miterlimit="10" x1="371.608" y1="481.963" x2="396.011" y2="479.792"/>
<line fill="#FCCC00" stroke="#FCCC00" stroke-width="6" stroke-miterlimit="10" x1="338.71" y1="507.136" x2="340.256" y2="524.488"/>
<polygon fill="#FCCC00" points="23.994,164.21 28.356,173.051 38.112,174.468 31.053,181.35 32.719,191.065 23.994,186.478 
	15.268,191.065 16.935,181.35 9.875,174.468 19.631,173.051 "/>
<polygon fill="#FCCC00" points="412.896,47.062 418.68,58.779 431.61,60.658 422.253,69.778 424.462,82.656 412.896,76.576 
	401.332,82.656 403.539,69.778 394.184,60.658 407.114,58.779 "/>
<polygon fill="#FCCC00" points="55.189,390.124 58.622,397.08 66.297,398.195 60.743,403.608 62.054,411.253 55.189,407.643 
	48.324,411.253 49.635,403.608 44.082,398.195 51.757,397.08 "/>
<polygon fill="#FCCC00" points="423.775,459.628 427.793,467.769 436.776,469.074 430.275,475.408 431.811,484.354 423.775,480.13 
	415.743,484.354 417.277,475.408 410.778,469.074 419.759,467.769 "/>
<polygon fill="#FCCC00" points="456,194.224 460.017,202.364 469,203.669 462.5,210.005 464.035,218.949 456,214.725 
	447.968,218.949 449.5,210.005 443.001,203.669 451.983,202.364 "/>
<polygon fill="#FCCC00" points="431.608,89.174 434.815,95.673 441.988,96.715 436.799,101.774 438.025,108.916 431.608,105.543 
	425.195,108.916 426.419,101.774 421.23,96.715 428.402,95.673 "/>
<polygon fill="#FCCC00" points="389.191,82.78 392.277,90.373 400.281,92.134 394.015,97.416 394.814,105.572 387.852,101.243 
	380.345,104.524 382.307,96.567 376.867,90.438 385.043,89.849 "/>
<polygon fill="#FCCC00" points="40.001,408.069 39.739,419.589 49.081,426.333 38.046,429.645 34.519,440.611 27.959,431.14 
	16.438,431.175 23.417,422.009 19.825,411.063 30.699,414.869 "/>
<polygon fill="#FCCC00" points="163.019,200.65 168.964,212.698 182.26,214.63 172.639,224.008 174.91,237.248 163.019,230.997 
	151.127,237.248 153.398,224.008 143.777,214.63 157.073,212.698 "/>
<path fill="#FCCC00" stroke="#FCCC00" stroke-miterlimit="10" d="M301.313,134.623h-40.627c-2.693,0-4.875,2.183-4.875,4.875v40.627
	c0,2.692,2.182,4.875,4.875,4.875h40.627c2.691,0,4.875-2.183,4.875-4.875v-40.627C306.188,136.806,304.004,134.623,301.313,134.623
	z M287.328,169.551l-6.33-3.327l-6.328,3.327l1.208-7.047l-5.12-4.991l7.076-1.028l3.164-6.413l3.165,6.413l7.077,1.028
	l-5.121,4.991L287.328,169.551z"/>
</svg>
