<?xml version="1.0" encoding="utf-8"?>
<!-- Generator: Adobe Illustrator 16.0.0, SVG Export Plug-In . SVG Version: 6.00 Build 0)  -->
<!DOCTYPE svg PUBLIC "-//W3C//DTD SVG 1.1//EN" "http://www.w3.org/Graphics/SVG/1.1/DTD/svg11.dtd">
<svg version="1.1" id="레이어_1" xmlns="http://www.w3.org/2000/svg" xmlns:xlink="http://www.w3.org/1999/xlink" x="0px"
	 y="0px" width="150px" height="150px" viewBox="0 0 150 150" enable-background="new 0 0 150 150" xml:space="preserve">
<g>
	<path fill="#E72410" d="M133.893,53.653l-1.846-5.238c-0.334-0.944-1.368-1.443-2.317-1.107c-0.945,0.332-1.441,1.37-1.109,2.315
		l1.945,5.52l2.335,1.323L133.893,53.653z"/>
	<path fill="#ED6C00" d="M137.217,55.143l1.945-5.52c0.332-0.945-0.164-1.983-1.109-2.315c-0.944-0.336-1.983,0.163-2.314,1.107
		l-1.846,5.238l0.99,2.813L137.217,55.143z"/>
	<path fill="#E72410" d="M143.467,53.685c-0.497-0.872-1.604-1.177-2.477-0.682l-3.773,2.14l-1.021,2.899l1.972,0.74l4.614-2.62
		C143.654,55.669,143.962,54.559,143.467,53.685z"/>
	<path fill="#ED6C00" d="M135.709,61.736l3.955,1.483c0.211,0.08,0.426,0.115,0.637,0.115c0.737,0,1.428-0.449,1.703-1.179
		c0.352-0.939-0.125-1.985-1.064-2.338l-2.771-1.036l-2.459,1.393V61.736z"/>
	<path fill="#E72410" d="M132.073,61.736v2.871c0,1.002,0.815,1.814,1.819,1.814c1.002,0,1.816-0.812,1.816-1.814v-2.871
		l-1.816-0.679L132.073,61.736z"/>
	<path fill="#E72410" d="M129.614,58.782l-2.77,1.036c-0.942,0.353-1.417,1.398-1.063,2.338c0.272,0.73,0.966,1.179,1.7,1.179
		c0.212,0,0.427-0.036,0.636-0.115l3.956-1.483v-1.562L129.614,58.782z"/>
	<path fill="#ED6C00" d="M130.565,55.143l-3.772-2.14c-0.872-0.496-1.98-0.19-2.476,0.682c-0.494,0.874-0.188,1.984,0.685,2.477
		l4.612,2.62l1.973-0.74L130.565,55.143z"/>
	<path fill="#E72410" d="M65.23,107.218c6.4,0,12.234-2.705,16.364-6.977c2.768-2.849,4.816-6.427,5.878-10.405l7.147,13.433
		c1.111,2.087,3.274,3.396,5.637,3.396c2.363,0,4.528-1.31,5.639-3.396l17.466-32.813c1.661-3.122,0.477-6.994-2.647-8.652
		c-3.124-1.661-7.004-0.475-8.664,2.646l-11.266,21.948l-0.527,1.804l-0.523-1.804L88.465,64.449
		c-1.658-3.121-5.537-4.306-8.661-2.646c-3.124,1.659-4.31,5.531-2.647,8.652l4.208,7.912H68.378c-2.942,0-5.332,2.46-5.332,5.496
		c0,3.034,2.389,5.494,5.332,5.494h6.421c-1.729,2.662-4.67,5.246-9.587,5.246c-2.854-0.005-5.396-1.166-7.33-3.145
		c-1.918-1.985-3.126-4.722-3.128-7.824c-0.009-5.381,3.684-9.733,8.284-10.733c3.4-0.754,5.545-4.122,4.795-7.523
		c-0.445-2.005-1.799-3.575-3.534-4.37c-2.513-1.098-5.606,0-5.606,0c-9.679,2.914-16.547,12.005-16.553,22.625
		c0,1.371,0.12,2.717,0.343,4.028c-2.018,3.327-5.82,7.504-12.183,7.504c-6.115-0.012-11.149-5.021-11.152-11.304
		c0.003-5.582,3.972-10.157,9.141-11.121c0,0,1.304-0.252,3.397-0.427c2.013-0.17,4.914-2.521,4.914-6.061
		c0-3.479-2.82-6.298-6.3-6.298C17.137,59.966,6.572,70.698,6.548,83.863c0.024,13.161,10.589,23.895,23.751,23.904
		c7.165-0.005,13.555-3.19,17.898-8.212C48.197,99.556,54.299,107.218,65.23,107.218z"/>
</g>
</svg>
