<?xml version="1.0" encoding="utf-8"?>
<!-- Generator: Adobe Illustrator 16.0.0, SVG Export Plug-In . SVG Version: 6.00 Build 0)  -->
<!DOCTYPE svg PUBLIC "-//W3C//DTD SVG 1.1//EN" "http://www.w3.org/Graphics/SVG/1.1/DTD/svg11.dtd">
<svg version="1.1" id="Layer_1" xmlns="http://www.w3.org/2000/svg" xmlns:xlink="http://www.w3.org/1999/xlink" x="0px" y="0px"
	 width="130px" height="130px" viewBox="0 0 130 130" enable-background="new 0 0 130 130" xml:space="preserve">
<path fill="#1B87C9" d="M14.75,110.362"/>
<path fill="#FF574A" d="M-62.524,111.043c0,1.104-0.896,2-2,2h-3.057h-3.25h-9.336c-1.105,0-2-0.896-2-2v-10.881
	c0-1.104,0.895-2,2-2h15.643c1.104,0,2,0.896,2,2V111.043z"/>
<path fill="#1B87C9" d="M-64.755,113.231c0,1.104-0.896,2-2,2h-3.057l0.375,5.144l-4.625-5.144h-8.336c-1.105,0-2-0.896-2-2v-10.881
	c0-1.104,0.895-2,2-2h15.643c1.104,0,2,0.896,2,2V113.231z"/>
<g>
	<path fill="#1B87C9" d="M-86.331,81.83l5.346-9.16h1.919l-5.209,9.14l5.438,9.52h-1.919L-86.331,81.83z"/>
</g>
<g>
	<path fill="#1B87C9" d="M-46.705,91.284h-1.919l5.438-9.52l-5.209-9.14h1.919l5.346,9.16L-46.705,91.284z"/>
</g>
<circle fill="#FF574A" cx="-80.326" cy="108" r="1.5"/>
<circle fill="#FF574A" cx="-74.576" cy="108" r="1.5"/>
<circle fill="#FF574A" cx="-68.826" cy="108" r="1.5"/>
<image overflow="visible" width="425" height="471" xlink:href="E4FF4028.jpg"  transform="matrix(0.2722 0 0 0.2722 -213.4175 19.4067)">
</image>
<path fill="#1B87C9" d="M-5.748,112.318"/>
<path fill="#1B87C9" d="M-27.992,197.943h-78.667c-5.56,0-10.058,4.504-10.058,10.059v54.72c0,5.555,4.499,10.059,10.058,10.059
	h41.921l23.26,25.867l-1.887-25.867h15.373c5.554,0,10.057-4.504,10.057-10.059v-54.72
	C-17.935,202.447-22.438,197.943-27.992,197.943z M-96.243,243.956c-4.167,0-7.543-3.379-7.543-7.543
	c0-4.165,3.376-7.544,7.543-7.544s7.544,3.379,7.544,7.544C-88.699,240.577-92.076,243.956-96.243,243.956z M-67.326,243.956
	c-4.168,0-7.543-3.379-7.543-7.543c0-4.165,3.375-7.544,7.543-7.544c4.167,0,7.543,3.379,7.543,7.544
	C-59.783,240.577-63.159,243.956-67.326,243.956z M-38.41,243.956c-4.166,0-7.543-3.379-7.543-7.543
	c0-4.165,3.377-7.544,7.543-7.544c4.168,0,7.545,3.379,7.545,7.544C-30.865,240.577-34.242,243.956-38.41,243.956z"/>
<path fill="none" stroke="#1B87C9" stroke-miterlimit="10" d="M-92.917,148.833c0-14.083,14.438-25.5,32.25-25.5
	c17.811,0,32.25,11.417,32.25,25.5c0,14.084-14.439,25.5-32.25,25.5c-3.09,0-6.074-0.351-8.903-0.992l-11.458,6.77
	c0,0,0.864-5.35,1.794-10.434C-87.508,165.061-92.917,157.448-92.917,148.833z"/>
<circle fill="#FFFFFF" cx="30.382" cy="57.597" r="4.972"/>
<circle fill="#FFFFFF" cx="52.996" cy="57.597" r="4.972"/>
<circle fill="#FFFFFF" cx="74.56" cy="57.597" r="4.972"/>
<path fill="none" stroke="#FFFFFF" stroke-width="8" stroke-miterlimit="10" d="M8.239,56.503c0-19.316,19.803-34.974,44.231-34.974
	c24.43,0,44.234,15.658,44.234,34.974c0,19.316-19.805,34.975-44.234,34.975c-4.237,0-8.33-0.481-12.211-1.361l-15.715,9.284
	c0,0,1.186-7.337,2.461-14.31C15.658,78.76,8.239,68.319,8.239,56.503z"/>
<path fill="none" stroke="#FFFFFF" stroke-width="8" stroke-miterlimit="10" d="M111.927,82.661
	c3.193-4.511,5.031-9.808,5.031-15.473c0-14.146-11.465-25.982-26.844-29.05c4.174,5.338,6.59,11.627,6.59,18.365
	c0,16.992-15.328,31.147-35.645,34.31c5.859,3.884,13.195,6.205,21.17,6.205c8.75,0,16.738-2.784,22.842-7.372l13.166,4.865
	L111.927,82.661z"/>
</svg>
