<?xml version="1.0" encoding="utf-8"?>
<!-- Generator: Adobe Illustrator 16.0.0, SVG Export Plug-In . SVG Version: 6.00 Build 0)  -->
<!DOCTYPE svg PUBLIC "-//W3C//DTD SVG 1.1//EN" "http://www.w3.org/Graphics/SVG/1.1/DTD/svg11.dtd">
<svg version="1.1" id="Layer_1" xmlns="http://www.w3.org/2000/svg" xmlns:xlink="http://www.w3.org/1999/xlink" x="0px" y="0px"
	 width="160px" height="160px" viewBox="0 0 160 160" enable-background="new 0 0 160 160" xml:space="preserve">
<g>
	<path fill="none" stroke="#FFFFFF" stroke-width="6" stroke-miterlimit="10" d="M265.459,80.471
		c0,14.244-11.54,25.787-25.781,25.787c-14.243,0-25.781-11.543-25.781-25.787c0-14.242,11.538-25.784,25.781-25.784
		C253.919,54.687,265.459,66.229,265.459,80.471z"/>
	<path fill="none" stroke="#FFFFFF" stroke-width="6" stroke-miterlimit="10" d="M290.34,80.409c0,0.391-0.343,0.85-0.556,1.164
		c-7.524,11.255-22.807,25.028-49.344,25.028c-26.965,0-41.71-15.716-49.176-25.417c-0.104-0.132-0.674-0.733-0.674-0.901
		c0-0.381,0.246-0.737,0.499-1.008c9.645-10.441,22.78-25.057,49.351-25.057c26.583,0,39.692,14.681,49.344,25.089
		C290.031,79.569,290.34,80.044,290.34,80.409z"/>
	<g>
		<path fill="#FFFFFF" d="M253.05,71.013c0.097,0.465,0.097,0.954,0,1.468c-0.051,0.245-0.093,0.483-0.128,0.716
			c-0.037,0.233-0.081,0.471-0.13,0.716l-0.036,0.146c-0.123,0.49-0.239,0.986-0.35,1.487c-0.11,0.501-0.225,0.997-0.349,1.487
			h2.461c0.44,0,0.862,0.049,1.266,0.146c0.403,0.098,0.776,0.318,1.12,0.661c0.17,0.147,0.298,0.349,0.386,0.605
			c0.084,0.257,0.128,0.521,0.128,0.79c0,0.293-0.044,0.606-0.128,0.936c-0.088,0.33-0.203,0.569-0.35,0.715
			c-0.196,0.22-0.441,0.392-0.734,0.514c-0.294,0.123-0.587,0.202-0.881,0.239c-0.293,0.037-0.545,0.055-0.752,0.055
			c-0.208,0-0.324,0-0.35,0h-3.34c-0.073,0.343-0.147,0.673-0.22,0.991c-0.073,0.318-0.147,0.624-0.221,0.917
			c-0.293,1.224-0.599,2.569-0.918,4.038c-0.317,1.468-0.647,2.813-0.99,4.038c-0.122,0.416-0.252,0.831-0.386,1.248
			c-0.135,0.416-0.301,0.832-0.495,1.248c-0.172,0.367-0.374,0.691-0.605,0.973c-0.233,0.281-0.496,0.489-0.789,0.624
			c-0.294,0.134-0.605,0.183-0.936,0.147c-0.331-0.037-0.692-0.19-1.084-0.459c-0.587-0.416-1.021-0.991-1.303-1.725
			c-0.281-0.734-0.569-1.407-0.863-2.019c-0.098-0.171-0.244-0.551-0.439-1.138c-0.196-0.588-0.403-1.23-0.624-1.927
			c-0.221-0.698-0.435-1.37-0.644-2.019c-0.207-0.648-0.384-1.132-0.53-1.45c-0.221,0.538-0.44,1.15-0.661,1.835
			s-0.429,1.358-0.625,2.018c-0.195,0.661-0.373,1.255-0.531,1.781c-0.16,0.526-0.275,0.912-0.349,1.156
			c-0.197,0.489-0.41,1.028-0.643,1.616c-0.232,0.587-0.514,1.088-0.845,1.504c-0.329,0.416-0.729,0.691-1.193,0.826
			c-0.464,0.134-1.016-0.006-1.651-0.422c-0.489-0.294-0.832-0.71-1.027-1.248c-0.122-0.343-0.244-0.674-0.367-0.991
			c-0.123-0.318-0.22-0.648-0.293-0.991l-0.734-2.752l-1.506-5.91c-0.146-0.588-0.293-1.211-0.439-1.872h-1.799
			c-0.563,0.049-1.137,0.055-1.725,0.018c-0.588-0.037-1.09-0.263-1.505-0.679c-0.563-0.489-0.845-1.04-0.845-1.652
			c0-0.416,0.115-0.825,0.349-1.229c0.232-0.404,0.544-0.691,0.936-0.862c0.49-0.196,1.004-0.288,1.543-0.275
			c0.538,0.013,1.088,0.006,1.65-0.018h0.185c-0.123-0.563-0.239-1.193-0.35-1.891s-0.263-1.584-0.459-2.661
			c-0.048-0.269-0.079-0.52-0.092-0.752c-0.011-0.232,0.007-0.47,0.055-0.715c0.049-0.367,0.221-0.685,0.516-0.954
			c0.122-0.123,0.268-0.22,0.44-0.294c0.17-0.074,0.354-0.135,0.55-0.184c0.293-0.097,0.6-0.146,0.917-0.146
			c0.294,0,0.6,0.098,0.918,0.294c0.221,0.122,0.392,0.281,0.514,0.477l0.441,0.771c0.049,0.171,0.097,0.325,0.146,0.458
			c0.05,0.135,0.098,0.275,0.146,0.422c0.049,0.171,0.086,0.325,0.11,0.459c0.023,0.135,0.048,0.263,0.074,0.385
			c0.121,0.759,0.263,1.493,0.422,2.202c0.158,0.71,0.336,1.419,0.531,2.129h5.286c0.146-0.465,0.293-0.893,0.439-1.285
			c0.147-0.392,0.313-0.703,0.496-0.936c0.184-0.232,0.409-0.379,0.679-0.441c0.269-0.061,0.612-0.018,1.028,0.129
			c0.366,0.146,0.673,0.471,0.917,0.973c0.244,0.502,0.478,1.021,0.697,1.56h4.992c0.17-0.636,0.336-1.261,0.496-1.873
			c0.158-0.611,0.312-1.223,0.458-1.835l0.184-0.624c0.05-0.122,0.079-0.25,0.092-0.385c0.013-0.134,0.043-0.288,0.092-0.459
			c0.049-0.147,0.098-0.287,0.147-0.422c0.049-0.133,0.097-0.287,0.146-0.458c0.049-0.123,0.104-0.251,0.165-0.386
			c0.061-0.134,0.141-0.262,0.239-0.386c0.073-0.122,0.158-0.22,0.257-0.293c0.097-0.073,0.195-0.134,0.293-0.183
			c0.343-0.196,0.636-0.294,0.881-0.294c0.317,0,0.625,0.049,0.918,0.146c0.391,0.074,0.746,0.233,1.064,0.478
			C252.854,70.303,253,70.622,253.05,71.013z M235.064,87.016c0.172-0.611,0.386-1.395,0.644-2.349
			c0.258-0.955,0.52-1.934,0.788-2.937h-2.716c0.098,0.464,0.203,0.954,0.313,1.468s0.22,1.009,0.33,1.486
			c0.11,0.478,0.221,0.918,0.33,1.321C234.863,86.411,234.967,86.747,235.064,87.016z M244.975,86.318
			c0.074-0.244,0.151-0.55,0.239-0.917c0.085-0.367,0.17-0.758,0.256-1.174s0.178-0.845,0.275-1.285
			c0.098-0.44,0.195-0.845,0.294-1.211h-2.459c0.269,0.954,0.52,1.859,0.752,2.716S244.779,85.928,244.975,86.318z"/>
	</g>
</g>
<g>
	<path fill="#FFFFFF" d="M-124.762,88.275c-0.249,0.359-0.596,0.623-1.039,0.789c-0.443,0.167-0.894,0.222-1.35,0.167
		c-0.457-0.056-0.873-0.215-1.247-0.478c-0.374-0.264-0.617-0.63-0.727-1.101c-0.028-0.056-0.048-0.208-0.062-0.457
		c-0.015-0.25-0.028-0.506-0.042-0.769c-0.014-0.263-0.035-0.617-0.063-1.059c-0.638-0.083-1.378-0.201-2.223-0.354
		c-0.845-0.152-1.585-0.339-2.223-0.561c-0.416-0.166-0.852-0.339-1.309-0.519c-0.457-0.181-0.894-0.388-1.309-0.624
		c-0.416-0.235-0.796-0.512-1.143-0.832c-0.347-0.317-0.603-0.699-0.769-1.142c-0.139-0.332-0.228-0.685-0.27-1.059
		c-0.042-0.375-0.014-0.74,0.083-1.101c0.097-0.36,0.263-0.678,0.499-0.955c0.235-0.277,0.561-0.458,0.977-0.541
		c0.276-0.083,0.554-0.075,0.831,0.021c0.276,0.098,0.54,0.229,0.789,0.395c0.249,0.167,0.499,0.353,0.748,0.561
		c0.25,0.208,0.499,0.368,0.748,0.479c0.637,0.249,1.377,0.477,2.223,0.685c0.844,0.208,1.626,0.367,2.347,0.478V73.07
		c-0.499-0.167-1.059-0.318-1.683-0.457c-0.623-0.139-1.129-0.263-1.517-0.374c-0.36-0.138-0.686-0.256-0.976-0.354
		c-0.291-0.096-0.547-0.214-0.769-0.353c-1.219-0.471-2.105-1.205-2.659-2.202c-0.277-0.499-0.485-1.004-0.623-1.517
		c-0.14-0.512-0.208-1.087-0.208-1.724c0-0.554,0.056-1.073,0.167-1.558c0.111-0.484,0.25-0.935,0.416-1.35
		c0.333-0.831,0.873-1.551,1.62-2.16c0.333-0.333,0.713-0.609,1.143-0.831c0.429-0.222,0.893-0.443,1.392-0.665
		c0.47-0.221,1.066-0.388,1.787-0.499c0.719-0.11,1.356-0.193,1.911-0.249c0-0.388,0-0.796,0-1.226s0.11-0.796,0.333-1.102
		c0.332-0.47,0.636-0.802,0.914-0.997c0.276-0.193,0.692-0.262,1.246-0.207c0.499,0.055,0.941,0.18,1.33,0.374
		c0.388,0.194,0.678,0.54,0.873,1.039c0,0.056,0.006,0.201,0.021,0.437c0.014,0.235,0.035,0.492,0.063,0.768
		c0.027,0.306,0.041,0.651,0.041,1.039c0.886,0.194,1.808,0.436,2.763,0.727c0.956,0.291,1.821,0.658,2.597,1.101
		c0.609,0.389,1.101,0.824,1.475,1.309c0.374,0.485,0.546,1.087,0.519,1.807c-0.028,0.389-0.18,0.762-0.457,1.122
		s-0.609,0.568-0.997,0.623c-0.443,0.056-0.859-0.021-1.247-0.229c-0.388-0.207-0.762-0.408-1.121-0.602
		c-0.472-0.221-1.018-0.45-1.642-0.686c-0.623-0.235-1.253-0.38-1.89-0.436v5.733c0.582,0.166,1.191,0.381,1.828,0.644
		c0.637,0.264,1.19,0.492,1.662,0.685c1.551,0.638,2.693,1.642,3.428,3.013c0.733,1.371,1.072,2.846,1.018,4.424
		c-0.028,1.053-0.236,2.022-0.624,2.908c-0.222,0.388-0.471,0.748-0.748,1.081c-0.277,0.333-0.582,0.637-0.915,0.914
		c-0.332,0.305-0.692,0.561-1.08,0.768c-0.388,0.208-0.817,0.422-1.288,0.644c-0.472,0.139-0.997,0.27-1.58,0.395
		c-0.581,0.125-1.149,0.242-1.703,0.353c-0.028,0-0.048,0.09-0.062,0.27c-0.015,0.18-0.015,0.38,0,0.603
		c0.014,0.222,0.027,0.436,0.042,0.644c0.014,0.208,0.021,0.325,0.021,0.354C-124.472,87.541-124.569,87.943-124.762,88.275z
		 M-132.24,66.298c0.027,0.222,0.125,0.463,0.291,0.727c0.166,0.264,0.359,0.478,0.582,0.644c0.249,0.167,0.553,0.298,0.914,0.396
		c0.36,0.098,0.748,0.173,1.164,0.228v-4.694c-0.914,0.056-1.669,0.285-2.264,0.686C-132.15,64.685-132.379,65.357-132.24,66.298z
		 M-121.148,77.432c-0.056-0.36-0.187-0.699-0.395-1.018c-0.208-0.318-0.471-0.603-0.79-0.852s-0.665-0.463-1.039-0.645
		c-0.374-0.18-0.741-0.311-1.101-0.395c0,0.97,0.021,1.946,0.063,2.929c0.041,0.983,0.047,1.959,0.021,2.929
		c0.416,0.055,0.831,0.021,1.246-0.104c0.416-0.125,0.775-0.318,1.081-0.582c0.304-0.263,0.546-0.588,0.727-0.977
		C-121.155,78.332-121.093,77.903-121.148,77.432z"/>
</g>
<g>
	<rect x="-84.103" y="59.139" fill="#FFFFFF" width="6.892" height="29.514"/>
	<rect x="-95.973" y="66.899" fill="#FFFFFF" width="6.892" height="21.753"/>
	<rect x="-107.557" y="75.174" fill="#FFFFFF" width="6.891" height="13.479"/>
</g>
<rect x="-118.521" y="100.7" fill="#FFFFFF" width="19.575" height="13.518"/>
<path fill="#FFFFFF" d="M-80.185,121.387c0,4.571-3.711,8.275-8.274,8.275h-40.547c-4.576,0-8.274-3.704-8.274-8.275l0,0
	c0-4.571,3.698-8.275,8.274-8.275h40.547C-83.896,113.112-80.185,116.815-80.185,121.387L-80.185,121.387z"/>
<path fill="none" stroke="#FFFFFF" stroke-width="6" stroke-miterlimit="10" d="M-60.61,93.524c0,5.181-4.202,9.383-9.374,9.383
	h-77.499c-5.185,0-9.386-4.202-9.386-9.383V51.058c0-5.182,4.201-9.383,9.386-9.383h77.499c5.172,0,9.374,4.202,9.374,9.383V93.524z
	"/>
<g>
	<path fill="#FFFFFF" d="M76.54,73.326c0.317-0.235,0.271-0.83-0.065-1.286l0,0c-0.335-0.458-0.892-0.675-1.208-0.44L47.54,92.142
		c-0.316,0.233-0.277,0.831,0.058,1.287l0,0c0.337,0.459,0.892,0.676,1.209,0.439L76.54,73.326z"/>
	<path fill="#FFFFFF" d="M113.627,56.558c0.246-0.252,0.09-0.812-0.316-1.209l0,0c-0.406-0.395-0.971-0.543-1.216-0.292
		L88.351,79.245c-0.246,0.255-0.084,0.811,0.323,1.209l0,0c0.4,0.397,0.97,0.543,1.215,0.291L113.627,56.558z"/>
	<path fill="#FFFFFF" d="M88.965,80.58c0.35,0.178,0.866-0.129,1.119-0.637l0,0c0.258-0.504,0.2-1.099-0.155-1.276l-13.932-7.214
		c-0.348-0.178-0.866,0.125-1.124,0.634l0,0c-0.252,0.507-0.194,1.102,0.155,1.279L88.965,80.58z"/>
	<path fill="#FFFFFF" d="M116.53,57.718c-0.09,0.472-0.193,1.189-0.82,0.809l-5.592-5.586c-0.543-0.589,0.311-0.695,0.795-0.802
		l6.529-1.57c0.789-0.09,0.841,0.359,0.841,0.805L116.53,57.718z"/>
	<path fill="#FFFFFF" d="M42.906,120.651c0,1.752-1.458,3.174-3.253,3.174l0,0c-1.796,0-3.252-1.422-3.252-3.174V46.457
		c0-1.751,1.457-3.174,3.252-3.174l0,0c1.796,0,3.253,1.423,3.253,3.174V120.651z"/>
	<rect x="53.572" y="95.623" fill="#FFFFFF" width="6.773" height="26.273"/>
	<rect x="66.811" y="82.736" fill="#FFFFFF" width="6.774" height="39.16"/>
	<rect x="79.909" y="82.736" fill="#FFFFFF" width="6.775" height="39.16"/>
	<rect x="92.875" y="82.736" fill="#FFFFFF" width="6.775" height="39.16"/>
	<rect x="106.555" y="67.9" fill="#FFFFFF" width="6.775" height="53.996"/>
	<path fill="#FFFFFF" d="M39.925,125.148c-1.901,0-3.445-1.458-3.445-3.252l0,0c0-1.796,1.544-3.254,3.445-3.254h80.414
		c1.906,0,3.445,1.458,3.445,3.254l0,0c0,1.795-1.539,3.252-3.445,3.252H39.925z"/>
</g>
<rect x="318.891" y="45.074" fill="#FFFFFF" width="7.706" height="7.709"/>
<rect x="318.897" y="55.718" fill="#FFFFFF" width="7.706" height="7.706"/>
<rect x="318.897" y="66.656" fill="#FFFFFF" width="7.706" height="7.709"/>
<rect x="330.934" y="45.074" fill="#FFFFFF" width="7.705" height="7.709"/>
<rect x="330.94" y="55.718" fill="#FFFFFF" width="7.708" height="7.706"/>
<rect x="330.94" y="66.656" fill="#FFFFFF" width="7.708" height="7.709"/>
<rect x="342.959" y="45.074" fill="#FFFFFF" width="7.705" height="7.709"/>
<rect x="342.965" y="55.718" fill="#FFFFFF" width="7.706" height="7.706"/>
<rect x="342.965" y="66.656" fill="#FFFFFF" width="7.706" height="7.709"/>
<rect x="318.891" y="76.864" fill="#FFFFFF" width="7.706" height="7.709"/>
<rect x="318.897" y="87.508" fill="#FFFFFF" width="7.706" height="7.707"/>
<rect x="318.897" y="98.446" fill="#FFFFFF" width="7.706" height="7.708"/>
<rect x="330.934" y="76.864" fill="#FFFFFF" width="7.705" height="7.709"/>
<rect x="330.94" y="87.508" fill="#FFFFFF" width="7.708" height="7.707"/>
<rect x="330.94" y="98.446" fill="#FFFFFF" width="7.708" height="7.708"/>
<rect x="318.891" y="98.446" fill="#FFFFFF" width="31.78" height="18.463"/>
<rect x="342.959" y="76.864" fill="#FFFFFF" width="7.705" height="7.709"/>
<rect x="342.965" y="87.508" fill="#FFFFFF" width="7.706" height="7.707"/>
<rect x="342.965" y="98.446" fill="#FFFFFF" width="7.706" height="7.708"/>
<rect x="374.671" y="58.682" fill="#FFFFFF" width="7.707" height="7.709"/>
<rect x="374.679" y="69.327" fill="#FFFFFF" width="7.705" height="7.706"/>
<rect x="374.679" y="80.265" fill="#FFFFFF" width="7.705" height="7.708"/>
<rect x="385.63" y="58.682" fill="#FFFFFF" width="7.707" height="7.709"/>
<rect x="385.638" y="69.327" fill="#FFFFFF" width="7.705" height="7.706"/>
<rect x="385.638" y="80.265" fill="#FFFFFF" width="7.705" height="7.708"/>
<rect x="396.571" y="58.682" fill="#FFFFFF" width="7.707" height="7.709"/>
<rect x="396.578" y="69.327" fill="#FFFFFF" width="7.706" height="7.706"/>
<rect x="396.578" y="80.265" fill="#FFFFFF" width="7.706" height="7.708"/>
<rect x="374.671" y="90.472" fill="#FFFFFF" width="7.707" height="7.709"/>
<polygon fill="#FFFFFF" points="374.679,101.116 374.679,108.822 374.679,116.528 404.284,116.528 404.284,108.822 404.284,101.116 
	"/>
<rect x="385.63" y="90.472" fill="#FFFFFF" width="7.707" height="7.709"/>
<rect x="396.571" y="90.472" fill="#FFFFFF" width="7.707" height="7.709"/>
<path fill="none" stroke="#FFFFFF" stroke-width="6" stroke-miterlimit="10" d="M359.042,113.056c0,5.181-4.201,9.383-9.379,9.383
	h-29.234c-5.178,0-9.381-4.202-9.381-9.383V47.763c0-5.181,4.203-9.383,9.381-9.383h29.234c5.178,0,9.379,4.202,9.379,9.383V113.056
	z"/>
<path fill="none" stroke="#FFFFFF" stroke-width="6" stroke-miterlimit="10" d="M410.953,113.056c0,5.181-4.201,9.383-9.38,9.383
	h-24.268c-5.179,0-9.381-4.202-9.381-9.383V61.181c0-5.181,4.202-9.383,9.381-9.383h24.268c5.179,0,9.38,4.202,9.38,9.383V113.056z"
	/>
<circle fill="none" stroke="#FFFFFF" stroke-width="6" stroke-miterlimit="10" cx="80.249" cy="79.881" r="74.119"/>
</svg>
