<?xml version="1.0" encoding="utf-8"?>
<!-- Generator: Adobe Illustrator 16.0.0, SVG Export Plug-In . SVG Version: 6.00 Build 0)  -->
<!DOCTYPE svg PUBLIC "-//W3C//DTD SVG 1.1//EN" "http://www.w3.org/Graphics/SVG/1.1/DTD/svg11.dtd">
<svg version="1.1" id="Layer_1" xmlns="http://www.w3.org/2000/svg" xmlns:xlink="http://www.w3.org/1999/xlink" x="0px" y="0px"
	 width="130.615px" height="39.47px" viewBox="0 0 130.615 39.47" enable-background="new 0 0 130.615 39.47" xml:space="preserve">
<circle fill="#FFFFFF" stroke="#ECECEC" stroke-width="2" stroke-miterlimit="10" cx="149.304" cy="-15.349" r="10.871"/>
<circle fill="#FFFFFF" stroke="#ECECEC" stroke-width="2" stroke-miterlimit="10" cx="181.513" cy="-15.349" r="10.871"/>
<circle fill="#FFFFFF" stroke="#ECECEC" stroke-width="2" stroke-miterlimit="10" cx="213.389" cy="-15.349" r="10.871"/>
<circle fill="#FFFFFF" stroke="#ECECEC" stroke-width="2" stroke-miterlimit="10" cx="247.276" cy="-15.349" r="10.871"/>
<polyline fill="none" stroke="#333333" stroke-width="4" stroke-linecap="round" stroke-linejoin="round" stroke-miterlimit="10" points="
	203.926,-30.463 213.589,-14.358 227.178,-39.83 "/>
<path fill="#FFFFFF" stroke="#ECECEC" stroke-width="2" stroke-miterlimit="10" d="M160.3,29.327c0,3.155-2.559,5.714-5.713,5.714
	h-10.453c-3.154,0-5.713-2.559-5.713-5.714V18.875c0-3.156,2.559-5.714,5.713-5.714h10.453c3.154,0,5.713,2.558,5.713,5.714V29.327z
	"/>
<path fill="#FFFFFF" stroke="#ECECEC" stroke-width="2" stroke-miterlimit="10" d="M195.719,29.327c0,3.155-2.559,5.714-5.714,5.714
	h-10.451c-3.156,0-5.715-2.559-5.715-5.714V18.875c0-3.156,2.559-5.714,5.715-5.714h10.451c3.155,0,5.714,2.558,5.714,5.714V29.327z
	"/>
<path fill="#FFFFFF" stroke="#ECECEC" stroke-width="2" stroke-miterlimit="10" d="M230.383,29.327c0,3.155-2.56,5.714-5.715,5.714
	h-10.451c-3.156,0-5.714-2.559-5.714-5.714V18.875c0-3.156,2.558-5.714,5.714-5.714h10.451c3.155,0,5.715,2.558,5.715,5.714V29.327z
	"/>
<path fill="#FFFFFF" stroke="#ECECEC" stroke-width="2" stroke-miterlimit="10" d="M265.117,29.327c0,3.155-2.56,5.714-5.715,5.714
	h-10.451c-3.156,0-5.714-2.559-5.714-5.714V18.875c0-3.156,2.558-5.714,5.714-5.714h10.451c3.155,0,5.715,2.558,5.715,5.714V29.327z
	"/>
<polyline fill="none" stroke="#333333" stroke-width="4" stroke-linecap="round" stroke-linejoin="round" stroke-miterlimit="10" points="
	175.896,11.623 184.529,25.008 198.973,0.341 "/>
<path fill="#FFFFFF" stroke="#ECECEC" stroke-width="2" stroke-miterlimit="10" d="M23.678,31.927c0,3.155-2.559,5.714-5.714,5.714
	H7.512c-3.155,0-5.714-2.559-5.714-5.714V21.475c0-3.156,2.559-5.714,5.714-5.714h10.452c3.155,0,5.714,2.558,5.714,5.714V31.927z"
	/>
<path fill="#FFFFFF" stroke="#ECECEC" stroke-width="2" stroke-miterlimit="10" d="M59.096,31.927c0,3.155-2.559,5.714-5.714,5.714
	H42.931c-3.156,0-5.714-2.559-5.714-5.714V21.475c0-3.156,2.559-5.714,5.714-5.714h10.452c3.155,0,5.714,2.558,5.714,5.714V31.927z"
	/>
<path fill="#FFFFFF" stroke="#ECECEC" stroke-width="2" stroke-miterlimit="10" d="M93.76,31.927c0,3.155-2.56,5.714-5.715,5.714
	H77.594c-3.156,0-5.714-2.559-5.714-5.714V21.475c0-3.156,2.558-5.714,5.714-5.714h10.451c3.155,0,5.715,2.558,5.715,5.714V31.927z"
	/>
<path fill="#FFFFFF" stroke="#ECECEC" stroke-width="2" stroke-miterlimit="10" d="M128.494,31.927c0,3.155-2.56,5.714-5.715,5.714
	h-10.451c-3.156,0-5.714-2.559-5.714-5.714V21.475c0-3.156,2.558-5.714,5.714-5.714h10.451c3.155,0,5.715,2.558,5.715,5.714V31.927z
	"/>
<polyline fill="none" stroke="#333333" stroke-width="4" stroke-linecap="round" stroke-linejoin="round" stroke-miterlimit="10" points="
	74.659,14.223 83.292,27.607 97.735,2.941 "/>
</svg>
