<?xml version="1.0" encoding="utf-8"?>
<!-- Generator: Adobe Illustrator 16.0.0, SVG Export Plug-In . SVG Version: 6.00 Build 0)  -->
<!DOCTYPE svg PUBLIC "-//W3C//DTD SVG 1.1//EN" "http://www.w3.org/Graphics/SVG/1.1/DTD/svg11.dtd">
<svg version="1.1" id="Layer_1" xmlns="http://www.w3.org/2000/svg" xmlns:xlink="http://www.w3.org/1999/xlink" x="0px" y="0px"
	 width="10px" height="21.667px" viewBox="0 0 10 21.667" enable-background="new 0 0 10 21.667" xml:space="preserve">
<path fill="#11D3D3" d="M46.063,40.92"/>
<path fill="#FF574A" d="M46.454,40.71c0,1.104-0.896,2-2,2h-3.057h-3.25h-9.336c-1.105,0-2-0.896-2-2V29.83c0-1.104,0.895-2,2-2
	h15.643c1.104,0,2,0.896,2,2V40.71z"/>
<path fill="#1B87C9" d="M22.829,42.898c0,1.104-0.896,2-2,2h-3.057l0.375,5.144l-4.625-5.144H5.187c-1.105,0-2-0.896-2-2V32.017
	c0-1.104,0.895-2,2-2h15.643c1.104,0,2,0.896,2,2V42.898z"/>
<g>
	<path fill="#1B87C9" d="M-20.336,10.618l5.346-9.16h1.919l-5.209,9.14l5.438,9.52h-1.919L-20.336,10.618z"/>
</g>
<g>
	<path fill="#1B87C9" d="M3.426,20.667H1.507l5.438-9.52l-5.209-9.14h1.919L9,11.167L3.426,20.667z"/>
</g>
</svg>
