<?xml version="1.0" encoding="utf-8"?>
<!-- Generator: Adobe Illustrator 16.0.0, SVG Export Plug-In . SVG Version: 6.00 Build 0)  -->
<!DOCTYPE svg PUBLIC "-//W3C//DTD SVG 1.1//EN" "http://www.w3.org/Graphics/SVG/1.1/DTD/svg11.dtd">
<svg version="1.1" id="레이어_1" xmlns="http://www.w3.org/2000/svg" xmlns:xlink="http://www.w3.org/1999/xlink" x="0px"
	 y="0px" width="280px" height="250px" viewBox="0 0 280 250" enable-background="new 0 0 280 250" xml:space="preserve">
<g id="사회초년생">
	<g>
		<path fill="#454446" d="M-213.966,156.012l-27.349,4.668c0,0-12.024,1.831-10.818,9.342l14.125,55.832c0,0,1.8,12.17,0.902,16.439
			h113.646c0,0,2.189-13.4,5.131-18.882l20.061-54.404l0.619-2.538l-1.596-0.402l-39.875-10.055H-213.966z"/>
		<path fill="#454446" d="M-98.27,166.771c0,0,5.729-0.506,7.684,4.47l7.664,71.052h-41.328
			C-124.25,242.293-105.357,168.598-98.27,166.771z"/>
		<path fill="#454446" d="M-248.343,161.794c0,0-6.198,1.46-9.001,16.888l-20.038,63.611h43.283c0,0-17.633-78.234-7.216-81.613
			L-248.343,161.794z"/>
		<path fill="#FEE4D2" d="M-232.134,84.306V58.451c0,0,1.158-10.122,14.472-12.741l36.473-1.876v94.061
			C-181.19,137.896-217.663,143.891-232.134,84.306z"/>
		<path fill="#FEE4D2" d="M-130.896,84.306V58.451c0,0-1.156-10.122-14.469-12.741l-36.466-1.876v94.061
			C-181.832,137.896-145.365,143.891-130.896,84.306z"/>
		<path fill="#FEE4D2" d="M-196.301,133.535c0,0,8.892,21.508,8.317,23.463h21.12c0,0,1.881-18.216,5.08-26.949L-196.301,133.535z"
			/>
		<path fill="#FFFFFF" d="M-192.3,144.088c0,0-1.948,1.164-3.644,1.943c0,0-14.673,38.326,17.664,70.404
			c0,0,25.182-35.205,21.191-70.849l-6.938-2.659l-13.938,15.887L-192.3,144.088z"/>
		<polygon fill="#6D9FD4" points="-185.888,155.23 -178.281,146.889 -169.086,153.989 -173.969,162.209 -169.086,171.898 
			-178.279,216.438 -187.044,171.775 -181.726,161.943 		"/>
		<path fill="#FFFFFF" stroke="#D8D8D8" stroke-width="0.1" stroke-miterlimit="10" d="M-192.3,144.088l2.74,14.727l13.685-13.35
			C-175.875,145.465-187.279,146.629-192.3,144.088z"/>
		<path fill="#FFFFFF" stroke="#D8D8D8" stroke-width="0.1" stroke-miterlimit="10" d="M-164.025,142.441l-0.723,14.895
			l-15.404-11.893C-180.152,145.443-168.664,145.463-164.025,142.441z"/>
		<path fill="#353535" d="M-161.637,143.521c0,0,27.041,9.838,33.512,25.188l-14.461,7.194l9.211,5.757l-44.271,33.86
			C-177.646,215.521-154.664,168.68-161.637,143.521z"/>
		<path fill="#353535" d="M-193.77,144.924c0,0-27.8,10.354-34.271,25.703l16.157,3.741l-9.211,5.757l42.7,36.313
			C-178.396,216.438-200.742,170.083-193.77,144.924z"/>
		<path fill="#CCCCCC" d="M-174.887,228.793c0,1.708-1.42,3.083-3.174,3.083c-1.756,0-3.18-1.375-3.18-3.083
			c0-1.704,1.424-3.084,3.18-3.084C-176.307,225.709-174.887,227.089-174.887,228.793z"/>
		<path fill="#3D2D23" d="M-229.601,93.789c0,0-16.024-30.996-2.533-56.996c0,0,8.509-15.333,20.176-17
			c0,0,10.933-17.331,42.833-11.667c0,0,27.104,2.167,38.229,24.5c0,0,9.105,12.333,5.271,40c0,0-2.563,18.41-9.254,24.623
			c0,0,7.186-23.866-2.48-30.533c0,0-37.516-4.922-70.766-15.255C-208.125,51.461-225.298,73.117-229.601,93.789z"/>
		<g>
			<path fill="#354055" d="M-195.198,245.613c0,1.869-1.516,3.387-3.387,3.387h-77.904c-1.871,0-3.387-1.518-3.387-3.387v-57.809
				c0-1.871,1.516-3.388,3.387-3.388h77.904c1.871,0,3.387,1.517,3.387,3.388V245.613z"/>
			<rect x="-254.247" y="187.798" fill="none" stroke="#C4C2CE" stroke-miterlimit="10" width="3.387" height="3.733"/>
			<path fill="#283A4F" d="M-255.108,190.993l-3.439,16.937c0,0-0.736,1.856,3.439,2.621l3.93,0.229c0,0,1.965-0.141,3.439-1.947
				c0,0,0.736-0.775,0-5.13l-2.457-12.709H-255.108z"/>
			<rect x="-226.134" y="187.798" fill="none" stroke="#C4C2CE" stroke-miterlimit="10" width="3.387" height="3.733"/>
			<path fill="#283A4F" d="M-226.995,190.993l-3.439,16.937c0,0-0.736,1.856,3.439,2.621l3.93,0.229c0,0,1.966-0.141,3.439-1.947
				c0,0,0.736-0.775,0-5.13l-2.457-12.709H-226.995z"/>
			<path fill="none" stroke="#283A4F" stroke-width="4" stroke-miterlimit="10" d="M-252.554,188.422
				c0,0-3.563-19.222,15.225-19.222c0,0,13.71-0.833,12.889,19.349"/>
		</g>
		
			<ellipse transform="matrix(0.1871 -0.9823 0.9823 0.1871 -199.1734 -54.7099)" fill="#FEE4D2" cx="-132.644" cy="92.992" rx="9.667" ry="3.607"/>
		
			<ellipse transform="matrix(0.1871 0.9823 -0.9823 0.1871 -94.5226 300.2213)" fill="#FEE4D2" cx="-228.661" cy="92.998" rx="9.667" ry="3.607"/>
	</g>
</g>
<g id="결혼적령기">
	<g>
		
			<ellipse transform="matrix(-0.0559 -0.9984 0.9984 -0.0559 -539.4608 176.9866)" fill="#FEE4D2" cx="-186.053" cy="343.544" rx="57.028" ry="42.138"/>
		<path fill="#FEE4D2" d="M-202.416,387.143c0,0,2.41,20.588-1.09,32.42c0,0,21.275,9.353,44.148-6.086
			c0,0-7.193-5.996-5.781-23.521L-202.416,387.143z"/>
		<path fill="#FEE4D2" d="M-277.972,503.211c0,0-1.926,15.195,0,17.695l29.37,1.524c0,0,1.942-13.916,2.115-19.221L-277.972,503.211
			L-277.972,503.211z"/>
		<path fill="#FEE4D2" d="M-95.878,498.188c0,0,1.926,18.145,0,21.131l-29.369,1.819c0,0-1.943-16.616-2.115-22.95H-95.878z"/>
		<path fill="#D8B09C" d="M-230.507,408.449l-23.986,10.516c0,0,17.639,65.502,8.389,103.467l117.584-3.45
			c0,0-1.803-75.998,4.275-96.13c0,0-35.336-10.565-36.631-16.192c0,0-20.707,26.074-42.71,1.791L-230.507,408.449L-230.507,408.449
			z"/>
		<path fill="#D1A18C" d="M-252.458,418.902c0,0-25.116,1.877-30.946,70.041l41.18,3.889
			C-242.224,492.832-248.421,433.42-252.458,418.902z"/>
		<path fill="#D1A18C" d="M-124.058,422.225c0,0-8.172,26.048-4.766,68.316l38.457-5.186
			C-90.367,485.355-103.259,425.459-124.058,422.225z"/>
		<path fill="#D8B09C" stroke="#D1A18C" stroke-miterlimit="10" d="M-283.492,488.943l-8.211,11.485c0,0,2.939,6.146,9.598,3.234
			c0,0,3.826-2.318,6.49-0.053c0,0,2.606,2.909,6.212,2.532c0,0,1.805,0.433,6.282-1.454c0,0,2.371-1.351,3.48-0.433
			c0,0,2.053,2.373,4.105,2.75c0,0,2.94,1.025,5.325-1.779c0,0,3.328-3.45,6.712,0.916c0,0,2.718,2.05,4.271,2.158l-3.521-15.471
			L-283.492,488.943z"/>
		<path fill="#D8B09C" stroke="#D1A18C" stroke-miterlimit="10" d="M-90.148,485.787l7.762,11.488c0,0-2.779,6.146-9.072,3.233
			c0,0-3.619-2.317-6.137-0.053c0,0-2.463,2.912-5.873,2.533c0,0-1.707,0.432-5.939-1.455c0,0-2.242-1.351-3.291-0.433
			c0,0-1.941,2.373-3.881,2.75c0,0-2.781,1.025-5.035-1.778c0,0-3.146-3.451-6.346,0.916c0,0-2.568,2.051-4.037,2.158l3.328-15.474
			L-90.148,485.787z"/>
		<path fill="#754F1F" d="M-169.875,303.049c0,0,14.895,22.977,22.523,28.152c0,0,1.283,39.957-17.787,58.754
			c0,0-4.088,17.709,7.9,25.064c0,0,13.895,8.446,24.248,8.174l24.248,4.086c0,0,14.984,6.268,18.525,22.069
			c0,0-6.539-24.521-27.789-36.235c0,0-5.721-3.543-6.813-5.994c0,0-4.631-18.799-1.088-38.959c0,0,3.256-18.979-3.207-45.969
			c0,0-0.258-3.523-3.525-11.332c0,0-8.355-19.48-15.439-25.611c0,0-10.535-12.385-34.328-12.348c0,0-22.568,2.902-24.339,11.621
			c0,0-17.073,5.813-24.702,25.246c0,0-8.207,18.207-8.343,38.096c0,0,0.214,48.498-2.448,57.186c0,0-2.378,13.197-3.195,19.191
			c0,0-1.227,5.586-4.479,10.428c0,0-11.867,11.642-12.685,22.812c0,0-1.635,24.93,12.26,28.743c0,0-1.297-8.502,2.006-13.508
			c0.074-0.114,0.152-0.229,0.232-0.346c3.541-5.039-0.195,5.68,11.248,8.404c0,0,7.629,2.996,23.08-0.775
			c0,0,12.201-4.402,14.518-9.305c0,0-17.301,0-17.301-10.08c0-10.082,2.654-12.099,4.562-16.32c0,0,6.064-15.422,6.882-18.146
			c0,0,5.795-20.206,2.934-30.693c0,0-11.106-11.76-16.555-28.834c0,0-3.24-19.215-0.364-32.875c0,0,1.454-6.176,5.269-11.442
			C-213.828,322.301-177.912,314.627-169.875,303.049z"/>
		
			<ellipse transform="matrix(0.1871 -0.9823 0.9823 0.1871 -471.0636 144.4393)" fill="#FEE4D2" cx="-148.259" cy="356.844" rx="9.667" ry="3.607"/>
		
			<ellipse transform="matrix(0.1871 0.9823 -0.9823 0.1871 171.5135 506.4823)" fill="#FEE4D2" cx="-220.276" cy="356.875" rx="9.667" ry="3.607"/>
	</g>
</g>
<g id="신혼부부">
	<g>
		<path fill="#482016" d="M63.943,48.577c0,0-49.333-0.167-54.167,51.5c0,0-12.666,24.001,2.834,60.167
			c0,0,15.332,27.166,15.166,32.332c0,0,4.666,13.334-5,16.334c0,0-7.167,2.168-9.5-8.666c0,0-2.291,11.082,9.584,14.082l-11.25-3
			c0,0,7.166,15.084,15.166,17.418h80.834c0,0,9.333-3.834,12.5-14.168c0,0-7.668,3.834-11.334,0.668c0,0,17-0.5,13.667-12.668
			c0,0,0.833,12.834-14.833,8.668c0,0-3.167-1.502-2.667-7.834c0,0,2.666-10,7.833-20.334c0,0,14.166-29.5,14.834-34.5
			c0,0,6.5-20,0-46c0,0-6.334-35-23.667-44.167C103.943,58.41,89.443,46.743,63.943,48.577z"/>
		<ellipse fill="#FEE4D2" cx="67.699" cy="125.5" rx="46.833" ry="50.846"/>
		<path fill="#482016" d="M39.034,85.749c0,0,7.742,16.661,26.409,17.328c0,0-9.333-7-10.667-11c0,0,8.166,10.167,18.334,8.333
			c0,0-8-3.333-8.167-7.833c0,0,6.667,9,36.667,7.167c0,0,7.334,8,8.666,29.667c1.334,21.666,0,0.666,0,0.666s-0.332,20.834-5.5,34
			c0,0-1.5,4.334-1,9c0,0,4.166-9.5,7.834-15.5c0,0,6-13.332,8-23c0,0,6.834-27,1.666-40.833c0,0-7.834-25.5-26.166-28
			c-18.334-2.5-54.243-2.495-65.576,15.005c0,0-10.924,8.161-13.424,44.995c0,0-2,14.833,7,31.667c0,0,8.674,9.256,8.674,14.088
			c0,0-4.918-19.332-6.918-30.5C24.866,140.998,23.367,94.582,39.034,85.749z"/>
		<path fill="#FEE4D2" d="M25.176,139c1.477,5.723,0.505,10.922-2.169,11.611c-2.674,0.688-6.038-3.392-7.515-9.115
			c-1.476-5.721-0.504-10.92,2.17-11.609C20.336,129.198,23.701,133.277,25.176,139z"/>
		<path fill="#FEE4D2" d="M108.691,141.691c-1.476,5.723-0.505,10.922,2.169,11.61c2.674,0.689,6.039-3.391,7.515-9.114
			c1.476-5.722,0.505-10.92-2.169-11.609S110.167,135.969,108.691,141.691z"/>
		<path fill="#FEE4D2" d="M58.2,170.486v15c0,0,1.333,7-4,11.332c0,0-5.333,4.666-11.333,5.334c0,0-9-1-11.333,7.666
			c0,0-3.334,8.688-3.668,40.678l13,0.002l2.241-24.291L71.2,241.152l29.334-16.668l1.666,26.014l14.666-0.002l-3.332-32.012
			c0,0-0.668-12.666-8.668-15c0,0-9.666-4.002-12.332-3.834c0,0-6-2.5-7-7.166l-2.668-21.998H58.2L58.2,170.486z"/>
		<path fill="#FFFFFF" d="M42.363,202.166l5.167-1c0,0,6,22.5,6.166,24.666c0,0,13.834,0.834,18.334,9.168
			c0,0,8.666-11.002,18.666-8.834l5.667-26l3.5,0.834l0.667,27.166c0,0,5.333,16.5-1.834,25.834H42.363
			c0,0-5.167-11.334,0.833-23.834L42.363,202.166z"/>
		<path fill="#FEFBE3" d="M43.158,79.903c0,0,24.542-12.167,49.084,0.191C92.242,80.094,69.272,55.736,43.158,79.903z"/>
		<g>
			<path fill="none" stroke="#FEFBE3" stroke-miterlimit="10" d="M45.584,78.439c0,0-11.255-6.5-4.005-11.75"/>
			<path fill="none" stroke="#FEFBE3" stroke-miterlimit="10" d="M48.584,75.939c0,0-12-7-5-11.5c0,0,3.028-1.444,3.778-0.444"/>
			<path fill="none" stroke="#FEFBE3" stroke-miterlimit="10" d="M53.334,72.939c0,0-11.916-10.833-2.083-12.5"/>
			<path fill="none" stroke="#FEFBE3" stroke-miterlimit="10" d="M60.617,70.749c0,0-16.032-9.643-6.282-12.809
				c0,0,1.584-0.833,5-0.417"/>
			<path fill="none" stroke="#FEFBE3" stroke-miterlimit="10" d="M67.788,57.726c0,0-2.816-5.04-7.178-2.417
				c0,0-4.747,2.387,2.277,11.229l2.979,3.43"/>
			<path fill="none" stroke="#FEFBE3" stroke-miterlimit="10" d="M89.813,78.439c0,0,11.35-6.164,4.1-11.414"/>
			<path fill="none" stroke="#FEFBE3" stroke-miterlimit="10" d="M86.813,75.939c0,0,12-7,5-11.5c0,0-3.368-0.878-4.118,0.122"/>
			<path fill="none" stroke="#FEFBE3" stroke-miterlimit="10" d="M81.117,72.939c0,0,12.864-10.833,3.03-12.5"/>
			<path fill="none" stroke="#FEFBE3" stroke-miterlimit="10" d="M74.617,70.749c0,0,16.196-9.643,6.446-12.809
				c0,0-1.583-0.833-5-0.417"/>
			<path fill="none" stroke="#FEFBE3" stroke-miterlimit="10" d="M67.661,57.406c0,0,2.668-4.397,7.129-2.098
				c0,0,4.746,2.387-2.278,11.229l-2.947,3.795"/>
		</g>
	</g>
	<g>
		<ellipse fill="#FEE4D2" cx="209.959" cy="102.646" rx="53.422" ry="57.998"/>
		
			<ellipse transform="matrix(-0.2497 -0.9683 0.9683 -0.2497 79.1789 300.2863)" fill="#FEE4D2" cx="155.929" cy="119.467" rx="12.207" ry="5.703"/>
		
			<ellipse transform="matrix(-0.2497 0.9683 -0.9683 -0.2497 446.3937 -100.8163)" fill="#FEE4D2" cx="262.255" cy="122.533" rx="12.206" ry="5.705"/>
		<path fill="#0A0909" d="M186.6,171.709c0,0-23.668,15.832-26.168,19.66c0,0-0.998,9.047-0.832,13.744l-2.668,45.754l118.168-0.695
			l-7.5-50.975c0,0-1-10.264-6.168-14.092l-28.666-16.875L186.6,171.709z"/>
		<path fill="#48291C" d="M242.344,70.147c0,0-4.5,10.5-26.5,11c0,0,16-4.75,16.25-11c0,0-8,9-35.75,8.25c0,0-19.25-1.5-26.25,4.75
			c0,0-11,5.25-11.5,19c0,0-1.75,17,4.25,26.75c0,0-8.75-9-12-32.5c0,0-4.5-21.75,2-42c0,0,10.5-28,31-35.5c0,0,29-11.5,49.5,1.25
			c0,0,11.25,5.5,12.75,10.5c0,0-0.75-7.5-3.5-10c0,0,8,8.75,8.75,15.5c0,0,7.75-1.5,13,4c0,0-6.75-1.25-7.75-0.75
			c0,0,10,5.25,13,19.25c0,0,2.25,12.25,0,26.75c0,0-1.5,25.5-12,43.5c0,0,6-24.75,2.5-39c0,0-1.75-8.25-6.5-12.5
			c0,0-3.25-4-5.5-4.25c0,0-0.5,5.75,2,9.25C250.094,82.397,244.844,77.897,242.344,70.147z"/>
		<rect x="194.797" y="151.646" fill="#FEE4D2" width="32.25" height="36.5"/>
		<path fill="#FAFBFB" d="M193.922,165.146c0,0,9.125,10,15.875,13.375c0,0,10.125-4,18.125-13.375c0,0,8,11.125,0.875,31.25
			l-18.838,53.408l-18.314-54.408C191.645,195.396,188.797,177.021,193.922,165.146z"/>
		<path fill="#223440" d="M227.922,165.146c0,0,10.25,4.875,13.375,11.625c0,0,3.125,5.125,3.25,11.125l-11,1.75l10.125,2.25
			c0,0-9.875,17.875-13.875,23.375l-20.25,35.25l20.25-63.125C229.797,187.396,233.172,175.896,227.922,165.146z"/>
		<path fill="#223440" d="M194.232,165.146c0,0-10.25,4.875-13.375,11.625c0,0-3.125,5.125-3.25,11.125l11,1.75l-10.125,2.25
			c0,0,9.875,17.875,13.875,23.375l17.602,35.25l-17.602-63.125C192.357,187.396,188.982,175.896,194.232,165.146z"/>
		<polygon fill="#0E0E10" points="207.959,176.732 212.627,176.732 220.959,170.564 220.959,186.314 212.793,180.898 
			207.959,180.898 198.959,186.314 198.959,170.564 		"/>
		<line fill="none" x1="209.959" y1="180.648" x2="209.959" y2="249.697"/>
		<line fill="none" x1="191.297" y1="176.23" x2="198.959" y2="185.064"/>
		<line fill="none" x1="220.297" y1="185.064" x2="230.41" y2="173.045"/>
	</g>
	<path fill="#EC2426" d="M146.912,36.559c-2.418-4.513-7.253-4.442-7.253-4.442c-5.582-0.698-8.843,4.293-9.16,4.804
		c-0.318-0.511-3.578-5.501-9.161-4.804c0,0-4.835-0.071-7.253,4.442c0,0-1.651,2.297-1.289,6.971c0,0,0.564,4.15,1.895,5.762
		c0,0,3.505,4.444,4.352,5.144l5.479,4.691l5.951,5.539v0.049l0.027-0.024l0.025,0.024v-0.049l5.951-5.539l5.48-4.691
		c0.846-0.699,4.353-5.144,4.353-5.144c1.33-1.612,1.895-5.762,1.895-5.762C148.563,38.855,146.912,36.559,146.912,36.559z"/>
	<path fill="#EC2426" d="M114.566,11.569c-1.729-1.907-4.079-1.283-4.079-1.283c-2.808,0.34-3.79,3.172-3.883,3.459
		c-0.217-0.21-2.416-2.247-5.054-1.227c0,0-2.366,0.555-2.996,3.051c0,0-0.525,1.322,0.222,3.557c0,0,0.78,1.956,1.625,2.58
		c0,0,2.252,1.741,2.75,1.979l3.244,1.62l3.577,1.976l0.007,0.024l0.01-0.016l0.016,0.009l-0.006-0.024l2.227-3.426l2.102-2.956
		c0.328-0.444,1.496-3.039,1.496-3.039c0.451-0.948,0.222-3.042,0.222-3.042C115.651,12.488,114.566,11.569,114.566,11.569z"/>
</g>
</svg>
