<?xml version="1.0" encoding="utf-8"?>
<!-- Generator: Adobe Illustrator 16.0.0, SVG Export Plug-In . SVG Version: 6.00 Build 0)  -->
<!DOCTYPE svg PUBLIC "-//W3C//DTD SVG 1.1//EN" "http://www.w3.org/Graphics/SVG/1.1/DTD/svg11.dtd">
<svg version="1.1" xmlns="http://www.w3.org/2000/svg" xmlns:xlink="http://www.w3.org/1999/xlink" x="0px" y="0px"
	 width="25.938px" height="27.375px" viewBox="67 0 25.938 27.375" enable-background="new 67 0 25.938 27.375"
	 xml:space="preserve">
<g id="레이어_1">
	<g>
		<path fill="#C61C61" d="M80,1.4c-6.959,0-12.6,5.641-12.6,12.6C67.4,20.959,73.041,26.6,80,26.6S92.6,20.959,92.6,14
			C92.6,7.042,86.959,1.4,80,1.4z M80.614,18.207l-2.97,2.971l-6.674-6.673l2.97-2.97l3.704,3.704l8.414-8.415l2.971,2.97
			L80.614,18.207z"/>
	</g>
</g>
<g id="레이어_3">
	<ellipse fill="#C61C61" cx="79.969" cy="13.688" rx="10" ry="9.084"/>
</g>
<g id="레이어_2">
	<path fill="#FFFFFF" d="M81.894,14.323l5.204-5.205c0.536-0.536,0.536-1.389,0-1.925c-0.534-0.536-1.39-0.536-1.924,0l-5.205,5.205
		l-5.205-5.205c-0.536-0.536-1.389-0.536-1.925,0c-0.536,0.536-0.536,1.389,0,1.925l5.205,5.205l-5.205,5.206
		c-0.536,0.534-0.536,1.389,0,1.924c0.268,0.269,0.603,0.402,0.955,0.402c0.351,0,0.703-0.134,0.954-0.402l5.222-5.205l5.205,5.205
		c0.268,0.269,0.619,0.402,0.954,0.402c0.352,0,0.702-0.134,0.954-0.402c0.535-0.535,0.535-1.39,0-1.924L81.894,14.323z"/>
</g>
</svg>
