<?xml version="1.0" encoding="utf-8"?>
<!-- Generator: Adobe Illustrator 16.0.0, SVG Export Plug-In . SVG Version: 6.00 Build 0)  -->
<!DOCTYPE svg PUBLIC "-//W3C//DTD SVG 1.1//EN" "http://www.w3.org/Graphics/SVG/1.1/DTD/svg11.dtd">
<svg version="1.1" id="레이어_1" xmlns="http://www.w3.org/2000/svg" xmlns:xlink="http://www.w3.org/1999/xlink" x="0px"
	 y="0px" width="21.85px" height="23.098px" viewBox="-0.651 -0.778 21.85 23.098"
	 enable-background="new -0.651 -0.778 21.85 23.098" xml:space="preserve">
<path fill="#FFFFFF" d="M20.191,20.192c-0.761,0.763-1.995,0.763-2.758,0l-3.441-3.441C12.578,17.66,10.906,18.2,9.1,18.2
	C4.074,18.199,0,14.125,0,9.101C0,4.074,4.074,0,9.1,0c5.024,0,9.099,4.074,9.099,9.101c0,1.805-0.541,3.478-1.447,4.893l3.44,3.442
	C20.953,18.197,20.953,19.429,20.191,20.192L20.191,20.192z M9.099,2.6C5.511,2.6,2.6,5.51,2.6,9.1c0,3.589,2.911,6.5,6.499,6.5
	c3.591,0,6.5-2.91,6.5-6.5C15.599,5.51,12.69,2.6,9.099,2.6z"/>
</svg>
