<?xml version="1.0" encoding="utf-8"?>
<!-- Generator: Adobe Illustrator 16.0.0, SVG Export Plug-In . SVG Version: 6.00 Build 0)  -->
<!DOCTYPE svg PUBLIC "-//W3C//DTD SVG 1.1//EN" "http://www.w3.org/Graphics/SVG/1.1/DTD/svg11.dtd">
<svg version="1.1" id="Layer_1" xmlns="http://www.w3.org/2000/svg" xmlns:xlink="http://www.w3.org/1999/xlink" x="0px" y="0px"
	 width="50px" height="50px" viewBox="0 0 50 50" enable-background="new 0 0 50 50" xml:space="preserve">
<g display="none">
	<path display="inline" fill="none" stroke="#343332" stroke-width="2" stroke-miterlimit="10" d="M47.881,40.052
		c0,0.229-0.185,0.415-0.415,0.415h-8.881l-4.157,6.804l-4.518-6.804H5.24c-0.229,0-0.416-0.187-0.416-0.415V4.888
		c0-0.229,0.187-0.415,0.416-0.415h42.226c0.23,0,0.415,0.186,0.415,0.415V40.052z"/>
	<path display="inline" fill="#343332" d="M4.824,4.888c0-0.229,0.187-0.415,0.416-0.415h39.889V1.772
		c0-0.23-0.186-0.416-0.416-0.416H1.812c-0.23,0-0.415,0.186-0.415,0.416v35.733c0,0.229,0.185,0.415,0.415,0.415h3.013V4.888z"/>
	<g display="inline">
		<circle fill="none" stroke="#333333" stroke-miterlimit="10" cx="35.563" cy="14.357" r="3.895"/>
		<path fill="none" stroke="#333333" stroke-miterlimit="10" d="M43.216,14.349c0,0.059-0.052,0.128-0.084,0.176
			c-1.137,1.699-3.445,3.78-7.454,3.78c-4.073,0-6.301-2.374-7.429-3.839c-0.016-0.021-0.102-0.111-0.102-0.137
			c0-0.058,0.037-0.111,0.075-0.152c1.457-1.577,3.441-3.785,7.455-3.785c4.016,0,5.996,2.218,7.454,3.79
			C43.169,14.222,43.216,14.293,43.216,14.349z"/>
		<text transform="matrix(1 0 0 1 32.9023 16.1553)" fill="#FFFFFF" font-family="'BMJUA'" font-size="5.5447">\</text>
	</g>
	<g display="inline">
		<g>
			<text transform="matrix(1 0 0 1 12.3013 14.8423)" fill="#FFFFFF" font-family="'BMJUA'" font-size="6.2758">$</text>
			<g>
				<rect x="20.784" y="11.132" fill="#FFFFFF" width="1.041" height="4.458"/>
				<rect x="18.991" y="12.305" fill="#FFFFFF" width="1.041" height="3.286"/>
				<rect x="17.241" y="13.555" fill="#FFFFFF" width="1.041" height="2.036"/>
			</g>
		</g>
		<g>
			<rect x="15.585" y="17.411" fill="#343332" width="2.957" height="2.041"/>
			<path fill="#343332" d="M21.376,20.536c0,0.689-0.561,1.25-1.25,1.25h-6.125c-0.691,0-1.25-0.561-1.25-1.25l0,0
				c0-0.691,0.559-1.25,1.25-1.25h6.125C20.815,19.286,21.376,19.845,21.376,20.536L21.376,20.536z"/>
			<path fill="none" stroke="#343332" stroke-miterlimit="10" d="M24.333,16.327c0,0.782-0.635,1.417-1.416,1.417H11.21
				c-0.783,0-1.418-0.635-1.418-1.417V9.912c0-0.783,0.635-1.417,1.418-1.417h11.707c0.781,0,1.416,0.635,1.416,1.417V16.327z"/>
		</g>
	</g>
	<g display="inline">
		<g>
			<path fill="#FFFFFF" d="M16.961,28.989c0.048-0.036,0.041-0.126-0.01-0.195l0,0c-0.051-0.068-0.135-0.102-0.183-0.066
				l-4.188,3.104c-0.048,0.035-0.042,0.125,0.009,0.194l0,0c0.051,0.069,0.135,0.103,0.183,0.066L16.961,28.989z"/>
			<path fill="#FFFFFF" d="M22.563,26.456c0.037-0.039,0.014-0.123-0.048-0.184l0,0c-0.062-0.059-0.146-0.082-0.184-0.043
				l-3.587,3.653c-0.037,0.038-0.013,0.122,0.049,0.183l0,0c0.061,0.061,0.146,0.082,0.184,0.044L22.563,26.456z"/>
			<path fill="#FFFFFF" d="M18.838,30.085c0.053,0.026,0.131-0.02,0.169-0.097l0,0c0.039-0.076,0.03-0.166-0.023-0.192l-2.104-1.09
				c-0.053-0.027-0.131,0.019-0.17,0.096l0,0c-0.038,0.076-0.029,0.166,0.023,0.193L18.838,30.085z"/>
			<path fill="#FFFFFF" d="M23.002,26.631c-0.014,0.071-0.029,0.18-0.124,0.122l-0.845-0.844c-0.082-0.089,0.047-0.105,0.12-0.121
				l0.986-0.237c0.119-0.014,0.127,0.054,0.127,0.122L23.002,26.631z"/>
		</g>
		<path fill="#343332" d="M11.868,36.138c0,0.265-0.215,0.479-0.479,0.479l0,0c-0.265,0-0.479-0.215-0.479-0.479V24.93
			c0-0.265,0.215-0.479,0.479-0.479l0,0c0.265,0,0.479,0.215,0.479,0.479V36.138z"/>
		<g>
			<rect x="13.491" y="32.356" fill="#FFFFFF" width="1.023" height="3.969"/>
			<rect x="15.491" y="30.41" fill="#FFFFFF" width="1.023" height="5.915"/>
			<rect x="17.47" y="30.41" fill="#FFFFFF" width="1.023" height="5.915"/>
			<rect x="19.429" y="30.41" fill="#FFFFFF" width="1.023" height="5.915"/>
			<rect x="21.495" y="28.169" fill="#FFFFFF" width="1.023" height="8.156"/>
		</g>
		<path fill="#343332" d="M11.43,36.806c-0.287,0-0.521-0.215-0.521-0.48l0,0c0-0.264,0.233-0.479,0.521-0.479h12.147
			c0.288,0,0.521,0.215,0.521,0.479l0,0c0,0.266-0.232,0.48-0.521,0.48H11.43z"/>
	</g>
	<g display="inline">
		<rect x="29.309" y="25.045" fill="#FFFFFF" width="1.164" height="1.165"/>
		<rect x="29.31" y="26.653" fill="#FFFFFF" width="1.164" height="1.164"/>
		<rect x="29.31" y="28.306" fill="#FFFFFF" width="1.164" height="1.164"/>
		<rect x="31.128" y="25.045" fill="#FFFFFF" width="1.164" height="1.165"/>
		<rect x="31.129" y="26.653" fill="#FFFFFF" width="1.164" height="1.164"/>
		<rect x="31.129" y="28.306" fill="#FFFFFF" width="1.164" height="1.164"/>
		<rect x="32.944" y="25.045" fill="#FFFFFF" width="1.164" height="1.165"/>
		<rect x="32.945" y="26.653" fill="#FFFFFF" width="1.164" height="1.164"/>
		<rect x="32.945" y="28.306" fill="#FFFFFF" width="1.164" height="1.164"/>
		<rect x="29.309" y="29.847" fill="#FFFFFF" width="1.164" height="1.165"/>
		<rect x="29.31" y="31.455" fill="#FFFFFF" width="1.164" height="1.164"/>
		<rect x="29.31" y="33.107" fill="#FFFFFF" width="1.164" height="1.165"/>
		<rect x="31.128" y="29.847" fill="#FFFFFF" width="1.164" height="1.165"/>
		<rect x="31.129" y="31.455" fill="#FFFFFF" width="1.164" height="1.164"/>
		<rect x="31.129" y="33.107" fill="#FFFFFF" width="1.164" height="1.165"/>
		<rect x="29.309" y="34.731" fill="#FFFFFF" width="2.984" height="1.697"/>
		<rect x="32.944" y="29.847" fill="#FFFFFF" width="1.164" height="1.165"/>
		<rect x="32.945" y="31.455" fill="#FFFFFF" width="1.164" height="1.164"/>
		<rect x="32.945" y="33.107" fill="#FFFFFF" width="1.164" height="1.165"/>
		<rect x="32.945" y="34.731" fill="#FFFFFF" width="1.164" height="1.165"/>
		<rect x="37.571" y="27.429" fill="#FFFFFF" width="1.164" height="1.164"/>
		<rect x="37.572" y="29.036" fill="#FFFFFF" width="1.164" height="1.164"/>
		<rect x="37.572" y="30.688" fill="#FFFFFF" width="1.164" height="1.164"/>
		<rect x="39.391" y="27.429" fill="#FFFFFF" width="1.164" height="1.164"/>
		<rect x="39.392" y="29.036" fill="#FFFFFF" width="1.164" height="1.164"/>
		<rect x="39.392" y="30.688" fill="#FFFFFF" width="1.164" height="1.164"/>
		<rect x="41.207" y="27.429" fill="#FFFFFF" width="1.164" height="1.164"/>
		<rect x="41.208" y="29.036" fill="#FFFFFF" width="1.164" height="1.164"/>
		<rect x="41.208" y="30.688" fill="#FFFFFF" width="1.164" height="1.164"/>
		<rect x="37.571" y="32.23" fill="#FFFFFF" width="1.164" height="1.165"/>
		<rect x="37.572" y="33.839" fill="#FFFFFF" width="1.164" height="1.164"/>
		<rect x="39.391" y="32.23" fill="#FFFFFF" width="1.164" height="1.165"/>
		<rect x="39.392" y="33.839" fill="#FFFFFF" width="1.164" height="2.787"/>
		<rect x="41.207" y="32.23" fill="#FFFFFF" width="1.164" height="1.165"/>
		<rect x="41.208" y="33.839" fill="#FFFFFF" width="1.164" height="1.164"/>
		<path fill="none" stroke="#333333" stroke-miterlimit="10" d="M35.374,35.314c0,0.782-0.635,1.417-1.417,1.417h-4.416
			c-0.782,0-1.417-0.635-1.417-1.417v-9.863c0-0.782,0.635-1.417,1.417-1.417h4.416c0.782,0,1.417,0.635,1.417,1.417V35.314z"/>
		<path fill="none" stroke="#333333" stroke-miterlimit="10" d="M43.216,35.314c0,0.782-0.635,1.417-1.417,1.417h-3.666
			c-0.782,0-1.417-0.635-1.417-1.417v-7.837c0-0.782,0.635-1.417,1.417-1.417h3.666c0.782,0,1.417,0.635,1.417,1.417V35.314z"/>
	</g>
</g>
<g display="none">
	<g display="inline">
		<circle fill="#FFFFFF" cx="13.956" cy="13.112" r="3.792"/>
		<path fill="#FFFFFF" d="M13.022,16.483c0,0-2.669-0.07-4.979,3.526c0,0-1.745,2.821,0.528,4.408c0,0,4.162,2.663,10.351,0.476
			c0,0,2.521-1.058,2.151-2.908c0,0-0.176-4.212-5.96-5.552c0,0,0.071,0.091,0.056,0.391c-0.012,0.227-0.744,0.896-1.046,1.193
			l0.528,5.124v0.023l0.305,0.025l-1.184,1.385l-0.121,0.01v-0.008l-0.98-1.332l0.101-0.041l0.062-0.043l0.929-5.144
			c0,0-0.607-0.632-0.756-1.099C12.915,16.622,13.033,16.472,13.022,16.483z"/>
	</g>
	<path display="inline" fill="none" stroke="#FFFFFF" stroke-width="2" stroke-miterlimit="10" d="M47.549,24.116
		c0,0.295-0.24,0.535-0.536,0.535H20.352c-0.297,0-0.536-0.24-0.536-0.535V5.18c0-0.296,0.239-0.536,0.536-0.536h26.661
		c0.296,0,0.536,0.24,0.536,0.536V24.116z"/>
	<polygon display="inline" fill="#343332" points="20.028,45.446 8.599,45.446 5.279,25.528 23.227,25.528 	"/>
	<path display="inline" fill="#343332" d="M23.228,45.078c0,0.202-0.142,0.368-0.317,0.368H5.597c-0.176,0-0.317-0.166-0.317-0.368
		v-1.839c0-0.202,0.142-0.367,0.317-0.367H22.91c0.176,0,0.317,0.165,0.317,0.367V45.078z"/>
	<path display="inline" fill="#343332" d="M25.881,25.991c0,0.296-0.185,0.536-0.412,0.536H3.037c-0.228,0-0.412-0.24-0.412-0.536
		v-2.68c0-0.296,0.185-0.535,0.412-0.535h22.432c0.228,0,0.412,0.239,0.412,0.535V25.991z"/>
</g>
<g>
	<g>
		<path fill="#343332" d="M32.652,38.941c0,0.682-0.553,1.233-1.234,1.233H17.887c-0.682,0-1.234-0.552-1.234-1.233v-1.533
			c0-0.682,0.553-1.233,1.234-1.233h13.531c0.682,0,1.234,0.552,1.234,1.233V38.941z"/>
		<path fill="#343332" d="M48.137,6.424H2.574c-0.682,0-1.234,0.552-1.234,1.234v28.098c0,0.682,0.553,1.233,1.234,1.233h45.563
			c0.682,0,1.234-0.552,1.234-1.233V7.658C49.371,6.977,48.818,6.424,48.137,6.424z M47.041,33.136c0,0.682-0.553,1.234-1.232,1.234
			H4.902c-0.682,0-1.234-0.553-1.234-1.234V9.696c0-0.681,0.553-1.234,1.234-1.234h40.906c0.68,0,1.232,0.553,1.232,1.234V33.136z"
			/>
		<path fill="#343332" d="M42.044,42.87c0.138,0.635-0.552,1.305-1.233,1.305H9.966c-0.682,0-1.439-0.637-1.234-1.305l0.926-2.671
			c0.257-0.72,0.552-1.024,1.233-1.024h28.892c0.682,0,1.046,0.305,1.233,1.024L42.044,42.87z"/>
	</g>
	<g>
		<path fill="#FFFFFF" d="M19.088,25.53c0.107,0.16,0.278,0.389-0.005,0.459l-3.144,0.002c-0.316-0.014-0.107-0.284-0.001-0.451
			l1.396-2.277c0.195-0.246,0.335-0.135,0.461-0.01L19.088,25.53z"/>
		<circle fill="#FFFFFF" cx="32.375" cy="23.403" r="2.631"/>
		<path fill="#FFFFFF" d="M31.728,25.742c0,0-1.852-0.049-3.454,2.446c0,0-1.21,1.957,0.367,3.059c0,0,2.888,1.848,7.181,0.33
			c0,0,1.75-0.734,1.492-2.018c0,0-0.333-2.849-4.346-3.778c0,0,0.12,0.12,0.109,0.328c-0.008,0.157-0.205,0.491-0.414,0.697
			l0.523,3.756l-0.812,0.859l-0.86-0.891l0.529-3.725c0,0-0.255-0.272-0.357-0.597C31.621,26.005,31.735,25.734,31.728,25.742z"/>
		<circle fill="#FFFFFF" cx="18.375" cy="13.403" r="2.631"/>
		<path fill="#FFFFFF" d="M17.728,15.742c0,0-1.852-0.049-3.454,2.446c0,0-1.21,1.957,0.367,3.059c0,0,2.888,1.848,7.181,0.33
			c0,0,1.75-0.734,1.492-2.018c0,0-0.333-2.849-4.346-3.778c0,0,0.12,0.12,0.109,0.328c-0.008,0.157-0.205,0.491-0.414,0.697
			l0.523,3.756l-0.812,0.859l-0.86-0.891l0.529-3.725c0,0-0.255-0.272-0.357-0.597C17.621,16.005,17.735,15.734,17.728,15.742z"/>
		<path fill="#FFFFFF" d="M33.106,27.269c0,0,0.167-0.318-0.058-0.322l0.437-0.155L33.106,27.269z"/>
		<path fill="#FFFFFF" d="M17.952,31.031c0,0.268-0.217,0.484-0.484,0.484l0,0c-0.268,0-0.484-0.217-0.484-0.484v-5.266
			c0-0.268,0.217-0.484,0.484-0.484l0,0c0.268,0,0.484,0.217,0.484,0.484V31.031z"/>
		<path fill="#FFFFFF" d="M24.452,30.953c0,0.311-0.252,0.563-0.563,0.563h-6.344c-0.311,0-0.563-0.252-0.563-0.563l0,0
			c0-0.311,0.252-0.563,0.563-0.563h6.344C24.2,30.391,24.452,30.643,24.452,30.953L24.452,30.953z"/>
		<path fill="#FFFFFF" d="M32.136,17.101c-0.107-0.159-0.278-0.389,0.005-0.458l3.144-0.003c0.316,0.014,0.107,0.285,0.001,0.451
			l-1.396,2.277c-0.195,0.247-0.335,0.135-0.461,0.01L32.136,17.101z"/>
		<path fill="#FFFFFF" d="M33.271,11.601c0-0.268,0.217-0.484,0.484-0.484l0,0c0.268,0,0.484,0.217,0.484,0.484v5.266
			c0,0.268-0.217,0.484-0.484,0.484l0,0c-0.268,0-0.484-0.217-0.484-0.484V11.601z"/>
		<path fill="#FFFFFF" d="M26.771,11.679c0-0.311,0.252-0.563,0.563-0.563h6.344c0.311,0,0.563,0.252,0.563,0.563l0,0
			c0,0.311-0.252,0.563-0.563,0.563h-6.344C27.023,12.241,26.771,11.989,26.771,11.679L26.771,11.679z"/>
	</g>
</g>
</svg>
