<?xml version="1.0" encoding="utf-8"?>
<!-- Generator: Adobe Illustrator 16.0.0, SVG Export Plug-In . SVG Version: 6.00 Build 0)  -->
<!DOCTYPE svg PUBLIC "-//W3C//DTD SVG 1.1//EN" "http://www.w3.org/Graphics/SVG/1.1/DTD/svg11.dtd">
<svg version="1.1" id="강의" xmlns="http://www.w3.org/2000/svg" xmlns:xlink="http://www.w3.org/1999/xlink" x="0px" y="0px"
	 width="50px" height="30px" viewBox="0 0 50 30" enable-background="new 0 0 50 30" xml:space="preserve">
<g>
	<path fill="#FFFFFF" d="M2.472,10.236h4.271c0.182,0,0.324,0.075,0.429,0.225c0.104,0.149,0.152,0.292,0.143,0.428h2.693v-0.517
		c0-0.272-0.057-0.449-0.17-0.53C9.724,9.76,9.559,9.696,9.341,9.651C9.132,9.624,8.983,9.576,8.893,9.508
		C8.802,9.44,8.756,9.356,8.756,9.256c0-0.127,0.052-0.222,0.156-0.286c0.104-0.063,0.22-0.095,0.347-0.095h1.333
		c0.163,0,0.304,0.07,0.421,0.211s0.177,0.292,0.177,0.456v5.373c0,0.436-0.082,0.767-0.245,0.993s-0.376,0.34-0.639,0.34h-0.299
		v-1.727H7.219c-0.091,0-0.177-0.048-0.258-0.143s-0.123-0.211-0.123-0.347c0-0.136,0.041-0.252,0.123-0.347
		s0.172-0.143,0.272-0.143h2.775v-1.673h-2.72c-0.046,0-0.088-0.011-0.129-0.034c-0.041-0.022-0.08-0.057-0.116-0.102
		c-0.208,0.49-0.492,0.948-0.85,1.374s-0.746,0.807-1.163,1.142c-0.426,0.345-0.866,0.644-1.319,0.898
		c-0.453,0.254-0.875,0.449-1.265,0.585c-0.1,0.045-0.204,0.063-0.313,0.054c-0.109-0.009-0.19-0.063-0.245-0.163
		c-0.055-0.072-0.075-0.166-0.062-0.279s0.075-0.197,0.184-0.251c0.345-0.172,0.716-0.395,1.116-0.667
		c0.399-0.272,0.78-0.576,1.142-0.912c0.363-0.326,0.689-0.687,0.979-1.081s0.499-0.805,0.626-1.231H2.432
		c-0.136,0-0.243-0.05-0.32-0.15c-0.077-0.1-0.115-0.204-0.115-0.313c0-0.1,0.038-0.208,0.115-0.327
		C2.189,10.295,2.309,10.236,2.472,10.236z M5.152,18.873c0-0.363,0.073-0.708,0.218-1.034c0.145-0.327,0.344-0.612,0.599-0.857
		c0.263-0.236,0.569-0.426,0.918-0.571s0.732-0.218,1.149-0.218c0.399,0,0.773,0.073,1.122,0.218
		c0.349,0.145,0.655,0.335,0.918,0.571c0.254,0.245,0.458,0.53,0.612,0.857c0.154,0.326,0.231,0.671,0.231,1.034
		c0,0.372-0.077,0.718-0.231,1.041c-0.154,0.322-0.358,0.605-0.612,0.85c-0.263,0.235-0.569,0.424-0.918,0.564
		c-0.349,0.14-0.723,0.21-1.122,0.21c-0.408,0-0.789-0.07-1.143-0.21c-0.354-0.141-0.658-0.329-0.912-0.564
		c-0.263-0.245-0.467-0.528-0.612-0.85C5.225,19.591,5.152,19.245,5.152,18.873z M6.349,18.873c0,0.471,0.166,0.87,0.497,1.197
		c0.331,0.326,0.728,0.49,1.19,0.49c0.453,0,0.848-0.164,1.183-0.49c0.335-0.327,0.503-0.726,0.503-1.197
		c0-0.463-0.168-0.861-0.503-1.197c-0.335-0.335-0.73-0.503-1.183-0.503c-0.462,0-0.859,0.167-1.19,0.503
		C6.514,18.012,6.349,18.41,6.349,18.873z"/>
	<path fill="#FFFFFF" d="M13.109,13.677c0-0.399,0.077-0.778,0.231-1.136c0.154-0.358,0.372-0.669,0.653-0.932
		c0.272-0.263,0.594-0.474,0.966-0.632c0.372-0.159,0.771-0.238,1.197-0.238c0.417,0,0.809,0.079,1.177,0.238
		c0.367,0.159,0.687,0.37,0.958,0.632c0.272,0.263,0.488,0.574,0.646,0.932c0.158,0.358,0.238,0.737,0.238,1.136
		c0,0.417-0.08,0.805-0.238,1.163c-0.159,0.358-0.374,0.665-0.646,0.918c-0.272,0.263-0.591,0.467-0.958,0.612
		c-0.368,0.145-0.76,0.218-1.177,0.218c-0.435,0-0.839-0.075-1.21-0.225c-0.372-0.149-0.694-0.355-0.966-0.619
		s-0.485-0.571-0.639-0.925C13.186,14.466,13.109,14.085,13.109,13.677z M14.333,13.677c0,0.571,0.172,1.036,0.517,1.394
		c0.344,0.358,0.78,0.537,1.306,0.537c0.517,0,0.947-0.179,1.292-0.537s0.517-0.823,0.517-1.394c0-0.544-0.175-1.004-0.524-1.381
		c-0.349-0.376-0.777-0.564-1.285-0.564c-0.526,0-0.961,0.186-1.306,0.558C14.505,12.662,14.333,13.124,14.333,13.677z
		 M22.698,9.528v9.848c0,0.454-0.08,0.791-0.238,1.014c-0.159,0.222-0.37,0.333-0.632,0.333h-0.286V10.345
		c0-0.263-0.054-0.436-0.163-0.517s-0.272-0.145-0.49-0.19c-0.218-0.027-0.372-0.075-0.462-0.143
		c-0.091-0.068-0.136-0.157-0.136-0.265c0-0.118,0.052-0.211,0.157-0.279c0.104-0.068,0.22-0.102,0.347-0.102H22.1
		c0.163,0,0.304,0.072,0.422,0.217C22.639,9.211,22.698,9.365,22.698,9.528z"/>
	<path fill="#FFFFFF" d="M27.078,12.711h5.223v-1.578h-4.924c-0.109,0-0.209-0.045-0.299-0.136
		c-0.091-0.091-0.136-0.208-0.136-0.354c0-0.136,0.045-0.252,0.136-0.347c0.09-0.095,0.19-0.143,0.299-0.143h5.536
		c0.172,0,0.308,0.059,0.408,0.177c0.1,0.118,0.149,0.272,0.149,0.462v2.122c0,0.208-0.057,0.383-0.17,0.523
		s-0.274,0.211-0.483,0.211h-4.271v1.278c0,0.118,0.022,0.202,0.068,0.252c0.045,0.05,0.122,0.075,0.231,0.075h4.584
		c0.127,0,0.233,0.052,0.319,0.156c0.086,0.104,0.129,0.211,0.129,0.32c0,0.118-0.043,0.229-0.129,0.333
		c-0.086,0.104-0.192,0.157-0.319,0.157h-2.435v1.877h4.747c0.154,0,0.272,0.054,0.354,0.163c0.082,0.109,0.123,0.213,0.123,0.313
		c0,0.118-0.043,0.229-0.129,0.333c-0.086,0.104-0.202,0.157-0.347,0.157H25.078c-0.136,0-0.25-0.052-0.34-0.157
		c-0.091-0.104-0.136-0.224-0.136-0.36c0-0.1,0.045-0.199,0.136-0.299c0.09-0.1,0.204-0.149,0.34-0.149h4.774v-1.877H28.22
		c-0.272,0-0.481-0.084-0.626-0.252c-0.145-0.167-0.217-0.392-0.217-0.673v-1.292c0-0.19-0.032-0.317-0.095-0.381
		c-0.063-0.063-0.164-0.118-0.299-0.163c-0.037-0.009-0.077-0.021-0.123-0.034s-0.086-0.034-0.123-0.061s-0.066-0.063-0.088-0.109
		s-0.034-0.109-0.034-0.19c0-0.127,0.05-0.218,0.149-0.272C26.864,12.738,26.969,12.711,27.078,12.711z"/>
	<path fill="#FFFFFF" d="M37.319,14.888h10.664c0.154,0,0.272,0.054,0.354,0.163c0.082,0.109,0.123,0.208,0.123,0.299
		c0,0.109-0.043,0.215-0.129,0.319c-0.086,0.104-0.202,0.157-0.347,0.157h-4.747v0.218c0,0.299-0.034,0.551-0.102,0.755
		c-0.068,0.204-0.156,0.36-0.265,0.469h2.489c0.163,0,0.283,0.065,0.36,0.197c0.077,0.132,0.116,0.256,0.116,0.375v1.727
		c0,0.208-0.009,0.392-0.027,0.551s-0.041,0.27-0.068,0.333h0.068c0.082,0,0.15,0.059,0.204,0.177
		c0.054,0.118,0.082,0.227,0.082,0.327c0,0.1-0.032,0.202-0.095,0.306c-0.063,0.104-0.145,0.157-0.245,0.157h-5.142
		c-0.027,0.072-0.088,0.154-0.184,0.245s-0.193,0.136-0.292,0.136h-0.421v-3.115c0-0.245-0.025-0.403-0.075-0.476
		s-0.156-0.131-0.319-0.177c-0.118-0.027-0.218-0.07-0.299-0.129s-0.123-0.156-0.123-0.292s0.052-0.227,0.157-0.272
		c0.104-0.045,0.215-0.068,0.333-0.068h2.707v-1.442h-4.774c-0.136,0-0.25-0.055-0.34-0.163c-0.091-0.109-0.136-0.218-0.136-0.327
		c0-0.1,0.045-0.199,0.136-0.299C37.07,14.938,37.183,14.888,37.319,14.888z M39.768,11.678c0-0.335,0.063-0.658,0.19-0.966
		s0.313-0.576,0.558-0.803c0.245-0.235,0.549-0.421,0.912-0.558c0.362-0.136,0.775-0.204,1.237-0.204c0.436,0,0.83,0.07,1.184,0.211
		s0.657,0.324,0.911,0.551c0.254,0.236,0.449,0.506,0.585,0.81c0.136,0.304,0.204,0.624,0.204,0.959s-0.068,0.653-0.204,0.952
		c-0.136,0.299-0.331,0.562-0.585,0.789c-0.245,0.236-0.546,0.419-0.904,0.551c-0.358,0.132-0.755,0.197-1.19,0.197
		c-0.471,0-0.889-0.065-1.251-0.197c-0.363-0.131-0.667-0.315-0.912-0.551c-0.245-0.227-0.428-0.49-0.551-0.789
		C39.829,12.331,39.768,12.013,39.768,11.678z M44.664,18.233h-3.781v1.918c0,0.036-0.002,0.07-0.007,0.102
		s-0.007,0.061-0.007,0.088c-0.009,0.027-0.013,0.059-0.013,0.095h3.808V18.233z M40.964,11.678c0,0.453,0.147,0.825,0.442,1.115
		c0.294,0.29,0.714,0.435,1.258,0.435c0.526,0,0.939-0.145,1.238-0.435c0.299-0.29,0.449-0.662,0.449-1.115
		c0-0.436-0.152-0.807-0.456-1.116c-0.304-0.308-0.714-0.462-1.231-0.462c-0.544,0-0.963,0.15-1.258,0.449
		C41.112,10.848,40.964,11.224,40.964,11.678z"/>
</g>
</svg>
