<?xml version="1.0" encoding="utf-8"?>
<!-- Generator: Adobe Illustrator 16.0.0, SVG Export Plug-In . SVG Version: 6.00 Build 0)  -->
<!DOCTYPE svg PUBLIC "-//W3C//DTD SVG 1.1//EN" "http://www.w3.org/Graphics/SVG/1.1/DTD/svg11.dtd">
<svg version="1.1" id="Layer_1" xmlns="http://www.w3.org/2000/svg" xmlns:xlink="http://www.w3.org/1999/xlink" x="0px" y="0px"
	 width="160px" height="160px" viewBox="0 0 160 160" enable-background="new 0 0 160 160" xml:space="preserve">
<path fill="none" stroke="#1B87C9" stroke-width="6" stroke-miterlimit="10" d="M861.631,47.469
	c0,13.137-10.643,23.782-23.777,23.782c-13.133,0-23.771-10.646-23.771-23.782c0-13.134,10.642-23.778,23.771-23.778
	C850.988,23.691,861.631,34.335,861.631,47.469z"/>
<path fill="none" stroke="#1B87C9" stroke-width="6" stroke-miterlimit="10" d="M884.577,47.413c0,0.361-0.316,0.784-0.512,1.073
	c-6.939,10.38-21.033,23.082-45.51,23.082c-24.866,0-38.467-14.494-45.354-23.439c-0.096-0.122-0.619-0.677-0.619-0.832
	c0-0.352,0.229-0.68,0.459-0.93c8.896-9.629,21.008-23.108,45.514-23.108c24.518,0,36.605,13.54,45.509,23.139
	C884.292,46.638,884.577,47.076,884.577,47.413z"/>
<g>
	<path fill="#1B87C9" d="M850.186,38.748c0.093,0.429,0.093,0.88,0,1.354c-0.045,0.226-0.084,0.446-0.114,0.66
		c-0.034,0.215-0.073,0.435-0.118,0.66l-0.033,0.136c-0.112,0.451-0.222,0.908-0.321,1.371c-0.103,0.462-0.209,0.919-0.319,1.37
		h2.27c0.406,0,0.795,0.046,1.166,0.136c0.373,0.091,0.717,0.294,1.033,0.609c0.158,0.136,0.273,0.321,0.354,0.559
		c0.077,0.237,0.118,0.479,0.118,0.728c0,0.271-0.041,0.559-0.118,0.863c-0.079,0.305-0.187,0.524-0.319,0.66
		c-0.183,0.203-0.406,0.361-0.678,0.474c-0.271,0.113-0.544,0.187-0.813,0.221c-0.271,0.033-0.502,0.05-0.692,0.05s-0.302,0-0.319,0
		h-3.08c-0.068,0.316-0.139,0.621-0.203,0.914c-0.068,0.294-0.138,0.576-0.203,0.847c-0.271,1.129-0.553,2.369-0.848,3.724
		c-0.293,1.354-0.602,2.595-0.912,3.724c-0.113,0.384-0.232,0.767-0.355,1.15c-0.125,0.384-0.274,0.768-0.457,1.151
		c-0.156,0.338-0.346,0.637-0.559,0.896c-0.215,0.26-0.457,0.451-0.729,0.576c-0.271,0.123-0.56,0.169-0.86,0.135
		c-0.309-0.033-0.643-0.175-0.998-0.423c-0.543-0.384-0.943-0.914-1.201-1.591c-0.26-0.677-0.525-1.298-0.797-1.862
		c-0.09-0.157-0.228-0.508-0.406-1.049c-0.18-0.542-0.371-1.134-0.574-1.777s-0.399-1.264-0.594-1.861
		c-0.19-0.597-0.354-1.044-0.49-1.338c-0.203,0.497-0.404,1.062-0.606,1.693c-0.203,0.631-0.396,1.252-0.576,1.861
		c-0.181,0.609-0.344,1.156-0.489,1.642c-0.146,0.486-0.254,0.841-0.317,1.066c-0.185,0.451-0.382,0.948-0.597,1.489
		c-0.215,0.542-0.474,1.004-0.774,1.388c-0.307,0.384-0.673,0.638-1.104,0.762c-0.429,0.124-0.937-0.006-1.521-0.389
		c-0.45-0.271-0.771-0.655-0.946-1.151c-0.113-0.316-0.227-0.621-0.338-0.914c-0.113-0.293-0.203-0.598-0.271-0.914l-0.676-2.538
		l-1.39-5.45c-0.136-0.542-0.271-1.117-0.405-1.727h-1.658c-0.521,0.046-1.049,0.051-1.592,0.017
		c-0.541-0.033-1.004-0.242-1.388-0.626c-0.521-0.451-0.778-0.959-0.778-1.523c0-0.383,0.106-0.761,0.321-1.134
		c0.214-0.372,0.503-0.637,0.86-0.795c0.451-0.181,0.927-0.266,1.425-0.254c0.493,0.012,1.004,0.006,1.521-0.018h0.17
		c-0.113-0.519-0.222-1.1-0.322-1.743c-0.102-0.643-0.238-1.461-0.422-2.454c-0.045-0.248-0.072-0.479-0.086-0.693
		c-0.01-0.215,0.006-0.435,0.051-0.66c0.048-0.339,0.203-0.632,0.479-0.88c0.112-0.113,0.248-0.203,0.406-0.271
		c0.154-0.067,0.322-0.124,0.508-0.169c0.271-0.09,0.553-0.136,0.846-0.136c0.271,0,0.553,0.091,0.85,0.271
		c0.201,0.112,0.357,0.259,0.474,0.439l0.405,0.711c0.045,0.158,0.091,0.3,0.138,0.423c0.045,0.125,0.091,0.254,0.136,0.39
		c0.045,0.158,0.077,0.3,0.104,0.423c0.021,0.125,0.046,0.243,0.065,0.355c0.11,0.7,0.241,1.377,0.391,2.031
		c0.146,0.654,0.313,1.309,0.488,1.963h4.875c0.137-0.428,0.271-0.823,0.406-1.185c0.135-0.36,0.286-0.648,0.456-0.863
		c0.169-0.214,0.378-0.35,0.625-0.406c0.248-0.056,0.563-0.017,0.949,0.119c0.338,0.135,0.618,0.435,0.847,0.896
		c0.226,0.463,0.438,0.942,0.645,1.438h4.604c0.158-0.586,0.313-1.162,0.457-1.726c0.146-0.564,0.289-1.129,0.424-1.693l0.17-0.575
		c0.045-0.112,0.072-0.23,0.084-0.355c0.014-0.123,0.039-0.265,0.084-0.423c0.045-0.136,0.09-0.265,0.139-0.39
		c0.046-0.123,0.091-0.265,0.136-0.423c0.045-0.112,0.097-0.231,0.149-0.355c0.06-0.124,0.131-0.242,0.224-0.355
		c0.063-0.112,0.146-0.203,0.233-0.271c0.089-0.068,0.183-0.124,0.271-0.169c0.314-0.181,0.589-0.271,0.813-0.271
		c0.294,0,0.576,0.046,0.852,0.136c0.355,0.067,0.688,0.215,0.979,0.44C850.006,38.093,850.141,38.386,850.186,38.748z
		 M833.6,53.506c0.158-0.564,0.355-1.287,0.595-2.167c0.236-0.88,0.479-1.782,0.729-2.708h-2.506c0.09,0.429,0.188,0.88,0.289,1.354
		c0.103,0.474,0.203,0.931,0.305,1.37c0.104,0.44,0.203,0.847,0.309,1.219C833.415,52.948,833.51,53.258,833.6,53.506z
		 M842.739,52.863c0.064-0.226,0.141-0.508,0.221-0.847c0.078-0.338,0.158-0.699,0.235-1.083c0.08-0.383,0.164-0.778,0.255-1.185
		c0.09-0.407,0.182-0.778,0.271-1.117h-2.268c0.248,0.88,0.479,1.716,0.693,2.505C842.361,51.926,842.559,52.502,842.739,52.863z"/>
</g>
<g>
	<path fill="#1B87C9" d="M687.68,49.817c-0.229,0.332-0.549,0.575-0.957,0.729c-0.406,0.153-0.822,0.204-1.246,0.153
		c-0.42-0.052-0.805-0.198-1.146-0.44c-0.348-0.243-0.569-0.582-0.671-1.016c-0.026-0.052-0.046-0.191-0.062-0.422
		c-0.014-0.229-0.021-0.466-0.035-0.708c-0.016-0.243-0.033-0.569-0.061-0.978c-0.588-0.076-1.271-0.186-2.05-0.325
		c-0.779-0.141-1.462-0.313-2.05-0.518c-0.383-0.153-0.785-0.313-1.207-0.479c-0.422-0.167-0.824-0.357-1.207-0.575
		c-0.383-0.217-0.734-0.473-1.053-0.767c-0.32-0.293-0.561-0.645-0.709-1.054c-0.13-0.306-0.212-0.632-0.25-0.977
		c-0.037-0.345-0.017-0.683,0.073-1.016c0.093-0.331,0.243-0.625,0.462-0.881c0.219-0.255,0.52-0.422,0.898-0.498
		c0.255-0.076,0.511-0.07,0.768,0.02c0.258,0.09,0.497,0.21,0.729,0.363c0.229,0.153,0.46,0.326,0.688,0.518
		c0.229,0.191,0.459,0.339,0.688,0.44c0.588,0.23,1.271,0.44,2.051,0.632c0.778,0.192,1.5,0.339,2.164,0.441v-6.667
		c-0.46-0.153-0.979-0.293-1.552-0.421c-0.575-0.128-1.041-0.243-1.398-0.346c-0.332-0.127-0.632-0.235-0.897-0.325
		c-0.271-0.089-0.504-0.197-0.707-0.325c-1.125-0.435-1.941-1.111-2.453-2.031c-0.256-0.46-0.447-0.926-0.574-1.398
		c-0.129-0.472-0.189-1.002-0.189-1.59c0-0.511,0.051-0.989,0.15-1.437c0.104-0.447,0.23-0.862,0.386-1.245
		c0.308-0.767,0.806-1.431,1.492-1.992c0.31-0.307,0.657-0.562,1.056-0.767c0.396-0.204,0.822-0.408,1.281-0.613
		c0.436-0.204,0.983-0.357,1.648-0.46c0.662-0.102,1.25-0.178,1.762-0.229c0-0.357,0-0.734,0-1.13s0.104-0.734,0.309-1.016
		c0.309-0.434,0.588-0.74,0.844-0.92c0.256-0.178,0.639-0.242,1.146-0.191c0.459,0.052,0.868,0.167,1.229,0.345
		c0.354,0.18,0.625,0.498,0.805,0.958c0,0.052,0.006,0.186,0.021,0.402c0.014,0.218,0.029,0.454,0.059,0.709
		c0.025,0.281,0.038,0.601,0.038,0.958c0.817,0.179,1.667,0.402,2.548,0.67c0.881,0.269,1.68,0.607,2.396,1.016
		c0.563,0.358,1.018,0.76,1.358,1.207c0.346,0.447,0.504,1.003,0.479,1.666c-0.025,0.358-0.166,0.703-0.422,1.035
		c-0.258,0.332-0.563,0.521-0.921,0.574c-0.407,0.052-0.791-0.019-1.147-0.211c-0.357-0.191-0.702-0.376-1.034-0.555
		c-0.437-0.204-0.938-0.415-1.515-0.633c-0.573-0.217-1.155-0.351-1.742-0.402v5.287c0.535,0.153,1.099,0.352,1.686,0.595
		c0.59,0.242,1.102,0.453,1.532,0.632c1.433,0.588,2.483,1.514,3.162,2.777c0.676,1.265,0.987,2.625,0.938,4.081
		c-0.025,0.971-0.221,1.864-0.574,2.682c-0.205,0.357-0.438,0.689-0.689,0.996c-0.256,0.307-0.537,0.588-0.844,0.843
		c-0.307,0.281-0.639,0.518-0.996,0.709c-0.355,0.191-0.753,0.389-1.188,0.594c-0.438,0.128-0.921,0.249-1.455,0.364
		c-0.537,0.114-1.063,0.223-1.571,0.325c-0.026,0-0.045,0.083-0.058,0.249c-0.018,0.166-0.018,0.351,0,0.556
		c0.013,0.204,0.021,0.402,0.038,0.594c0.013,0.191,0.02,0.3,0.02,0.326C687.949,49.14,687.859,49.511,687.68,49.817z
		 M680.784,29.549c0.022,0.205,0.114,0.428,0.269,0.671c0.154,0.243,0.331,0.44,0.536,0.594c0.229,0.153,0.511,0.274,0.845,0.364
		c0.33,0.09,0.688,0.159,1.071,0.21v-4.329c-0.843,0.052-1.539,0.263-2.088,0.632C680.867,28.062,680.657,28.681,680.784,29.549z
		 M691.014,39.818c-0.052-0.332-0.173-0.646-0.361-0.939c-0.19-0.293-0.438-0.555-0.729-0.785c-0.295-0.229-0.613-0.428-0.959-0.594
		c-0.344-0.166-0.684-0.287-1.015-0.364c0,0.896,0.019,1.795,0.058,2.701c0.038,0.907,0.044,1.808,0.021,2.701
		c0.385,0.052,0.768,0.02,1.146-0.096c0.385-0.115,0.715-0.293,0.996-0.536c0.281-0.242,0.504-0.543,0.671-0.9
		C691.007,40.648,691.064,40.252,691.014,39.818z"/>
</g>
<g>
	<rect x="725.177" y="22.947" fill="#1B87C9" width="6.356" height="27.219"/>
	<rect x="714.23" y="30.104" fill="#1B87C9" width="6.354" height="20.062"/>
	<rect x="703.547" y="37.736" fill="#1B87C9" width="6.355" height="12.43"/>
</g>
<rect x="693.436" y="61.276" fill="#1B87C9" width="18.057" height="12.467"/>
<path fill="#1B87C9" d="M728.791,80.354c0,4.214-3.422,7.63-7.631,7.63h-37.396c-4.222,0-7.632-3.416-7.632-7.63l0,0
	c0-4.216,3.41-7.631,7.632-7.631h37.396C725.369,72.723,728.791,76.138,728.791,80.354L728.791,80.354z"/>
<path fill="none" stroke="#1B87C9" stroke-width="6" stroke-miterlimit="10" d="M746.843,54.659c0,4.777-3.875,8.653-8.645,8.653
	h-71.474c-4.779,0-8.654-3.876-8.654-8.653V15.495c0-4.778,3.875-8.653,8.654-8.653h71.474c4.77,0,8.645,3.875,8.645,8.653V54.659z"
	/>
<g>
	<path fill="#1B87C9" d="M968.696,37.371c0.291-0.217,0.25-0.766-0.063-1.186l0,0c-0.309-0.423-0.82-0.623-1.111-0.406
		L941.95,54.723c-0.291,0.215-0.256,0.767,0.055,1.187l0,0c0.313,0.423,0.822,0.623,1.115,0.405L968.696,37.371z"/>
	<path fill="#1B87C9" d="M1002.899,21.907c0.227-0.233,0.081-0.749-0.294-1.115l0,0c-0.375-0.364-0.896-0.501-1.12-0.269
		L979.588,42.83c-0.227,0.235-0.078,0.748,0.297,1.115l0,0c0.369,0.367,0.896,0.501,1.121,0.269L1002.899,21.907z"/>
	<path fill="#1B87C9" d="M980.155,44.061c0.319,0.164,0.799-0.119,1.03-0.587l0,0c0.235-0.465,0.185-1.013-0.146-1.177l-12.85-6.653
		c-0.32-0.164-0.802,0.116-1.037,0.584l0,0c-0.232,0.468-0.181,1.016,0.145,1.18L980.155,44.061z"/>
	<path fill="#1B87C9" d="M1005.575,22.977c-0.082,0.436-0.178,1.097-0.756,0.746l-5.158-5.151c-0.5-0.543,0.287-0.641,0.731-0.74
		l6.021-1.448c0.727-0.083,0.775,0.331,0.775,0.742L1005.575,22.977z"/>
	<path fill="#1B87C9" d="M937.678,81.016c0,1.615-1.346,2.928-3.002,2.928l0,0c-1.654,0-2.998-1.313-2.998-2.928V12.591
		c0-1.616,1.344-2.928,2.998-2.928l0,0c1.656,0,3.002,1.312,3.002,2.928V81.016z"/>
	<rect x="947.514" y="57.934" fill="#1B87C9" width="6.246" height="24.229"/>
	<rect x="959.723" y="46.049" fill="#1B87C9" width="6.248" height="36.114"/>
	<rect x="971.801" y="46.049" fill="#1B87C9" width="6.248" height="36.114"/>
	<rect x="983.76" y="46.049" fill="#1B87C9" width="6.248" height="36.114"/>
	<rect x="996.375" y="32.367" fill="#1B87C9" width="6.248" height="49.796"/>
	<path fill="#1B87C9" d="M934.928,85.163c-1.754,0-3.178-1.345-3.178-3l0,0c0-1.656,1.424-3,3.178-3h74.158
		c1.76,0,3.178,1.344,3.178,3l0,0c0,1.655-1.418,3-3.178,3H934.928z"/>
</g>
<rect x="1076.571" y="14.826" fill="#1B87C9" width="7.104" height="7.109"/>
<rect x="1076.577" y="24.642" fill="#1B87C9" width="7.104" height="7.106"/>
<rect x="1076.577" y="34.729" fill="#1B87C9" width="7.104" height="7.109"/>
<rect x="1087.676" y="14.826" fill="#1B87C9" width="7.107" height="7.109"/>
<rect x="1087.682" y="24.642" fill="#1B87C9" width="7.107" height="7.106"/>
<rect x="1087.682" y="34.729" fill="#1B87C9" width="7.107" height="7.109"/>
<rect x="1098.766" y="14.826" fill="#1B87C9" width="7.107" height="7.109"/>
<rect x="1098.771" y="24.642" fill="#1B87C9" width="7.104" height="7.106"/>
<rect x="1098.771" y="34.729" fill="#1B87C9" width="7.104" height="7.109"/>
<rect x="1076.571" y="44.143" fill="#1B87C9" width="7.104" height="7.11"/>
<rect x="1076.577" y="53.959" fill="#1B87C9" width="7.104" height="7.107"/>
<rect x="1076.577" y="64.047" fill="#1B87C9" width="7.104" height="7.109"/>
<rect x="1087.676" y="44.143" fill="#1B87C9" width="7.107" height="7.11"/>
<rect x="1087.682" y="53.959" fill="#1B87C9" width="7.107" height="7.107"/>
<rect x="1087.682" y="64.047" fill="#1B87C9" width="7.107" height="7.109"/>
<rect x="1076.571" y="64.047" fill="#1B87C9" width="29.309" height="17.027"/>
<rect x="1098.766" y="44.143" fill="#1B87C9" width="7.107" height="7.11"/>
<rect x="1098.771" y="53.959" fill="#1B87C9" width="7.104" height="7.107"/>
<rect x="1098.771" y="64.047" fill="#1B87C9" width="7.104" height="7.109"/>
<rect x="1128.012" y="27.375" fill="#1B87C9" width="7.107" height="7.109"/>
<rect x="1128.021" y="37.192" fill="#1B87C9" width="7.104" height="7.106"/>
<rect x="1128.021" y="47.279" fill="#1B87C9" width="7.104" height="7.109"/>
<rect x="1138.12" y="27.375" fill="#1B87C9" width="7.104" height="7.109"/>
<rect x="1138.125" y="37.192" fill="#1B87C9" width="7.107" height="7.106"/>
<rect x="1138.125" y="47.279" fill="#1B87C9" width="7.107" height="7.109"/>
<rect x="1148.209" y="27.375" fill="#1B87C9" width="7.107" height="7.109"/>
<rect x="1148.215" y="37.192" fill="#1B87C9" width="7.107" height="7.106"/>
<rect x="1148.215" y="47.279" fill="#1B87C9" width="7.107" height="7.109"/>
<rect x="1128.012" y="56.693" fill="#1B87C9" width="7.107" height="7.11"/>
<polygon fill="#1B87C9" points="1128.021,66.509 1128.021,73.616 1128.021,80.723 1155.323,80.723 1155.323,73.616 1155.323,66.509 
	"/>
<rect x="1138.12" y="56.693" fill="#1B87C9" width="7.104" height="7.11"/>
<rect x="1148.209" y="56.693" fill="#1B87C9" width="7.107" height="7.11"/>
<path fill="none" stroke="#1B87C9" stroke-width="6" stroke-miterlimit="10" d="M1113.598,77.521c0,4.778-3.873,8.653-8.646,8.653
	h-26.962c-4.775,0-8.65-3.875-8.65-8.653V17.306c0-4.778,3.875-8.653,8.65-8.653h26.961c4.771,0,8.646,3.875,8.646,8.653
	L1113.598,77.521L1113.598,77.521z"/>
<path fill="none" stroke="#1B87C9" stroke-width="6" stroke-miterlimit="10" d="M1161.473,77.521c0,4.778-3.875,8.653-8.646,8.653
	h-22.381c-4.775,0-8.652-3.875-8.652-8.653V29.68c0-4.778,3.877-8.653,8.652-8.653h22.381c4.771,0,8.646,3.875,8.646,8.653V77.521z"
	/>
<g>
	<path fill="#1B87C9" d="M678.507,104.787v6.8l-2.147,19.851h-7.303l2.15-19.851h-14.25v-6.8H678.507z M689.506,134.986
		c1.234,0,2.395,0.207,3.479,0.625c1.082,0.416,2.021,1,2.822,1.75c0.803,0.75,1.438,1.642,1.9,2.675
		c0.466,1.032,0.699,2.167,0.699,3.399c0,1.23-0.232,2.355-0.699,3.375c-0.467,1.017-1.1,1.897-1.9,2.647
		c-0.8,0.75-1.74,1.333-2.822,1.75c-1.084,0.417-2.24,0.625-3.479,0.625h-20.396c-1.232,0-2.395-0.208-3.478-0.625
		s-2.022-1-2.825-1.75c-0.8-0.75-1.434-1.634-1.896-2.647c-0.47-1.02-0.7-2.145-0.7-3.375c0-1.232,0.23-2.367,0.7-3.399
		c0.466-1.033,1.1-1.925,1.896-2.675c0.803-0.75,1.742-1.334,2.825-1.75c1.083-0.418,2.241-0.625,3.478-0.625H689.506z
		 M669.107,141.236c-0.604,0-1.108,0.217-1.524,0.646c-0.417,0.438-0.625,0.95-0.625,1.553c0,0.563,0.208,1.063,0.625,1.5
		c0.416,0.434,0.925,0.647,1.524,0.647h20.396c0.604,0,1.117-0.217,1.552-0.647c0.437-0.437,0.649-0.937,0.649-1.5
		c0-0.603-0.218-1.117-0.649-1.553c-0.434-0.433-0.947-0.646-1.552-0.646H669.107z M690.907,120.537v-4.65h-8.353v-6h8.353v-5.35
		h7.301v26.9h-7.301v-4.854h-8.353v-6.05L690.907,120.537L690.907,120.537z"/>
	<path fill="#1B87C9" d="M720.708,127.886l7.949,23.7h-7l-4.55-13.5l-4.7,13.5h-7.55l14.197-40.1h-13.351v-6.7h20.75v6.7
		L720.708,127.886z M737.006,151.836h-6.449v-23.25h-5.697v-6.4h5.697v-17.646h6.449V151.836z M747.157,151.836h-6.603v-47.3h6.603
		V151.836z"/>
</g>
<g>
	<path fill="#1B87C9" d="M822.482,125.486l2.55-13.301h-28.949v-7.399h36.25v7.399l-2.551,13.301h6.301v6.35h-43v-6.35H822.482z
		 M833.182,135.236v16.6h-37.196v-16.6H833.182z M826.182,141.037h-23.196v5h23.196V141.037z"/>
	<path fill="#1B87C9" d="M843.182,143.386c0-1.166,0.22-2.25,0.649-3.25s1.024-1.875,1.774-2.625s1.625-1.341,2.625-1.774
		c1-0.432,2.08-0.684,3.25-0.75v-2.897h-10.399v-6.3h43v6.3h-10.399v2.897c1.136,0.066,2.207,0.316,3.229,0.75
		c1.017,0.437,1.896,1.024,2.646,1.774s1.345,1.625,1.774,2.625s0.649,2.084,0.649,3.25c0,1.233-0.233,2.367-0.699,3.4
		c-0.469,1.032-1.104,1.925-1.9,2.675s-1.742,1.333-2.824,1.75c-1.084,0.417-2.24,0.625-3.476,0.625h-21
		c-1.233,0-2.396-0.208-3.476-0.625c-1.087-0.417-2.024-1-2.824-1.75c-0.801-0.75-1.437-1.643-1.9-2.675
		C843.415,145.753,843.182,144.619,843.182,143.386z M852.082,122.886c-1.2,0-2.316-0.208-3.35-0.625
		c-1.034-0.416-1.938-1.008-2.7-1.774c-0.771-0.767-1.367-1.717-1.8-2.851c-0.438-1.133-0.65-2.399-0.65-3.8
		c0-1.366,0.217-2.607,0.65-3.725c0.433-1.116,1.028-2.066,1.8-2.854c0.767-0.779,1.665-1.391,2.7-1.822
		c1.028-0.436,2.146-0.649,3.35-0.649h21c1.133,0,2.217,0.192,3.25,0.575c1.033,0.384,1.934,0.957,2.7,1.725
		c0.766,0.768,1.383,1.717,1.85,2.85c0.468,1.133,0.7,2.438,0.7,3.9c0,1.4-0.217,2.659-0.65,3.775c-0.434,1.117-1.03,2.063-1.8,2.85
		c-0.767,0.784-1.667,1.384-2.7,1.8c-1.03,0.417-2.146,0.625-3.35,0.625H852.082z M849.932,143.386c0,0.601,0.207,1.134,0.625,1.601
		c0.416,0.469,0.929,0.699,1.524,0.699h21c0.601,0,1.106-0.23,1.524-0.699c0.416-0.467,0.625-1,0.625-1.601
		c0-0.6-0.209-1.133-0.625-1.6c-0.42-0.468-0.929-0.7-1.524-0.7h-21c-0.601,0-1.108,0.232-1.524,0.7
		C850.139,142.253,849.932,142.787,849.932,143.386z M872.832,116.136c0.633,0,1.125-0.229,1.475-0.7c0.354-0.466,0.525-1,0.525-1.6
		c0-0.633-0.191-1.175-0.575-1.625s-0.855-0.675-1.425-0.675h-20.55c-0.667,0-1.167,0.241-1.5,0.725
		c-0.334,0.484-0.5,1.009-0.5,1.575s0.166,1.092,0.5,1.575c0.333,0.483,0.833,0.725,1.5,0.725H872.832z M858.682,134.938h7.804
		v-2.851h-7.804V134.938z"/>
</g>
<g>
	<path fill="#1B87C9" d="M944.421,111.486h-17.95v-6.7h25.803v6.7l-5.75,40.05h-7.699L944.421,111.486z M967.721,151.836h-7.697
		v-47.3h7.697V151.836z"/>
	<path fill="#1B87C9" d="M1015.721,104.537v47.3h-37.896v-19.5h7.051v4.351h23.85v-16.451h-8.85
		c-0.168,1.234-0.617,2.375-1.352,3.429c-0.732,1.05-1.648,1.946-2.75,2.696c-1.104,0.75-2.357,1.346-3.773,1.775
		c-1.418,0.438-2.893,0.65-4.426,0.65c-1.668,0-3.229-0.242-4.68-0.725c-1.445-0.483-2.717-1.158-3.799-2.025
		c-1.084-0.867-1.939-1.883-2.576-3.051c-0.633-1.166-0.945-2.435-0.945-3.799v-4.75c0-1.566,0.354-2.959,1.07-4.179
		c0.721-1.216,1.646-2.229,2.775-3.05c1.133-0.813,2.396-1.438,3.775-1.875c1.383-0.436,2.758-0.646,4.125-0.646h0.35
		c1.566,0,3.063,0.225,4.475,0.674c1.422,0.451,2.68,1.06,3.775,1.826c1.1,0.767,2,1.688,2.701,2.771
		c0.699,1.083,1.115,2.242,1.25,3.479h8.85v-8.9H1015.721z M992.92,115.736c0-0.633-0.133-1.229-0.4-1.775
		c-0.266-0.55-0.633-1.033-1.1-1.45c-0.467-0.416-1.018-0.741-1.65-0.975c-0.632-0.234-1.299-0.351-2-0.351
		c-0.695,0-1.354,0.114-1.975,0.351c-0.617,0.233-1.158,0.559-1.625,0.975c-0.467,0.417-0.834,0.9-1.1,1.45
		c-0.271,0.55-0.4,1.143-0.4,1.775v2.449c0,0.633,0.133,1.226,0.4,1.772c0.266,0.55,0.633,1.034,1.1,1.45
		c0.467,0.417,1.008,0.738,1.625,0.975s1.275,0.354,1.975,0.354c0.701,0,1.367-0.116,2-0.354c0.637-0.229,1.188-0.558,1.65-0.975
		c0.467-0.417,0.834-0.9,1.1-1.45c0.271-0.55,0.4-1.146,0.4-1.772V115.736z M1008.721,142.438h-23.85v3.603h23.85V142.438z"/>
</g>
<g>
	<path fill="#1B87C9" d="M1112.906,132.386v6.25h-18.001v13.2h-7v-13.2h-18v-6.25H1112.906z M1092.456,111.586h-20.7v-6.75h39.301
		v5.75l-13.25,6.25l12.898,5.05v7.25l-20.699-8.6l-18.25,8.6v-7.399L1092.456,111.586z"/>
	<path fill="#1B87C9" d="M1136.205,104.787l10.25,23.4h-8.25l-6.149-14.604l-6.146,14.604h-8.25l10.25-23.4H1136.205z
		 M1157.254,151.836h-7.5l1.95-11.15h-30.5v-6.1h30.5v-30.05h7.45v36.149L1157.254,151.836z"/>
</g>
<g>
	<path fill="#1B87C9" d="M512.768,104.454c1.5,0,2.916,0.282,4.25,0.851c1.334,0.566,2.491,1.353,3.477,2.353
		c0.982,1,1.758,2.155,2.325,3.475c0.564,1.313,0.851,2.728,0.851,4.228v5c0,1.5-0.282,2.918-0.851,4.25
		c-0.567,1.334-1.343,2.492-2.325,3.476c-0.981,0.983-2.143,1.758-3.477,2.325c-1.334,0.566-2.75,0.85-4.25,0.85h-3.95
		c-1.5,0-2.916-0.283-4.25-0.85c-1.332-0.567-2.49-1.342-3.476-2.325c-0.984-0.983-1.759-2.142-2.324-3.476
		c-0.565-1.332-0.851-2.75-0.851-4.25v-5c0-1.5,0.283-2.908,0.851-4.228c0.565-1.313,1.341-2.475,2.324-3.475
		c0.982-1,2.142-1.783,3.476-2.353c1.334-0.563,2.75-0.851,4.25-0.851H512.768z M507.117,144.754h23.897v-40.55h7v47.3h-37.897
		v-15.4h7V144.754z M508.816,111.354c-1.103,0-2.043,0.396-2.825,1.179c-0.784,0.78-1.175,1.725-1.175,2.821v5
		c0,1.104,0.392,2.043,1.175,2.826c0.782,0.783,1.725,1.174,2.825,1.174h3.948c1.102,0,2.043-0.392,2.824-1.174
		c0.782-0.783,1.176-1.726,1.176-2.826v-5c0-1.1-0.395-2.041-1.176-2.821c-0.783-0.783-1.725-1.179-2.824-1.179H508.816z"/>
	<path fill="#1B87C9" d="M562.716,111.154h-17.95v-6.7h25.802v6.7l-5.75,40.05h-7.698L562.716,111.154z M586.018,151.504h-7.7v-47.3
		h7.7V151.504z"/>
</g>
<path fill="#1B87C9" d="M585.082,41.406c-0.207-0.635-0.756-1.096-1.416-1.192l-27.729-4.029l-12.398-25.127
	c-0.296-0.598-0.904-0.976-1.571-0.976s-1.274,0.379-1.57,0.977l-12.398,25.126l-27.729,4.029c-0.659,0.096-1.209,0.558-1.413,1.192
	c-0.205,0.635-0.035,1.331,0.442,1.796l20.063,19.558l-4.735,27.618c-0.113,0.657,0.158,1.322,0.696,1.713
	c0.306,0.222,0.666,0.334,1.028,0.334c0.279,0,0.562-0.065,0.815-0.2l24.802-13.04l24.799,13.04c0.593,0.312,1.31,0.26,1.847-0.134
	c0.539-0.393,0.813-1.058,0.696-1.714l-4.733-27.618l20.063-19.558C585.115,42.737,585.287,42.041,585.082,41.406z"/>
<g>
	<path fill="#1B87C9" d="M352.279,121.684c0,1.366-0.267,2.699-0.799,4c-0.533,1.301-1.269,2.435-2.201,3.399h0.051
		c1.231,0.899,2.125,2.009,2.675,3.325s0.825,2.675,0.825,4.074v2.648c0,1.77-0.25,3.352-0.75,4.75c-0.5,1.4-1.2,2.583-2.1,3.551
		c-0.9,0.967-1.968,1.699-3.201,2.199s-2.601,0.75-4.101,0.75h-19.35v-42.55h18.8c1.5,0,2.875,0.25,4.125,0.75
		s2.325,1.209,3.227,2.125c0.898,0.917,1.592,2.019,2.073,3.3c0.483,1.284,0.726,2.692,0.726,4.227V121.684z M330.68,125.533h10.101
		c0.565,0,1.101-0.125,1.601-0.375s0.94-0.583,1.325-1c0.383-0.417,0.684-0.908,0.9-1.477c0.217-0.565,0.323-1.166,0.323-1.801
		v-0.648c0-0.633-0.106-1.227-0.323-1.774c-0.218-0.548-0.519-1.041-0.9-1.476c-0.383-0.435-0.825-0.774-1.325-1.024
		s-1.034-0.375-1.601-0.375H330.68V125.533z M345.479,137.383c0-0.633-0.106-1.232-0.323-1.8c-0.218-0.565-0.519-1.058-0.9-1.476
		c-0.384-0.416-0.834-0.75-1.35-1c-0.519-0.25-1.06-0.375-1.625-0.375H330.68v9.801h10.601c0.565,0,1.106-0.125,1.625-0.375
		c0.516-0.25,0.966-0.583,1.35-1c0.383-0.417,0.685-0.908,0.9-1.477c0.216-0.565,0.323-1.184,0.323-1.851V137.383z"/>
	<path fill="#1B87C9" d="M365.18,143.184h21.199v7.199h-29.25v-42.55h29.25v7.2H365.18v10.5h21.199v7.1H365.18V143.184z"/>
	<path fill="#1B87C9" d="M411.629,123.982c1.769,0,3.408,0.334,4.926,1c1.517,0.668,2.824,1.601,3.927,2.801
		c1.1,1.199,1.956,2.625,2.573,4.273c0.616,1.649,0.927,3.441,0.927,5.375c0,1.834-0.285,3.543-0.853,5.125
		c-0.566,1.584-1.367,2.949-2.397,4.102c-1.035,1.148-2.27,2.058-3.701,2.725c-1.435,0.667-3.019,1-4.75,1h-19.4v-7.898h17.149
		c0.834,0,1.634-0.102,2.399-0.301c0.767-0.199,1.427-0.509,1.976-0.926c0.551-0.416,0.992-0.941,1.326-1.574
		c0.331-0.634,0.5-1.384,0.5-2.25c0-1.634-0.535-2.898-1.603-3.801c-1.066-0.898-2.397-1.35-4-1.35h-5.05
		c-2.134,0-4.067-0.233-5.8-0.7c-1.733-0.467-3.209-1.2-4.427-2.2c-1.217-1-2.157-2.291-2.823-3.875c-0.668-1.583-1-3.475-1-5.675
		c0-1.565,0.267-3.075,0.8-4.524c0.532-1.449,1.282-2.726,2.25-3.824c0.967-1.102,2.133-1.982,3.5-2.649c1.366-0.666,2.883-1,4.55-1
		h17.603v8.3h-14.353c-0.8,0-1.559,0.051-2.272,0.15c-0.72,0.1-1.345,0.292-1.875,0.574c-0.535,0.283-0.951,0.69-1.25,1.226
		c-0.302,0.534-0.451,1.25-0.451,2.149c0,1.065,0.351,1.957,1.051,2.676c0.699,0.717,1.667,1.074,2.9,1.074h7.647L411.629,123.982
		L411.629,123.982z"/>
	<path fill="#1B87C9" d="M437.979,115.684H427.08v-7.851h29.5v7.851h-11v34.699h-7.602V115.684z"/>
</g>
<g>
	<rect x="383.07" y="72.973" fill="#1B86C8" width="12.261" height="11.304"/>
	<rect x="362.132" y="86.129" fill="#1B86C8" width="54.136" height="9.258"/>
	<path fill="#1B86C8" d="M352.809,34.037v-8.652h9.367V20.53H346.7v14.295c0,5.688,6.638,10.3,14.827,10.3
		c0.218,0,0.435-0.005,0.648-0.011V40.26C357.325,40.157,352.809,37.414,352.809,34.037z"/>
	<path fill="#1B86C8" d="M425.448,34.037v-8.652h-9.368V20.53h15.479v14.295c0,5.688-6.641,10.3-14.827,10.3
		c-0.218,0-0.437-0.005-0.649-0.011V40.26C420.934,40.157,425.448,37.414,425.448,34.037z"/>
	<path fill="#1B86C8" d="M403.824,89.225c0,0.85-0.687,1.533-1.532,1.533h-26.185c-0.847,0-1.532-0.686-1.532-1.533v-6.227
		c0-0.848,0.687-1.533,1.532-1.533h26.185c0.847,0,1.532,0.688,1.532,1.533V89.225z"/>
	<polygon fill="#1B86C8" points="360.303,95.387 346.7,95.387 352.064,90.838 346.7,86.129 360.303,86.129 	"/>
	<polygon fill="#1B86C8" points="417.954,95.387 431.559,95.387 426.193,90.838 431.559,86.129 417.954,86.129 	"/>
	<path fill="#1B86C8" d="M361.482,13.389v43.107c0,10.634,12.409,19.254,27.718,19.254c15.308,0,27.718-8.621,27.718-19.254V13.389
		H361.482z M396.502,67.598c-0.063,0.007-0.123,0.01-0.184,0.01c-0.767,0-1.429-0.572-1.521-1.352
		c-0.1-0.84,0.499-1.602,1.338-1.703c0.439-0.055,10.791-1.429,11.491-10.475c0.065-0.843,0.809-1.472,1.646-1.41
		c0.846,0.066,1.477,0.803,1.409,1.646C409.969,63.573,401.094,67.052,396.502,67.598z"/>
</g>
<g>
	<path fill="#AAAAAA" stroke="#AAAAAA" stroke-width="3" stroke-miterlimit="10" d="M274.502,83.422
		c0-1.412,1.143-2.556,2.555-2.556h6.855c1.412,0,2.557,1.144,2.557,2.556v6.857c0,1.41-1.145,2.556-2.557,2.556h-6.855
		c-1.412,0-2.555-1.146-2.555-2.556V83.422z"/>
	<path fill="#AAAAAA" stroke="#AAAAAA" stroke-width="3" stroke-miterlimit="10" d="M262.531,83.422
		c0-1.412,1.145-2.556,2.555-2.556h6.859c1.41,0,2.557,1.144,2.557,2.556v6.857c0,1.41-1.146,2.556-2.557,2.556h-6.859
		c-1.41,0-2.555-1.146-2.555-2.556V83.422z"/>
	<path fill="#AAAAAA" stroke="#AAAAAA" stroke-width="3" stroke-miterlimit="10" d="M250.564,83.422
		c0-1.412,1.145-2.556,2.555-2.556h6.855c1.411,0,2.557,1.144,2.557,2.556v6.857c0,1.41-1.145,2.556-2.557,2.556h-6.855
		c-1.41,0-2.555-1.146-2.555-2.556V83.422L250.564,83.422z"/>
	<path fill="#AAAAAA" stroke="#AAAAAA" stroke-width="3" stroke-miterlimit="10" d="M238.596,83.422
		c0-1.412,1.143-2.556,2.557-2.556h6.855c1.412,0,2.557,1.144,2.557,2.556v6.857c0,1.41-1.145,2.556-2.557,2.556h-6.855
		c-1.414,0-2.557-1.146-2.557-2.556V83.422z"/>
</g>
<g>
	<path fill="#AAAAAA" stroke="#AAAAAA" stroke-width="3" stroke-miterlimit="10" d="M193.279,80.866
		c-1.412,0-2.557-1.143-2.557-2.556v-6.856c0-1.41,1.145-2.556,2.557-2.556h6.854c1.412,0,2.558,1.146,2.558,2.556v6.856
		c0,1.413-1.146,2.556-2.558,2.556H193.279z"/>
	<path fill="#AAAAAA" stroke="#AAAAAA" stroke-width="3" stroke-miterlimit="10" d="M205.246,80.866
		c-1.412,0-2.555-1.143-2.555-2.556v-6.856c0-1.41,1.143-2.556,2.555-2.556h6.857c1.41,0,2.555,1.146,2.555,2.556v6.856
		c0,1.413-1.145,2.556-2.555,2.556H205.246z"/>
	<path fill="#AAAAAA" stroke="#AAAAAA" stroke-width="3" stroke-miterlimit="10" d="M193.277,68.898
		c-1.41,0-2.555-1.143-2.555-2.556v-6.856c0-1.413,1.145-2.556,2.555-2.556h6.856c1.412,0,2.558,1.143,2.558,2.556v6.856
		c0,1.413-1.146,2.556-2.558,2.556H193.277z"/>
	<path fill="#AAAAAA" stroke="#AAAAAA" stroke-width="3" stroke-miterlimit="10" d="M193.277,56.931
		c-1.41,0-2.555-1.146-2.555-2.555v-6.858c0-1.41,1.145-2.556,2.555-2.556h6.856c1.412,0,2.558,1.146,2.558,2.556v6.858
		c0,1.41-1.146,2.555-2.558,2.555H193.277z"/>
</g>
<g>
	<path fill="none" stroke="#AAAAAA" stroke-width="3" stroke-miterlimit="10" d="M238.596,66.373c0,1.412-1.143,2.556-2.557,2.556
		h-6.855c-1.412,0-2.557-1.145-2.557-2.556v-6.856c0-1.412,1.145-2.556,2.557-2.556h6.855c1.414,0,2.557,1.144,2.557,2.556V66.373z"
		/>
	<path fill="none" stroke="#AAAAAA" stroke-width="3" stroke-miterlimit="10" d="M250.564,66.373c0,1.412-1.146,2.556-2.558,2.556
		h-6.854c-1.41,0-2.557-1.145-2.557-2.556v-6.856c0-1.412,1.146-2.556,2.557-2.556h6.854c1.412,0,2.558,1.144,2.558,2.556V66.373z"
		/>
	<path fill="none" stroke="#AAAAAA" stroke-width="3" stroke-miterlimit="10" d="M262.531,66.373c0,1.412-1.145,2.556-2.555,2.556
		h-6.857c-1.41,0-2.555-1.145-2.555-2.556v-6.856c0-1.412,1.145-2.556,2.555-2.556h6.857c1.41,0,2.555,1.144,2.555,2.556V66.373z"/>
	<path fill="none" stroke="#AAAAAA" stroke-width="3" stroke-miterlimit="10" d="M250.564,54.436c0,1.412-1.146,2.556-2.558,2.556
		h-6.854c-1.41,0-2.557-1.144-2.557-2.556v-6.857c0-1.412,1.146-2.556,2.557-2.556h6.854c1.412,0,2.558,1.144,2.558,2.556V54.436z"
		/>
</g>
<g>
	<path fill="none" stroke="#AAAAAA" stroke-width="3" stroke-miterlimit="10" d="M214.658,90.277c0,1.412-1.145,2.557-2.555,2.557
		h-6.857c-1.412,0-2.555-1.145-2.555-2.557v-6.855c0-1.412,1.143-2.556,2.555-2.556h6.857c1.41,0,2.555,1.144,2.555,2.556V90.277z"
		/>
	<path fill="none" stroke="#AAAAAA" stroke-width="3" stroke-miterlimit="10" d="M226.627,90.277c0,1.412-1.145,2.557-2.555,2.557
		h-6.857c-1.412,0-2.557-1.145-2.557-2.557v-6.855c0-1.412,1.145-2.556,2.557-2.556h6.857c1.41,0,2.555,1.144,2.555,2.556V90.277z"
		/>
	<path fill="none" stroke="#AAAAAA" stroke-width="3" stroke-miterlimit="10" d="M238.596,90.277c0,1.412-1.145,2.557-2.557,2.557
		h-6.855c-1.412,0-2.557-1.145-2.557-2.557v-6.855c0-1.412,1.145-2.556,2.557-2.556h6.855c1.412,0,2.557,1.144,2.557,2.556V90.277z"
		/>
	<path fill="none" stroke="#AAAAAA" stroke-width="3" stroke-miterlimit="10" d="M226.627,78.34c0,1.413-1.145,2.557-2.555,2.557
		h-6.857c-1.412,0-2.557-1.144-2.557-2.557v-6.855c0-1.41,1.145-2.556,2.557-2.556h6.857c1.41,0,2.555,1.146,2.555,2.556V78.34z"/>
</g>
<g>
	<path fill="none" stroke="#AAAAAA" stroke-width="3" stroke-miterlimit="10" d="M274.502,78.326c0,1.413-1.145,2.555-2.557,2.555
		h-6.855c-1.414,0-2.557-1.143-2.557-2.555V71.47c0-1.413,1.143-2.556,2.557-2.556h6.855c1.412,0,2.557,1.143,2.557,2.556V78.326z"
		/>
	<path fill="none" stroke="#AAAAAA" stroke-width="3" stroke-miterlimit="10" d="M286.469,78.326c0,1.413-1.143,2.555-2.557,2.555
		h-6.855c-1.41,0-2.555-1.143-2.555-2.555V71.47c0-1.413,1.145-2.556,2.555-2.556h6.855c1.414,0,2.557,1.143,2.557,2.556V78.326z"/>
	<path fill="none" stroke="#AAAAAA" stroke-width="3" stroke-miterlimit="10" d="M274.5,66.387c0,1.413-1.145,2.556-2.557,2.556
		h-6.857c-1.41,0-2.555-1.144-2.555-2.556v-6.855c0-1.413,1.145-2.556,2.555-2.556h6.857c1.412,0,2.557,1.143,2.557,2.556V66.387z"
		/>
	<path fill="none" stroke="#AAAAAA" stroke-width="3" stroke-miterlimit="10" d="M286.469,66.387c0,1.413-1.143,2.556-2.557,2.556
		h-6.855c-1.41,0-2.555-1.144-2.555-2.556v-6.855c0-1.41,1.145-2.556,2.555-2.556h6.855c1.414,0,2.557,1.146,2.557,2.556V66.387z"/>
</g>
<g>
	<path fill="#AAAAAA" stroke="#AAAAAA" stroke-width="3" stroke-miterlimit="10" d="M286.469,28.815
		c0,1.413-1.143,2.556-2.557,2.556h-6.855c-1.41,0-2.555-1.143-2.555-2.556v-6.856c0-1.411,1.145-2.556,2.555-2.556h6.855
		c1.414,0,2.557,1.145,2.557,2.556V28.815z"/>
	<path fill="#AAAAAA" stroke="#AAAAAA" stroke-width="3" stroke-miterlimit="10" d="M286.469,16.848
		c0,1.413-1.143,2.555-2.557,2.555h-6.855c-1.41,0-2.555-1.143-2.555-2.555V9.991c0-1.412,1.145-2.556,2.555-2.556h6.855
		c1.414,0,2.557,1.144,2.557,2.556V16.848z"/>
	<path fill="#AAAAAA" stroke="#AAAAAA" stroke-width="3" stroke-miterlimit="10" d="M274.502,28.816c0,1.41-1.143,2.556-2.557,2.556
		h-6.855c-1.414,0-2.557-1.146-2.557-2.556v-6.858c0-1.411,1.143-2.556,2.557-2.556h6.855c1.414,0,2.557,1.145,2.557,2.556V28.816z"
		/>
	<path fill="#AAAAAA" stroke="#AAAAAA" stroke-width="3" stroke-miterlimit="10" d="M262.533,28.816c0,1.41-1.146,2.556-2.555,2.556
		h-6.859c-1.41,0-2.555-1.146-2.555-2.556v-6.858c0-1.411,1.145-2.556,2.555-2.556h6.859c1.407,0,2.555,1.145,2.555,2.556V28.816z"
		/>
</g>
<g>
	<path fill="#AAAAAA" d="M211.92,112.484h-17.949v-6.7h25.799v6.7l-5.75,40.05h-7.699L211.92,112.484z M235.221,152.834h-7.701
		v-47.3h7.701V152.834z"/>
	<path fill="#AAAAAA" d="M260.619,103.834v3.4h10.701v6.3h-2.851c0.566,1.067,0.851,2.134,0.851,3.2v3.5
		c0,1-0.234,1.967-0.701,2.898c-0.467,0.934-1.092,1.792-1.875,2.575s-1.699,1.435-2.75,1.95c-1.049,0.517-2.141,0.842-3.273,0.975
		v2h15.148v-25.1h7.352v31.55h-41.25v-6.45h11.5v-2.05c-1.168-0.133-2.26-0.467-3.275-1c-1.018-0.533-1.907-1.183-2.676-1.95
		c-0.768-0.767-1.375-1.615-1.824-2.55c-0.45-0.933-0.676-1.883-0.676-2.851v-3.5c0-1.065,0.283-2.133,0.851-3.199h-3.147v-6.301
		h10.897v-3.399L260.619,103.834L260.619,103.834z M283.221,144.834l-1.9,8h-7.35l1.949-8h-29.25v-5.9h36.551V144.834z
		 M262.471,118.434c0-1.133-0.4-2.058-1.201-2.773c-0.799-0.717-1.834-1.075-3.1-1.075h-1.949c-1.268,0-2.301,0.358-3.102,1.075
		c-0.799,0.717-1.199,1.642-1.199,2.773v0.102c0,1.167,0.4,2.1,1.199,2.8c0.801,0.7,1.834,1.05,3.102,1.05h1.949
		c1.266,0,2.301-0.35,3.1-1.05c0.801-0.7,1.201-1.633,1.201-2.8V118.434z"/>
</g>
<g>
	<path fill="#1B86C8" d="M48.602,113.15h-14.1v-6.7h25.65v6.7l-7.25,5.35l7.25,5.6v8.102l-13-9.45l-12.65,9.351v-8.649
		L48.602,113.15z M43.252,147.35h24.2v-25h-6.15v-6.75h6.15V106.2h7.05v47.3h-37.9v-16.9h6.65V147.35z"/>
	<path fill="#1B86C8" d="M95.252,108.4h6.95v5.898l-6,16.15l8.6,22.85h-7.2l-5-13l-4.8,13.051h-7.399l14.35-38.75h-13.3V108.4h6.8
		v-3.9h7L95.252,108.4L95.252,108.4z M113.502,153.5h-6.5v-23.35h-6.15V123.6h6.15V106.2h6.5V153.5z M123.452,153.5h-6.5v-47.3h6.5
		V153.5z"/>
</g>
<g>
	<g>
		<polygon points="94,-36.46 82.193,-36.46 82.193,-58.944 59.708,-58.944 59.708,-70.752 94,-70.752 		"/>
	</g>
</g>
<g>
	<rect x="65.806" y="-74.968" transform="matrix(0.7071 0.7071 -0.7071 0.7071 -13.868 -66.3615)" width="14.73" height="50.093"/>
</g>
<polygon points="148.5,-64.75 134.75,-64.75 134.75,-56.75 148.5,-56.75 148.5,-43 156.5,-43 156.5,-56.75 156.5,-64.75 "/>
<rect x="139.227" y="-62.253" transform="matrix(-0.7071 -0.7071 0.7071 -0.7071 280.8106 13.6215)" width="7.999" height="21.805"/>
<path fill="none" stroke="#1B87C9" stroke-width="6" stroke-miterlimit="10" d="M130.346,87.932c0,1.95-1.496,3.527-3.345,3.527
	H30.952c-1.846,0-3.343-1.577-3.343-3.527V20.157c0-1.949,1.497-3.529,3.343-3.529h96.049c1.849,0,3.345,1.58,3.345,3.529V87.932z"
	/>
<path fill="#1B86C8" d="M118.081,25.187H39.873c-1.503,0-2.722,1.218-2.722,2.721v52.271c0,1.504,1.219,2.721,2.722,2.721h78.208
	c1.503,0,2.722-1.217,2.722-2.721V27.908C120.803,26.405,119.584,25.187,118.081,25.187z M52.786,75.885v4.713h-8.1h-4.713v-4.713
	v-8.1h4.713v4.693l5.979-5.979l3.332,3.333l-6.053,6.053H52.786z M50.666,41.598l-5.979-5.979v4.693h-4.713v-8.1V27.5h4.713h8.1
	v4.713h-4.841l6.053,6.053L50.666,41.598z M118.035,75.885v4.713h-4.713h-8.1v-4.713h4.84l-6.053-6.053l3.332-3.333l5.979,5.979
	v-4.693h4.714L118.035,75.885L118.035,75.885z M118.035,32.213v8.1h-4.713V35.62l-5.979,5.979l-3.331-3.333l6.053-6.053h-4.842V27.5
	h8.101h4.713L118.035,32.213L118.035,32.213z"/>
</svg>
