<?xml version="1.0" encoding="utf-8"?>
<!-- Generator: Adobe Illustrator 16.0.0, SVG Export Plug-In . SVG Version: 6.00 Build 0)  -->
<!DOCTYPE svg PUBLIC "-//W3C//DTD SVG 1.1//EN" "http://www.w3.org/Graphics/SVG/1.1/DTD/svg11.dtd">
<svg version="1.1" xmlns="http://www.w3.org/2000/svg" xmlns:xlink="http://www.w3.org/1999/xlink" x="0px" y="0px" width="100px"
	 height="100px" viewBox="0 0 100 100" enable-background="new 0 0 100 100" xml:space="preserve">
<g id="Layer_1" display="none">
	<path display="inline" fill="none" stroke="#ECECEC" stroke-width="2" stroke-miterlimit="10" d="M97.695,50
		c0,13.787-11.178,25-24.964,25H26.964C13.177,75,2,63.787,2,50l0,0c0-13.788,11.177-25,24.964-25h45.767
		C86.518,25,97.695,36.212,97.695,50L97.695,50z"/>
	<g display="inline">
		<path fill="#333333" d="M29.548,46.94c0,0.766-0.149,1.512-0.448,2.241c-0.299,0.728-0.709,1.362-1.232,1.903h0.028
			c0.69,0.504,1.19,1.125,1.498,1.862s0.462,1.498,0.462,2.282v1.483c0,0.99-0.14,1.876-0.42,2.66s-0.672,1.446-1.176,1.988
			c-0.504,0.541-1.102,0.952-1.792,1.231c-0.691,0.28-1.456,0.42-2.296,0.42H13.336V39.184h10.528c0.84,0,1.61,0.14,2.31,0.42
			c0.7,0.28,1.302,0.677,1.806,1.19c0.504,0.514,0.891,1.13,1.162,1.848c0.271,0.719,0.406,1.508,0.406,2.366V46.94z M17.452,49.096
			h5.656c0.317,0,0.616-0.069,0.896-0.21c0.28-0.14,0.527-0.326,0.742-0.56c0.214-0.233,0.382-0.508,0.504-0.826
			c0.121-0.317,0.182-0.653,0.182-1.008v-0.364c0-0.354-0.061-0.686-0.182-0.994c-0.122-0.308-0.29-0.583-0.504-0.826
			c-0.215-0.242-0.462-0.434-0.742-0.574c-0.28-0.14-0.579-0.21-0.896-0.21h-5.656V49.096z M25.74,55.732
			c0-0.354-0.061-0.69-0.182-1.008c-0.122-0.317-0.29-0.593-0.504-0.826c-0.215-0.233-0.467-0.42-0.756-0.561
			c-0.29-0.14-0.593-0.21-0.91-0.21h-5.936v5.488h5.936c0.317,0,0.62-0.07,0.91-0.21s0.542-0.326,0.756-0.561
			c0.214-0.232,0.382-0.508,0.504-0.825c0.121-0.317,0.182-0.663,0.182-1.036V55.732z"/>
		<path fill="#333333" d="M36.771,58.98h11.872v4.031h-16.38V39.184h16.38v4.032H36.771v5.879h11.872v3.977H36.771V58.98z"/>
		<path fill="#333333" d="M62.783,48.228c0.989,0,1.908,0.187,2.758,0.56c0.85,0.374,1.582,0.896,2.198,1.568
			s1.097,1.47,1.442,2.394c0.345,0.924,0.518,1.928,0.518,3.01c0,1.027-0.159,1.984-0.476,2.87
			c-0.318,0.887-0.766,1.652-1.345,2.296c-0.578,0.645-1.27,1.152-2.071,1.526c-0.803,0.373-1.69,0.56-2.66,0.56H52.283v-4.424
			h9.604c0.466,0,0.914-0.056,1.344-0.168c0.429-0.111,0.798-0.284,1.105-0.518c0.309-0.233,0.556-0.527,0.742-0.882
			s0.28-0.774,0.28-1.261c0-0.914-0.299-1.624-0.896-2.128s-1.344-0.756-2.239-0.756h-2.828c-1.195,0-2.278-0.13-3.248-0.392
			c-0.971-0.262-1.797-0.672-2.479-1.232c-0.682-0.56-1.209-1.283-1.582-2.17c-0.373-0.886-0.56-1.946-0.56-3.178
			c0-0.877,0.149-1.722,0.448-2.534c0.298-0.812,0.718-1.526,1.26-2.142c0.541-0.616,1.194-1.11,1.96-1.484
			c0.765-0.373,1.614-0.56,2.548-0.56H67.6v4.648h-8.036c-0.448,0-0.873,0.028-1.274,0.084c-0.401,0.056-0.751,0.164-1.05,0.322
			s-0.532,0.388-0.7,0.686c-0.168,0.299-0.252,0.7-0.252,1.204c0,0.597,0.196,1.097,0.588,1.498
			c0.393,0.402,0.934,0.602,1.624,0.602H62.783z"/>
		<path fill="#333333" d="M77.539,43.58h-6.104v-4.396h16.52v4.396h-6.16v19.432h-4.256V43.58z"/>
	</g>
	<text transform="matrix(1 0 0 1 18.4883 58.7842)" fill="#333333" font-family="'BMDoHyeon'" font-size="28">인 기</text>
	<text transform="matrix(1 0 0 1 18.4883 58.7842)" fill="#333333" font-family="'BMDoHyeon'" font-size="28">경 제</text>
	<text transform="matrix(1 0 0 1 18.4883 58.7842)" fill="#333333" font-family="'BMDoHyeon'" font-size="28">금 융</text>
	<text transform="matrix(1 0 0 1 18.4883 58.7842)" fill="#333333" font-family="'BMDoHyeon'" font-size="28">주 식</text>
	<text transform="matrix(1 0 0 1 18.4883 58.7842)" fill="#333333" font-family="'BMDoHyeon'" font-size="28">주 식</text>
</g>
<g id="Layer_1_copy">
	<path fill="#1B87C9" stroke="#1B87C9" stroke-miterlimit="10" d="M97.5,50.5c0,13.807-11.177,25-24.965,25h-46.07
		C12.677,75.5,1.5,64.307,1.5,50.5l0,0c0-13.807,11.177-25,24.965-25h46.07C86.323,25.5,97.5,36.693,97.5,50.5L97.5,50.5z"/>
	<g>
		<path fill="#FFFFFF" d="M29.698,46.94c0,0.766-0.149,1.512-0.448,2.241c-0.299,0.728-0.709,1.362-1.232,1.903h0.028
			c0.69,0.504,1.19,1.125,1.498,1.862s0.462,1.498,0.462,2.282v1.483c0,0.99-0.14,1.876-0.42,2.66s-0.672,1.446-1.176,1.988
			c-0.504,0.541-1.102,0.952-1.792,1.231c-0.691,0.28-1.456,0.42-2.296,0.42H13.486V39.184h10.528c0.84,0,1.61,0.14,2.31,0.42
			c0.7,0.28,1.302,0.677,1.806,1.19c0.504,0.514,0.891,1.13,1.162,1.848c0.271,0.719,0.406,1.508,0.406,2.366V46.94z M17.603,49.096
			h5.656c0.317,0,0.616-0.069,0.896-0.21c0.28-0.14,0.527-0.326,0.742-0.56c0.214-0.233,0.382-0.508,0.504-0.826
			c0.121-0.317,0.182-0.653,0.182-1.008v-0.364c0-0.354-0.061-0.686-0.182-0.994c-0.122-0.308-0.29-0.583-0.504-0.826
			c-0.215-0.242-0.462-0.434-0.742-0.574c-0.28-0.14-0.579-0.21-0.896-0.21h-5.656V49.096z M25.891,55.732
			c0-0.354-0.061-0.69-0.182-1.008c-0.122-0.317-0.29-0.593-0.504-0.826c-0.215-0.233-0.467-0.42-0.756-0.561
			c-0.29-0.14-0.593-0.21-0.91-0.21h-5.936v5.488h5.936c0.317,0,0.62-0.07,0.91-0.21s0.542-0.326,0.756-0.561
			c0.214-0.232,0.382-0.508,0.504-0.825c0.121-0.317,0.182-0.663,0.182-1.036V55.732z"/>
		<path fill="#FFFFFF" d="M36.922,58.98h11.872v4.031h-16.38V39.184h16.38v4.032H36.922v5.879h11.872v3.977H36.922V58.98z"/>
		<path fill="#FFFFFF" d="M62.934,48.228c0.989,0,1.908,0.187,2.758,0.56c0.85,0.374,1.582,0.896,2.198,1.568
			s1.097,1.47,1.442,2.394c0.345,0.924,0.518,1.928,0.518,3.01c0,1.027-0.159,1.984-0.476,2.87
			c-0.318,0.887-0.766,1.652-1.345,2.296c-0.578,0.645-1.27,1.152-2.071,1.526c-0.803,0.373-1.69,0.56-2.66,0.56H52.434v-4.424
			h9.604c0.466,0,0.914-0.056,1.344-0.168c0.429-0.111,0.798-0.284,1.105-0.518c0.309-0.233,0.556-0.527,0.742-0.882
			s0.28-0.774,0.28-1.261c0-0.914-0.299-1.624-0.896-2.128s-1.344-0.756-2.239-0.756h-2.828c-1.195,0-2.278-0.13-3.248-0.392
			c-0.971-0.262-1.797-0.672-2.479-1.232c-0.682-0.56-1.209-1.283-1.582-2.17c-0.373-0.886-0.56-1.946-0.56-3.178
			c0-0.877,0.149-1.722,0.448-2.534c0.298-0.812,0.718-1.526,1.26-2.142c0.541-0.616,1.194-1.11,1.96-1.484
			c0.765-0.373,1.614-0.56,2.548-0.56h9.856v4.648h-8.036c-0.448,0-0.873,0.028-1.274,0.084c-0.401,0.056-0.751,0.164-1.05,0.322
			s-0.532,0.388-0.7,0.686c-0.168,0.299-0.252,0.7-0.252,1.204c0,0.597,0.196,1.097,0.588,1.498
			c0.393,0.402,0.934,0.602,1.624,0.602H62.934z"/>
		<path fill="#FFFFFF" d="M77.689,43.58h-6.104v-4.396h16.52v4.396h-6.16v19.432h-4.256V43.58z"/>
	</g>
	<text transform="matrix(1 0 0 1 18.4883 58.7842)" display="none" fill="#333333" font-family="'BMDoHyeon'" font-size="28">인 기</text>
	<text transform="matrix(1 0 0 1 18.4883 58.7842)" display="none" fill="#333333" font-family="'BMDoHyeon'" font-size="28">경 제</text>
	<text transform="matrix(1 0 0 1 18.4883 58.7842)" display="none" fill="#333333" font-family="'BMDoHyeon'" font-size="28">금 융</text>
	<text transform="matrix(1 0 0 1 18.4883 58.7842)" display="none" fill="#333333" font-family="'BMDoHyeon'" font-size="28">주 식</text>
	<text transform="matrix(1 0 0 1 18.4883 58.7842)" display="none" fill="#333333" font-family="'BMDoHyeon'" font-size="28">주 식</text>
</g>
</svg>
