<?xml version="1.0" encoding="utf-8"?>
<!-- Generator: Adobe Illustrator 16.0.0, SVG Export Plug-In . SVG Version: 6.00 Build 0)  -->
<!DOCTYPE svg PUBLIC "-//W3C//DTD SVG 1.1//EN" "http://www.w3.org/Graphics/SVG/1.1/DTD/svg11.dtd">
<svg version="1.1" id="레이어_1" xmlns="http://www.w3.org/2000/svg" xmlns:xlink="http://www.w3.org/1999/xlink" x="0px"
	 y="0px" width="100px" height="100px" viewBox="0 0 100 100" enable-background="new 0 0 100 100" xml:space="preserve">
<g id="Layer_1" display="none">
	<path display="inline" fill="none" stroke="#ECECEC" stroke-width="2" stroke-miterlimit="10" d="M97.695,50
		c0,13.787-11.178,25-24.965,25H26.964C13.177,75,2,63.787,2,50l0,0c0-13.788,11.177-25,24.964-25H72.73
		C86.518,25,97.695,36.212,97.695,50L97.695,50z"/>
	<g display="inline">
		<path fill="#333333" d="M29.548,46.94c0,0.766-0.149,1.512-0.448,2.241c-0.299,0.728-0.709,1.362-1.232,1.903h0.028
			c0.69,0.504,1.19,1.125,1.498,1.861c0.308,0.738,0.462,1.498,0.462,2.283v1.482c0,0.99-0.14,1.876-0.42,2.66
			c-0.28,0.784-0.672,1.445-1.176,1.988c-0.504,0.541-1.102,0.951-1.792,1.23c-0.691,0.28-1.456,0.42-2.296,0.42H13.336V39.184
			h10.528c0.84,0,1.61,0.14,2.31,0.42c0.7,0.28,1.302,0.677,1.806,1.19c0.504,0.514,0.891,1.13,1.162,1.848
			c0.271,0.719,0.406,1.508,0.406,2.366V46.94z M17.452,49.096h5.656c0.317,0,0.616-0.069,0.896-0.21
			c0.28-0.14,0.527-0.326,0.742-0.56c0.214-0.233,0.382-0.508,0.504-0.826c0.121-0.317,0.182-0.653,0.182-1.008v-0.364
			c0-0.354-0.061-0.686-0.182-0.994c-0.122-0.308-0.29-0.583-0.504-0.826c-0.215-0.242-0.462-0.434-0.742-0.574
			c-0.28-0.14-0.579-0.21-0.896-0.21h-5.656V49.096z M25.74,55.732c0-0.354-0.061-0.69-0.182-1.008
			c-0.122-0.317-0.29-0.594-0.504-0.826c-0.215-0.233-0.467-0.42-0.756-0.562c-0.29-0.14-0.593-0.21-0.91-0.21h-5.936v5.488h5.936
			c0.317,0,0.62-0.07,0.91-0.21s0.542-0.326,0.756-0.562c0.214-0.232,0.382-0.508,0.504-0.824c0.121-0.317,0.182-0.664,0.182-1.037
			V55.732z"/>
		<path fill="#333333" d="M36.771,58.98h11.872v4.03h-16.38V39.184h16.38v4.032H36.771v5.879h11.872v3.978H36.771V58.98z"/>
		<path fill="#333333" d="M62.783,48.228c0.988,0,1.908,0.187,2.758,0.56c0.85,0.374,1.582,0.896,2.197,1.568
			c0.617,0.671,1.098,1.47,1.443,2.394c0.344,0.924,0.518,1.928,0.518,3.01c0,1.027-0.159,1.984-0.477,2.87
			c-0.318,0.888-0.766,1.652-1.345,2.296c-0.578,0.645-1.271,1.152-2.071,1.526c-0.803,0.373-1.689,0.56-2.66,0.56H52.283v-4.424
			h9.604c0.467,0,0.914-0.056,1.344-0.168c0.43-0.111,0.799-0.284,1.105-0.518c0.309-0.233,0.557-0.527,0.742-0.883
			c0.186-0.354,0.279-0.773,0.279-1.261c0-0.914-0.299-1.624-0.896-2.128s-1.344-0.756-2.239-0.756h-2.828
			c-1.194,0-2.277-0.13-3.248-0.393c-0.971-0.262-1.797-0.672-2.479-1.231s-1.209-1.283-1.582-2.17
			c-0.373-0.886-0.561-1.946-0.561-3.178c0-0.877,0.149-1.722,0.449-2.534c0.297-0.812,0.717-1.526,1.26-2.142
			c0.541-0.616,1.193-1.11,1.959-1.484c0.766-0.373,1.615-0.56,2.549-0.56H67.6v4.648h-8.035c-0.448,0-0.873,0.028-1.274,0.084
			s-0.751,0.164-1.05,0.322c-0.299,0.158-0.532,0.388-0.7,0.686c-0.168,0.299-0.252,0.7-0.252,1.204
			c0,0.597,0.196,1.097,0.588,1.498c0.394,0.402,0.935,0.602,1.624,0.602L62.783,48.228L62.783,48.228z"/>
		<path fill="#333333" d="M77.539,43.58h-6.104v-4.396h16.52v4.396h-6.16v19.432h-4.256V43.58z"/>
	</g>
	<text transform="matrix(1 0 0 1 18.4883 58.7842)" display="inline" fill="#333333" font-family="'BMDoHyeon'" font-size="28">인 기</text>
	<text transform="matrix(1 0 0 1 18.4883 58.7842)" display="inline" fill="#333333" font-family="'BMDoHyeon'" font-size="28">경 제</text>
	<text transform="matrix(1 0 0 1 18.4883 58.7842)" display="inline" fill="#333333" font-family="'BMDoHyeon'" font-size="28">금 융</text>
	<text transform="matrix(1 0 0 1 18.4883 58.7842)" display="inline" fill="#333333" font-family="'BMDoHyeon'" font-size="28">주 식</text>
	<text transform="matrix(1 0 0 1 18.4883 58.7842)" display="inline" fill="#333333" font-family="'BMDoHyeon'" font-size="28">주 식</text>
</g>
<path fill="#1B87C9" stroke="#1B87C9" stroke-miterlimit="10" d="M97.5,50.5c0,13.807-11.178,25-24.965,25h-46.07
	C12.677,75.5,1.5,64.307,1.5,50.5l0,0c0-13.807,11.177-25,24.965-25h46.07C86.322,25.5,97.5,36.693,97.5,50.5L97.5,50.5z"/>
<g>
	<path fill="#FFFFFF" d="M32.676,46.929c0,0.659-0.128,1.299-0.384,1.925c-0.257,0.625-0.609,1.169-1.059,1.634h0.023
		c0.593,0.433,1.023,0.966,1.288,1.599c0.264,0.635,0.396,1.286,0.396,1.961v1.273c0,0.85-0.12,1.61-0.361,2.284
		c-0.24,0.674-0.577,1.241-1.01,1.708c-0.434,0.465-0.946,0.817-1.54,1.058s-1.25,0.359-1.972,0.359h-9.306V40.268h9.042
		c0.721,0,1.382,0.121,1.983,0.361s1.118,0.582,1.551,1.022c0.434,0.441,0.766,0.97,0.998,1.587
		c0.233,0.617,0.349,1.294,0.349,2.031V46.929z M22.289,48.781h4.857c0.272,0,0.529-0.06,0.77-0.181
		c0.241-0.12,0.453-0.279,0.638-0.48c0.184-0.2,0.328-0.437,0.433-0.71c0.104-0.272,0.156-0.561,0.156-0.865v-0.313
		c0-0.304-0.053-0.589-0.156-0.854c-0.105-0.265-0.249-0.5-0.433-0.709c-0.185-0.208-0.397-0.373-0.638-0.493
		c-0.24-0.121-0.497-0.181-0.77-0.181h-4.857V48.781z M29.406,54.481c0-0.306-0.052-0.594-0.156-0.867
		c-0.105-0.271-0.25-0.509-0.433-0.708c-0.184-0.201-0.401-0.361-0.649-0.482c-0.249-0.12-0.509-0.181-0.781-0.181h-5.098v4.714
		h5.098c0.272,0,0.533-0.062,0.781-0.182c0.25-0.119,0.466-0.279,0.649-0.48c0.184-0.2,0.328-0.438,0.433-0.709
		c0.104-0.273,0.156-0.57,0.156-0.891V54.481z"/>
	<path fill="#FFFFFF" d="M38.88,57.271h10.197v3.461H35.008V40.268h14.068v3.462H38.88v5.049h10.197v3.416H38.88V57.271z"/>
	<path fill="#FFFFFF" d="M61.221,48.036c0.85,0,1.638,0.161,2.368,0.481c0.73,0.321,1.359,0.77,1.889,1.347
		c0.528,0.576,0.941,1.263,1.238,2.056s0.444,1.656,0.444,2.586c0,0.882-0.136,1.704-0.408,2.464
		c-0.273,0.763-0.657,1.419-1.154,1.973c-0.498,0.553-1.092,0.988-1.78,1.311c-0.689,0.32-1.451,0.48-2.284,0.48h-9.331v-3.8h8.249
		c0.401,0,0.786-0.048,1.154-0.145c0.369-0.095,0.686-0.244,0.949-0.443c0.265-0.201,0.479-0.453,0.637-0.759
		c0.16-0.304,0.241-0.664,0.241-1.082c0-0.786-0.257-1.396-0.77-1.829c-0.514-0.432-1.154-0.647-1.924-0.647h-2.429
		c-1.025,0-1.957-0.112-2.789-0.338c-0.834-0.224-1.543-0.577-2.129-1.058c-0.586-0.481-1.038-1.102-1.359-1.864
		c-0.32-0.761-0.48-1.671-0.48-2.73c0-0.753,0.129-1.479,0.385-2.176c0.256-0.697,0.616-1.311,1.083-1.839
		c0.464-0.529,1.024-0.953,1.683-1.274c0.657-0.321,1.385-0.481,2.188-0.481h8.466v3.992h-6.902c-0.385,0-0.75,0.024-1.093,0.072
		c-0.345,0.048-0.646,0.141-0.903,0.277c-0.256,0.136-0.456,0.333-0.6,0.589c-0.146,0.257-0.217,0.601-0.217,1.034
		c0,0.514,0.167,0.942,0.505,1.287c0.337,0.345,0.801,0.517,1.395,0.517L61.221,48.036L61.221,48.036z"/>
	<path fill="#FFFFFF" d="M73.893,44.044h-5.241v-3.776h14.189v3.776h-5.292v16.688h-3.656V44.044z"/>
</g>
<text transform="matrix(1 0 0 1 18.4883 58.7842)" display="none" fill="#333333" enable-background="new    " font-family="'BMDoHyeon'" font-size="28">인 기</text>
<text transform="matrix(1 0 0 1 18.4883 58.7842)" display="none" fill="#333333" enable-background="new    " font-family="'BMDoHyeon'" font-size="28">경 제</text>
<text transform="matrix(1 0 0 1 18.4883 58.7842)" display="none" fill="#333333" enable-background="new    " font-family="'BMDoHyeon'" font-size="28">금 융</text>
<text transform="matrix(1 0 0 1 18.4883 58.7842)" display="none" fill="#333333" enable-background="new    " font-family="'BMDoHyeon'" font-size="28">주 식</text>
<text transform="matrix(1 0 0 1 18.4883 58.7842)" display="none" fill="#333333" enable-background="new    " font-family="'BMDoHyeon'" font-size="28">주 식</text>
</svg>
