<?xml version="1.0" encoding="utf-8"?>
<!-- Generator: Adobe Illustrator 16.0.0, SVG Export Plug-In . SVG Version: 6.00 Build 0)  -->
<!DOCTYPE svg PUBLIC "-//W3C//DTD SVG 1.1//EN" "http://www.w3.org/Graphics/SVG/1.1/DTD/svg11.dtd">
<svg version="1.1" xmlns="http://www.w3.org/2000/svg" xmlns:xlink="http://www.w3.org/1999/xlink" x="0px" y="0px" width="100px"
	 height="52.631px" viewBox="0 0 100 52.631" enable-background="new 0 0 100 52.631" xml:space="preserve">
<g id="Layer_1" display="none">
	<path display="inline" fill="none" stroke="#ECECEC" stroke-width="2" stroke-miterlimit="10" d="M97.695,26.341
		c0,13.787-11.178,25-24.964,25H26.964C13.177,51.341,2,40.128,2,26.341l0,0c0-13.788,11.177-25,24.964-25h45.767
		C86.518,1.341,97.695,12.554,97.695,26.341L97.695,26.341z"/>
	<g display="inline">
		<path fill="#666666" d="M31.216,15.295c0.746,0,1.449,0.141,2.112,0.422c0.662,0.282,1.238,0.67,1.727,1.167
			c0.488,0.497,0.874,1.073,1.155,1.727c0.282,0.654,0.422,1.354,0.422,2.099v2.485c0,0.745-0.141,1.449-0.422,2.111
			c-0.281,0.663-0.667,1.239-1.155,1.727c-0.489,0.489-1.064,0.875-1.727,1.155c-0.663,0.282-1.366,0.423-2.112,0.423h-1.962
			c-0.746,0-1.45-0.141-2.112-0.423c-0.663-0.28-1.238-0.666-1.727-1.155c-0.488-0.488-0.873-1.064-1.155-1.727
			c-0.282-0.662-0.422-1.366-0.422-2.111V20.71c0-0.745,0.14-1.445,0.422-2.099c0.282-0.654,0.667-1.229,1.155-1.727
			c0.489-0.497,1.064-0.886,1.727-1.167c0.662-0.282,1.366-0.422,2.112-0.422H31.216z M28.408,35.318h11.875V15.17h3.478v23.502
			H24.93v-7.651h3.478V35.318z M29.253,18.723c-0.546,0-1.015,0.195-1.404,0.584c-0.39,0.389-0.583,0.857-0.583,1.403v2.485
			c0,0.546,0.194,1.015,0.583,1.403c0.389,0.389,0.857,0.584,1.404,0.584h1.962c0.547,0,1.015-0.195,1.404-0.584
			c0.389-0.389,0.584-0.857,0.584-1.403V20.71c0-0.546-0.195-1.014-0.584-1.403c-0.389-0.389-0.857-0.584-1.404-0.584H29.253z"/>
		<path fill="#666666" d="M63.983,18.624h-8.918v-3.329h12.818v3.329l-2.857,19.899h-3.824L63.983,18.624z M75.561,38.672h-3.826
			V15.17h3.826V38.672z"/>
	</g>
	<g display="inline">
		<path fill="#666666" d="M33.973,15.295v3.378l-1.068,9.863h-3.627l1.068-9.863h-7.08v-3.378H33.973z M39.439,30.299
			c0.612,0,1.188,0.104,1.727,0.312c0.539,0.207,1.007,0.496,1.403,0.869c0.397,0.372,0.712,0.816,0.945,1.329
			c0.232,0.514,0.348,1.077,0.348,1.689s-0.116,1.172-0.348,1.677c-0.232,0.505-0.548,0.944-0.945,1.317
			c-0.396,0.372-0.865,0.661-1.403,0.869c-0.538,0.207-1.114,0.311-1.727,0.311H29.303c-0.613,0-1.189-0.104-1.727-0.311
			c-0.538-0.208-1.006-0.497-1.404-0.869c-0.397-0.373-0.712-0.813-0.944-1.317s-0.348-1.064-0.348-1.677s0.116-1.176,0.348-1.689
			c0.232-0.513,0.547-0.957,0.944-1.329c0.398-0.373,0.866-0.662,1.404-0.869s1.114-0.312,1.727-0.312H39.439z M29.303,33.405
			c-0.298,0-0.551,0.108-0.758,0.323c-0.208,0.216-0.311,0.473-0.311,0.771c0,0.281,0.103,0.53,0.311,0.745
			c0.207,0.215,0.459,0.323,0.758,0.323h10.136c0.298,0,0.555-0.108,0.77-0.323c0.215-0.215,0.323-0.464,0.323-0.745
			c0-0.298-0.108-0.555-0.323-0.771c-0.215-0.215-0.472-0.323-0.77-0.323H29.303z M40.135,23.121V20.81h-4.149v-2.981h4.149V15.17
			h3.626v13.366h-3.626v-2.41h-4.149v-3.006H40.135z"/>
		<path fill="#666666" d="M62.89,26.772l3.951,11.776h-3.478l-2.262-6.708l-2.334,6.708h-3.752l7.055-19.925h-6.632v-3.329h10.309
			v3.329L62.89,26.772z M70.989,38.672h-3.204V27.12h-2.833V23.94h2.833v-8.77h3.204V38.672z M76.032,38.672h-3.278V15.17h3.278
			V38.672z"/>
	</g>
	<g display="inline">
		<path fill="#666666" d="M37.874,25.58l1.267-6.608H24.757v-3.677h18.011v3.677l-1.267,6.608h3.13v3.155H23.266V25.58H37.874z
			 M43.191,30.424v8.248H24.707v-8.248H43.191z M39.712,33.306H28.185v2.484h11.527V33.306z"/>
		<path fill="#666666" d="M56.108,34.473c0-0.578,0.107-1.117,0.322-1.614c0.216-0.497,0.51-0.931,0.883-1.305
			c0.372-0.372,0.808-0.666,1.305-0.881c0.495-0.216,1.034-0.34,1.613-0.374V28.86h-5.166v-3.131h21.365v3.131h-5.167v1.439
			c0.562,0.034,1.097,0.158,1.601,0.374c0.506,0.215,0.944,0.509,1.317,0.881c0.372,0.374,0.667,0.808,0.882,1.305
			s0.322,1.036,0.322,1.614c0,0.613-0.116,1.176-0.347,1.69c-0.232,0.513-0.548,0.956-0.944,1.329
			c-0.396,0.372-0.866,0.661-1.403,0.869c-0.539,0.207-1.114,0.311-1.727,0.311H60.529c-0.611,0-1.187-0.104-1.726-0.311
			c-0.539-0.208-1.005-0.497-1.404-0.869c-0.396-0.373-0.712-0.816-0.944-1.329C56.224,35.649,56.108,35.086,56.108,34.473z
			 M60.529,24.288c-0.596,0-1.15-0.104-1.663-0.311c-0.514-0.207-0.96-0.501-1.342-0.882c-0.381-0.381-0.679-0.853-0.894-1.416
			c-0.217-0.563-0.324-1.193-0.324-1.888c0-0.679,0.107-1.295,0.324-1.851c0.215-0.555,0.513-1.027,0.894-1.416
			c0.382-0.389,0.828-0.691,1.342-0.907c0.513-0.215,1.067-0.323,1.663-0.323h10.436c0.562,0,1.101,0.096,1.613,0.286
			c0.515,0.191,0.962,0.476,1.344,0.857c0.379,0.381,0.686,0.853,0.918,1.417c0.232,0.563,0.349,1.209,0.349,1.938
			c0,0.695-0.109,1.321-0.324,1.875c-0.215,0.555-0.513,1.027-0.895,1.417c-0.381,0.389-0.828,0.687-1.341,0.894
			s-1.067,0.311-1.664,0.311H60.529z M59.462,34.473c0,0.299,0.104,0.563,0.311,0.796c0.208,0.231,0.459,0.348,0.757,0.348h10.436
			c0.299,0,0.55-0.116,0.758-0.348c0.206-0.232,0.31-0.497,0.31-0.796c0-0.298-0.104-0.562-0.31-0.794
			c-0.208-0.232-0.459-0.349-0.758-0.349H60.529c-0.298,0-0.549,0.116-0.757,0.349C59.566,33.912,59.462,34.175,59.462,34.473z
			 M70.841,20.934c0.313,0,0.558-0.116,0.732-0.348c0.174-0.231,0.26-0.497,0.26-0.795c0-0.314-0.095-0.584-0.285-0.807
			c-0.189-0.224-0.427-0.335-0.707-0.335H60.63c-0.331,0-0.58,0.12-0.745,0.36c-0.166,0.241-0.249,0.501-0.249,0.783
			c0,0.282,0.083,0.542,0.249,0.783c0.165,0.24,0.414,0.36,0.745,0.36H70.841z M63.81,30.276h3.875V28.86H63.81V30.276z"/>
	</g>
	<g display="inline">
		<path fill="#666666" d="M44.631,29.008v3.105h-8.944v6.559h-3.478v-6.559h-8.943v-3.105H44.631z M34.47,18.673H24.185V15.32
			h19.528v2.857l-6.584,3.105l6.409,2.509v3.603l-10.285-4.273l-9.068,4.273v-3.677L34.47,18.673z"/>
		<path fill="#666666" d="M64.158,15.295l5.092,11.626h-4.099l-3.056-7.254l-3.057,7.254H54.94l5.094-11.626H64.158z M74.616,38.672
			h-3.726l0.969-5.54H56.705v-3.031h15.154V15.17h3.701v17.962L74.616,38.672z"/>
	</g>
	<g display="inline">
		<path fill="#666666" d="M32.185,18.624h-8.919v-3.329h12.819v3.329l-2.857,19.899h-3.826L32.185,18.624z M43.761,38.672h-3.825
			V15.17h3.825V38.672z"/>
		<path fill="#666666" d="M75.561,15.17v23.502H56.729v-9.688h3.502v2.16h11.852v-8.172h-4.398c-0.083,0.612-0.307,1.18-0.671,1.702
			c-0.363,0.522-0.819,0.968-1.365,1.342c-0.548,0.373-1.173,0.666-1.877,0.881c-0.703,0.215-1.437,0.323-2.197,0.323
			c-0.828,0-1.603-0.119-2.323-0.36c-0.722-0.239-1.351-0.575-1.888-1.006c-0.539-0.431-0.965-0.936-1.28-1.516
			c-0.313-0.579-0.472-1.208-0.472-1.888v-2.36c0-0.779,0.179-1.47,0.534-2.075c0.356-0.604,0.815-1.109,1.379-1.516
			c0.563-0.405,1.188-0.716,1.875-0.932c0.688-0.215,1.371-0.323,2.05-0.323h0.174c0.778,0,1.52,0.112,2.224,0.335
			c0.703,0.224,1.329,0.526,1.876,0.907c0.546,0.381,0.993,0.841,1.342,1.379s0.555,1.114,0.62,1.727h4.398V15.17H75.561z
			 M64.232,20.736c0-0.314-0.067-0.609-0.199-0.882c-0.133-0.273-0.315-0.513-0.547-0.72c-0.23-0.207-0.505-0.368-0.82-0.484
			c-0.313-0.116-0.645-0.174-0.993-0.174c-0.348,0-0.676,0.059-0.98,0.174c-0.307,0.116-0.577,0.277-0.808,0.484
			c-0.232,0.207-0.414,0.447-0.548,0.72c-0.132,0.273-0.197,0.568-0.197,0.882v1.217c0,0.315,0.065,0.609,0.197,0.882
			c0.134,0.273,0.315,0.514,0.548,0.721c0.23,0.208,0.501,0.369,0.808,0.484c0.305,0.116,0.633,0.174,0.98,0.174
			c0.349,0,0.68-0.058,0.993-0.174c0.315-0.116,0.59-0.277,0.82-0.484c0.231-0.207,0.414-0.447,0.547-0.721
			c0.132-0.273,0.199-0.567,0.199-0.882V20.736z M72.083,34.002H60.231v1.788h11.852V34.002z"/>
	</g>
</g>
<g id="Layer_1_copy">
	<path fill="#1B87C9" stroke="#1B87C9" stroke-width="2" stroke-miterlimit="10" d="M97.695,26.341c0,13.787-11.178,25-24.964,25
		H26.964C13.177,51.341,2,40.128,2,26.341l0,0c0-13.788,11.177-25,24.964-25h45.767C86.518,1.341,97.695,12.554,97.695,26.341
		L97.695,26.341z"/>
	<g display="none">
		<path display="inline" fill="#FFFFFF" d="M31.216,15.295c0.746,0,1.449,0.141,2.112,0.422c0.662,0.282,1.238,0.67,1.727,1.167
			c0.488,0.497,0.874,1.073,1.155,1.727c0.282,0.654,0.422,1.354,0.422,2.099v2.485c0,0.745-0.141,1.449-0.422,2.111
			c-0.281,0.663-0.667,1.239-1.155,1.727c-0.489,0.489-1.064,0.875-1.727,1.155c-0.663,0.282-1.366,0.423-2.112,0.423h-1.962
			c-0.746,0-1.45-0.141-2.112-0.423c-0.663-0.28-1.238-0.666-1.727-1.155c-0.488-0.488-0.873-1.064-1.155-1.727
			c-0.282-0.662-0.422-1.366-0.422-2.111V20.71c0-0.745,0.14-1.445,0.422-2.099c0.282-0.654,0.667-1.229,1.155-1.727
			c0.489-0.497,1.064-0.886,1.727-1.167c0.662-0.282,1.366-0.422,2.112-0.422H31.216z M28.408,35.318h11.875V15.17h3.478v23.502
			H24.93v-7.651h3.478V35.318z M29.253,18.723c-0.546,0-1.015,0.195-1.404,0.584c-0.39,0.389-0.583,0.857-0.583,1.403v2.485
			c0,0.546,0.194,1.015,0.583,1.403c0.389,0.389,0.857,0.584,1.404,0.584h1.962c0.547,0,1.015-0.195,1.404-0.584
			c0.389-0.389,0.584-0.857,0.584-1.403V20.71c0-0.546-0.195-1.014-0.584-1.403c-0.389-0.389-0.857-0.584-1.404-0.584H29.253z"/>
		<path display="inline" fill="#FFFFFF" d="M63.983,18.624h-8.918v-3.329h12.818v3.329l-2.857,19.899h-3.824L63.983,18.624z
			 M75.561,38.672h-3.826V15.17h3.826V38.672z"/>
	</g>
	<g display="none">
		<path display="inline" fill="#FFFFFF" d="M33.973,15.295v3.378l-1.068,9.863h-3.627l1.068-9.863h-7.08v-3.378H33.973z
			 M39.439,30.299c0.612,0,1.188,0.104,1.727,0.312c0.539,0.207,1.007,0.496,1.403,0.869c0.397,0.372,0.712,0.816,0.945,1.329
			c0.232,0.514,0.348,1.077,0.348,1.689s-0.116,1.172-0.348,1.677c-0.232,0.505-0.548,0.944-0.945,1.317
			c-0.396,0.372-0.865,0.661-1.403,0.869c-0.538,0.207-1.114,0.311-1.727,0.311H29.303c-0.613,0-1.189-0.104-1.727-0.311
			c-0.538-0.208-1.006-0.497-1.404-0.869c-0.397-0.373-0.712-0.813-0.944-1.317s-0.348-1.064-0.348-1.677s0.116-1.176,0.348-1.689
			c0.232-0.513,0.547-0.957,0.944-1.329c0.398-0.373,0.866-0.662,1.404-0.869s1.114-0.312,1.727-0.312H39.439z M29.303,33.405
			c-0.298,0-0.551,0.108-0.758,0.323c-0.208,0.216-0.311,0.473-0.311,0.771c0,0.281,0.103,0.53,0.311,0.745
			c0.207,0.215,0.459,0.323,0.758,0.323h10.136c0.298,0,0.555-0.108,0.77-0.323c0.215-0.215,0.323-0.464,0.323-0.745
			c0-0.298-0.108-0.555-0.323-0.771c-0.215-0.215-0.472-0.323-0.77-0.323H29.303z M40.135,23.121V20.81h-4.149v-2.981h4.149V15.17
			h3.626v13.366h-3.626v-2.41h-4.149v-3.006H40.135z"/>
		<path display="inline" fill="#FFFFFF" d="M62.89,26.772l3.951,11.776h-3.478l-2.262-6.708l-2.334,6.708h-3.752l7.055-19.925
			h-6.632v-3.329h10.309v3.329L62.89,26.772z M70.989,38.672h-3.204V27.12h-2.833V23.94h2.833v-8.77h3.204V38.672z M76.032,38.672
			h-3.278V15.17h3.278V38.672z"/>
	</g>
	<g display="none">
		<path display="inline" fill="#FFFFFF" d="M37.874,25.58l1.267-6.608H24.757v-3.677h18.011v3.677l-1.267,6.608h3.13v3.155H23.266
			V25.58H37.874z M43.191,30.424v8.248H24.707v-8.248H43.191z M39.712,33.306H28.185v2.484h11.527V33.306z"/>
		<path display="inline" fill="#FFFFFF" d="M56.108,34.473c0-0.578,0.107-1.117,0.322-1.614c0.216-0.497,0.51-0.931,0.883-1.305
			c0.372-0.372,0.808-0.666,1.305-0.881c0.495-0.216,1.034-0.34,1.613-0.374V28.86h-5.166v-3.131h21.365v3.131h-5.167v1.439
			c0.562,0.034,1.097,0.158,1.601,0.374c0.506,0.215,0.944,0.509,1.317,0.881c0.372,0.374,0.667,0.808,0.882,1.305
			s0.322,1.036,0.322,1.614c0,0.613-0.116,1.176-0.347,1.69c-0.232,0.513-0.548,0.956-0.944,1.329
			c-0.396,0.372-0.866,0.661-1.403,0.869c-0.539,0.207-1.114,0.311-1.727,0.311H60.529c-0.611,0-1.187-0.104-1.726-0.311
			c-0.539-0.208-1.005-0.497-1.404-0.869c-0.396-0.373-0.712-0.816-0.944-1.329C56.224,35.649,56.108,35.086,56.108,34.473z
			 M60.529,24.288c-0.596,0-1.15-0.104-1.663-0.311c-0.514-0.207-0.96-0.501-1.342-0.882c-0.381-0.381-0.679-0.853-0.894-1.416
			c-0.217-0.563-0.324-1.193-0.324-1.888c0-0.679,0.107-1.295,0.324-1.851c0.215-0.555,0.513-1.027,0.894-1.416
			c0.382-0.389,0.828-0.691,1.342-0.907c0.513-0.215,1.067-0.323,1.663-0.323h10.436c0.562,0,1.101,0.096,1.613,0.286
			c0.515,0.191,0.962,0.476,1.344,0.857c0.379,0.381,0.686,0.853,0.918,1.417c0.232,0.563,0.349,1.209,0.349,1.938
			c0,0.695-0.109,1.321-0.324,1.875c-0.215,0.555-0.513,1.027-0.895,1.417c-0.381,0.389-0.828,0.687-1.341,0.894
			s-1.067,0.311-1.664,0.311H60.529z M59.462,34.473c0,0.299,0.104,0.563,0.311,0.796c0.208,0.231,0.459,0.348,0.757,0.348h10.436
			c0.299,0,0.55-0.116,0.758-0.348c0.206-0.232,0.31-0.497,0.31-0.796c0-0.298-0.104-0.562-0.31-0.794
			c-0.208-0.232-0.459-0.349-0.758-0.349H60.529c-0.298,0-0.549,0.116-0.757,0.349C59.566,33.912,59.462,34.175,59.462,34.473z
			 M70.841,20.934c0.313,0,0.558-0.116,0.732-0.348c0.174-0.231,0.26-0.497,0.26-0.795c0-0.314-0.095-0.584-0.285-0.807
			c-0.189-0.224-0.427-0.335-0.707-0.335H60.63c-0.331,0-0.58,0.12-0.745,0.36c-0.166,0.241-0.249,0.501-0.249,0.783
			c0,0.282,0.083,0.542,0.249,0.783c0.165,0.24,0.414,0.36,0.745,0.36H70.841z M63.81,30.276h3.875V28.86H63.81V30.276z"/>
	</g>
	<g display="none">
		<path display="inline" fill="#FFFFFF" d="M44.631,29.008v3.105h-8.944v6.559h-3.478v-6.559h-8.943v-3.105H44.631z M34.47,18.673
			H24.185V15.32h19.528v2.857l-6.584,3.105l6.409,2.509v3.603l-10.285-4.273l-9.068,4.273v-3.677L34.47,18.673z"/>
		<path display="inline" fill="#FFFFFF" d="M64.158,15.295l5.092,11.626h-4.099l-3.056-7.254l-3.057,7.254H54.94l5.094-11.626
			H64.158z M74.616,38.672h-3.726l0.969-5.54H56.705v-3.031h15.154V15.17h3.701v17.962L74.616,38.672z"/>
	</g>
	<g>
		<path fill="#FFFFFF" d="M32.185,18.624h-8.919v-3.329h12.819v3.329l-2.857,19.899h-3.826L32.185,18.624z M43.761,38.672h-3.825
			V15.17h3.825V38.672z"/>
		<path fill="#FFFFFF" d="M75.561,15.17v23.502H56.729v-9.688h3.502v2.16h11.852v-8.172h-4.398c-0.083,0.612-0.307,1.18-0.671,1.702
			c-0.363,0.522-0.819,0.968-1.365,1.342c-0.548,0.373-1.173,0.666-1.877,0.881c-0.703,0.215-1.437,0.323-2.197,0.323
			c-0.828,0-1.603-0.119-2.323-0.36c-0.722-0.239-1.351-0.575-1.888-1.006c-0.539-0.431-0.965-0.936-1.28-1.516
			c-0.313-0.579-0.472-1.208-0.472-1.888v-2.36c0-0.779,0.179-1.47,0.534-2.075c0.356-0.604,0.815-1.109,1.379-1.516
			c0.563-0.405,1.188-0.716,1.875-0.932c0.688-0.215,1.371-0.323,2.05-0.323h0.174c0.778,0,1.52,0.112,2.224,0.335
			c0.703,0.224,1.329,0.526,1.876,0.907c0.546,0.381,0.993,0.841,1.342,1.379s0.555,1.114,0.62,1.727h4.398V15.17H75.561z
			 M64.232,20.736c0-0.314-0.067-0.609-0.199-0.882c-0.133-0.273-0.315-0.513-0.547-0.72c-0.23-0.207-0.505-0.368-0.82-0.484
			c-0.313-0.116-0.645-0.174-0.993-0.174c-0.348,0-0.676,0.059-0.98,0.174c-0.307,0.116-0.577,0.277-0.808,0.484
			c-0.232,0.207-0.414,0.447-0.548,0.72c-0.132,0.273-0.197,0.568-0.197,0.882v1.217c0,0.315,0.065,0.609,0.197,0.882
			c0.134,0.273,0.315,0.514,0.548,0.721c0.23,0.208,0.501,0.369,0.808,0.484c0.305,0.116,0.633,0.174,0.98,0.174
			c0.349,0,0.68-0.058,0.993-0.174c0.315-0.116,0.59-0.277,0.82-0.484c0.231-0.207,0.414-0.447,0.547-0.721
			c0.132-0.273,0.199-0.567,0.199-0.882V20.736z M72.083,34.002H60.231v1.788h11.852V34.002z"/>
	</g>
</g>
</svg>
