<?xml version="1.0" encoding="utf-8"?>
<!-- Generator: Adobe Illustrator 16.0.0, SVG Export Plug-In . SVG Version: 6.00 Build 0)  -->
<!DOCTYPE svg PUBLIC "-//W3C//DTD SVG 1.1//EN" "http://www.w3.org/Graphics/SVG/1.1/DTD/svg11.dtd">
<svg version="1.1" id="Layer_1" xmlns="http://www.w3.org/2000/svg" xmlns:xlink="http://www.w3.org/1999/xlink" x="0px" y="0px"
	 width="160px" height="160px" viewBox="0 0 160 160" enable-background="new 0 0 160 160" xml:space="preserve">
<path fill="none" stroke="#1B87C9" stroke-width="6" stroke-miterlimit="10" d="M861.631,47.469
	c0,13.137-10.643,23.782-23.777,23.782c-13.133,0-23.772-10.646-23.772-23.782c0-13.134,10.642-23.778,23.772-23.778
	C850.988,23.691,861.631,34.335,861.631,47.469z"/>
<path fill="none" stroke="#1B87C9" stroke-width="6" stroke-miterlimit="10" d="M884.577,47.413c0,0.361-0.316,0.784-0.512,1.073
	c-6.939,10.38-21.033,23.082-45.509,23.082c-24.867,0-38.467-14.494-45.354-23.439c-0.096-0.122-0.619-0.677-0.619-0.832
	c0-0.352,0.229-0.68,0.459-0.93c8.896-9.629,21.008-23.108,45.514-23.108c24.517,0,36.605,13.54,45.509,23.139
	C884.292,46.638,884.577,47.076,884.577,47.413z"/>
<g>
	<path fill="#1B87C9" d="M850.186,38.748c0.092,0.429,0.092,0.88,0,1.354c-0.045,0.226-0.084,0.446-0.115,0.66
		c-0.034,0.215-0.073,0.435-0.118,0.66l-0.033,0.136c-0.112,0.451-0.222,0.908-0.321,1.371c-0.103,0.462-0.209,0.919-0.32,1.37h2.27
		c0.406,0,0.795,0.046,1.166,0.136c0.373,0.091,0.717,0.294,1.033,0.609c0.158,0.136,0.273,0.321,0.354,0.559
		c0.077,0.237,0.118,0.479,0.118,0.728c0,0.271-0.041,0.559-0.118,0.863c-0.08,0.305-0.187,0.524-0.32,0.66
		c-0.182,0.203-0.406,0.361-0.678,0.474c-0.271,0.113-0.543,0.187-0.813,0.221c-0.271,0.033-0.502,0.05-0.692,0.05
		c-0.191,0-0.302,0-0.32,0h-3.08c-0.068,0.316-0.139,0.621-0.203,0.914c-0.068,0.294-0.138,0.576-0.203,0.847
		c-0.271,1.129-0.553,2.369-0.848,3.724c-0.293,1.354-0.601,2.595-0.912,3.724c-0.113,0.384-0.232,0.767-0.355,1.15
		c-0.125,0.384-0.275,0.768-0.457,1.151c-0.157,0.338-0.346,0.637-0.559,0.896c-0.215,0.26-0.457,0.451-0.729,0.576
		c-0.271,0.123-0.56,0.169-0.861,0.135c-0.308-0.033-0.642-0.175-0.998-0.423c-0.543-0.384-0.943-0.914-1.201-1.591
		c-0.26-0.677-0.525-1.298-0.797-1.862c-0.09-0.157-0.227-0.508-0.406-1.049c-0.18-0.542-0.371-1.134-0.574-1.777
		s-0.4-1.264-0.594-1.861c-0.191-0.597-0.354-1.044-0.49-1.338c-0.203,0.497-0.405,1.062-0.607,1.693
		c-0.203,0.631-0.396,1.252-0.576,1.861c-0.181,0.609-0.344,1.156-0.489,1.642c-0.146,0.486-0.254,0.841-0.318,1.066
		c-0.184,0.451-0.381,0.948-0.596,1.489c-0.215,0.542-0.474,1.004-0.775,1.388c-0.306,0.384-0.673,0.638-1.104,0.762
		c-0.429,0.124-0.937-0.006-1.521-0.389c-0.45-0.271-0.77-0.655-0.946-1.151c-0.113-0.316-0.227-0.621-0.338-0.914
		c-0.113-0.293-0.203-0.598-0.271-0.914l-0.676-2.538l-1.39-5.45c-0.136-0.542-0.271-1.117-0.405-1.727h-1.658
		c-0.521,0.046-1.049,0.051-1.592,0.017c-0.541-0.033-1.004-0.242-1.388-0.626c-0.521-0.451-0.778-0.959-0.778-1.523
		c0-0.383,0.106-0.761,0.321-1.134c0.214-0.372,0.503-0.637,0.861-0.795c0.451-0.181,0.926-0.266,1.424-0.254
		c0.494,0.012,1.004,0.006,1.521-0.018h0.17c-0.113-0.519-0.222-1.1-0.322-1.743c-0.102-0.643-0.239-1.461-0.422-2.454
		c-0.045-0.248-0.072-0.479-0.086-0.693c-0.01-0.215,0.006-0.435,0.051-0.66c0.047-0.339,0.203-0.632,0.478-0.88
		c0.112-0.113,0.248-0.203,0.406-0.271c0.155-0.067,0.323-0.124,0.508-0.169c0.271-0.09,0.553-0.136,0.846-0.136
		c0.271,0,0.553,0.091,0.849,0.271c0.202,0.112,0.358,0.259,0.474,0.439l0.405,0.711c0.045,0.158,0.091,0.3,0.138,0.423
		c0.045,0.125,0.091,0.254,0.136,0.39c0.045,0.158,0.077,0.3,0.104,0.423c0.021,0.125,0.046,0.243,0.066,0.355
		c0.11,0.7,0.241,1.377,0.39,2.031c0.146,0.654,0.313,1.309,0.489,1.963h4.875c0.136-0.428,0.271-0.823,0.406-1.185
		c0.135-0.36,0.286-0.648,0.456-0.863c0.169-0.214,0.378-0.35,0.625-0.406c0.248-0.056,0.563-0.017,0.949,0.119
		c0.338,0.135,0.618,0.435,0.847,0.896c0.225,0.463,0.438,0.942,0.644,1.438h4.604c0.158-0.586,0.312-1.162,0.457-1.726
		c0.146-0.564,0.289-1.129,0.424-1.693l0.17-0.575c0.045-0.112,0.072-0.23,0.084-0.355c0.013-0.123,0.039-0.265,0.084-0.423
		c0.045-0.136,0.09-0.265,0.138-0.39c0.046-0.123,0.091-0.265,0.136-0.423c0.045-0.112,0.097-0.231,0.15-0.355
		c0.059-0.124,0.13-0.242,0.223-0.355c0.064-0.112,0.146-0.203,0.234-0.271s0.182-0.124,0.271-0.169
		c0.314-0.181,0.589-0.271,0.813-0.271c0.293,0,0.576,0.046,0.851,0.136c0.356,0.067,0.688,0.215,0.979,0.44
		C850.006,38.093,850.141,38.386,850.186,38.748z M833.6,53.506c0.158-0.564,0.355-1.287,0.594-2.167
		c0.237-0.88,0.479-1.782,0.729-2.708h-2.506c0.09,0.429,0.188,0.88,0.289,1.354c0.103,0.474,0.203,0.931,0.305,1.37
		c0.104,0.44,0.203,0.847,0.308,1.219C833.415,52.948,833.51,53.258,833.6,53.506z M842.739,52.863
		c0.065-0.226,0.141-0.508,0.221-0.847c0.078-0.338,0.158-0.699,0.235-1.083c0.08-0.383,0.164-0.778,0.255-1.185
		c0.09-0.407,0.182-0.778,0.271-1.117h-2.268c0.248,0.88,0.479,1.716,0.693,2.505C842.361,51.926,842.559,52.502,842.739,52.863z"/>
</g>
<g>
	<path fill="#1B87C9" d="M687.68,49.817c-0.229,0.332-0.549,0.575-0.957,0.729c-0.407,0.153-0.823,0.204-1.246,0.153
		c-0.42-0.052-0.805-0.198-1.146-0.44c-0.348-0.243-0.569-0.582-0.671-1.016c-0.026-0.052-0.046-0.191-0.061-0.422
		c-0.014-0.229-0.022-0.466-0.036-0.708c-0.015-0.243-0.033-0.569-0.06-0.978c-0.588-0.076-1.271-0.186-2.05-0.325
		c-0.779-0.141-1.462-0.313-2.05-0.518c-0.383-0.153-0.785-0.313-1.207-0.479c-0.422-0.167-0.824-0.357-1.207-0.575
		c-0.383-0.217-0.734-0.473-1.053-0.767c-0.32-0.293-0.56-0.645-0.709-1.054c-0.13-0.306-0.212-0.632-0.25-0.977
		c-0.037-0.345-0.016-0.683,0.074-1.016c0.092-0.331,0.243-0.625,0.462-0.881c0.218-0.255,0.519-0.422,0.898-0.498
		c0.255-0.076,0.511-0.07,0.768,0.02c0.257,0.09,0.497,0.21,0.729,0.363c0.229,0.153,0.46,0.326,0.688,0.518
		c0.229,0.191,0.459,0.339,0.688,0.44c0.588,0.23,1.271,0.44,2.051,0.632c0.778,0.192,1.5,0.339,2.164,0.441v-6.667
		c-0.46-0.153-0.979-0.293-1.552-0.421c-0.575-0.128-1.041-0.243-1.398-0.346c-0.332-0.127-0.632-0.235-0.898-0.325
		c-0.271-0.089-0.504-0.197-0.707-0.325c-1.125-0.435-1.941-1.111-2.453-2.031c-0.256-0.46-0.447-0.926-0.574-1.398
		c-0.129-0.472-0.19-1.002-0.19-1.59c0-0.511,0.051-0.989,0.151-1.437c0.104-0.447,0.23-0.862,0.385-1.245
		c0.308-0.767,0.806-1.431,1.493-1.992c0.309-0.307,0.657-0.562,1.055-0.767c0.396-0.204,0.823-0.408,1.282-0.613
		c0.435-0.204,0.983-0.357,1.648-0.46c0.662-0.102,1.25-0.178,1.762-0.229c0-0.357,0-0.734,0-1.13s0.103-0.734,0.308-1.016
		c0.309-0.434,0.588-0.74,0.844-0.92c0.256-0.178,0.639-0.242,1.147-0.191c0.459,0.052,0.868,0.167,1.229,0.345
		c0.354,0.18,0.625,0.498,0.805,0.958c0,0.052,0.006,0.186,0.021,0.402c0.014,0.218,0.03,0.454,0.059,0.709
		c0.025,0.281,0.038,0.601,0.038,0.958c0.817,0.179,1.667,0.402,2.548,0.67c0.881,0.269,1.68,0.607,2.396,1.016
		c0.563,0.358,1.018,0.76,1.359,1.207c0.345,0.447,0.504,1.003,0.479,1.666c-0.025,0.358-0.166,0.703-0.422,1.035
		c-0.257,0.332-0.563,0.521-0.921,0.574c-0.407,0.052-0.791-0.019-1.147-0.211c-0.358-0.191-0.702-0.376-1.034-0.555
		c-0.437-0.204-0.938-0.415-1.515-0.633c-0.573-0.217-1.155-0.351-1.742-0.402v5.287c0.535,0.153,1.099,0.352,1.686,0.595
		c0.589,0.242,1.101,0.453,1.532,0.632c1.432,0.588,2.483,1.514,3.162,2.777c0.676,1.265,0.987,2.625,0.938,4.081
		c-0.025,0.971-0.22,1.864-0.574,2.682c-0.205,0.357-0.438,0.689-0.689,0.996c-0.256,0.307-0.537,0.588-0.844,0.843
		c-0.307,0.281-0.639,0.518-0.996,0.709c-0.356,0.191-0.753,0.389-1.188,0.594c-0.437,0.128-0.921,0.249-1.455,0.364
		c-0.537,0.114-1.063,0.223-1.571,0.325c-0.026,0-0.045,0.083-0.058,0.249c-0.017,0.166-0.017,0.351,0,0.556
		c0.013,0.204,0.022,0.402,0.038,0.594c0.013,0.191,0.02,0.3,0.02,0.326C687.949,49.14,687.859,49.511,687.68,49.817z
		 M680.784,29.549c0.023,0.205,0.114,0.428,0.269,0.671c0.154,0.243,0.331,0.44,0.536,0.594c0.229,0.153,0.511,0.274,0.845,0.364
		c0.33,0.09,0.688,0.159,1.071,0.21v-4.329c-0.843,0.052-1.539,0.263-2.088,0.632C680.867,28.062,680.657,28.681,680.784,29.549z
		 M691.014,39.818c-0.052-0.332-0.173-0.646-0.362-0.939c-0.19-0.293-0.437-0.555-0.729-0.785c-0.295-0.229-0.613-0.428-0.959-0.594
		c-0.344-0.166-0.684-0.287-1.015-0.364c0,0.896,0.019,1.795,0.058,2.701c0.038,0.907,0.044,1.808,0.021,2.701
		c0.385,0.052,0.768,0.02,1.147-0.096c0.385-0.115,0.715-0.293,0.996-0.536c0.281-0.242,0.504-0.543,0.671-0.9
		C691.007,40.648,691.064,40.252,691.014,39.818z"/>
</g>
<g>
	<rect x="725.177" y="22.947" fill="#1B87C9" width="6.356" height="27.219"/>
	<rect x="714.23" y="30.104" fill="#1B87C9" width="6.354" height="20.062"/>
	<rect x="703.547" y="37.736" fill="#1B87C9" width="6.355" height="12.43"/>
</g>
<rect x="693.436" y="61.276" fill="#1B87C9" width="18.056" height="12.467"/>
<path fill="#1B87C9" d="M728.791,80.354c0,4.214-3.422,7.63-7.631,7.63h-37.396c-4.222,0-7.632-3.416-7.632-7.63l0,0
	c0-4.216,3.41-7.631,7.632-7.631h37.396C725.369,72.723,728.791,76.138,728.791,80.354L728.791,80.354z"/>
<path fill="none" stroke="#1B87C9" stroke-width="6" stroke-miterlimit="10" d="M746.843,54.659c0,4.777-3.875,8.653-8.645,8.653
	h-71.473c-4.78,0-8.655-3.876-8.655-8.653V15.495c0-4.778,3.875-8.653,8.655-8.653h71.473c4.77,0,8.645,3.875,8.645,8.653V54.659z"
	/>
<g>
	<path fill="#1B87C9" d="M968.696,37.371c0.291-0.217,0.25-0.766-0.063-1.186l0,0c-0.309-0.423-0.82-0.623-1.111-0.406
		L941.95,54.723c-0.291,0.215-0.256,0.767,0.055,1.187l0,0c0.313,0.423,0.822,0.623,1.115,0.405L968.696,37.371z"/>
	<path fill="#1B87C9" d="M1002.899,21.907c0.227-0.233,0.081-0.749-0.294-1.115l0,0c-0.375-0.364-0.896-0.501-1.12-0.269
		L979.588,42.83c-0.227,0.235-0.078,0.748,0.297,1.115l0,0c0.369,0.367,0.896,0.501,1.121,0.269L1002.899,21.907z"/>
	<path fill="#1B87C9" d="M980.155,44.061c0.32,0.164,0.799-0.119,1.03-0.587l0,0c0.236-0.465,0.185-1.013-0.145-1.177l-12.85-6.653
		c-0.32-0.164-0.801,0.116-1.037,0.584l0,0c-0.232,0.468-0.18,1.016,0.145,1.18L980.155,44.061z"/>
	<path fill="#1B87C9" d="M1005.575,22.977c-0.082,0.436-0.178,1.097-0.756,0.746l-5.158-5.151c-0.5-0.543,0.287-0.641,0.732-0.74
		l6.021-1.448c0.727-0.083,0.775,0.331,0.775,0.742L1005.575,22.977z"/>
	<path fill="#1B87C9" d="M937.678,81.016c0,1.615-1.346,2.928-3.002,2.928l0,0c-1.654,0-2.998-1.313-2.998-2.928V12.591
		c0-1.616,1.344-2.928,2.998-2.928l0,0c1.656,0,3.002,1.312,3.002,2.928V81.016z"/>
	<rect x="947.514" y="57.934" fill="#1B87C9" width="6.246" height="24.229"/>
	<rect x="959.723" y="46.049" fill="#1B87C9" width="6.248" height="36.114"/>
	<rect x="971.801" y="46.049" fill="#1B87C9" width="6.248" height="36.114"/>
	<rect x="983.76" y="46.049" fill="#1B87C9" width="6.248" height="36.114"/>
	<rect x="996.375" y="32.367" fill="#1B87C9" width="6.248" height="49.796"/>
	<path fill="#1B87C9" d="M934.928,85.163c-1.754,0-3.178-1.345-3.178-3l0,0c0-1.656,1.424-3,3.178-3h74.158
		c1.76,0,3.178,1.344,3.178,3l0,0c0,1.655-1.418,3-3.178,3H934.928z"/>
</g>
<rect x="1076.571" y="14.826" fill="#1B87C9" width="7.104" height="7.109"/>
<rect x="1076.577" y="24.642" fill="#1B87C9" width="7.104" height="7.106"/>
<rect x="1076.577" y="34.729" fill="#1B87C9" width="7.104" height="7.109"/>
<rect x="1087.676" y="14.826" fill="#1B87C9" width="7.107" height="7.109"/>
<rect x="1087.682" y="24.642" fill="#1B87C9" width="7.107" height="7.106"/>
<rect x="1087.682" y="34.729" fill="#1B87C9" width="7.107" height="7.109"/>
<rect x="1098.766" y="14.826" fill="#1B87C9" width="7.107" height="7.109"/>
<rect x="1098.771" y="24.642" fill="#1B87C9" width="7.105" height="7.106"/>
<rect x="1098.771" y="34.729" fill="#1B87C9" width="7.105" height="7.109"/>
<rect x="1076.571" y="44.143" fill="#1B87C9" width="7.104" height="7.11"/>
<rect x="1076.577" y="53.959" fill="#1B87C9" width="7.104" height="7.107"/>
<rect x="1076.577" y="64.047" fill="#1B87C9" width="7.104" height="7.109"/>
<rect x="1087.676" y="44.143" fill="#1B87C9" width="7.107" height="7.11"/>
<rect x="1087.682" y="53.959" fill="#1B87C9" width="7.107" height="7.107"/>
<rect x="1087.682" y="64.047" fill="#1B87C9" width="7.107" height="7.109"/>
<rect x="1076.571" y="64.047" fill="#1B87C9" width="29.309" height="17.027"/>
<rect x="1098.766" y="44.143" fill="#1B87C9" width="7.107" height="7.11"/>
<rect x="1098.771" y="53.959" fill="#1B87C9" width="7.105" height="7.107"/>
<rect x="1098.771" y="64.047" fill="#1B87C9" width="7.105" height="7.109"/>
<rect x="1128.012" y="27.375" fill="#1B87C9" width="7.107" height="7.109"/>
<rect x="1128.021" y="37.192" fill="#1B87C9" width="7.104" height="7.106"/>
<rect x="1128.021" y="47.279" fill="#1B87C9" width="7.104" height="7.109"/>
<rect x="1138.12" y="27.375" fill="#1B87C9" width="7.104" height="7.109"/>
<rect x="1138.125" y="37.192" fill="#1B87C9" width="7.107" height="7.106"/>
<rect x="1138.125" y="47.279" fill="#1B87C9" width="7.107" height="7.109"/>
<rect x="1148.209" y="27.375" fill="#1B87C9" width="7.107" height="7.109"/>
<rect x="1148.215" y="37.192" fill="#1B87C9" width="7.107" height="7.106"/>
<rect x="1148.215" y="47.279" fill="#1B87C9" width="7.107" height="7.109"/>
<rect x="1128.012" y="56.693" fill="#1B87C9" width="7.107" height="7.11"/>
<polygon fill="#1B87C9" points="1128.021,66.509 1128.021,73.616 1128.021,80.723 1155.323,80.723 1155.323,73.616 1155.323,66.509 
	"/>
<rect x="1138.12" y="56.693" fill="#1B87C9" width="7.104" height="7.11"/>
<rect x="1148.209" y="56.693" fill="#1B87C9" width="7.107" height="7.11"/>
<path fill="none" stroke="#1B87C9" stroke-width="6" stroke-miterlimit="10" d="M1113.598,77.521c0,4.778-3.873,8.653-8.646,8.653
	h-26.962c-4.775,0-8.65-3.875-8.65-8.653V17.306c0-4.778,3.875-8.653,8.65-8.653h26.961c4.772,0,8.646,3.875,8.646,8.653
	L1113.598,77.521L1113.598,77.521z"/>
<path fill="none" stroke="#1B87C9" stroke-width="6" stroke-miterlimit="10" d="M1161.473,77.521c0,4.778-3.875,8.653-8.647,8.653
	h-22.381c-4.775,0-8.652-3.875-8.652-8.653V29.68c0-4.778,3.877-8.653,8.652-8.653h22.381c4.772,0,8.647,3.875,8.647,8.653V77.521z"
	/>
<g>
	<path fill="#1B87C9" d="M678.507,104.787v6.8l-2.148,19.851h-7.302l2.15-19.851h-14.25v-6.8H678.507z M689.506,134.986
		c1.234,0,2.394,0.207,3.478,0.625c1.082,0.416,2.022,1,2.823,1.75c0.802,0.75,1.437,1.642,1.9,2.675
		c0.466,1.032,0.699,2.167,0.699,3.399c0,1.231-0.232,2.356-0.699,3.375c-0.467,1.017-1.1,1.898-1.9,2.648
		c-0.8,0.75-1.741,1.333-2.823,1.75c-1.084,0.417-2.24,0.625-3.478,0.625h-20.397c-1.232,0-2.394-0.208-3.477-0.625
		s-2.023-1-2.825-1.75c-0.8-0.75-1.434-1.634-1.896-2.648c-0.47-1.019-0.7-2.144-0.7-3.375c0-1.232,0.23-2.367,0.7-3.399
		c0.466-1.033,1.1-1.925,1.896-2.675c0.802-0.75,1.742-1.334,2.825-1.75c1.083-0.418,2.241-0.625,3.477-0.625H689.506z
		 M669.107,141.236c-0.603,0-1.108,0.217-1.524,0.647c-0.417,0.437-0.625,0.95-0.625,1.552c0,0.564,0.208,1.064,0.625,1.5
		c0.416,0.434,0.925,0.648,1.524,0.648h20.396c0.604,0,1.117-0.217,1.552-0.648c0.436-0.436,0.649-0.936,0.649-1.5
		c0-0.602-0.218-1.117-0.649-1.552c-0.434-0.433-0.948-0.647-1.552-0.647H669.107z M690.907,120.537v-4.65h-8.352v-6h8.352v-5.35
		h7.301v26.9h-7.301v-4.853h-8.352v-6.05L690.907,120.537L690.907,120.537z"/>
	<path fill="#1B87C9" d="M720.708,127.886l7.949,23.7h-7l-4.55-13.5l-4.7,13.5h-7.55l14.198-40.1h-13.351v-6.7h20.75v6.7
		L720.708,127.886z M737.006,151.836h-6.449v-23.25h-5.698v-6.4h5.698v-17.647h6.449V151.836z M747.157,151.836h-6.602v-47.3h6.602
		V151.836z"/>
</g>
<g>
	<path fill="#1B87C9" d="M822.482,125.486l2.55-13.301h-28.949v-7.399h36.25v7.399l-2.551,13.301h6.301v6.35h-43v-6.35H822.482z
		 M833.182,135.236v16.6h-37.197v-16.6H833.182z M826.182,141.037h-23.197v5h23.197V141.037z"/>
	<path fill="#1B87C9" d="M843.182,143.386c0-1.166,0.219-2.25,0.649-3.25s1.024-1.875,1.774-2.625s1.625-1.341,2.625-1.774
		c1-0.432,2.081-0.684,3.25-0.75v-2.898h-10.399v-6.3h43v6.3h-10.399v2.898c1.135,0.066,2.207,0.316,3.228,0.75
		c1.017,0.436,1.897,1.024,2.647,1.774s1.344,1.625,1.774,2.625s0.649,2.084,0.649,3.25c0,1.233-0.233,2.367-0.699,3.4
		c-0.469,1.032-1.104,1.925-1.9,2.675s-1.742,1.333-2.824,1.75c-1.084,0.417-2.241,0.625-3.476,0.625h-21
		c-1.233,0-2.396-0.208-3.476-0.625c-1.086-0.417-2.024-1-2.824-1.75c-0.801-0.75-1.436-1.643-1.9-2.675
		C843.415,145.753,843.182,144.619,843.182,143.386z M852.082,122.886c-1.2,0-2.316-0.208-3.35-0.625
		c-1.034-0.416-1.937-1.008-2.7-1.774c-0.771-0.767-1.367-1.717-1.8-2.851c-0.437-1.133-0.65-2.399-0.65-3.8
		c0-1.366,0.217-2.607,0.65-3.725c0.433-1.116,1.029-2.066,1.8-2.853c0.767-0.78,1.665-1.391,2.7-1.823
		c1.029-0.435,2.146-0.649,3.35-0.649h21c1.133,0,2.217,0.192,3.25,0.575c1.033,0.384,1.934,0.957,2.7,1.725
		c0.766,0.768,1.383,1.717,1.85,2.85c0.468,1.133,0.7,2.437,0.7,3.9c0,1.4-0.217,2.659-0.65,3.775
		c-0.434,1.117-1.031,2.064-1.8,2.85c-0.767,0.784-1.667,1.384-2.7,1.8c-1.031,0.417-2.146,0.625-3.35,0.625H852.082z
		 M849.932,143.386c0,0.601,0.207,1.134,0.625,1.601c0.416,0.468,0.928,0.699,1.524,0.699h21c0.601,0,1.106-0.231,1.524-0.699
		c0.416-0.467,0.625-1,0.625-1.601c0-0.6-0.209-1.133-0.625-1.6c-0.419-0.468-0.928-0.7-1.524-0.7h-21
		c-0.601,0-1.108,0.232-1.524,0.7C850.139,142.253,849.932,142.787,849.932,143.386z M872.832,116.136
		c0.633,0,1.125-0.229,1.475-0.7c0.354-0.466,0.525-1,0.525-1.6c0-0.633-0.191-1.175-0.575-1.625s-0.856-0.675-1.425-0.675h-20.55
		c-0.667,0-1.167,0.241-1.5,0.725c-0.334,0.484-0.5,1.009-0.5,1.575s0.166,1.092,0.5,1.575c0.333,0.483,0.833,0.725,1.5,0.725
		H872.832z M858.682,134.938h7.803v-2.851h-7.803V134.938z"/>
</g>
<g>
	<path fill="#1B87C9" d="M944.421,111.486h-17.95v-6.7h25.802v6.7l-5.75,40.05h-7.699L944.421,111.486z M967.721,151.836h-7.698
		v-47.3h7.698V151.836z"/>
	<path fill="#1B87C9" d="M1015.721,104.537v47.3h-37.897v-19.5h7.051v4.351h23.85v-16.451h-8.85
		c-0.168,1.234-0.617,2.375-1.352,3.428c-0.732,1.05-1.648,1.947-2.75,2.697c-1.103,0.75-2.357,1.345-3.773,1.775
		c-1.418,0.437-2.893,0.65-4.426,0.65c-1.668,0-3.228-0.242-4.679-0.725c-1.446-0.483-2.717-1.158-3.799-2.025
		c-1.084-0.867-1.94-1.883-2.576-3.051c-0.633-1.166-0.946-2.434-0.946-3.799v-4.75c0-1.566,0.354-2.959,1.071-4.178
		c0.72-1.216,1.646-2.23,2.775-3.05c1.133-0.813,2.396-1.438,3.775-1.875c1.383-0.435,2.758-0.647,4.125-0.647h0.35
		c1.566,0,3.062,0.225,4.475,0.674c1.421,0.451,2.679,1.06,3.775,1.826c1.1,0.767,2,1.689,2.701,2.772
		c0.699,1.083,1.115,2.242,1.25,3.478h8.85v-8.9H1015.721z M992.92,115.736c0-0.633-0.133-1.228-0.4-1.775
		c-0.266-0.55-0.633-1.033-1.1-1.45c-0.467-0.416-1.018-0.741-1.65-0.975c-0.632-0.234-1.299-0.351-2-0.351
		c-0.696,0-1.354,0.115-1.975,0.351c-0.617,0.233-1.158,0.559-1.625,0.975c-0.467,0.417-0.834,0.9-1.1,1.45
		c-0.271,0.55-0.4,1.143-0.4,1.775v2.449c0,0.633,0.133,1.226,0.4,1.773c0.266,0.55,0.633,1.034,1.1,1.45
		c0.467,0.417,1.008,0.739,1.625,0.975s1.275,0.353,1.975,0.353c0.701,0,1.367-0.116,2-0.353c0.636-0.229,1.187-0.558,1.65-0.975
		c0.467-0.417,0.834-0.9,1.1-1.45c0.271-0.55,0.4-1.145,0.4-1.773V115.736z M1008.721,142.438h-23.85v3.602h23.85V142.438z"/>
</g>
<g>
	<path fill="#1B87C9" d="M1112.906,132.386v6.25h-18.001v13.2h-7v-13.2h-18v-6.25H1112.906z M1092.456,111.586h-20.7v-6.75h39.301
		v5.75l-13.251,6.25l12.899,5.05v7.25l-20.699-8.6l-18.25,8.6v-7.399L1092.456,111.586z"/>
	<path fill="#1B87C9" d="M1136.205,104.787l10.25,23.4h-8.25l-6.149-14.603l-6.147,14.603h-8.25l10.25-23.4H1136.205z
		 M1157.254,151.836h-7.5l1.95-11.15h-30.5v-6.1h30.5v-30.05h7.45v36.149L1157.254,151.836z"/>
</g>
<g>
	<path fill="#1B87C9" d="M512.768,104.454c1.5,0,2.916,0.282,4.25,0.851c1.334,0.566,2.491,1.352,3.476,2.352
		c0.983,1,1.758,2.156,2.325,3.475c0.565,1.314,0.851,2.727,0.851,4.227v5c0,1.5-0.282,2.918-0.851,4.25
		c-0.567,1.334-1.342,2.492-2.325,3.476c-0.981,0.983-2.142,1.758-3.476,2.325c-1.334,0.566-2.75,0.85-4.25,0.85h-3.951
		c-1.5,0-2.916-0.283-4.25-0.85c-1.332-0.567-2.49-1.342-3.475-2.325s-1.759-2.142-2.324-3.476c-0.566-1.332-0.851-2.75-0.851-4.25
		v-5c0-1.5,0.283-2.908,0.851-4.227c0.565-1.314,1.34-2.475,2.324-3.475c0.982-1,2.141-1.783,3.475-2.352
		c1.334-0.564,2.75-0.851,4.25-0.851H512.768z M507.117,144.754h23.898v-40.55h7v47.3h-37.898v-15.4h7V144.754z M508.816,111.354
		c-1.102,0-2.043,0.395-2.825,1.178c-0.784,0.781-1.175,1.725-1.175,2.822v5c0,1.103,0.392,2.043,1.175,2.826
		c0.782,0.783,1.725,1.174,2.825,1.174h3.949c1.101,0,2.043-0.392,2.824-1.174c0.782-0.783,1.176-1.726,1.176-2.826v-5
		c0-1.1-0.395-2.041-1.176-2.822c-0.783-0.783-1.725-1.178-2.824-1.178H508.816z"/>
	<path fill="#1B87C9" d="M562.716,111.154h-17.95v-6.7h25.801v6.7l-5.75,40.05h-7.698L562.716,111.154z M586.018,151.504h-7.701
		v-47.3h7.701V151.504z"/>
</g>
<path fill="#1B87C9" d="M585.082,41.406c-0.207-0.635-0.756-1.096-1.416-1.192l-27.729-4.029l-12.399-25.127
	c-0.296-0.598-0.904-0.976-1.571-0.976s-1.275,0.379-1.57,0.977l-12.399,25.126l-27.729,4.029c-0.66,0.096-1.209,0.558-1.414,1.192
	c-0.205,0.635-0.035,1.331,0.443,1.796l20.063,19.558l-4.735,27.618c-0.113,0.657,0.158,1.322,0.696,1.713
	c0.306,0.222,0.666,0.334,1.029,0.334c0.279,0,0.561-0.065,0.815-0.2l24.802-13.04l24.799,13.04c0.592,0.311,1.309,0.26,1.846-0.134
	c0.539-0.393,0.813-1.058,0.697-1.714l-4.734-27.618l20.063-19.558C585.115,42.737,585.287,42.041,585.082,41.406z"/>
<g>
	<path fill="#1B87C9" d="M352.279,121.684c0,1.366-0.266,2.699-0.799,4s-1.268,2.434-2.201,3.399h0.051
		c1.232,0.899,2.125,2.009,2.675,3.325s0.825,2.675,0.825,4.074v2.649c0,1.769-0.25,3.351-0.75,4.75c-0.5,1.4-1.2,2.583-2.1,3.55
		c-0.9,0.967-1.967,1.7-3.201,2.2c-1.233,0.5-2.6,0.75-4.1,0.75h-19.35v-42.55h18.8c1.5,0,2.875,0.25,4.125,0.75
		s2.325,1.209,3.226,2.125c0.899,0.917,1.592,2.018,2.074,3.3c0.483,1.284,0.725,2.692,0.725,4.226V121.684z M330.68,125.533h10.1
		c0.566,0,1.101-0.125,1.601-0.375s0.94-0.583,1.325-1c0.383-0.417,0.684-0.908,0.9-1.477c0.217-0.565,0.324-1.166,0.324-1.8v-0.649
		c0-0.633-0.107-1.226-0.324-1.774s-0.518-1.041-0.9-1.476c-0.383-0.434-0.825-0.774-1.325-1.024s-1.034-0.375-1.601-0.375h-10.1
		V125.533z M345.479,137.383c0-0.633-0.107-1.232-0.324-1.8c-0.217-0.565-0.518-1.058-0.9-1.476c-0.384-0.416-0.834-0.75-1.35-1
		c-0.518-0.25-1.059-0.375-1.625-0.375h-10.6v9.801h10.6c0.566,0,1.107-0.125,1.625-0.375c0.516-0.25,0.966-0.583,1.35-1
		c0.383-0.417,0.684-0.908,0.9-1.477c0.216-0.565,0.324-1.183,0.324-1.85V137.383z"/>
	<path fill="#1B87C9" d="M365.18,143.184h21.199v7.199h-29.25v-42.55h29.25v7.2H365.18v10.5h21.199v7.1H365.18V143.184z"/>
	<path fill="#1B87C9" d="M411.629,123.982c1.768,0,3.408,0.334,4.926,1c1.516,0.668,2.824,1.601,3.926,2.801
		c1.1,1.199,1.957,2.625,2.574,4.273c0.616,1.65,0.926,3.442,0.926,5.375c0,1.834-0.285,3.543-0.852,5.125
		c-0.566,1.584-1.367,2.95-2.398,4.102c-1.035,1.148-2.269,2.058-3.701,2.725c-1.434,0.667-3.018,1-4.75,1H392.88v-7.898h17.149
		c0.834,0,1.634-0.102,2.4-0.301c0.766-0.199,1.426-0.509,1.975-0.926c0.551-0.416,0.992-0.941,1.326-1.574
		c0.332-0.634,0.5-1.384,0.5-2.25c0-1.634-0.535-2.899-1.602-3.801c-1.066-0.898-2.398-1.35-4-1.35h-5.05
		c-2.134,0-4.067-0.233-5.8-0.7c-1.733-0.467-3.209-1.2-4.426-2.2s-2.158-2.291-2.824-3.875c-0.668-1.583-1-3.475-1-5.675
		c0-1.565,0.267-3.075,0.8-4.524c0.532-1.449,1.282-2.726,2.25-3.824c0.967-1.102,2.133-1.983,3.5-2.65c1.366-0.666,2.883-1,4.55-1
		h17.602v8.3h-14.352c-0.8,0-1.559,0.05-2.273,0.15c-0.719,0.1-1.344,0.292-1.875,0.575c-0.535,0.283-0.951,0.69-1.25,1.225
		c-0.301,0.534-0.451,1.25-0.451,2.15c0,1.065,0.351,1.957,1.051,2.675c0.699,0.717,1.667,1.075,2.9,1.075h7.648V123.982z"/>
	<path fill="#1B87C9" d="M437.979,115.684h-10.899v-7.851h29.5v7.851h-11v34.699h-7.601V115.684z"/>
</g>
<g>
	<rect x="383.07" y="72.973" fill="#1B86C8" width="12.261" height="11.304"/>
	<rect x="362.132" y="86.129" fill="#1B86C8" width="54.136" height="9.258"/>
	<path fill="#1B86C8" d="M352.809,34.037v-8.652h9.367V20.53H346.7v14.295c0,5.688,6.638,10.3,14.827,10.3
		c0.218,0,0.435-0.005,0.649-0.011v-4.854C357.325,40.157,352.809,37.414,352.809,34.037z"/>
	<path fill="#1B86C8" d="M425.448,34.037v-8.652h-9.368V20.53h15.479v14.295c0,5.688-6.641,10.3-14.828,10.3
		c-0.217,0-0.436-0.005-0.649-0.011v-4.854C420.934,40.157,425.448,37.414,425.448,34.037z"/>
	<path fill="#1B86C8" d="M403.824,89.225c0,0.849-0.686,1.533-1.532,1.533h-26.185c-0.846,0-1.532-0.686-1.532-1.533v-6.227
		c0-0.848,0.687-1.533,1.532-1.533h26.185c0.847,0,1.532,0.688,1.532,1.533V89.225z"/>
	<polygon fill="#1B86C8" points="360.303,95.387 346.7,95.387 352.064,90.838 346.7,86.129 360.303,86.129 	"/>
	<polygon fill="#1B86C8" points="417.954,95.387 431.559,95.387 426.193,90.838 431.559,86.129 417.954,86.129 	"/>
	<path fill="#1B86C8" d="M361.482,13.389v43.107c0,10.634,12.41,19.254,27.718,19.254s27.718-8.621,27.718-19.254V13.389H361.482z
		 M396.502,67.598c-0.063,0.007-0.123,0.01-0.184,0.01c-0.766,0-1.428-0.572-1.52-1.352c-0.1-0.84,0.499-1.602,1.338-1.703
		c0.439-0.055,10.791-1.429,11.491-10.475c0.065-0.843,0.808-1.472,1.646-1.41c0.846,0.066,1.477,0.803,1.41,1.646
		C409.969,63.573,401.094,67.052,396.502,67.598z"/>
</g>
<g>
	<path fill="#AAAAAA" stroke="#AAAAAA" stroke-width="3" stroke-miterlimit="10" d="M274.502,83.422
		c0-1.412,1.143-2.556,2.555-2.556h6.855c1.412,0,2.557,1.144,2.557,2.556v6.857c0,1.411-1.145,2.556-2.557,2.556h-6.855
		c-1.412,0-2.555-1.145-2.555-2.556V83.422z"/>
	<path fill="#AAAAAA" stroke="#AAAAAA" stroke-width="3" stroke-miterlimit="10" d="M262.531,83.422
		c0-1.412,1.145-2.556,2.555-2.556h6.859c1.41,0,2.557,1.144,2.557,2.556v6.857c0,1.411-1.146,2.556-2.557,2.556h-6.859
		c-1.41,0-2.555-1.145-2.555-2.556V83.422z"/>
	<path fill="#AAAAAA" stroke="#AAAAAA" stroke-width="3" stroke-miterlimit="10" d="M250.564,83.422
		c0-1.412,1.145-2.556,2.555-2.556h6.855c1.412,0,2.557,1.144,2.557,2.556v6.857c0,1.411-1.145,2.556-2.557,2.556h-6.855
		c-1.41,0-2.555-1.145-2.555-2.556V83.422z"/>
	<path fill="#AAAAAA" stroke="#AAAAAA" stroke-width="3" stroke-miterlimit="10" d="M238.596,83.422
		c0-1.412,1.143-2.556,2.557-2.556h6.855c1.412,0,2.557,1.144,2.557,2.556v6.857c0,1.411-1.145,2.556-2.557,2.556h-6.855
		c-1.414,0-2.557-1.145-2.557-2.556V83.422z"/>
</g>
<g>
	<path fill="#AAAAAA" stroke="#AAAAAA" stroke-width="3" stroke-miterlimit="10" d="M193.279,80.866
		c-1.412,0-2.557-1.143-2.557-2.556v-6.856c0-1.41,1.145-2.556,2.557-2.556h6.855c1.412,0,2.557,1.146,2.557,2.556v6.856
		c0,1.413-1.145,2.556-2.557,2.556H193.279z"/>
	<path fill="#AAAAAA" stroke="#AAAAAA" stroke-width="3" stroke-miterlimit="10" d="M205.246,80.866
		c-1.412,0-2.555-1.143-2.555-2.556v-6.856c0-1.41,1.143-2.556,2.555-2.556h6.857c1.41,0,2.555,1.146,2.555,2.556v6.856
		c0,1.413-1.145,2.556-2.555,2.556H205.246z"/>
	<path fill="#AAAAAA" stroke="#AAAAAA" stroke-width="3" stroke-miterlimit="10" d="M193.277,68.898
		c-1.41,0-2.555-1.143-2.555-2.556v-6.856c0-1.413,1.145-2.556,2.555-2.556h6.857c1.412,0,2.557,1.143,2.557,2.556v6.856
		c0,1.413-1.145,2.556-2.557,2.556H193.277z"/>
	<path fill="#AAAAAA" stroke="#AAAAAA" stroke-width="3" stroke-miterlimit="10" d="M193.277,56.931
		c-1.41,0-2.555-1.146-2.555-2.555v-6.858c0-1.41,1.145-2.556,2.555-2.556h6.857c1.412,0,2.557,1.146,2.557,2.556v6.858
		c0,1.41-1.145,2.555-2.557,2.555H193.277z"/>
</g>
<g>
	<path fill="none" stroke="#AAAAAA" stroke-width="3" stroke-miterlimit="10" d="M238.596,66.373c0,1.412-1.143,2.556-2.557,2.556
		h-6.855c-1.412,0-2.557-1.145-2.557-2.556v-6.856c0-1.412,1.145-2.556,2.557-2.556h6.855c1.414,0,2.557,1.144,2.557,2.556V66.373z"
		/>
	<path fill="none" stroke="#AAAAAA" stroke-width="3" stroke-miterlimit="10" d="M250.564,66.373c0,1.412-1.145,2.556-2.557,2.556
		h-6.855c-1.41,0-2.557-1.145-2.557-2.556v-6.856c0-1.412,1.146-2.556,2.557-2.556h6.855c1.412,0,2.557,1.144,2.557,2.556V66.373z"
		/>
	<path fill="none" stroke="#AAAAAA" stroke-width="3" stroke-miterlimit="10" d="M262.531,66.373c0,1.412-1.145,2.556-2.555,2.556
		h-6.857c-1.41,0-2.555-1.145-2.555-2.556v-6.856c0-1.412,1.145-2.556,2.555-2.556h6.857c1.41,0,2.555,1.144,2.555,2.556V66.373z"/>
	<path fill="none" stroke="#AAAAAA" stroke-width="3" stroke-miterlimit="10" d="M250.564,54.436c0,1.412-1.145,2.556-2.557,2.556
		h-6.855c-1.41,0-2.557-1.144-2.557-2.556v-6.857c0-1.412,1.146-2.556,2.557-2.556h6.855c1.412,0,2.557,1.144,2.557,2.556V54.436z"
		/>
</g>
<g>
	<path fill="none" stroke="#AAAAAA" stroke-width="3" stroke-miterlimit="10" d="M214.658,90.278c0,1.412-1.145,2.556-2.555,2.556
		h-6.857c-1.412,0-2.555-1.144-2.555-2.556v-6.856c0-1.412,1.143-2.556,2.555-2.556h6.857c1.41,0,2.555,1.144,2.555,2.556V90.278z"
		/>
	<path fill="none" stroke="#AAAAAA" stroke-width="3" stroke-miterlimit="10" d="M226.627,90.278c0,1.412-1.145,2.556-2.555,2.556
		h-6.857c-1.412,0-2.557-1.144-2.557-2.556v-6.856c0-1.412,1.145-2.556,2.557-2.556h6.857c1.41,0,2.555,1.144,2.555,2.556V90.278z"
		/>
	<path fill="none" stroke="#AAAAAA" stroke-width="3" stroke-miterlimit="10" d="M238.596,90.278c0,1.412-1.145,2.556-2.557,2.556
		h-6.855c-1.412,0-2.557-1.144-2.557-2.556v-6.856c0-1.412,1.145-2.556,2.557-2.556h6.855c1.412,0,2.557,1.144,2.557,2.556V90.278z"
		/>
	<path fill="none" stroke="#AAAAAA" stroke-width="3" stroke-miterlimit="10" d="M226.627,78.34c0,1.413-1.145,2.557-2.555,2.557
		h-6.857c-1.412,0-2.557-1.144-2.557-2.557v-6.855c0-1.41,1.145-2.556,2.557-2.556h6.857c1.41,0,2.555,1.146,2.555,2.556V78.34z"/>
</g>
<g>
	<path fill="none" stroke="#AAAAAA" stroke-width="3" stroke-miterlimit="10" d="M274.502,78.326c0,1.413-1.145,2.555-2.557,2.555
		h-6.855c-1.414,0-2.557-1.143-2.557-2.555v-6.856c0-1.413,1.143-2.556,2.557-2.556h6.855c1.412,0,2.557,1.143,2.557,2.556V78.326z"
		/>
	<path fill="none" stroke="#AAAAAA" stroke-width="3" stroke-miterlimit="10" d="M286.469,78.326c0,1.413-1.143,2.555-2.557,2.555
		h-6.855c-1.41,0-2.555-1.143-2.555-2.555v-6.856c0-1.413,1.145-2.556,2.555-2.556h6.855c1.414,0,2.557,1.143,2.557,2.556V78.326z"
		/>
	<path fill="none" stroke="#AAAAAA" stroke-width="3" stroke-miterlimit="10" d="M274.5,66.387c0,1.413-1.145,2.556-2.557,2.556
		h-6.857c-1.41,0-2.555-1.144-2.555-2.556v-6.855c0-1.413,1.145-2.556,2.555-2.556h6.857c1.412,0,2.557,1.143,2.557,2.556V66.387z"
		/>
	<path fill="none" stroke="#AAAAAA" stroke-width="3" stroke-miterlimit="10" d="M286.469,66.387c0,1.413-1.143,2.556-2.557,2.556
		h-6.855c-1.41,0-2.555-1.144-2.555-2.556v-6.855c0-1.41,1.145-2.556,2.555-2.556h6.855c1.414,0,2.557,1.146,2.557,2.556V66.387z"/>
</g>
<g>
	<path fill="#AAAAAA" stroke="#AAAAAA" stroke-width="3" stroke-miterlimit="10" d="M286.469,28.815
		c0,1.413-1.143,2.556-2.557,2.556h-6.855c-1.41,0-2.555-1.143-2.555-2.556v-6.856c0-1.411,1.145-2.556,2.555-2.556h6.855
		c1.414,0,2.557,1.145,2.557,2.556V28.815z"/>
	<path fill="#AAAAAA" stroke="#AAAAAA" stroke-width="3" stroke-miterlimit="10" d="M286.469,16.848
		c0,1.413-1.143,2.555-2.557,2.555h-6.855c-1.41,0-2.555-1.143-2.555-2.555V9.991c0-1.412,1.145-2.556,2.555-2.556h6.855
		c1.414,0,2.557,1.144,2.557,2.556V16.848z"/>
	<path fill="#AAAAAA" stroke="#AAAAAA" stroke-width="3" stroke-miterlimit="10" d="M274.502,28.816c0,1.41-1.143,2.556-2.557,2.556
		h-6.855c-1.414,0-2.557-1.146-2.557-2.556v-6.858c0-1.411,1.143-2.556,2.557-2.556h6.855c1.414,0,2.557,1.145,2.557,2.556V28.816z"
		/>
	<path fill="#AAAAAA" stroke="#AAAAAA" stroke-width="3" stroke-miterlimit="10" d="M262.533,28.816c0,1.41-1.146,2.556-2.555,2.556
		h-6.859c-1.41,0-2.555-1.146-2.555-2.556v-6.858c0-1.411,1.145-2.556,2.555-2.556h6.859c1.408,0,2.555,1.145,2.555,2.556V28.816z"
		/>
</g>
<g>
	<path fill="#AAAAAA" d="M211.92,112.484h-17.949v-6.7h25.799v6.7l-5.75,40.05h-7.699L211.92,112.484z M235.221,152.834h-7.701
		v-47.3h7.701V152.834z"/>
	<path fill="#AAAAAA" d="M260.619,103.834v3.4h10.701v6.3h-2.85c0.566,1.067,0.85,2.134,0.85,3.2v3.5c0,1-0.234,1.967-0.701,2.899
		c-0.467,0.934-1.092,1.792-1.875,2.575s-1.699,1.434-2.75,1.95c-1.049,0.517-2.141,0.842-3.273,0.975v2h15.148v-25.1h7.352v31.55
		h-41.25v-6.45h11.5v-2.05c-1.168-0.133-2.26-0.467-3.275-1c-1.018-0.533-1.908-1.183-2.676-1.95
		c-0.768-0.767-1.375-1.616-1.824-2.55c-0.451-0.933-0.676-1.883-0.676-2.85v-3.5c0-1.066,0.283-2.133,0.85-3.2h-3.148v-6.3h10.898
		v-3.4H260.619z M283.221,144.834l-1.9,8h-7.35l1.949-8h-29.25v-5.9h36.551V144.834z M262.471,118.434
		c0-1.133-0.4-2.058-1.201-2.774c-0.799-0.717-1.834-1.075-3.1-1.075h-1.949c-1.268,0-2.301,0.358-3.102,1.075
		c-0.799,0.717-1.199,1.642-1.199,2.774v0.101c0,1.167,0.4,2.1,1.199,2.8c0.801,0.7,1.834,1.05,3.102,1.05h1.949
		c1.266,0,2.301-0.35,3.1-1.05c0.801-0.7,1.201-1.633,1.201-2.8V118.434z"/>
</g>
<g>
	<path fill="#1B86C8" d="M48.602,113.15h-14.1v-6.7h25.65v6.7l-7.25,5.35l7.25,5.6v8.101l-13-9.45l-12.65,9.35v-8.649L48.602,113.15
		z M43.252,147.35h24.2v-25h-6.15v-6.75h6.15V106.2h7.05v47.3h-37.9v-16.9h6.65V147.35z"/>
	<path fill="#1B86C8" d="M95.252,108.4h6.95v5.899l-6,16.15l8.6,22.85h-7.2l-5-13l-4.8,13.05h-7.399l14.35-38.75h-13.3V108.4h6.8
		v-3.9h7V108.4z M113.502,153.5h-6.5v-23.35h-6.15V123.6h6.15V106.2h6.5V153.5z M123.452,153.5h-6.5v-47.3h6.5V153.5z"/>
</g>
<g>
	<g>
		<polygon points="94,-36.46 82.193,-36.46 82.193,-58.944 59.708,-58.944 59.708,-70.752 94,-70.752 		"/>
	</g>
</g>
<g>
	
		<rect x="65.805" y="-74.97" transform="matrix(-0.7071 -0.7071 0.7071 -0.7071 160.2111 -33.4824)" width="14.731" height="50.094"/>
</g>
<polygon points="148.5,-64.75 134.75,-64.75 134.75,-56.75 148.5,-56.75 148.5,-43 156.5,-43 156.5,-56.75 156.5,-64.75 "/>
<rect x="139.23" y="-62.258" transform="matrix(0.7071 0.7071 -0.7071 0.7071 5.6346 -116.315)" width="8" height="21.805"/>
<path fill="none" stroke="#1B87C9" stroke-width="6" stroke-miterlimit="10" d="M130.345,87.932c0,1.95-1.496,3.527-3.344,3.527
	H30.952c-1.846,0-3.343-1.577-3.343-3.527V20.157c0-1.949,1.497-3.529,3.343-3.529h96.049c1.848,0,3.344,1.58,3.344,3.529V87.932z"
	/>
<path fill="#1B86C8" d="M118.081,25.187H39.873c-1.503,0-2.722,1.218-2.722,2.721v52.271c0,1.505,1.219,2.722,2.722,2.722h78.208
	c1.503,0,2.722-1.217,2.722-2.722V27.908C120.803,26.405,119.584,25.187,118.081,25.187z M52.786,75.885v4.713h-8.1h-4.713v-4.713
	v-8.1h4.713v4.693l5.979-5.979l3.332,3.333l-6.053,6.053H52.786z M50.666,41.598l-5.979-5.979v4.693h-4.713v-8.1V27.5h4.713h8.1
	v4.713h-4.841l6.053,6.053L50.666,41.598z M118.035,75.885v4.713h-4.713h-8.1v-4.713h4.841l-6.053-6.053l3.332-3.333l5.979,5.979
	v-4.693h4.713V75.885z M118.035,32.213v8.1h-4.713v-4.693l-5.979,5.979l-3.332-3.333l6.053-6.053h-4.841V27.5h8.1h4.713V32.213z"/>
</svg>
