<?xml version="1.0" encoding="utf-8"?>
<!-- Generator: Adobe Illustrator 16.0.0, SVG Export Plug-In . SVG Version: 6.00 Build 0)  -->
<!DOCTYPE svg PUBLIC "-//W3C//DTD SVG 1.1//EN" "http://www.w3.org/Graphics/SVG/1.1/DTD/svg11.dtd">
<svg version="1.1" id="Layer_1" xmlns="http://www.w3.org/2000/svg" xmlns:xlink="http://www.w3.org/1999/xlink" x="0px" y="0px"
	 width="160px" height="160px" viewBox="0 0 160 160" enable-background="new 0 0 160 160" xml:space="preserve">
<path fill="none" stroke="#1B87C9" stroke-width="6" stroke-miterlimit="10" d="M541.631,47.469
	c0,13.137-10.643,23.782-23.777,23.782c-13.133,0-23.773-10.646-23.773-23.782c0-13.134,10.642-23.778,23.773-23.778
	C530.988,23.691,541.631,34.335,541.631,47.469z"/>
<path fill="none" stroke="#1B87C9" stroke-width="6" stroke-miterlimit="10" d="M564.577,47.413c0,0.361-0.316,0.784-0.512,1.073
	c-6.939,10.38-21.033,23.082-45.508,23.082c-24.868,0-38.467-14.494-45.354-23.439c-0.096-0.122-0.619-0.677-0.619-0.832
	c0-0.352,0.228-0.68,0.459-0.93c8.896-9.629,21.008-23.108,45.514-23.108c24.516,0,36.605,13.54,45.508,23.139
	C564.292,46.638,564.577,47.076,564.577,47.413z"/>
<g>
	<path fill="#1B87C9" d="M530.186,38.748c0.091,0.429,0.091,0.88,0,1.354c-0.045,0.226-0.084,0.446-0.116,0.66
		c-0.034,0.215-0.073,0.435-0.118,0.66l-0.033,0.136c-0.112,0.451-0.222,0.908-0.321,1.371c-0.103,0.462-0.209,0.919-0.321,1.37
		h2.27c0.406,0,0.795,0.046,1.166,0.136c0.373,0.091,0.717,0.294,1.033,0.609c0.158,0.136,0.274,0.321,0.354,0.559
		c0.077,0.237,0.118,0.479,0.118,0.728c0,0.271-0.041,0.559-0.118,0.863c-0.08,0.305-0.187,0.524-0.321,0.66
		c-0.181,0.203-0.406,0.361-0.677,0.474c-0.271,0.113-0.543,0.187-0.813,0.221c-0.271,0.033-0.502,0.05-0.692,0.05
		c-0.192,0-0.302,0-0.321,0h-3.08c-0.068,0.316-0.138,0.621-0.203,0.914c-0.068,0.294-0.138,0.576-0.203,0.847
		c-0.271,1.129-0.553,2.369-0.848,3.724c-0.293,1.354-0.6,2.595-0.912,3.724c-0.113,0.384-0.232,0.767-0.355,1.15
		c-0.125,0.384-0.276,0.768-0.457,1.151c-0.158,0.338-0.346,0.637-0.559,0.896c-0.215,0.26-0.457,0.451-0.729,0.576
		c-0.271,0.123-0.56,0.169-0.862,0.135c-0.307-0.033-0.641-0.175-0.998-0.423c-0.543-0.384-0.943-0.914-1.201-1.591
		c-0.26-0.677-0.525-1.298-0.797-1.862c-0.09-0.157-0.226-0.508-0.406-1.049c-0.18-0.542-0.371-1.134-0.574-1.777
		s-0.401-1.264-0.594-1.861c-0.191-0.597-0.355-1.044-0.49-1.338c-0.203,0.497-0.406,1.062-0.608,1.693
		c-0.203,0.631-0.396,1.252-0.576,1.861c-0.181,0.609-0.344,1.156-0.489,1.642c-0.146,0.486-0.254,0.841-0.319,1.066
		c-0.183,0.451-0.38,0.948-0.595,1.489c-0.215,0.542-0.474,1.004-0.776,1.388c-0.305,0.384-0.673,0.638-1.103,0.762
		c-0.429,0.124-0.937-0.006-1.522-0.389c-0.45-0.271-0.769-0.655-0.946-1.151c-0.113-0.316-0.227-0.621-0.338-0.914
		c-0.113-0.293-0.203-0.598-0.271-0.914l-0.676-2.538l-1.39-5.45c-0.136-0.542-0.271-1.117-0.405-1.727h-1.658
		c-0.521,0.046-1.049,0.051-1.592,0.017c-0.541-0.033-1.004-0.242-1.388-0.626c-0.521-0.451-0.778-0.959-0.778-1.523
		c0-0.383,0.106-0.761,0.321-1.134c0.214-0.372,0.503-0.637,0.862-0.795c0.451-0.181,0.925-0.266,1.423-0.254
		c0.495,0.012,1.004,0.006,1.521-0.018h0.17c-0.113-0.519-0.222-1.1-0.322-1.743c-0.102-0.643-0.24-1.461-0.422-2.454
		c-0.045-0.248-0.073-0.479-0.086-0.693c-0.01-0.215,0.006-0.435,0.051-0.66c0.046-0.339,0.203-0.632,0.477-0.88
		c0.112-0.113,0.248-0.203,0.406-0.271c0.156-0.067,0.324-0.124,0.508-0.169c0.271-0.09,0.553-0.136,0.846-0.136
		c0.271,0,0.553,0.091,0.848,0.271c0.203,0.112,0.359,0.259,0.474,0.439l0.405,0.711c0.045,0.158,0.091,0.3,0.138,0.423
		c0.045,0.125,0.091,0.254,0.136,0.39c0.045,0.158,0.077,0.3,0.103,0.423c0.021,0.125,0.046,0.243,0.067,0.355
		c0.11,0.7,0.241,1.377,0.389,2.031c0.147,0.654,0.313,1.309,0.49,1.963h4.875c0.135-0.428,0.271-0.823,0.406-1.185
		c0.135-0.36,0.286-0.648,0.456-0.863c0.169-0.214,0.378-0.35,0.625-0.406c0.248-0.056,0.563-0.017,0.949,0.119
		c0.338,0.135,0.618,0.435,0.847,0.896c0.225,0.463,0.438,0.942,0.643,1.438h4.604c0.158-0.586,0.311-1.162,0.457-1.726
		c0.146-0.564,0.289-1.129,0.424-1.693l0.17-0.575c0.045-0.112,0.072-0.23,0.084-0.355c0.012-0.123,0.039-0.265,0.084-0.423
		c0.045-0.136,0.09-0.265,0.137-0.39c0.046-0.123,0.091-0.265,0.136-0.423c0.045-0.112,0.097-0.231,0.151-0.355
		c0.058-0.124,0.129-0.242,0.222-0.355c0.065-0.112,0.146-0.203,0.235-0.271s0.181-0.124,0.271-0.169
		c0.315-0.181,0.589-0.271,0.813-0.271c0.293,0,0.576,0.046,0.85,0.136c0.357,0.067,0.688,0.215,0.979,0.44
		C530.006,38.093,530.141,38.386,530.186,38.748z M513.6,53.506c0.158-0.564,0.355-1.287,0.593-2.167s0.479-1.782,0.729-2.708
		h-2.506c0.09,0.429,0.188,0.88,0.289,1.354c0.103,0.474,0.203,0.931,0.305,1.37c0.104,0.44,0.203,0.847,0.307,1.219
		C513.415,52.948,513.51,53.258,513.6,53.506z M522.739,52.863c0.066-0.226,0.141-0.508,0.221-0.847
		c0.078-0.338,0.158-0.699,0.235-1.083c0.08-0.383,0.164-0.778,0.255-1.185c0.09-0.407,0.182-0.778,0.271-1.117h-2.268
		c0.248,0.88,0.479,1.716,0.693,2.505C522.361,51.926,522.559,52.502,522.739,52.863z"/>
</g>
<g>
	<path fill="#1B87C9" d="M367.68,49.817c-0.229,0.332-0.549,0.575-0.957,0.729c-0.408,0.153-0.824,0.204-1.246,0.153
		c-0.42-0.052-0.805-0.198-1.146-0.44c-0.348-0.243-0.569-0.582-0.671-1.016c-0.026-0.052-0.046-0.191-0.06-0.422
		c-0.014-0.229-0.023-0.466-0.037-0.708c-0.014-0.243-0.033-0.569-0.059-0.978c-0.588-0.076-1.271-0.186-2.05-0.325
		c-0.779-0.141-1.462-0.313-2.05-0.518c-0.383-0.153-0.785-0.313-1.207-0.479c-0.422-0.167-0.824-0.357-1.207-0.575
		c-0.383-0.217-0.734-0.473-1.053-0.767c-0.32-0.293-0.559-0.645-0.709-1.054c-0.129-0.306-0.211-0.632-0.25-0.977
		c-0.037-0.345-0.015-0.683,0.075-1.016c0.091-0.331,0.243-0.625,0.462-0.881c0.217-0.255,0.518-0.422,0.898-0.498
		c0.255-0.076,0.511-0.07,0.768,0.02c0.256,0.09,0.497,0.21,0.729,0.363c0.23,0.153,0.46,0.326,0.689,0.518
		c0.229,0.191,0.459,0.339,0.688,0.44c0.588,0.23,1.271,0.44,2.051,0.632c0.778,0.192,1.5,0.339,2.164,0.441v-6.667
		c-0.46-0.153-0.979-0.293-1.552-0.421c-0.575-0.128-1.041-0.243-1.398-0.346c-0.332-0.127-0.632-0.235-0.899-0.325
		c-0.27-0.089-0.504-0.197-0.707-0.325c-1.125-0.435-1.941-1.111-2.453-2.031c-0.256-0.46-0.447-0.926-0.574-1.398
		c-0.129-0.472-0.191-1.002-0.191-1.59c0-0.511,0.051-0.989,0.152-1.437c0.104-0.447,0.23-0.862,0.385-1.245
		c0.307-0.767,0.805-1.431,1.493-1.992c0.308-0.307,0.657-0.562,1.054-0.767c0.396-0.204,0.824-0.408,1.283-0.613
		c0.434-0.204,0.983-0.357,1.648-0.46c0.662-0.102,1.25-0.178,1.762-0.229c0-0.357,0-0.734,0-1.13s0.102-0.734,0.307-1.016
		c0.309-0.434,0.588-0.74,0.844-0.92c0.256-0.178,0.639-0.242,1.148-0.191c0.459,0.052,0.868,0.167,1.229,0.345
		c0.355,0.18,0.625,0.498,0.805,0.958c0,0.052,0.006,0.186,0.02,0.402c0.014,0.218,0.031,0.454,0.059,0.709
		c0.025,0.281,0.038,0.601,0.038,0.958c0.817,0.179,1.667,0.402,2.548,0.67c0.881,0.269,1.68,0.607,2.395,1.016
		c0.563,0.358,1.018,0.76,1.36,1.207c0.345,0.447,0.504,1.003,0.479,1.666c-0.025,0.358-0.166,0.703-0.422,1.035
		c-0.256,0.332-0.563,0.521-0.92,0.574c-0.408,0.052-0.791-0.019-1.148-0.211c-0.358-0.191-0.702-0.376-1.034-0.555
		c-0.437-0.204-0.938-0.415-1.515-0.633c-0.573-0.217-1.155-0.351-1.742-0.402v5.287c0.535,0.153,1.099,0.352,1.686,0.595
		c0.588,0.242,1.1,0.453,1.532,0.632c1.431,0.588,2.483,1.514,3.162,2.777c0.676,1.265,0.987,2.625,0.938,4.081
		c-0.025,0.971-0.219,1.864-0.574,2.682c-0.205,0.357-0.437,0.689-0.689,0.996c-0.256,0.307-0.537,0.588-0.844,0.843
		c-0.307,0.281-0.639,0.518-0.996,0.709c-0.357,0.191-0.753,0.389-1.188,0.594c-0.436,0.128-0.92,0.249-1.455,0.364
		c-0.537,0.114-1.063,0.223-1.571,0.325c-0.026,0-0.045,0.083-0.058,0.249c-0.016,0.166-0.016,0.351,0,0.556
		c0.013,0.204,0.023,0.402,0.039,0.594c0.012,0.191,0.019,0.3,0.019,0.326C367.949,49.14,367.859,49.511,367.68,49.817z
		 M360.784,29.549c0.024,0.205,0.114,0.428,0.269,0.671c0.154,0.243,0.331,0.44,0.536,0.594c0.229,0.153,0.511,0.274,0.845,0.364
		c0.33,0.09,0.688,0.159,1.071,0.21v-4.329c-0.843,0.052-1.539,0.263-2.088,0.632C360.867,28.062,360.657,28.681,360.784,29.549z
		 M371.014,39.818c-0.052-0.332-0.173-0.646-0.363-0.939s-0.436-0.555-0.729-0.785c-0.295-0.229-0.613-0.428-0.959-0.594
		c-0.344-0.166-0.684-0.287-1.015-0.364c0,0.896,0.019,1.795,0.058,2.701c0.038,0.907,0.044,1.808,0.02,2.701
		c0.385,0.052,0.768,0.02,1.148-0.096c0.385-0.115,0.715-0.293,0.996-0.536c0.281-0.242,0.504-0.543,0.671-0.9
		C371.007,40.648,371.064,40.252,371.014,39.818z"/>
</g>
<g>
	<rect x="405.177" y="22.947" fill="#1B87C9" width="6.356" height="27.219"/>
	<rect x="394.23" y="30.104" fill="#1B87C9" width="6.355" height="20.062"/>
	<rect x="383.547" y="37.736" fill="#1B87C9" width="6.355" height="12.43"/>
</g>
<rect x="373.436" y="61.276" fill="#1B87C9" width="18.055" height="12.467"/>
<path fill="#1B87C9" d="M408.791,80.354c0,4.214-3.422,7.63-7.631,7.63h-37.395c-4.222,0-7.632-3.416-7.632-7.63l0,0
	c0-4.216,3.41-7.631,7.632-7.631h37.395C405.369,72.723,408.791,76.138,408.791,80.354L408.791,80.354z"/>
<path fill="none" stroke="#1B87C9" stroke-width="6" stroke-miterlimit="10" d="M426.843,54.659c0,4.777-3.875,8.653-8.645,8.653
	h-71.472c-4.781,0-8.656-3.876-8.656-8.653V15.495c0-4.778,3.875-8.653,8.656-8.653h71.472c4.77,0,8.645,3.875,8.645,8.653V54.659z"
	/>
<g>
	<path fill="#1B87C9" d="M648.696,37.371c0.291-0.217,0.25-0.766-0.063-1.186l0,0c-0.309-0.423-0.821-0.623-1.112-0.406
		L621.95,54.723c-0.291,0.215-0.256,0.767,0.055,1.187l0,0c0.313,0.423,0.822,0.623,1.115,0.405L648.696,37.371z"/>
	<path fill="#1B87C9" d="M682.899,21.907c0.227-0.233,0.081-0.749-0.294-1.115l0,0c-0.375-0.364-0.896-0.501-1.12-0.269
		L659.588,42.83c-0.227,0.235-0.078,0.748,0.297,1.115l0,0c0.369,0.367,0.896,0.501,1.121,0.269L682.899,21.907z"/>
	<path fill="#1B87C9" d="M660.155,44.061c0.321,0.164,0.799-0.119,1.03-0.587l0,0c0.237-0.465,0.185-1.013-0.144-1.177l-12.85-6.653
		c-0.32-0.164-0.8,0.116-1.037,0.584l0,0c-0.232,0.468-0.179,1.016,0.145,1.18L660.155,44.061z"/>
	<path fill="#1B87C9" d="M685.575,22.977c-0.082,0.436-0.178,1.097-0.756,0.746l-5.158-5.151c-0.5-0.543,0.287-0.641,0.733-0.74
		l6.021-1.448c0.727-0.083,0.775,0.331,0.775,0.742L685.575,22.977z"/>
	<path fill="#1B87C9" d="M617.678,81.016c0,1.615-1.346,2.928-3.002,2.928l0,0c-1.654,0-2.998-1.313-2.998-2.928V12.591
		c0-1.616,1.344-2.928,2.998-2.928l0,0c1.656,0,3.002,1.312,3.002,2.928V81.016z"/>
	<rect x="627.514" y="57.934" fill="#1B87C9" width="6.246" height="24.229"/>
	<rect x="639.723" y="46.049" fill="#1B87C9" width="6.248" height="36.114"/>
	<rect x="651.801" y="46.049" fill="#1B87C9" width="6.248" height="36.114"/>
	<rect x="663.76" y="46.049" fill="#1B87C9" width="6.248" height="36.114"/>
	<rect x="676.375" y="32.367" fill="#1B87C9" width="6.248" height="49.796"/>
	<path fill="#1B87C9" d="M614.928,85.163c-1.754,0-3.178-1.345-3.178-3l0,0c0-1.656,1.424-3,3.178-3h74.158
		c1.76,0,3.178,1.344,3.178,3l0,0c0,1.655-1.418,3-3.178,3H614.928z"/>
</g>
<rect x="756.571" y="14.826" fill="#1B87C9" width="7.104" height="7.109"/>
<rect x="756.577" y="24.642" fill="#1B87C9" width="7.104" height="7.106"/>
<rect x="756.577" y="34.729" fill="#1B87C9" width="7.104" height="7.109"/>
<rect x="767.676" y="14.826" fill="#1B87C9" width="7.107" height="7.109"/>
<rect x="767.682" y="24.642" fill="#1B87C9" width="7.107" height="7.106"/>
<rect x="767.682" y="34.729" fill="#1B87C9" width="7.107" height="7.109"/>
<rect x="778.766" y="14.826" fill="#1B87C9" width="7.107" height="7.109"/>
<rect x="778.771" y="24.642" fill="#1B87C9" width="7.106" height="7.106"/>
<rect x="778.771" y="34.729" fill="#1B87C9" width="7.106" height="7.109"/>
<rect x="756.571" y="44.143" fill="#1B87C9" width="7.104" height="7.11"/>
<rect x="756.577" y="53.959" fill="#1B87C9" width="7.104" height="7.107"/>
<rect x="756.577" y="64.047" fill="#1B87C9" width="7.104" height="7.109"/>
<rect x="767.676" y="44.143" fill="#1B87C9" width="7.107" height="7.11"/>
<rect x="767.682" y="53.959" fill="#1B87C9" width="7.107" height="7.107"/>
<rect x="767.682" y="64.047" fill="#1B87C9" width="7.107" height="7.109"/>
<rect x="756.571" y="64.047" fill="#1B87C9" width="29.309" height="17.027"/>
<rect x="778.766" y="44.143" fill="#1B87C9" width="7.107" height="7.11"/>
<rect x="778.771" y="53.959" fill="#1B87C9" width="7.106" height="7.107"/>
<rect x="778.771" y="64.047" fill="#1B87C9" width="7.106" height="7.109"/>
<rect x="808.012" y="27.375" fill="#1B87C9" width="7.107" height="7.109"/>
<rect x="808.021" y="37.192" fill="#1B87C9" width="7.104" height="7.106"/>
<rect x="808.021" y="47.279" fill="#1B87C9" width="7.104" height="7.109"/>
<rect x="818.12" y="27.375" fill="#1B87C9" width="7.105" height="7.109"/>
<rect x="818.125" y="37.192" fill="#1B87C9" width="7.107" height="7.106"/>
<rect x="818.125" y="47.279" fill="#1B87C9" width="7.107" height="7.109"/>
<rect x="828.209" y="27.375" fill="#1B87C9" width="7.107" height="7.109"/>
<rect x="828.215" y="37.192" fill="#1B87C9" width="7.107" height="7.106"/>
<rect x="828.215" y="47.279" fill="#1B87C9" width="7.107" height="7.109"/>
<rect x="808.012" y="56.693" fill="#1B87C9" width="7.107" height="7.11"/>
<polygon fill="#1B87C9" points="808.021,66.509 808.021,73.616 808.021,80.723 835.323,80.723 835.323,73.616 835.323,66.509 "/>
<rect x="818.12" y="56.693" fill="#1B87C9" width="7.105" height="7.11"/>
<rect x="828.209" y="56.693" fill="#1B87C9" width="7.107" height="7.11"/>
<path fill="none" stroke="#1B87C9" stroke-width="6" stroke-miterlimit="10" d="M793.598,77.521c0,4.778-3.873,8.653-8.646,8.653
	H757.99c-4.775,0-8.65-3.875-8.65-8.653V17.306c0-4.778,3.875-8.653,8.65-8.653h26.961c4.773,0,8.646,3.875,8.646,8.653V77.521z"/>
<path fill="none" stroke="#1B87C9" stroke-width="6" stroke-miterlimit="10" d="M841.473,77.521c0,4.778-3.875,8.653-8.648,8.653
	h-22.381c-4.775,0-8.652-3.875-8.652-8.653V29.68c0-4.778,3.877-8.653,8.652-8.653h22.381c4.773,0,8.648,3.875,8.648,8.653V77.521z"
	/>
<g>
	<path fill="#1B87C9" d="M358.507,104.787v6.8l-2.149,19.851h-7.301l2.15-19.851h-14.25v-6.8H358.507z M369.506,134.986
		c1.234,0,2.393,0.207,3.477,0.625c1.082,0.416,2.023,1,2.824,1.75s1.436,1.642,1.9,2.675c0.466,1.032,0.699,2.167,0.699,3.399
		s-0.232,2.357-0.699,3.375c-0.467,1.017-1.1,1.899-1.9,2.649c-0.8,0.75-1.742,1.333-2.824,1.75
		c-1.084,0.417-2.24,0.625-3.477,0.625h-20.398c-1.232,0-2.393-0.208-3.476-0.625s-2.024-1-2.825-1.75
		c-0.8-0.75-1.434-1.634-1.897-2.649c-0.47-1.018-0.7-2.143-0.7-3.375s0.23-2.367,0.7-3.399c0.466-1.033,1.1-1.925,1.897-2.675
		c0.801-0.75,1.742-1.334,2.825-1.75c1.083-0.418,2.241-0.625,3.476-0.625H369.506z M349.107,141.236
		c-0.602,0-1.108,0.217-1.524,0.648c-0.417,0.436-0.625,0.95-0.625,1.551c0,0.565,0.208,1.065,0.625,1.5
		c0.416,0.434,0.925,0.649,1.524,0.649h20.397c0.603,0,1.117-0.217,1.552-0.649c0.435-0.435,0.649-0.935,0.649-1.5
		c0-0.601-0.218-1.117-0.649-1.551c-0.434-0.433-0.949-0.648-1.552-0.648H349.107z M370.907,120.537v-4.65h-8.351v-6h8.351v-5.35
		h7.301v26.9h-7.301v-4.852h-8.351v-6.05L370.907,120.537L370.907,120.537z"/>
	<path fill="#1B87C9" d="M400.708,127.886l7.949,23.7h-7l-4.55-13.5l-4.7,13.5h-7.55l14.199-40.1h-13.351v-6.7h20.75v6.7
		L400.708,127.886z M417.006,151.836h-6.449v-23.25h-5.699v-6.4h5.699v-17.648h6.449V151.836z M427.157,151.836h-6.601v-47.3h6.601
		V151.836z"/>
</g>
<g>
	<path fill="#1B87C9" d="M502.482,125.486l2.55-13.301h-28.949v-7.399h36.25v7.399l-2.551,13.301h6.301v6.35h-43v-6.35H502.482z
		 M513.182,135.236v16.6h-37.198v-16.6H513.182z M506.182,141.037h-23.198v5h23.198V141.037z"/>
	<path fill="#1B87C9" d="M523.182,143.386c0-1.166,0.218-2.25,0.649-3.25s1.024-1.875,1.774-2.625s1.625-1.341,2.625-1.774
		c1-0.432,2.082-0.684,3.25-0.75v-2.899h-10.399v-6.3h43v6.3h-10.399v2.899c1.134,0.066,2.207,0.316,3.227,0.75
		c1.017,0.435,1.898,1.024,2.648,1.774s1.343,1.625,1.774,2.625s0.649,2.084,0.649,3.25c0,1.233-0.233,2.367-0.699,3.4
		c-0.469,1.032-1.103,1.925-1.9,2.675s-1.742,1.333-2.824,1.75c-1.084,0.417-2.242,0.625-3.476,0.625h-21
		c-1.233,0-2.395-0.208-3.476-0.625c-1.085-0.417-2.024-1-2.824-1.75c-0.801-0.75-1.435-1.643-1.9-2.675
		C523.415,145.753,523.182,144.619,523.182,143.386z M532.082,122.886c-1.2,0-2.316-0.208-3.35-0.625
		c-1.034-0.416-1.936-1.008-2.7-1.774c-0.77-0.767-1.367-1.717-1.8-2.851c-0.436-1.133-0.65-2.399-0.65-3.8
		c0-1.366,0.217-2.607,0.65-3.725c0.433-1.116,1.03-2.066,1.8-2.852c0.767-0.781,1.665-1.391,2.7-1.824
		c1.03-0.434,2.147-0.649,3.35-0.649h21c1.133,0,2.217,0.192,3.25,0.575c1.033,0.384,1.934,0.957,2.7,1.725
		c0.766,0.768,1.383,1.717,1.85,2.85c0.468,1.133,0.7,2.436,0.7,3.9c0,1.4-0.217,2.659-0.65,3.775
		c-0.434,1.117-1.032,2.065-1.8,2.85c-0.767,0.784-1.667,1.384-2.7,1.8c-1.032,0.417-2.147,0.625-3.35,0.625H532.082z
		 M529.932,143.386c0,0.601,0.207,1.134,0.625,1.601c0.416,0.467,0.927,0.699,1.524,0.699h21c0.601,0,1.106-0.232,1.524-0.699
		c0.416-0.467,0.625-1,0.625-1.601c0-0.6-0.209-1.133-0.625-1.6c-0.418-0.468-0.927-0.7-1.524-0.7h-21
		c-0.601,0-1.108,0.232-1.524,0.7C530.139,142.253,529.932,142.787,529.932,143.386z M552.832,116.136c0.633,0,1.125-0.23,1.475-0.7
		c0.353-0.466,0.525-1,0.525-1.6c0-0.633-0.191-1.175-0.575-1.625s-0.857-0.675-1.425-0.675h-20.55c-0.667,0-1.167,0.241-1.5,0.725
		c-0.334,0.484-0.5,1.009-0.5,1.575s0.166,1.092,0.5,1.575c0.333,0.483,0.833,0.725,1.5,0.725H552.832z M538.682,134.938h7.802
		v-2.851h-7.802V134.938z"/>
</g>
<g>
	<path fill="#1B87C9" d="M624.421,111.486h-17.95v-6.7h25.801v6.7l-5.75,40.05h-7.699L624.421,111.486z M647.721,151.836h-7.699
		v-47.3h7.699V151.836z"/>
	<path fill="#1B87C9" d="M695.721,104.537v47.3h-37.898v-19.5h7.051v4.351h23.85v-16.451h-8.85
		c-0.168,1.234-0.617,2.375-1.352,3.427c-0.732,1.05-1.648,1.948-2.75,2.698s-2.357,1.344-3.773,1.775
		c-1.418,0.436-2.893,0.65-4.426,0.65c-1.668,0-3.227-0.242-4.678-0.725c-1.447-0.483-2.717-1.158-3.799-2.025
		c-1.084-0.867-1.941-1.883-2.576-3.051c-0.633-1.166-0.947-2.433-0.947-3.799v-4.75c0-1.566,0.355-2.959,1.072-4.177
		c0.719-1.216,1.645-2.231,2.775-3.05c1.133-0.814,2.395-1.439,3.775-1.875c1.383-0.434,2.758-0.648,4.125-0.648h0.35
		c1.566,0,3.061,0.225,4.475,0.674c1.42,0.451,2.678,1.06,3.775,1.826c1.1,0.767,2,1.69,2.701,2.773
		c0.699,1.083,1.115,2.242,1.25,3.477h8.85v-8.9H695.721z M672.92,115.736c0-0.633-0.133-1.227-0.4-1.775
		c-0.266-0.55-0.633-1.033-1.1-1.45c-0.467-0.416-1.018-0.741-1.65-0.975c-0.632-0.234-1.299-0.351-2-0.351
		c-0.697,0-1.355,0.116-1.975,0.351c-0.617,0.233-1.158,0.559-1.625,0.975c-0.467,0.417-0.834,0.9-1.1,1.45
		c-0.27,0.55-0.4,1.143-0.4,1.775v2.449c0,0.633,0.133,1.226,0.4,1.774c0.266,0.55,0.633,1.034,1.1,1.45
		c0.467,0.417,1.008,0.74,1.625,0.975s1.275,0.352,1.975,0.352c0.701,0,1.367-0.116,2-0.352c0.635-0.23,1.186-0.558,1.65-0.975
		c0.467-0.417,0.834-0.9,1.1-1.45c0.27-0.55,0.4-1.144,0.4-1.774V115.736z M688.721,142.438h-23.85v3.601h23.85V142.438z"/>
</g>
<g>
	<path fill="#1B87C9" d="M792.906,132.386v6.25h-18.001v13.2h-7v-13.2h-18v-6.25H792.906z M772.456,111.586h-20.7v-6.75h39.301v5.75
		l-13.251,6.25l12.899,5.05v7.25l-20.699-8.6l-18.25,8.6v-7.399L772.456,111.586z"/>
	<path fill="#1B87C9" d="M816.205,104.787l10.25,23.4h-8.25l-6.149-14.602l-6.148,14.602h-8.25l10.25-23.4H816.205z
		 M837.254,151.836h-7.5l1.95-11.15h-30.5v-6.1h30.5v-30.05h7.45v36.149L837.254,151.836z"/>
</g>
<g>
	<path fill="#1B87C9" d="M192.768,104.454c1.5,0,2.916,0.282,4.25,0.851c1.334,0.566,2.491,1.351,3.475,2.351
		c0.984,1,1.758,2.157,2.326,3.475c0.565,1.315,0.85,2.726,0.85,4.226v5c0,1.5-0.283,2.918-0.85,4.25
		c-0.568,1.334-1.342,2.492-2.326,3.476c-0.982,0.983-2.141,1.758-3.475,2.325c-1.334,0.566-2.75,0.85-4.25,0.85h-3.951
		c-1.5,0-2.916-0.283-4.25-0.85c-1.332-0.567-2.491-1.342-3.475-2.325c-0.984-0.983-1.759-2.142-2.324-3.476
		c-0.567-1.332-0.851-2.75-0.851-4.25v-5c0-1.5,0.283-2.908,0.851-4.226c0.565-1.315,1.34-2.475,2.324-3.475
		c0.982-1,2.141-1.783,3.475-2.351c1.334-0.565,2.75-0.851,4.25-0.851H192.768z M187.117,144.754h23.898v-40.55h7v47.3h-37.898
		v-15.4h7V144.754z M188.816,111.354c-1.101,0-2.043,0.394-2.825,1.177c-0.784,0.782-1.175,1.725-1.175,2.823v5
		c0,1.102,0.392,2.043,1.175,2.826c0.782,0.783,1.725,1.174,2.825,1.174h3.949c1.101,0,2.043-0.392,2.825-1.174
		c0.782-0.783,1.175-1.726,1.175-2.826v-5c0-1.1-0.394-2.041-1.175-2.823c-0.784-0.783-1.725-1.177-2.825-1.177H188.816z"/>
	<path fill="#1B87C9" d="M242.716,111.154h-17.95v-6.7h25.801v6.7l-5.75,40.05h-7.699L242.716,111.154z M266.018,151.504h-7.701
		v-47.3h7.701V151.504z"/>
</g>
<path fill="#1B87C9" d="M265.082,41.406c-0.207-0.635-0.756-1.096-1.416-1.192l-27.729-4.029l-12.399-25.127
	c-0.296-0.598-0.904-0.976-1.571-0.976s-1.275,0.379-1.57,0.977l-12.4,25.126l-27.729,4.029c-0.66,0.096-1.209,0.558-1.414,1.192
	c-0.205,0.635-0.035,1.331,0.443,1.796l20.063,19.558l-4.736,27.618c-0.113,0.657,0.158,1.322,0.697,1.713
	c0.305,0.222,0.666,0.334,1.029,0.334c0.279,0,0.56-0.065,0.815-0.2l24.802-13.04l24.799,13.04c0.592,0.31,1.308,0.26,1.846-0.134
	c0.539-0.393,0.812-1.058,0.697-1.714l-4.735-27.618l20.063-19.558C265.115,42.737,265.287,42.041,265.082,41.406z"/>
<g>
	<path fill="#AAAAAA" d="M42.28,121.683c0,1.367-0.267,2.7-0.8,4c-0.533,1.301-1.267,2.434-2.2,3.4h0.05
		c1.233,0.9,2.125,2.009,2.675,3.325c0.55,1.317,0.825,2.675,0.825,4.075v2.649c0,1.768-0.25,3.351-0.75,4.75
		c-0.5,1.4-1.2,2.583-2.1,3.55c-0.9,0.967-1.967,1.7-3.2,2.2c-1.234,0.5-2.6,0.75-4.1,0.75H13.33v-42.55h18.8
		c1.5,0,2.875,0.25,4.125,0.75s2.325,1.209,3.225,2.125c0.9,0.917,1.592,2.018,2.075,3.3c0.483,1.284,0.725,2.692,0.725,4.226
		V121.683z M20.68,125.533h10.1c0.566,0,1.1-0.125,1.6-0.375s0.941-0.583,1.325-1c0.383-0.417,0.683-0.908,0.9-1.476
		c0.217-0.566,0.325-1.166,0.325-1.8v-0.649c0-0.633-0.108-1.226-0.325-1.775s-0.517-1.041-0.9-1.475
		c-0.383-0.434-0.825-0.775-1.325-1.025s-1.034-0.375-1.6-0.375h-10.1V125.533z M35.479,137.383c0-0.633-0.108-1.232-0.325-1.8
		c-0.217-0.566-0.517-1.058-0.9-1.475c-0.384-0.417-0.834-0.75-1.35-1c-0.517-0.25-1.059-0.375-1.625-0.375h-10.6v9.8h10.6
		c0.566,0,1.108-0.125,1.625-0.375c0.516-0.25,0.966-0.583,1.35-1c0.383-0.417,0.683-0.908,0.9-1.476
		c0.216-0.566,0.325-1.183,0.325-1.85V137.383z"/>
	<path fill="#AAAAAA" d="M55.179,143.183h21.2v7.2h-29.25v-42.55h29.25v7.2h-21.2v10.5h21.2v7.1h-21.2V143.183z"/>
	<path fill="#AAAAAA" d="M101.629,123.983c1.767,0,3.408,0.333,4.926,1c1.516,0.667,2.824,1.6,3.925,2.8
		c1.1,1.2,1.958,2.625,2.575,4.274c0.616,1.65,0.925,3.442,0.925,5.375c0,1.834-0.284,3.543-0.851,5.125
		c-0.566,1.583-1.367,2.95-2.399,4.101c-1.034,1.149-2.268,2.058-3.7,2.725c-1.434,0.667-3.018,1-4.75,1h-19.4v-7.899h17.15
		c0.833,0,1.633-0.101,2.4-0.301c0.766-0.199,1.425-0.508,1.975-0.925c0.55-0.416,0.991-0.941,1.325-1.575
		c0.333-0.633,0.5-1.383,0.5-2.25c0-1.633-0.534-2.899-1.601-3.8c-1.066-0.899-2.399-1.35-4-1.35h-5.05
		c-2.134,0-4.067-0.233-5.8-0.7c-1.733-0.467-3.209-1.2-4.425-2.2c-1.218-1-2.159-2.291-2.825-3.875c-0.667-1.583-1-3.475-1-5.675
		c0-1.566,0.267-3.075,0.8-4.525c0.533-1.449,1.283-2.725,2.25-3.824c0.967-1.101,2.133-1.983,3.5-2.65c1.366-0.666,2.883-1,4.55-1
		h17.601v8.3H95.879c-0.8,0-1.559,0.05-2.274,0.15c-0.718,0.1-1.343,0.292-1.875,0.575c-0.534,0.283-0.95,0.691-1.25,1.225
		s-0.45,1.25-0.45,2.15c0,1.066,0.35,1.958,1.05,2.675s1.667,1.075,2.9,1.075H101.629z"/>
	<path fill="#AAAAAA" d="M127.979,115.683h-10.9v-7.85h29.5v7.85h-11v34.7h-7.6V115.683z"/>
</g>
<g>
	<rect x="73.07" y="72.973" fill="#AAAAAA" width="12.261" height="11.304"/>
	<rect x="52.132" y="86.129" fill="#AAAAAA" width="54.136" height="9.258"/>
	<path fill="#AAAAAA" d="M42.808,34.037v-8.652h9.368V20.53H36.7v14.295c0,5.688,6.638,10.3,14.828,10.3
		c0.217,0,0.434-0.005,0.649-0.011v-4.853C47.325,40.157,42.808,37.414,42.808,34.037z"/>
	<path fill="#AAAAAA" d="M115.448,34.037v-8.652h-9.368V20.53h15.478v14.295c0,5.688-6.64,10.3-14.828,10.3
		c-0.217,0-0.435-0.005-0.649-0.011v-4.853C110.933,40.157,115.448,37.414,115.448,34.037z"/>
	<path fill="#AAAAAA" d="M93.824,89.225c0,0.848-0.686,1.533-1.532,1.533H66.108c-0.846,0-1.533-0.686-1.533-1.533v-6.227
		c0-0.847,0.687-1.533,1.533-1.533h26.184c0.847,0,1.532,0.687,1.532,1.533V89.225z"/>
	<polygon fill="#AAAAAA" points="50.303,95.387 36.7,95.387 42.064,90.838 36.7,86.129 50.303,86.129 	"/>
	<polygon fill="#AAAAAA" points="107.954,95.387 121.558,95.387 116.193,90.838 121.558,86.129 107.954,86.129 	"/>
	<path fill="#AAAAAA" d="M51.482,13.389v43.107c0,10.634,12.41,19.254,27.718,19.254c15.308,0,27.718-8.621,27.718-19.254V13.389
		H51.482z M86.502,67.598c-0.062,0.007-0.123,0.01-0.183,0.01c-0.766,0-1.428-0.572-1.52-1.352c-0.1-0.84,0.499-1.602,1.337-1.703
		c0.44-0.055,10.792-1.429,11.492-10.475c0.065-0.843,0.807-1.472,1.646-1.41c0.845,0.066,1.476,0.803,1.41,1.646
		C99.969,63.573,91.094,67.052,86.502,67.598z"/>
</g>
</svg>
