<?xml version="1.0" encoding="utf-8"?>
<!-- Generator: Adobe Illustrator 16.0.0, SVG Export Plug-In . SVG Version: 6.00 Build 0)  -->
<!DOCTYPE svg PUBLIC "-//W3C//DTD SVG 1.1//EN" "http://www.w3.org/Graphics/SVG/1.1/DTD/svg11.dtd">
<svg version="1.1" xmlns="http://www.w3.org/2000/svg" xmlns:xlink="http://www.w3.org/1999/xlink" x="0px" y="0px" width="109.5px"
	 height="104.5px" viewBox="0 0 109.5 104.5" enable-background="new 0 0 109.5 104.5" xml:space="preserve">
<g id="Layer_1">
	<path fill="#11D3D3" d="M108.645,21.486"/>
	<circle fill="none" stroke="#E68A82" stroke-miterlimit="10" cx="97.005" cy="-48.948" r="2.579"/>
	<line fill="none" stroke="#E68A82" stroke-miterlimit="10" x1="22.941" y1="-57.951" x2="25.333" y2="-55.499"/>
	<line fill="none" stroke="#E68A82" stroke-miterlimit="10" x1="29.291" y1="-57.906" x2="26.812" y2="-55.542"/>
	<line fill="none" stroke="#E68A82" stroke-miterlimit="10" x1="22.94" y1="-51.527" x2="25.333" y2="-53.979"/>
	<line fill="none" stroke="#E68A82" stroke-miterlimit="10" x1="29.291" y1="-51.571" x2="26.812" y2="-53.936"/>
</g>
<g id="Layer_2">
	<path fill="#FFFFFF" stroke="#00B1E0" stroke-miterlimit="10" d="M-19.502-39.506h-5.366c-1.104,0-2,0.896-2,2c0-1.104-0.896-2-2-2
		h-5.366c-1.104,0-2,0.896-2,2c0-1.104-0.896-2-2-2H-43.6c-1.104,0-2,0.896-2,2c0-1.104-0.896-2-2-2h-5.366c-1.104,0-2,0.896-2,2
		v5.366c0,1.104,0.896,2,2,2h5.366c1.104,0,2-0.896,2-2c0,1.104,0.896,2,2,2h5.366c1.104,0,2-0.896,2-2c0,1.104,0.896,2,2,2h5.366
		c1.104,0,2-0.896,2-2c0,1.104,0.896,2,2,2h5.366c1.104,0,2-0.896,2-2v-5.366C-17.502-38.61-18.398-39.506-19.502-39.506z"/>
	<path fill="#00B1E0" stroke="#00B1E0" stroke-miterlimit="10" d="M-4.529,26.855h-5.366c-1.104,0-1.999,0.895-2,1.997
		c-0.001-1.102-0.896-1.997-2-1.997h-5.366c-1.104,0-2,0.896-2,2v5.366c0,1.063,0.832,1.924,1.879,1.987
		c-1.047,0.064-1.879,0.925-1.879,1.988c0-1.104-0.896-2-2-2h-5.366c-1.104,0-2,0.896-2,2v5.365c0,1.105,0.896,2,2,2h5.366
		c1.104,0,2-0.895,2-2c0,1.105,0.896,2,2,2h5.366c1.104,0,2-0.895,2-2v-5.365c0-1.063-0.832-1.924-1.879-1.988
		c1.046-0.063,1.877-0.923,1.879-1.984c0.001,1.103,0.896,1.997,2,1.997h5.366c1.104,0,2-0.896,2-2v-5.366
		C-2.529,27.751-3.425,26.855-4.529,26.855z"/>
	<path fill="#FFFFFF" stroke="#00B1E0" stroke-miterlimit="10" d="M-20.687-1.258h-5.365c-1.105,0-2,0.896-2,2c0-1.104-0.896-2-2-2
		c1.104,0,2-0.895,2-2v-5.365c0-1.104-0.896-2-2-2c1.104,0,2-0.896,2-2v-5.366c0-1.104-0.896-2-2-2h-5.366c-1.104,0-2,0.896-2,2
		v5.366c0,1.104,0.896,2,2,2c-1.104,0-2,0.896-2,2v5.365c0,1.105,0.896,2,2,2h0.001c-1.105,0-2,0.896-2,2v5.366c0,1.104,0.895,2,2,2
		h5.365c1.104,0,2-0.896,2-2c0,1.104,0.895,2,2,2h5.365c1.104,0,2-0.896,2-2V0.742C-18.687-0.362-19.582-1.258-20.687-1.258z"/>
	<g>
		<path fill="#00B1E0" stroke="#00B1E0" stroke-miterlimit="10" d="M-36.234,92.85c0,1.105-0.896,2-2,2H-43.6c-1.104,0-2-0.895-2-2
			v-5.365c0-1.104,0.896-2,2-2h5.366c1.104,0,2,0.896,2,2V92.85z"/>
		<path fill="#00B1E0" stroke="#00B1E0" stroke-miterlimit="10" d="M-26.868,92.85c0,1.105-0.896,2-2,2h-5.366c-1.104,0-2-0.895-2-2
			v-5.365c0-1.104,0.896-2,2-2h5.366c1.104,0,2,0.896,2,2V92.85z"/>
		<path fill="#00B1E0" stroke="#00B1E0" stroke-miterlimit="10" d="M-17.502,92.85c0,1.105-0.896,2-2,2h-5.366c-1.104,0-2-0.895-2-2
			v-5.365c0-1.104,0.896-2,2-2h5.366c1.104,0,2,0.896,2,2V92.85z"/>
		<path fill="#00B1E0" stroke="#00B1E0" stroke-miterlimit="10" d="M-26.868,83.509c0,1.104-0.896,2-2,2h-5.366
			c-1.104,0-2-0.896-2-2v-5.366c0-1.104,0.896-2,2-2h5.366c1.104,0,2,0.896,2,2V83.509z"/>
	</g>
	<g>
		<path fill="#FFFFFF" stroke="#00B1E0" stroke-miterlimit="10" d="M-38.898,70.861c0,1.105-0.896,2-2,2h-5.366
			c-1.104,0-2-0.895-2-2v-5.365c0-1.104,0.896-2,2-2h5.366c1.104,0,2,0.896,2,2V70.861z"/>
		<path fill="#FFFFFF" stroke="#00B1E0" stroke-miterlimit="10" d="M-29.532,70.861c0,1.105-0.896,2-2,2h-5.366
			c-1.104,0-2-0.895-2-2v-5.365c0-1.104,0.896-2,2-2h5.366c1.104,0,2,0.896,2,2V70.861z"/>
		<path fill="#FFFFFF" stroke="#00B1E0" stroke-miterlimit="10" d="M-29.532,61.521c0,1.104-0.896,2-2,2h-5.366
			c-1.104,0-2-0.896-2-2v-5.366c0-1.104,0.896-1.999,2-1.999h5.366c1.104,0,2,0.896,2,1.999V61.521z"/>
		<path fill="#FFFFFF" stroke="#00B1E0" stroke-miterlimit="10" d="M-20.167,61.521c0,1.104-0.896,2-2,2h-5.366
			c-1.104,0-2-0.896-2-2v-5.366c0-1.104,0.896-1.999,2-1.999h5.366c1.104,0,2,0.896,2,1.999V61.521z"/>
	</g>
	<path fill="none" stroke="#00B1E0" stroke-miterlimit="10" d="M153.542,60.813v5.366c0,1.104,0.896,2,2,2
		c-1.063,0-1.924,0.832-1.987,1.879c-0.064-1.047-0.926-1.879-1.988-1.879h-5.365c-1.105,0-2,0.896-2,2v5.365c0,1.104,0.895,2,2,2
		h5.365c1.063,0,1.924-0.832,1.988-1.879c0.063,1.047,0.924,1.879,1.987,1.879c-1.104,0-2,0.896-2,2v5.366c0,1.104,0.896,2,2,2
		h5.366c1.104,0,2-0.896,2-2v-5.366c0-1.104-0.896-2-2-2c1.104,0,2-0.896,2-2V70.18c0-1.104-0.896-2-2-2c1.104,0,2-0.896,2-2v-5.366
		c0-1.104-0.896-2-2-2h-5.366C154.438,58.813,153.542,59.709,153.542,60.813z"/>
	<path fill="#00B1E0" stroke="#00B1E0" stroke-miterlimit="10" d="M-33.459,32.276v-5.365c0-1.104-0.896-2-2-2h-5.366
		c-1.104,0-2,0.896-2,2c0-1.105-0.896-2-2-2h-5.366c-1.104,0-2,0.895-2,2v5.365c0,1.064,0.834,1.927,1.884,1.988
		c-1.049,0.062-1.884,0.923-1.884,1.988v5.365c0,1.104,0.896,2,2,2h5.366c1.104,0,2-0.896,2-2c0,1.104,0.896,2,2,2h5.366
		c1.104,0,2-0.896,2-2v-5.365c0-1.065-0.834-1.927-1.884-1.988C-34.294,34.203-33.459,33.342-33.459,32.276z"/>
	<circle fill="none" stroke="#0C6377" stroke-miterlimit="10" cx="68.284" cy="4.631" r="2.886"/>
	<circle fill="none" stroke="#0C6377" stroke-miterlimit="10" cx="35.383" cy="51.506" r="3.421"/>
	<circle fill="none" stroke="#0C6377" stroke-miterlimit="10" cx="7.552" cy="27.576" r="2.681"/>
	<line fill="none" stroke="#0C6377" stroke-miterlimit="10" x1="61.806" y1="84.089" x2="61.819" y2="79.196"/>
	<line fill="none" stroke="#0C6377" stroke-miterlimit="10" x1="69.811" y1="83.144" x2="66.754" y2="79.323"/>
	<line fill="none" stroke="#0C6377" stroke-miterlimit="10" x1="54.434" y1="83.19" x2="57.368" y2="79.276"/>
	<line fill="none" stroke="#0C6377" stroke-miterlimit="10" x1="79.398" y1="38.544" x2="77.139" y2="45.692"/>
	<line fill="none" stroke="#0C6377" stroke-miterlimit="10" x1="85.502" y1="38.909" x2="85.502" y2="46.406"/>
	<line fill="none" stroke="#0C6377" stroke-miterlimit="10" x1="92.107" y1="38.909" x2="92.107" y2="46.406"/>
	<line fill="none" stroke="#0C6377" stroke-miterlimit="10" x1="97.749" y1="38.625" x2="100.466" y2="45.611"/>
	<g>
		<path fill="none" stroke="#00B1E0" stroke-miterlimit="10" d="M4.269,89.575c-1.579,0-2.856-1.278-2.856-2.856v-7.662
			c0-1.575,1.277-2.855,2.856-2.855h7.662c1.577,0,2.856,1.28,2.856,2.855v7.662c0,1.578-1.279,2.856-2.856,2.856H4.269z"/>
		<path fill="none" stroke="#00B1E0" stroke-miterlimit="10" d="M17.643,89.575c-1.579,0-2.856-1.278-2.856-2.856v-7.662
			c0-1.575,1.277-2.855,2.856-2.855h7.662c1.577,0,2.856,1.28,2.856,2.855v7.662c0,1.578-1.279,2.856-2.856,2.856H17.643z"/>
		<path fill="none" stroke="#00B1E0" stroke-miterlimit="10" d="M4.268,76.201c-1.576,0-2.856-1.277-2.856-2.856v-7.661
			c0-1.579,1.28-2.856,2.856-2.856h7.663c1.577,0,2.856,1.277,2.856,2.856v7.661c0,1.579-1.279,2.856-2.856,2.856H4.268z"/>
		<path fill="none" stroke="#00B1E0" stroke-miterlimit="10" d="M4.268,62.827c-1.576,0-2.856-1.28-2.856-2.855v-7.664
			c0-1.576,1.28-2.856,2.856-2.856h7.663c1.577,0,2.856,1.28,2.856,2.856v7.664c0,1.575-1.279,2.855-2.856,2.855H4.268z"/>
	</g>
	<g>
		<path fill="#FFD41D" stroke="#FFD41D" stroke-miterlimit="10" d="M54.909,73.379c0,1.577-1.278,2.855-2.856,2.855h-7.661
			c-1.579,0-2.856-1.278-2.856-2.855v-7.662c0-1.577,1.278-2.855,2.856-2.855h7.661c1.579,0,2.856,1.278,2.856,2.855V73.379z"/>
		<path fill="#FFD41D" stroke="#FFD41D" stroke-miterlimit="10" d="M68.283,73.379c0,1.577-1.277,2.855-2.856,2.855h-7.662
			c-1.576,0-2.856-1.278-2.856-2.855v-7.662c0-1.577,1.28-2.855,2.856-2.855h7.662c1.579,0,2.856,1.278,2.856,2.855V73.379z"/>
		<path fill="#FFD41D" stroke="#FFD41D" stroke-miterlimit="10" d="M81.658,73.379c0,1.577-1.28,2.855-2.856,2.855h-7.664
			c-1.576,0-2.856-1.278-2.856-2.855v-7.662c0-1.577,1.28-2.855,2.856-2.855h7.664c1.576,0,2.856,1.278,2.856,2.855V73.379z"/>
		<path fill="#FFD41D" stroke="#FFD41D" stroke-miterlimit="10" d="M68.283,60.04c0,1.577-1.277,2.855-2.856,2.855h-7.662
			c-1.576,0-2.856-1.278-2.856-2.855v-7.663c0-1.577,1.28-2.856,2.856-2.856h7.662c1.579,0,2.856,1.279,2.856,2.856V60.04z"/>
	</g>
	<g>
		<path fill="#FF4E00" stroke="#FF4E00" stroke-miterlimit="10" d="M28.16,100.093c0,1.578-1.279,2.855-2.856,2.855h-7.662
			c-1.577,0-2.856-1.277-2.856-2.855v-7.662c0-1.578,1.279-2.855,2.856-2.855h7.662c1.577,0,2.856,1.277,2.856,2.855V100.093z"/>
		<path fill="#FF4E00" stroke="#FF4E00" stroke-miterlimit="10" d="M41.535,100.093c0,1.578-1.279,2.855-2.856,2.855h-7.662
			c-1.578,0-2.856-1.277-2.856-2.855v-7.662c0-1.578,1.279-2.855,2.856-2.855h7.662c1.577,0,2.856,1.277,2.856,2.855V100.093z"/>
		<path fill="#FF4E00" stroke="#FF4E00" stroke-miterlimit="10" d="M54.909,100.093c0,1.578-1.279,2.855-2.856,2.855h-7.662
			c-1.577,0-2.856-1.277-2.856-2.855v-7.662c0-1.578,1.279-2.855,2.856-2.855h7.662c1.578,0,2.856,1.277,2.856,2.855V100.093z"/>
		<path fill="#FF4E00" stroke="#FF4E00" stroke-miterlimit="10" d="M41.535,86.752c0,1.579-1.279,2.856-2.856,2.856h-7.662
			c-1.578,0-2.856-1.277-2.856-2.856v-7.661c0-1.576,1.279-2.856,2.856-2.856h7.662c1.577,0,2.856,1.28,2.856,2.856V86.752z"/>
	</g>
	<g>
		<path fill="none" stroke="#87DD00" stroke-miterlimit="10" d="M95.033,86.735c0,1.579-1.279,2.856-2.856,2.856h-7.662
			c-1.577,0-2.856-1.277-2.856-2.856v-7.661c0-1.579,1.279-2.856,2.856-2.856h7.662c1.577,0,2.856,1.277,2.856,2.856V86.735z"/>
		<path fill="none" stroke="#87DD00" stroke-miterlimit="10" d="M108.408,86.735c0,1.579-1.279,2.856-2.856,2.856h-7.663
			c-1.577,0-2.856-1.277-2.856-2.856v-7.661c0-1.579,1.279-2.856,2.856-2.856h7.663c1.577,0,2.856,1.277,2.856,2.856V86.735z"/>
		<path fill="none" stroke="#87DD00" stroke-miterlimit="10" d="M95.032,73.396c0,1.578-1.279,2.855-2.856,2.855h-7.662
			c-1.577,0-2.856-1.277-2.856-2.855v-7.662c0-1.578,1.279-2.855,2.856-2.855h7.662c1.577,0,2.856,1.277,2.856,2.855V73.396z"/>
		<path fill="none" stroke="#87DD00" stroke-miterlimit="10" d="M108.408,73.396c0,1.578-1.279,2.855-2.856,2.855h-7.663
			c-1.577,0-2.856-1.277-2.856-2.855v-7.662c0-1.575,1.279-2.855,2.856-2.855h7.663c1.577,0,2.856,1.28,2.856,2.855V73.396z"/>
	</g>
	<g>
		<path fill="#00B1E0" stroke="#00B1E0" stroke-miterlimit="10" d="M108.406,31.409c0,1.579-1.277,2.856-2.856,2.856h-7.662
			c-1.576,0-2.856-1.277-2.856-2.856v-7.662c0-1.577,1.28-2.856,2.856-2.856h7.662c1.579,0,2.856,1.279,2.856,2.856V31.409z"/>
		<path fill="#00B1E0" stroke="#00B1E0" stroke-miterlimit="10" d="M108.406,18.035c0,1.579-1.277,2.856-2.856,2.856h-7.662
			c-1.576,0-2.856-1.277-2.856-2.856v-7.662c0-1.577,1.28-2.856,2.856-2.856h7.662c1.579,0,2.856,1.279,2.856,2.856V18.035z"/>
		<path fill="#00B1E0" stroke="#00B1E0" stroke-miterlimit="10" d="M95.033,31.41c0,1.576-1.277,2.856-2.856,2.856h-7.662
			c-1.579,0-2.856-1.28-2.856-2.856v-7.663c0-1.577,1.277-2.856,2.856-2.856h7.662c1.579,0,2.856,1.279,2.856,2.856V31.41z"/>
		<path fill="#00B1E0" stroke="#00B1E0" stroke-miterlimit="10" d="M81.659,31.41c0,1.576-1.28,2.856-2.856,2.856h-7.664
			c-1.576,0-2.856-1.28-2.856-2.856v-7.663c0-1.577,1.28-2.856,2.856-2.856h7.664c1.576,0,2.856,1.279,2.856,2.856V31.41z"/>
	</g>
	<g>
		<path fill="none" stroke="#B115CC" stroke-miterlimit="10" d="M95.033,92.431c0-1.577,1.279-2.855,2.856-2.855h7.662
			c1.577,0,2.856,1.278,2.856,2.855v7.663c0,1.577-1.279,2.856-2.856,2.856h-7.662c-1.577,0-2.856-1.279-2.856-2.856V92.431z"/>
		<path fill="none" stroke="#B115CC" stroke-miterlimit="10" d="M81.658,92.431c0-1.577,1.279-2.855,2.856-2.855h7.663
			c1.577,0,2.856,1.278,2.856,2.855v7.663c0,1.577-1.279,2.856-2.856,2.856h-7.663c-1.577,0-2.856-1.279-2.856-2.856V92.431z"/>
		<path fill="none" stroke="#B115CC" stroke-miterlimit="10" d="M68.284,92.431c0-1.577,1.279-2.855,2.856-2.855h7.662
			c1.577,0,2.856,1.278,2.856,2.855v7.663c0,1.577-1.279,2.856-2.856,2.856H71.14c-1.577,0-2.856-1.279-2.856-2.856V92.431z"/>
		<path fill="none" stroke="#B115CC" stroke-miterlimit="10" d="M54.909,92.431c0-1.577,1.279-2.855,2.856-2.855h7.663
			c1.578,0,2.856,1.278,2.856,2.855v7.663c0,1.577-1.279,2.856-2.856,2.856h-7.663c-1.577,0-2.856-1.279-2.856-2.856V92.431z"/>
	</g>
</g>
</svg>
