<?xml version="1.0" encoding="utf-8"?>
<!-- Generator: Adobe Illustrator 16.0.0, SVG Export Plug-In . SVG Version: 6.00 Build 0)  -->
<!DOCTYPE svg PUBLIC "-//W3C//DTD SVG 1.1//EN" "http://www.w3.org/Graphics/SVG/1.1/DTD/svg11.dtd">
<svg version="1.1" id="레이어_1" xmlns="http://www.w3.org/2000/svg" xmlns:xlink="http://www.w3.org/1999/xlink" x="0px"
	 y="0px" width="100px" height="100px" viewBox="0 0 100 100" enable-background="new 0 0 100 100" xml:space="preserve">
<path fill="none" stroke="#ECECEC" stroke-width="2" stroke-miterlimit="10" d="M97.695,50c0,13.787-11.178,25-24.965,25H26.964
	C13.177,75,2,63.787,2,50l0,0c0-13.788,11.177-25,24.964-25H72.73C86.518,25,97.695,36.212,97.695,50L97.695,50z"/>
<g>
	<path fill="#666666" d="M32.286,46.089c0,0.667-0.129,1.316-0.39,1.95c-0.26,0.634-0.617,1.185-1.072,1.655h0.024
		c0.6,0.439,1.036,0.979,1.304,1.62c0.269,0.643,0.402,1.304,0.402,1.987v1.289c0,0.861-0.122,1.634-0.365,2.315
		c-0.244,0.684-0.585,1.259-1.024,1.73s-0.958,0.827-1.56,1.07c-0.601,0.244-1.266,0.366-1.998,0.366h-9.429V39.339h9.161
		c0.731,0,1.401,0.122,2.011,0.366c0.608,0.244,1.133,0.589,1.572,1.035c0.438,0.448,0.775,0.984,1.011,1.608
		c0.236,0.625,0.353,1.313,0.353,2.059V46.089z M21.76,47.965h4.921c0.275,0,0.536-0.06,0.779-0.183
		c0.245-0.123,0.459-0.284,0.646-0.487c0.187-0.204,0.332-0.442,0.439-0.72c0.105-0.275,0.158-0.568,0.158-0.876v-0.317
		c0-0.308-0.053-0.597-0.158-0.864c-0.107-0.269-0.253-0.507-0.439-0.719c-0.187-0.21-0.401-0.377-0.646-0.5
		c-0.243-0.122-0.504-0.183-0.779-0.183H21.76V47.965z M28.973,53.739c0-0.308-0.054-0.6-0.159-0.876
		c-0.106-0.275-0.252-0.517-0.438-0.72c-0.188-0.201-0.407-0.365-0.659-0.487c-0.252-0.122-0.515-0.183-0.792-0.183H21.76v4.776
		h5.165c0.276,0,0.539-0.063,0.792-0.184c0.253-0.121,0.472-0.284,0.659-0.489c0.186-0.2,0.332-0.441,0.438-0.716
		c0.105-0.277,0.159-0.579,0.159-0.903V53.739z"/>
	<path fill="#666666" d="M38.572,56.566h10.331v3.508H34.649V39.339h14.254v3.508H38.572v5.117h10.331v3.461H38.572V56.566z"/>
	<path fill="#666666" d="M61.208,47.21c0.86,0,1.66,0.163,2.4,0.487c0.739,0.326,1.376,0.779,1.911,1.364
		c0.538,0.585,0.955,1.28,1.256,2.083c0.301,0.807,0.451,1.68,0.451,2.62c0,0.895-0.138,1.729-0.415,2.498
		c-0.277,0.771-0.665,1.438-1.169,1.998c-0.505,0.562-1.106,1.003-1.803,1.327c-0.7,0.326-1.471,0.487-2.317,0.487h-9.451v-3.849
		h8.356c0.406,0,0.795-0.049,1.169-0.146c0.375-0.098,0.695-0.248,0.962-0.451c0.27-0.204,0.484-0.46,0.646-0.768
		c0.162-0.309,0.243-0.675,0.243-1.099c0-0.795-0.26-1.412-0.779-1.852c-0.52-0.438-1.169-0.657-1.949-0.657h-2.461
		c-1.04,0-1.982-0.113-2.825-0.342c-0.847-0.228-1.564-0.585-2.157-1.072c-0.594-0.487-1.053-1.116-1.378-1.888
		c-0.324-0.771-0.486-1.694-0.486-2.766c0-0.763,0.129-1.499,0.39-2.205c0.259-0.707,0.624-1.328,1.097-1.864
		c0.471-0.537,1.039-0.966,1.704-1.292c0.666-0.325,1.406-0.488,2.219-0.488h8.577v4.045h-6.991c-0.391,0-0.76,0.024-1.109,0.073
		c-0.349,0.049-0.653,0.144-0.913,0.28c-0.261,0.138-0.464,0.338-0.61,0.597c-0.146,0.261-0.218,0.61-0.218,1.047
		c0,0.52,0.17,0.956,0.512,1.304c0.341,0.35,0.813,0.524,1.412,0.524L61.208,47.21L61.208,47.21z"/>
	<path fill="#666666" d="M74.048,43.165h-5.311v-3.826h14.376v3.826h-5.36v16.909h-3.705V43.165z"/>
</g>
<text transform="matrix(1 0 0 1 18.4883 58.7842)" display="none" fill="#333333" enable-background="new    " font-family="'BMDoHyeon'" font-size="28">인 기</text>
<text transform="matrix(1 0 0 1 18.4883 58.7842)" display="none" fill="#333333" enable-background="new    " font-family="'BMDoHyeon'" font-size="28">경 제</text>
<text transform="matrix(1 0 0 1 18.4883 58.7842)" display="none" fill="#333333" enable-background="new    " font-family="'BMDoHyeon'" font-size="28">금 융</text>
<text transform="matrix(1 0 0 1 18.4883 58.7842)" display="none" fill="#333333" enable-background="new    " font-family="'BMDoHyeon'" font-size="28">주 식</text>
<text transform="matrix(1 0 0 1 18.4883 58.7842)" display="none" fill="#333333" enable-background="new    " font-family="'BMDoHyeon'" font-size="28">주 식</text>
<g id="Layer_1_copy" display="none">
	<path display="inline" fill="#1B87C9" stroke="#1B87C9" stroke-miterlimit="10" d="M97.5,50.5c0,13.807-11.178,25-24.965,25h-46.07
		C12.677,75.5,1.5,64.307,1.5,50.5l0,0c0-13.807,11.177-25,24.965-25h46.07C86.322,25.5,97.5,36.693,97.5,50.5L97.5,50.5z"/>
	<g display="inline">
		<path fill="#FFFFFF" d="M29.698,46.94c0,0.766-0.149,1.512-0.448,2.241c-0.299,0.728-0.709,1.362-1.232,1.903h0.028
			c0.69,0.504,1.19,1.125,1.498,1.861c0.308,0.738,0.462,1.498,0.462,2.283v1.482c0,0.99-0.14,1.876-0.42,2.66
			c-0.28,0.784-0.672,1.445-1.176,1.988c-0.504,0.541-1.102,0.951-1.792,1.23c-0.691,0.28-1.456,0.42-2.296,0.42H13.486V39.184
			h10.528c0.84,0,1.61,0.14,2.31,0.42c0.7,0.28,1.302,0.677,1.806,1.19c0.504,0.514,0.891,1.13,1.162,1.848
			c0.271,0.719,0.406,1.508,0.406,2.366V46.94z M17.603,49.096h5.656c0.317,0,0.616-0.069,0.896-0.21
			c0.28-0.14,0.527-0.326,0.742-0.56c0.214-0.233,0.382-0.508,0.504-0.826c0.121-0.317,0.182-0.653,0.182-1.008v-0.364
			c0-0.354-0.061-0.686-0.182-0.994c-0.122-0.308-0.29-0.583-0.504-0.826c-0.215-0.242-0.462-0.434-0.742-0.574
			c-0.28-0.14-0.579-0.21-0.896-0.21h-5.656V49.096z M25.891,55.732c0-0.354-0.061-0.69-0.182-1.008
			c-0.122-0.317-0.29-0.594-0.504-0.826c-0.215-0.233-0.467-0.42-0.756-0.562c-0.29-0.14-0.593-0.21-0.91-0.21h-5.936v5.488h5.936
			c0.317,0,0.62-0.07,0.91-0.21c0.29-0.14,0.542-0.326,0.756-0.562c0.214-0.232,0.382-0.508,0.504-0.824
			c0.121-0.317,0.182-0.664,0.182-1.037V55.732z"/>
		<path fill="#FFFFFF" d="M36.922,58.98h11.872v4.03h-16.38V39.184h16.38v4.032H36.922v5.879h11.872v3.978H36.922V58.98z"/>
		<path fill="#FFFFFF" d="M62.934,48.228c0.989,0,1.908,0.187,2.758,0.56c0.851,0.374,1.582,0.896,2.199,1.568
			c0.615,0.671,1.096,1.47,1.441,2.394s0.518,1.928,0.518,3.01c0,1.027-0.158,1.984-0.476,2.87
			c-0.317,0.888-0.767,1.652-1.345,2.296c-0.578,0.645-1.271,1.152-2.071,1.526c-0.804,0.373-1.69,0.56-2.66,0.56H52.434v-4.424
			h9.604c0.466,0,0.914-0.056,1.344-0.168c0.429-0.111,0.798-0.284,1.104-0.518c0.31-0.233,0.557-0.527,0.742-0.883
			c0.187-0.354,0.28-0.773,0.28-1.261c0-0.914-0.299-1.624-0.896-2.128c-0.598-0.504-1.344-0.756-2.239-0.756h-2.828
			c-1.194,0-2.278-0.13-3.248-0.393c-0.971-0.262-1.797-0.672-2.479-1.231c-0.682-0.56-1.209-1.283-1.582-2.17
			c-0.373-0.886-0.56-1.946-0.56-3.178c0-0.877,0.149-1.722,0.448-2.534c0.298-0.812,0.718-1.526,1.26-2.142
			c0.541-0.616,1.194-1.11,1.961-1.484c0.764-0.373,1.613-0.56,2.547-0.56h9.856v4.648h-8.036c-0.447,0-0.873,0.028-1.273,0.084
			c-0.401,0.056-0.752,0.164-1.051,0.322c-0.299,0.158-0.531,0.388-0.699,0.686c-0.168,0.299-0.252,0.7-0.252,1.204
			c0,0.597,0.195,1.097,0.588,1.498c0.393,0.402,0.934,0.602,1.623,0.602L62.934,48.228L62.934,48.228z"/>
		<path fill="#FFFFFF" d="M77.689,43.58h-6.104v-4.396h16.521v4.396h-6.16v19.432h-4.256V43.58z"/>
	</g>
	<text transform="matrix(1 0 0 1 18.4883 58.7842)" display="inline" fill="#333333" font-family="'BMDoHyeon'" font-size="28">인 기</text>
	<text transform="matrix(1 0 0 1 18.4883 58.7842)" display="inline" fill="#333333" font-family="'BMDoHyeon'" font-size="28">경 제</text>
	<text transform="matrix(1 0 0 1 18.4883 58.7842)" display="inline" fill="#333333" font-family="'BMDoHyeon'" font-size="28">금 융</text>
	<text transform="matrix(1 0 0 1 18.4883 58.7842)" display="inline" fill="#333333" font-family="'BMDoHyeon'" font-size="28">주 식</text>
	<text transform="matrix(1 0 0 1 18.4883 58.7842)" display="inline" fill="#333333" font-family="'BMDoHyeon'" font-size="28">주 식</text>
</g>
</svg>
