<?xml version="1.0" encoding="utf-8"?>
<!-- Generator: Adobe Illustrator 16.0.0, SVG Export Plug-In . SVG Version: 6.00 Build 0)  -->
<!DOCTYPE svg PUBLIC "-//W3C//DTD SVG 1.1//EN" "http://www.w3.org/Graphics/SVG/1.1/DTD/svg11.dtd">
<svg version="1.1" id="Layer_1" xmlns="http://www.w3.org/2000/svg" xmlns:xlink="http://www.w3.org/1999/xlink" x="0px" y="0px"
	 width="138.75px" height="112.5px" viewBox="0 0 138.75 112.5" enable-background="new 0 0 138.75 112.5" xml:space="preserve">
<path fill="#FFFFFF" stroke="#3EC483" stroke-width="2" stroke-miterlimit="10" d="M65.384,53.712
	c-0.071,0.375-0.556,0.596-1.084,0.496L40.321,29.883c-0.528-0.1-0.898-0.485-0.827-0.859L39.07,15.479
	c0.071-0.374,0.556-0.596,1.084-0.496l26.5,30.625c0.528,0.1,0.897,0.485,0.826,0.859L65.384,53.712z"/>
<path fill="#FFFFFF" stroke="#3EC483" stroke-width="2" stroke-miterlimit="10" d="M62.535,54.509c0,0.381-0.435,0.69-0.972,0.69
	L30.516,33.775c-0.537,0-0.972-0.309-0.972-0.69V21.863c0-0.381,0.435-0.69,0.972-0.69l31.047,21.423
	c0.537,0,0.972,0.309,0.972,0.69V54.509z"/>
<path fill="#FFFFFF" stroke="#3EC483" stroke-width="2" stroke-miterlimit="10" d="M65.422,55.249c0,0.381-0.564,0.69-1.26,0.69
	L23.915,39.556c-0.696,0-1.26-0.309-1.26-0.689V27.644c0-0.381,0.564-0.689,1.26-0.689l40.247,16.382c0.696,0,1.26,0.309,1.26,0.69
	V55.249z"/>
<path fill="#FFFFFF" stroke="#3EC483" stroke-width="2" stroke-miterlimit="10" d="M72.169,54.509c0,0.381,0.435,0.69,0.972,0.69
	l31.047-21.423c0.538,0,0.973-0.309,0.973-0.69V21.863c0-0.381-0.435-0.69-0.973-0.69L73.142,42.597
	c-0.537,0-0.972,0.309-0.972,0.69V54.509z"/>
<path fill="#FFFFFF" stroke="#3EC483" stroke-width="2" stroke-miterlimit="10" d="M69.282,55.249c0,0.381,0.564,0.69,1.26,0.69
	l40.248-16.383c0.696,0,1.26-0.309,1.26-0.689V27.644c0-0.381-0.564-0.689-1.26-0.689L70.542,43.337c-0.696,0-1.26,0.309-1.26,0.69
	V55.249z"/>
<path fill="#11D3D3" d="M111.987,31.412"/>
<rect x="61.432" y="42.304" fill="#FFFFFF" stroke="#3EC483" stroke-width="2" stroke-miterlimit="10" width="12.129" height="65.392"/>
<path fill="#3EC483" stroke="#3EC483" stroke-width="2" stroke-miterlimit="10" d="M117.983,97.613c0,0.697-0.461,1.261-1.03,1.261
	l-42.362,8.821c-0.569,0-1.03-0.563-1.03-1.26V43.433c0-0.696,0.461-1.26,1.03-1.26l42.362-8.821c0.569,0,1.03,0.564,1.03,1.26
	V97.613z"/>
<path fill="#3EC483" stroke="#3EC483" stroke-width="2" stroke-miterlimit="10" d="M16.853,97.613c0,0.697,0.461,1.261,1.03,1.261
	l42.362,8.821c0.569,0,1.03-0.563,1.03-1.26V43.433c0-0.696-0.461-1.26-1.03-1.26l-42.362-8.821c-0.569,0-1.03,0.564-1.03,1.26
	V97.613z"/>
<line fill="none" stroke="#D2E48E" stroke-width="2" stroke-miterlimit="10" x1="62.682" y1="53.787" x2="72.311" y2="53.787"/>
<line fill="none" stroke="#D2E48E" stroke-width="2" stroke-miterlimit="10" x1="62.682" y1="96.511" x2="72.311" y2="96.511"/>
<g>
	<path fill="#FFFFFF" stroke="#3EC483" stroke-width="2" stroke-miterlimit="10" d="M-61.271,28.662c0-0.553,0.447-1,1-1h7.521
		c0.552,0,1,0.447,1,1V78.32c0,0.553-0.448,1-1,1h-7.521c-0.553,0-1-0.447-1-1V28.662z"/>
	<line fill="none" stroke="#D2E48E" stroke-width="2" stroke-miterlimit="10" x1="-60.331" y1="35.767" x2="-52.69" y2="35.767"/>
	<line fill="none" stroke="#D2E48E" stroke-width="2" stroke-miterlimit="10" x1="-60.331" y1="72.018" x2="-52.69" y2="72.018"/>
</g>
<g>
	<path fill="#FFFFFF" stroke="#3EC483" stroke-width="2" stroke-miterlimit="10" d="M-49.021,28.662c0-0.553,0.447-1,1-1h7.521
		c0.552,0,1,0.447,1,1V78.32c0,0.553-0.448,1-1,1h-7.521c-0.553,0-1-0.447-1-1V28.662z"/>
	<line fill="none" stroke="#D2E48E" stroke-width="2" stroke-miterlimit="10" x1="-48.081" y1="35.767" x2="-40.44" y2="35.767"/>
	<line fill="none" stroke="#D2E48E" stroke-width="2" stroke-miterlimit="10" x1="-48.081" y1="72.018" x2="-40.44" y2="72.018"/>
</g>
<path fill="#D2E48E" stroke="#D2E48E" stroke-width="2" stroke-miterlimit="10" d="M109.083,59.529c0,0.696-0.564,1.26-1.26,1.26
	l-24.101,5.042c-0.696,0-1.26-0.563-1.26-1.261V52.664c0-0.697,0.564-1.26,1.26-1.26l24.101-5.041c0.696,0,1.26,0.564,1.26,1.26
	V59.529z"/>
<line fill="none" stroke="#D2E48E" stroke-width="2" stroke-linecap="round" stroke-miterlimit="10" x1="96.958" y1="69.634" x2="109.083" y2="67.099"/>
<path fill="#D2E48E" d="M116.395,23.635c0,0,18.662-11.777,18.139-14.049C134.534,9.586,134.886,5.46,116.395,23.635z"/>
<path fill="#D2E48E" d="M114.095,22.818c0,0,8.637-16.823,7.026-18.387C121.121,4.431,119.231,1.059,114.095,22.818z"/>
<path fill="#D2E48E" d="M117.624,26.029c0,0,17.91,3.122,18.814,1.168C136.438,27.197,138.89,24.454,117.624,26.029z"/>
<path fill="#D2E48E" d="M18.501,23.342c0,0-13.434-5.784-14.616-4.116C3.885,19.226,1.295,21.375,18.501,23.342z"/>
<path fill="#D2E48E" d="M21.661,20.251c0,0-10.11-17.314-12.976-16.669C8.685,3.582,3.769,3.493,21.661,20.251z"/>
<polygon fill="#D2E48E" points="47.767,38.314 52.969,39.397 52.969,60.822 50.353,57.042 47.767,60.822 "/>
</svg>
