<?xml version="1.0" encoding="utf-8"?>
<!-- Generator: Adobe Illustrator 16.0.0, SVG Export Plug-In . SVG Version: 6.00 Build 0)  -->
<!DOCTYPE svg PUBLIC "-//W3C//DTD SVG 1.1//EN" "http://www.w3.org/Graphics/SVG/1.1/DTD/svg11.dtd">
<svg version="1.1" id="Layer_1" xmlns="http://www.w3.org/2000/svg" xmlns:xlink="http://www.w3.org/1999/xlink" x="0px" y="0px"
	 width="128.167px" height="107.692px" viewBox="0 0 128.167 107.692" enable-background="new 0 0 128.167 107.692"
	 xml:space="preserve">
<path fill="#11D3D3" d="M100.313,94.69"/>
<path fill="none" stroke="#E68A82" stroke-miterlimit="10" d="M112.347,93.281c0,1.86-1.508,3.368-3.368,3.368H18.671
	c-1.86,0-3.368-1.508-3.368-3.368V37.707c0-1.86,1.508-3.368,3.368-3.368h90.308c1.86,0,3.368,1.508,3.368,3.368V93.281z"/>
<path fill="none" stroke="#E68A82" stroke-miterlimit="10" d="M100.348,51.6c0,1.86-1.508,3.368-3.368,3.368H30.67
	c-1.86,0-3.368-1.508-3.368-3.368v-6.104c0-1.86,1.508-3.369,3.368-3.369h66.31c1.86,0,3.368,1.508,3.368,3.369V51.6z"/>
<rect x="35.511" y="47.39" fill="#E68A82" width="1.684" height="7.579"/>
<rect x="42.248" y="45.496" fill="#E68A82" width="1.685" height="9.473"/>
<rect x="48.773" y="46.916" fill="#E68A82" width="1.684" height="8.525"/>
<rect x="56.352" y="47.153" fill="#E68A82" width="1.684" height="7.579"/>
<rect x="76.561" y="48.548" fill="#E68A82" width="1.684" height="6.42"/>
<rect x="83.297" y="45.496" fill="#E68A82" width="1.684" height="8.894"/>
<rect x="63.088" y="49.995" fill="#E68A82" width="1.685" height="4.736"/>
<rect x="69.614" y="46.68" fill="#E68A82" width="1.684" height="8.525"/>
<path fill="#E68A82" d="M42.248,61.209c-8.08,0-14.63,6.55-14.63,14.631c0,8.079,6.551,14.629,14.63,14.629
	c8.08,0,14.631-6.55,14.631-14.629C56.878,67.76,50.328,61.209,42.248,61.209z M42.248,80.546c-2.599,0-4.707-2.107-4.707-4.706
	c0-2.6,2.108-4.707,4.707-4.707c2.6,0,4.708,2.107,4.708,4.707C46.955,78.439,44.847,80.546,42.248,80.546z"/>
<path fill="#E68A82" d="M99.738,62.367c0,0.64-0.518,1.158-1.158,1.158H68.126c-0.64,0-1.158-0.519-1.158-1.158l0,0
	c0-0.64,0.519-1.158,1.158-1.158H98.58C99.22,61.209,99.738,61.728,99.738,62.367L99.738,62.367z"/>
<path fill="#E68A82" d="M99.738,69.073c0,0.639-0.518,1.157-1.158,1.157H68.126c-0.64,0-1.158-0.519-1.158-1.157l0,0
	c0-0.641,0.519-1.159,1.158-1.159H98.58C99.22,67.914,99.738,68.432,99.738,69.073L99.738,69.073z"/>
<path fill="#E68A82" d="M99.738,75.84c0,0.639-0.518,1.157-1.158,1.157H68.126c-0.64,0-1.158-0.519-1.158-1.157l0,0
	c0-0.641,0.519-1.158,1.158-1.158H98.58C99.22,74.682,99.738,75.2,99.738,75.84L99.738,75.84z"/>
<path fill="#E68A82" d="M99.738,82.86c0,0.641-0.518,1.158-1.158,1.158H68.126c-0.64,0-1.158-0.518-1.158-1.158l0,0
	c0-0.639,0.519-1.157,1.158-1.157H98.58C99.22,81.703,99.738,82.221,99.738,82.86L99.738,82.86z"/>
<path fill="#E68A82" d="M99.738,89.312c0,0.64-0.518,1.157-1.158,1.157H68.126c-0.64,0-1.158-0.518-1.158-1.157l0,0
	c0-0.64,0.519-1.157,1.158-1.157H98.58C99.22,88.155,99.738,88.672,99.738,89.312L99.738,89.312z"/>
<rect x="32.775" y="96.649" fill="#E68A82" width="17.683" height="3.367"/>
<rect x="78.245" y="96.649" fill="#E68A82" width="17.683" height="3.367"/>
<path fill="#E68A82" d="M83.976,15.503l-0.056-0.149c-0.492-1.311-1.956-1.976-3.269-1.482l-0.445,0.167
	c-1.099,0.413-1.732,1.505-1.624,2.621L29.458,34.338h8.05l41.604-16.286c0.656,0.899,1.844,1.297,2.936,0.887l0.446-0.167
	C83.806,18.279,84.469,16.816,83.976,15.503z"/>
<circle fill="none" stroke="#E68A82" stroke-miterlimit="10" cx="107.242" cy="24.497" r="2.579"/>
<circle fill="none" stroke="#E68A82" stroke-miterlimit="10" cx="5.83" cy="90.438" r="2.947"/>
<circle fill="none" stroke="#E68A82" stroke-miterlimit="10" cx="123.398" cy="73.809" r="2.421"/>
<line fill="none" stroke="#E68A82" stroke-miterlimit="10" x1="2.655" y1="52.23" x2="5.047" y2="54.682"/>
<line fill="none" stroke="#E68A82" stroke-miterlimit="10" x1="9.005" y1="52.274" x2="6.526" y2="54.638"/>
<line fill="none" stroke="#E68A82" stroke-miterlimit="10" x1="2.654" y1="58.653" x2="5.046" y2="56.202"/>
<line fill="none" stroke="#E68A82" stroke-miterlimit="10" x1="9.005" y1="58.609" x2="6.526" y2="56.245"/>
<line fill="none" stroke="#E68A82" stroke-miterlimit="10" x1="33.178" y1="15.495" x2="35.571" y2="17.946"/>
<line fill="none" stroke="#E68A82" stroke-miterlimit="10" x1="39.528" y1="15.539" x2="37.049" y2="17.903"/>
<line fill="none" stroke="#E68A82" stroke-miterlimit="10" x1="33.178" y1="21.918" x2="35.57" y2="19.466"/>
<line fill="none" stroke="#E68A82" stroke-miterlimit="10" x1="39.528" y1="21.874" x2="37.049" y2="19.51"/>
<line fill="none" stroke="#E68A82" stroke-miterlimit="10" x1="104.067" y1="100.016" x2="106.459" y2="102.467"/>
<line fill="none" stroke="#E68A82" stroke-miterlimit="10" x1="110.417" y1="100.059" x2="107.938" y2="102.424"/>
<line fill="none" stroke="#E68A82" stroke-miterlimit="10" x1="104.066" y1="106.441" x2="106.458" y2="103.987"/>
<line fill="none" stroke="#E68A82" stroke-miterlimit="10" x1="110.417" y1="106.395" x2="107.938" y2="104.032"/>
<path fill="none" stroke="#E68A82" stroke-width="0.8" stroke-miterlimit="10" d="M84.981,10.761c0,0,5.684,1.232,3.789,7.142"/>
<path fill="none" stroke="#E68A82" stroke-width="0.8" stroke-miterlimit="10" d="M84.981,6.551c0,0,9.894,1.411,7.789,12.915"/>
<path fill="none" stroke="#E68A82" stroke-width="0.8" stroke-miterlimit="10" d="M84.981,2.13c0,0,15.788,1.756,11.788,18.561"/>
<g>
	<path fill="#E68A82" d="M-44.551,63.495c-6.533,0-11.83,5.297-11.83,11.83s5.296,11.83,11.83,11.83s11.83-5.297,11.83-11.83
		S-38.018,63.495-44.551,63.495z M-44.551,78.618c-1.818,0-3.292-1.475-3.292-3.293s1.474-3.292,3.292-3.292
		s3.292,1.474,3.292,3.292S-42.732,78.618-44.551,78.618z"/>
	<path fill="none" stroke="#FFFFFF" stroke-width="0.8" stroke-miterlimit="10" d="M-41.973,71.327c0,0,2.451,0.56,2.399,3.998"/>
	<path fill="none" stroke="#FFFFFF" stroke-width="0.8" stroke-miterlimit="10" d="M-39.573,70.971c0,0,1.08,0.676,1.24,2.354"/>
	<path fill="none" stroke="#FFFFFF" stroke-width="0.8" stroke-miterlimit="10" d="M-48.14,77.713c0,0,0.44,1.119,1.719,1.719"/>
	<path fill="none" stroke="#FFFFFF" stroke-width="0.8" stroke-miterlimit="10" d="M-50.059,77.713c0,0,0.4,2.678,3.838,3.438"/>
	<path fill="none" stroke="#FFFFFF" stroke-width="0.8" stroke-miterlimit="10" d="M-52.045,77.088c0,0,0.616,5.2,6.433,5.869"/>
</g>
</svg>
