<?xml version="1.0" encoding="utf-8"?>
<!-- Generator: Adobe Illustrator 16.0.0, SVG Export Plug-In . SVG Version: 6.00 Build 0)  -->
<!DOCTYPE svg PUBLIC "-//W3C//DTD SVG 1.1//EN" "http://www.w3.org/Graphics/SVG/1.1/DTD/svg11.dtd">
<svg version="1.1" id="Layer_1" xmlns="http://www.w3.org/2000/svg" xmlns:xlink="http://www.w3.org/1999/xlink" x="0px" y="0px"
	 width="25px" height="25px" viewBox="0 0 25 25" enable-background="new 0 0 25 25" xml:space="preserve">
<path fill="#11D3D3" d="M80.698-41.317"/>
<path fill="none" stroke="#E68A82" stroke-miterlimit="10" d="M92.733-42.727c0,1.86-1.508,3.368-3.368,3.368H-0.943
	c-1.86,0-3.368-1.508-3.368-3.368v-55.574c0-1.86,1.508-3.368,3.368-3.368h90.308c1.86,0,3.368,1.508,3.368,3.368V-42.727z"/>
<path fill="none" stroke="#E68A82" stroke-miterlimit="10" d="M106.734-86.741c0,1.86-1.508,3.368-3.368,3.368h-66.31
	c-1.86,0-3.368-1.508-3.368-3.368v-6.104c0-1.86,1.508-3.369,3.368-3.369h66.31c1.86,0,3.368,1.508,3.368,3.369V-86.741z"/>
<rect x="41.897" y="-90.951" fill="#E68A82" width="1.684" height="7.579"/>
<rect x="48.633" y="-92.845" fill="#E68A82" width="1.685" height="9.473"/>
<rect x="55.159" y="-91.425" fill="#E68A82" width="1.684" height="8.525"/>
<rect x="62.737" y="-91.188" fill="#E68A82" width="1.684" height="7.579"/>
<rect x="82.946" y="-89.793" fill="#E68A82" width="1.684" height="6.42"/>
<rect x="89.683" y="-92.845" fill="#E68A82" width="1.684" height="8.894"/>
<rect x="69.474" y="-88.346" fill="#E68A82" width="1.685" height="4.736"/>
<rect x="76" y="-91.661" fill="#E68A82" width="1.684" height="8.525"/>
<path fill="#E68A82" d="M22.633-74.798c-8.08,0-14.63,6.55-14.63,14.63c0,8.08,6.551,14.63,14.63,14.63
	c8.08,0,14.631-6.55,14.631-14.63C37.264-68.248,30.713-74.798,22.633-74.798z M22.633-55.461c-2.599,0-4.707-2.107-4.707-4.707
	s2.108-4.707,4.707-4.707c2.6,0,4.708,2.108,4.708,4.707S25.233-55.461,22.633-55.461z"/>
<path fill="#E68A82" d="M106.124-75.974c0,0.64-0.518,1.158-1.158,1.158H74.512c-0.64,0-1.158-0.519-1.158-1.158l0,0
	c0-0.64,0.519-1.158,1.158-1.158h30.454C105.606-77.131,106.124-76.613,106.124-75.974L106.124-75.974z"/>
<path fill="#E68A82" d="M80.124-66.936c0,0.64-0.518,1.158-1.158,1.158H48.512c-0.64,0-1.158-0.518-1.158-1.158l0,0
	c0-0.64,0.519-1.158,1.158-1.158h30.454C79.606-68.094,80.124-67.576,80.124-66.936L80.124-66.936z"/>
<path fill="#E68A82" d="M80.124-60.168c0,0.64-0.518,1.158-1.158,1.158H48.512c-0.64,0-1.158-0.518-1.158-1.158l0,0
	c0-0.64,0.519-1.158,1.158-1.158h30.454C79.606-61.326,80.124-60.808,80.124-60.168L80.124-60.168z"/>
<path fill="#E68A82" d="M80.124-53.147c0,0.64-0.518,1.158-1.158,1.158H48.512c-0.64,0-1.158-0.518-1.158-1.158l0,0
	c0-0.64,0.519-1.158,1.158-1.158h30.454C79.606-54.305,80.124-53.787,80.124-53.147L80.124-53.147z"/>
<path fill="#E68A82" d="M80.124-46.696c0,0.64-0.518,1.158-1.158,1.158H48.512c-0.64,0-1.158-0.518-1.158-1.158l0,0
	c0-0.64,0.519-1.157,1.158-1.157h30.454C79.606-47.853,80.124-47.335,80.124-46.696L80.124-46.696z"/>
<rect x="13.161" y="-39.359" fill="#E68A82" width="17.683" height="3.368"/>
<rect x="58.63" y="-39.359" fill="#E68A82" width="17.683" height="3.368"/>
<path fill="#E68A82" d="M90.362-122.838l-0.056-0.149c-0.492-1.311-1.956-1.976-3.269-1.482l-0.445,0.167
	c-1.099,0.413-1.732,1.505-1.624,2.621l-49.125,17.679h8.05l41.604-16.286c0.656,0.899,1.844,1.297,2.936,0.887l0.446-0.167
	C90.191-120.062,90.854-121.525,90.362-122.838z"/>
<circle fill="none" stroke="#E68A82" stroke-miterlimit="10" cx="113.628" cy="-113.844" r="2.579"/>
<circle fill="none" stroke="#E68A82" stroke-miterlimit="10" cx="12.216" cy="-47.902" r="2.947"/>
<circle fill="none" stroke="#E68A82" stroke-miterlimit="10" cx="129.784" cy="-64.532" r="2.421"/>
<line fill="none" stroke="#E68A82" stroke-miterlimit="10" x1="9.041" y1="-86.111" x2="11.433" y2="-83.659"/>
<line fill="none" stroke="#E68A82" stroke-miterlimit="10" x1="15.391" y1="-86.067" x2="12.912" y2="-83.703"/>
<line fill="none" stroke="#E68A82" stroke-miterlimit="10" x1="9.04" y1="-79.688" x2="11.432" y2="-82.139"/>
<line fill="none" stroke="#E68A82" stroke-miterlimit="10" x1="15.391" y1="-79.732" x2="12.912" y2="-82.096"/>
<line fill="none" stroke="#E68A82" stroke-miterlimit="10" x1="39.564" y1="-122.846" x2="41.957" y2="-120.395"/>
<line fill="none" stroke="#E68A82" stroke-miterlimit="10" x1="45.914" y1="-122.802" x2="43.435" y2="-120.438"/>
<line fill="none" stroke="#E68A82" stroke-miterlimit="10" x1="39.563" y1="-116.422" x2="41.956" y2="-118.875"/>
<line fill="none" stroke="#E68A82" stroke-miterlimit="10" x1="45.914" y1="-116.467" x2="43.435" y2="-118.831"/>
<line fill="none" stroke="#E68A82" stroke-miterlimit="10" x1="84.453" y1="-35.991" x2="86.845" y2="-33.54"/>
<line fill="none" stroke="#E68A82" stroke-miterlimit="10" x1="90.803" y1="-35.948" x2="88.324" y2="-33.583"/>
<line fill="none" stroke="#E68A82" stroke-miterlimit="10" x1="84.452" y1="-29.567" x2="86.844" y2="-32.021"/>
<line fill="none" stroke="#E68A82" stroke-miterlimit="10" x1="90.803" y1="-29.613" x2="88.324" y2="-31.976"/>
<path fill="none" stroke="#E68A82" stroke-width="0.8" stroke-miterlimit="10" d="M91.367-127.58c0,0,5.684,1.232,3.789,7.142"/>
<path fill="none" stroke="#E68A82" stroke-width="0.8" stroke-miterlimit="10" d="M91.367-131.79c0,0,9.894,1.411,7.789,12.915"/>
<path fill="none" stroke="#E68A82" stroke-width="0.8" stroke-miterlimit="10" d="M91.367-136.21c0,0,15.788,1.756,11.788,18.561"/>
<g>
	<path fill="#E68A82" d="M12.5,0.67C5.967,0.67,0.67,5.967,0.67,12.5S5.967,24.33,12.5,24.33s11.83-5.297,11.83-11.83
		S19.033,0.67,12.5,0.67z M12.5,15.793c-1.818,0-3.292-1.475-3.292-3.293s1.474-3.293,3.292-3.293s3.292,1.475,3.292,3.293
		S14.318,15.793,12.5,15.793z"/>
	<path fill="none" stroke="#FFFFFF" stroke-width="0.8" stroke-miterlimit="10" d="M15.078,8.502c0,0,2.451,0.559,2.399,3.998"/>
	<path fill="none" stroke="#FFFFFF" stroke-width="0.8" stroke-miterlimit="10" d="M17.478,8.146c0,0,1.08,0.676,1.24,2.354"/>
	<path fill="none" stroke="#FFFFFF" stroke-width="0.8" stroke-miterlimit="10" d="M8.911,14.889c0,0,0.44,1.119,1.719,1.719"/>
	<path fill="none" stroke="#FFFFFF" stroke-width="0.8" stroke-miterlimit="10" d="M6.992,14.889c0,0,0.4,2.678,3.838,3.438"/>
	<path fill="none" stroke="#FFFFFF" stroke-width="0.8" stroke-miterlimit="10" d="M5.005,14.264c0,0,0.616,5.199,6.433,5.869"/>
</g>
</svg>
