<?xml version="1.0" encoding="utf-8"?>
<!-- Generator: Adobe Illustrator 16.0.0, SVG Export Plug-In . SVG Version: 6.00 Build 0)  -->
<!DOCTYPE svg PUBLIC "-//W3C//DTD SVG 1.1//EN" "http://www.w3.org/Graphics/SVG/1.1/DTD/svg11.dtd">
<svg version="1.1" id="Layer_1" xmlns="http://www.w3.org/2000/svg" xmlns:xlink="http://www.w3.org/1999/xlink" x="0px" y="0px"
	 width="200px" height="250px" viewBox="0 0 200 250" enable-background="new 0 0 200 250" xml:space="preserve">
<path fill="#333333" d="M-572.591,29.422h-66.352c-7.445,0-7.445-26.956,0-26.956h66.352c3.705,0,20.843,6.667,20.864,13.37
	C-551.708,22.611-568.847,29.422-572.591,29.422z"/>
<g>
	<path fill="#FFFFFF" d="M-613.417,21.426c-0.116,0-0.195-0.024-0.236-0.071c-0.042-0.047-0.063-0.134-0.063-0.261v-9.003
		l-0.962,0.925c-0.168,0.158-0.3,0.173-0.395,0.047l-0.931-1.057c-0.063-0.074-0.082-0.14-0.055-0.197
		c0.026-0.058,0.086-0.129,0.181-0.213l2.43-2.272c0.115-0.095,0.242-0.142,0.378-0.142h1.042c0.231,0,0.368,0.026,0.41,0.079
		s0.063,0.21,0.063,0.473v11.361c0,0.116-0.021,0.2-0.063,0.252s-0.121,0.079-0.237,0.079H-613.417z"/>
	<path fill="#FFFFFF" d="M-598.853,15.919c-0.442,0.095-0.958,0.181-1.546,0.26c-0.589,0.079-1.194,0.145-1.814,0.197
		s-1.228,0.087-1.822,0.103c-0.595,0.016-1.118,0.013-1.57-0.008c-0.378-0.011-0.66-0.082-0.844-0.213
		c-0.184-0.131-0.276-0.418-0.276-0.86V9.844c0-0.21,0.016-0.381,0.047-0.513c0.032-0.131,0.089-0.231,0.173-0.3
		c0.084-0.068,0.195-0.113,0.332-0.134s0.315-0.032,0.537-0.032h5.459c0.21,0,0.315,0.089,0.315,0.268v1.247
		c0,0.179-0.105,0.269-0.315,0.269h-4.134c-0.105,0-0.168,0.021-0.189,0.063s-0.031,0.095-0.031,0.158v3.613
		c0,0.168,0.084,0.252,0.252,0.252c0.768,0,1.583-0.032,2.446-0.095c0.862-0.063,1.746-0.173,2.65-0.331
		c0.158-0.032,0.258-0.026,0.3,0.016s0.074,0.105,0.095,0.189l0.174,1.01c0.021,0.147,0.016,0.245-0.016,0.292
		C-598.664,15.864-598.737,15.898-598.853,15.919z M-595.413,22.814h-8.6c-0.452,0-0.75-0.079-0.892-0.236
		c-0.142-0.158-0.213-0.458-0.213-0.899v-3.456c0-0.221,0.11-0.332,0.332-0.332h1.546c0.21,0,0.315,0.11,0.315,0.332v2.556
		c0,0.158,0.084,0.236,0.252,0.236h7.258c0.084,0,0.16,0.019,0.229,0.055c0.068,0.037,0.103,0.113,0.103,0.229v1.231
		c0,0.147-0.034,0.231-0.103,0.252C-595.253,22.804-595.329,22.814-595.413,22.814z M-593.772,14.231h-1.957v4.023
		c0,0.116-0.018,0.195-0.055,0.237c-0.037,0.042-0.113,0.063-0.229,0.063h-1.594c-0.116,0-0.197-0.021-0.245-0.063
		s-0.071-0.121-0.071-0.237V8.235c0-0.2,0.105-0.3,0.315-0.3h1.594c0.189,0,0.284,0.1,0.284,0.3v4.197h1.957
		c0.084,0,0.158,0.011,0.221,0.032s0.095,0.1,0.095,0.236v1.247c0,0.116-0.029,0.192-0.087,0.229
		C-593.602,14.213-593.678,14.231-593.772,14.231z"/>
	<path fill="#FFFFFF" d="M-586.593,16.977c-0.105,0-0.184-0.019-0.237-0.055c-0.053-0.037-0.079-0.129-0.079-0.276v-1.183
		c0-0.116,0.029-0.189,0.087-0.221c0.058-0.031,0.134-0.047,0.229-0.047h1.735v-2.035h-1.625c-0.389,1.252-1.021,2.422-1.894,3.511
		c-0.873,1.088-1.946,2.033-3.219,2.832c-0.126,0.084-0.221,0.119-0.284,0.103c-0.063-0.016-0.131-0.071-0.205-0.166l-0.726-1.01
		c-0.084-0.116-0.129-0.208-0.134-0.276c-0.005-0.068,0.05-0.139,0.166-0.213c0.673-0.442,1.275-0.931,1.807-1.467
		c0.531-0.537,0.989-1.094,1.373-1.673c0.384-0.578,0.689-1.165,0.915-1.759c0.226-0.594,0.365-1.16,0.418-1.696
		c0.032-0.273-0.074-0.41-0.315-0.41h-3.234c-0.211,0-0.316-0.1-0.316-0.3V9.466c0-0.21,0.105-0.315,0.316-0.315h4.544
		c0.495,0,0.821,0.092,0.979,0.276s0.236,0.513,0.236,0.986c0,0.168-0.005,0.331-0.016,0.489c-0.011,0.158-0.026,0.315-0.047,0.473
		h1.262V8.487c0-0.115,0.024-0.194,0.071-0.236s0.128-0.063,0.245-0.063h1.452c0.2,0,0.3,0.1,0.3,0.3v13.775
		c0,0.126-0.021,0.208-0.063,0.245c-0.042,0.037-0.121,0.055-0.236,0.055h-1.452c-0.116,0-0.197-0.016-0.245-0.047
		c-0.047-0.031-0.071-0.116-0.071-0.252v-5.286H-586.593z M-579.903,23.099h-1.562c-0.116,0-0.195-0.021-0.237-0.063
		c-0.042-0.042-0.063-0.121-0.063-0.237V8.235c0-0.115,0.024-0.194,0.071-0.236c0.047-0.042,0.128-0.063,0.244-0.063h1.546
		c0.116,0,0.195,0.021,0.237,0.063s0.063,0.121,0.063,0.236v14.564c0,0.116-0.021,0.194-0.063,0.237
		C-579.708,23.078-579.787,23.099-579.903,23.099z"/>
</g>
<circle fill="none" stroke="#ECECEC" stroke-width="8" stroke-miterlimit="10" cx="-598.127" cy="150.781" r="81.613"/>
<path fill="#333333" d="M-348.251,29.422h-66.352c-7.441,0-7.441-26.957,0-26.957h66.352c3.704,0,20.841,6.668,20.864,13.371
	C-327.368,22.612-344.509,29.422-348.251,29.422z"/>
<g>
	<path fill="#FFFFFF" d="M-392.168,21.426c-0.147,0-0.252-0.016-0.316-0.047c-0.063-0.032-0.095-0.121-0.095-0.269v-1.12
		c0-0.116,0.026-0.213,0.079-0.292c0.052-0.079,0.116-0.16,0.189-0.245l2.304-2.777c0.852-1.031,1.467-1.873,1.846-2.525
		c0.378-0.652,0.568-1.172,0.568-1.562c0-0.431-0.113-0.773-0.339-1.025s-0.55-0.4-0.97-0.442c-0.4-0.042-0.805,0-1.215,0.126
		c-0.41,0.126-0.868,0.332-1.373,0.616c-0.147,0.084-0.25,0.113-0.308,0.086c-0.058-0.026-0.097-0.086-0.118-0.181l-0.284-1.389
		c-0.021-0.084-0.019-0.152,0.008-0.205c0.026-0.052,0.103-0.121,0.229-0.205c0.2-0.137,0.426-0.26,0.678-0.371
		c0.252-0.111,0.513-0.206,0.781-0.284c0.268-0.079,0.534-0.137,0.797-0.174c0.263-0.037,0.5-0.055,0.71-0.055
		c0.505,0,0.98,0.074,1.428,0.221s0.833,0.366,1.16,0.655c0.326,0.29,0.584,0.649,0.773,1.081c0.189,0.432,0.284,0.931,0.284,1.499
		c0,0.495-0.105,0.989-0.316,1.483c-0.21,0.495-0.468,0.976-0.773,1.444c-0.305,0.468-0.634,0.915-0.986,1.341
		c-0.353,0.426-0.67,0.813-0.955,1.16c-0.179,0.231-0.392,0.484-0.639,0.757s-0.471,0.526-0.67,0.757h4.166
		c0.158,0,0.255,0.026,0.292,0.079c0.037,0.053,0.055,0.153,0.055,0.3v1.184c0,0.158-0.021,0.26-0.063,0.308
		c-0.042,0.047-0.137,0.071-0.284,0.071H-392.168z"/>
	<path fill="#FFFFFF" d="M-374.512,15.919c-0.442,0.095-0.958,0.181-1.546,0.26c-0.589,0.079-1.194,0.145-1.814,0.197
		s-1.228,0.087-1.822,0.103c-0.595,0.016-1.118,0.013-1.57-0.008c-0.378-0.011-0.66-0.082-0.844-0.213
		c-0.184-0.131-0.276-0.418-0.276-0.86V9.844c0-0.21,0.016-0.381,0.047-0.513c0.032-0.131,0.089-0.231,0.173-0.3
		c0.084-0.068,0.195-0.113,0.332-0.134s0.315-0.032,0.537-0.032h5.459c0.21,0,0.315,0.089,0.315,0.268v1.247
		c0,0.179-0.105,0.269-0.315,0.269h-4.134c-0.105,0-0.168,0.021-0.189,0.063s-0.031,0.095-0.031,0.158v3.613
		c0,0.168,0.084,0.252,0.252,0.252c0.768,0,1.583-0.032,2.446-0.095c0.862-0.063,1.746-0.173,2.65-0.331
		c0.158-0.032,0.258-0.026,0.3,0.016s0.074,0.105,0.095,0.189l0.174,1.01c0.021,0.147,0.016,0.245-0.016,0.292
		C-374.323,15.864-374.396,15.898-374.512,15.919z M-371.072,22.814h-8.6c-0.452,0-0.75-0.079-0.892-0.236
		c-0.142-0.158-0.213-0.458-0.213-0.899v-3.456c0-0.221,0.11-0.332,0.332-0.332h1.546c0.21,0,0.315,0.11,0.315,0.332v2.556
		c0,0.158,0.084,0.236,0.252,0.236h7.258c0.084,0,0.16,0.019,0.229,0.055c0.068,0.037,0.103,0.113,0.103,0.229v1.231
		c0,0.147-0.034,0.231-0.103,0.252C-370.912,22.804-370.988,22.814-371.072,22.814z M-369.432,14.231h-1.957v4.023
		c0,0.116-0.018,0.195-0.055,0.237c-0.037,0.042-0.113,0.063-0.229,0.063h-1.594c-0.116,0-0.197-0.021-0.245-0.063
		s-0.071-0.121-0.071-0.237V8.235c0-0.2,0.105-0.3,0.315-0.3h1.594c0.189,0,0.284,0.1,0.284,0.3v4.197h1.957
		c0.084,0,0.158,0.011,0.221,0.032s0.095,0.1,0.095,0.236v1.247c0,0.116-0.029,0.192-0.087,0.229
		C-369.261,14.213-369.337,14.231-369.432,14.231z"/>
	<path fill="#FFFFFF" d="M-362.252,16.977c-0.105,0-0.184-0.019-0.237-0.055c-0.053-0.037-0.079-0.129-0.079-0.276v-1.183
		c0-0.116,0.029-0.189,0.087-0.221c0.058-0.031,0.134-0.047,0.229-0.047h1.735v-2.035h-1.625c-0.389,1.252-1.021,2.422-1.894,3.511
		c-0.873,1.088-1.946,2.033-3.219,2.832c-0.126,0.084-0.221,0.119-0.284,0.103c-0.063-0.016-0.131-0.071-0.205-0.166l-0.726-1.01
		c-0.084-0.116-0.129-0.208-0.134-0.276c-0.005-0.068,0.05-0.139,0.166-0.213c0.673-0.442,1.275-0.931,1.807-1.467
		c0.531-0.537,0.989-1.094,1.373-1.673c0.384-0.578,0.689-1.165,0.915-1.759c0.226-0.594,0.365-1.16,0.418-1.696
		c0.032-0.273-0.074-0.41-0.315-0.41h-3.234c-0.211,0-0.316-0.1-0.316-0.3V9.466c0-0.21,0.105-0.315,0.316-0.315h4.544
		c0.495,0,0.821,0.092,0.979,0.276s0.236,0.513,0.236,0.986c0,0.168-0.005,0.331-0.016,0.489c-0.011,0.158-0.026,0.315-0.047,0.473
		h1.262V8.487c0-0.115,0.024-0.194,0.071-0.236s0.128-0.063,0.245-0.063h1.452c0.2,0,0.3,0.1,0.3,0.3v13.775
		c0,0.126-0.021,0.208-0.063,0.245c-0.042,0.037-0.121,0.055-0.236,0.055h-1.452c-0.116,0-0.197-0.016-0.245-0.047
		c-0.047-0.031-0.071-0.116-0.071-0.252v-5.286H-362.252z M-355.562,23.099h-1.562c-0.116,0-0.195-0.021-0.237-0.063
		c-0.042-0.042-0.063-0.121-0.063-0.237V8.235c0-0.115,0.024-0.194,0.071-0.236c0.047-0.042,0.128-0.063,0.244-0.063h1.546
		c0.116,0,0.195,0.021,0.237,0.063s0.063,0.121,0.063,0.236v14.564c0,0.116-0.021,0.194-0.063,0.237
		C-355.367,23.078-355.446,23.099-355.562,23.099z"/>
</g>
<circle fill="none" stroke="#ECECEC" stroke-width="8" stroke-miterlimit="10" cx="-373.786" cy="150.782" r="81.612"/>
<path fill="#333333" d="M-101.184,29.422h-66.353c-7.442,0-7.442-26.956,0-26.956h66.353c3.704,0,20.842,6.667,20.864,13.372
	C-80.3,22.61-97.441,29.422-101.184,29.422z"/>
<g>
	<path fill="#FFFFFF" d="M-137.894,17.892c0,0.537-0.097,1.036-0.292,1.499c-0.195,0.463-0.484,0.865-0.868,1.207
		s-0.857,0.607-1.42,0.797c-0.563,0.189-1.212,0.284-1.949,0.284c-0.442,0-0.915-0.04-1.42-0.119
		c-0.505-0.079-0.947-0.192-1.326-0.339c-0.147-0.053-0.236-0.116-0.268-0.189c-0.032-0.074-0.037-0.168-0.016-0.284l0.158-1.262
		c0.021-0.147,0.06-0.237,0.118-0.269c0.058-0.031,0.171-0.021,0.339,0.032c0.252,0.084,0.542,0.168,0.868,0.252
		c0.326,0.084,0.616,0.137,0.868,0.158c0.357,0.032,0.715,0.026,1.073-0.016c0.357-0.042,0.679-0.134,0.962-0.276
		c0.284-0.142,0.513-0.339,0.687-0.591c0.173-0.252,0.26-0.568,0.26-0.947c0-0.221-0.053-0.439-0.158-0.655
		c-0.105-0.216-0.266-0.408-0.481-0.576c-0.215-0.168-0.484-0.305-0.805-0.41c-0.321-0.105-0.697-0.158-1.128-0.158h-0.852
		c-0.137,0-0.224-0.021-0.26-0.063c-0.037-0.042-0.056-0.126-0.056-0.252V14.42c0-0.147,0.019-0.239,0.056-0.276
		c0.037-0.037,0.124-0.055,0.26-0.055h0.82c0.221,0,0.465-0.031,0.734-0.095c0.268-0.063,0.521-0.163,0.757-0.3
		c0.237-0.136,0.437-0.308,0.6-0.513s0.245-0.45,0.245-0.734c0-0.399-0.14-0.736-0.418-1.01c-0.279-0.273-0.702-0.41-1.27-0.41
		c-0.368,0-0.763,0.053-1.184,0.158c-0.42,0.105-0.799,0.231-1.136,0.379c-0.147,0.063-0.263,0.087-0.347,0.071
		c-0.084-0.016-0.137-0.097-0.158-0.245l-0.158-1.31c-0.021-0.105-0.014-0.184,0.023-0.237c0.037-0.052,0.134-0.11,0.292-0.173
		c0.442-0.179,0.899-0.329,1.373-0.45c0.474-0.121,0.936-0.182,1.389-0.182c0.463,0,0.925,0.063,1.389,0.189
		c0.462,0.126,0.878,0.318,1.246,0.576s0.666,0.589,0.892,0.994c0.226,0.405,0.339,0.881,0.339,1.428c0,0.305-0.055,0.6-0.166,0.884
		c-0.11,0.284-0.263,0.55-0.458,0.797c-0.195,0.247-0.426,0.468-0.694,0.663c-0.269,0.195-0.56,0.355-0.876,0.481
		c0.799,0.305,1.402,0.721,1.807,1.247C-138.096,16.824-137.894,17.355-137.894,17.892z"/>
	<path fill="#FFFFFF" d="M-127.448,15.919c-0.442,0.095-0.958,0.181-1.546,0.26c-0.589,0.079-1.194,0.145-1.814,0.197
		s-1.228,0.087-1.822,0.103c-0.595,0.016-1.118,0.013-1.57-0.008c-0.378-0.011-0.66-0.082-0.844-0.213
		c-0.184-0.131-0.276-0.418-0.276-0.86V9.844c0-0.21,0.016-0.381,0.047-0.513c0.032-0.131,0.089-0.231,0.173-0.3
		c0.084-0.068,0.195-0.113,0.332-0.134s0.315-0.032,0.537-0.032h5.459c0.21,0,0.315,0.089,0.315,0.268v1.247
		c0,0.179-0.105,0.269-0.315,0.269h-4.134c-0.105,0-0.168,0.021-0.189,0.063s-0.031,0.095-0.031,0.158v3.613
		c0,0.168,0.084,0.252,0.252,0.252c0.768,0,1.583-0.032,2.446-0.095c0.862-0.063,1.746-0.173,2.65-0.331
		c0.158-0.032,0.258-0.026,0.3,0.016s0.074,0.105,0.095,0.189l0.174,1.01c0.021,0.147,0.016,0.245-0.016,0.292
		C-127.259,15.864-127.333,15.898-127.448,15.919z M-124.008,22.814h-8.6c-0.452,0-0.75-0.079-0.892-0.236
		c-0.142-0.158-0.213-0.458-0.213-0.899v-3.456c0-0.221,0.11-0.332,0.332-0.332h1.546c0.21,0,0.315,0.11,0.315,0.332v2.556
		c0,0.158,0.084,0.236,0.252,0.236h7.258c0.084,0,0.16,0.019,0.229,0.055c0.068,0.037,0.103,0.113,0.103,0.229v1.231
		c0,0.147-0.034,0.231-0.103,0.252C-123.848,22.804-123.924,22.814-124.008,22.814z M-122.368,14.231h-1.957v4.023
		c0,0.116-0.018,0.195-0.055,0.237c-0.037,0.042-0.113,0.063-0.229,0.063h-1.594c-0.116,0-0.197-0.021-0.245-0.063
		s-0.071-0.121-0.071-0.237V8.235c0-0.2,0.105-0.3,0.315-0.3h1.594c0.189,0,0.284,0.1,0.284,0.3v4.197h1.957
		c0.084,0,0.158,0.011,0.221,0.032s0.095,0.1,0.095,0.236v1.247c0,0.116-0.029,0.192-0.087,0.229
		C-122.197,14.213-122.273,14.231-122.368,14.231z"/>
	<path fill="#FFFFFF" d="M-115.188,16.977c-0.105,0-0.184-0.019-0.237-0.055c-0.053-0.037-0.079-0.129-0.079-0.276v-1.183
		c0-0.116,0.029-0.189,0.087-0.221c0.058-0.031,0.134-0.047,0.229-0.047h1.735v-2.035h-1.625c-0.389,1.252-1.021,2.422-1.894,3.511
		c-0.873,1.088-1.946,2.033-3.219,2.832c-0.126,0.084-0.221,0.119-0.284,0.103c-0.063-0.016-0.131-0.071-0.205-0.166l-0.726-1.01
		c-0.084-0.116-0.129-0.208-0.134-0.276c-0.005-0.068,0.05-0.139,0.166-0.213c0.673-0.442,1.275-0.931,1.807-1.467
		c0.531-0.537,0.989-1.094,1.373-1.673c0.384-0.578,0.689-1.165,0.915-1.759c0.226-0.594,0.365-1.16,0.418-1.696
		c0.032-0.273-0.074-0.41-0.315-0.41h-3.234c-0.211,0-0.316-0.1-0.316-0.3V9.466c0-0.21,0.105-0.315,0.316-0.315h4.544
		c0.495,0,0.821,0.092,0.979,0.276s0.236,0.513,0.236,0.986c0,0.168-0.005,0.331-0.016,0.489c-0.011,0.158-0.026,0.315-0.047,0.473
		h1.262V8.487c0-0.115,0.024-0.194,0.071-0.236s0.128-0.063,0.245-0.063h1.452c0.2,0,0.3,0.1,0.3,0.3v13.775
		c0,0.126-0.021,0.208-0.063,0.245c-0.042,0.037-0.121,0.055-0.236,0.055h-1.452c-0.116,0-0.197-0.016-0.245-0.047
		c-0.047-0.031-0.071-0.116-0.071-0.252v-5.286H-115.188z M-108.498,23.099h-1.562c-0.116,0-0.195-0.021-0.237-0.063
		c-0.042-0.042-0.063-0.121-0.063-0.237V8.235c0-0.115,0.024-0.194,0.071-0.236c0.047-0.042,0.128-0.063,0.244-0.063h1.546
		c0.116,0,0.195,0.021,0.237,0.063s0.063,0.121,0.063,0.236v14.564c0,0.116-0.021,0.194-0.063,0.237
		C-108.303,23.078-108.382,23.099-108.498,23.099z"/>
</g>
<circle fill="none" stroke="#ECECEC" stroke-width="8" stroke-miterlimit="10" cx="-126.719" cy="150.78" r="81.614"/>
<path fill="#333333" d="M126.616,29.42h-66.35c-7.441,0-7.441-26.952,0-26.952h66.35c3.704,0,20.845,6.665,20.864,13.367
	C147.504,22.609,130.359,29.42,126.616,29.42z"/>
<g>
	<path fill="#FFFFFF" d="M89.076,18.775v2.304c0,0.179-0.019,0.292-0.055,0.339c-0.037,0.047-0.145,0.071-0.324,0.071h-1.31
		c-0.179,0-0.287-0.029-0.323-0.087c-0.037-0.058-0.055-0.166-0.055-0.323v-2.304h-4.813c-0.147,0-0.244-0.019-0.292-0.055
		c-0.047-0.037-0.071-0.124-0.071-0.261v-1.12c0-0.116,0.026-0.213,0.079-0.292c0.052-0.079,0.105-0.16,0.158-0.245
		c0.799-1.23,1.594-2.475,2.383-3.731c0.789-1.257,1.604-2.485,2.445-3.685c0.053-0.084,0.108-0.139,0.166-0.166
		c0.058-0.026,0.139-0.04,0.245-0.04h1.451c0.189,0,0.29,0.034,0.3,0.103c0.011,0.069,0.016,0.155,0.016,0.26v7.29h1.294
		c0.158,0,0.255,0.016,0.292,0.047c0.037,0.032,0.056,0.137,0.056,0.315v1.231c0,0.179-0.024,0.281-0.071,0.308
		s-0.14,0.04-0.276,0.04H89.076z M84.2,16.834h2.809v-4.339L84.2,16.834z"/>
	<path fill="#FFFFFF" d="M100.357,15.919c-0.442,0.095-0.958,0.181-1.546,0.26c-0.589,0.079-1.194,0.145-1.814,0.197
		s-1.228,0.087-1.822,0.103c-0.595,0.016-1.118,0.013-1.57-0.008c-0.378-0.011-0.66-0.082-0.844-0.213
		c-0.184-0.131-0.276-0.418-0.276-0.86V9.844c0-0.21,0.016-0.381,0.047-0.513c0.032-0.131,0.089-0.231,0.173-0.3
		c0.084-0.068,0.195-0.113,0.332-0.134s0.315-0.032,0.537-0.032h5.459c0.21,0,0.315,0.089,0.315,0.268v1.247
		c0,0.179-0.105,0.269-0.315,0.269h-4.134c-0.105,0-0.168,0.021-0.189,0.063s-0.031,0.095-0.031,0.158v3.613
		c0,0.168,0.084,0.252,0.252,0.252c0.768,0,1.583-0.032,2.446-0.095c0.862-0.063,1.746-0.173,2.65-0.331
		c0.158-0.032,0.258-0.026,0.301,0.016c0.041,0.042,0.073,0.105,0.094,0.189l0.174,1.01c0.021,0.147,0.016,0.245-0.016,0.292
		S100.473,15.898,100.357,15.919z M103.797,22.814h-8.599c-0.452,0-0.75-0.079-0.892-0.236c-0.142-0.158-0.213-0.458-0.213-0.899
		v-3.456c0-0.221,0.11-0.332,0.332-0.332h1.546c0.21,0,0.315,0.11,0.315,0.332v2.556c0,0.158,0.084,0.236,0.252,0.236h7.258
		c0.084,0,0.16,0.019,0.229,0.055c0.068,0.037,0.104,0.113,0.104,0.229v1.231c0,0.147-0.035,0.231-0.104,0.252
		C103.957,22.804,103.881,22.814,103.797,22.814z M105.438,14.231h-1.956v4.023c0,0.116-0.019,0.195-0.056,0.237
		c-0.036,0.042-0.112,0.063-0.229,0.063h-1.594c-0.115,0-0.197-0.021-0.244-0.063s-0.07-0.121-0.07-0.237V8.235
		c0-0.2,0.104-0.3,0.314-0.3h1.594c0.189,0,0.284,0.1,0.284,0.3v4.197h1.956c0.085,0,0.158,0.011,0.222,0.032s0.095,0.1,0.095,0.236
		v1.247c0,0.116-0.029,0.192-0.087,0.229C105.609,14.213,105.533,14.231,105.438,14.231z"/>
	<path fill="#FFFFFF" d="M112.617,16.977c-0.105,0-0.184-0.019-0.236-0.055c-0.053-0.037-0.079-0.129-0.079-0.276v-1.183
		c0-0.116,0.029-0.189,0.087-0.221c0.058-0.031,0.135-0.047,0.229-0.047h1.736v-2.035h-1.625c-0.39,1.252-1.021,2.422-1.895,3.511
		c-0.873,1.088-1.945,2.033-3.219,2.832c-0.126,0.084-0.221,0.119-0.283,0.103c-0.063-0.016-0.132-0.071-0.205-0.166l-0.727-1.01
		c-0.084-0.116-0.129-0.208-0.134-0.276c-0.005-0.068,0.05-0.139,0.165-0.213c0.674-0.442,1.275-0.931,1.807-1.467
		c0.531-0.537,0.989-1.094,1.373-1.673c0.385-0.578,0.689-1.165,0.916-1.759c0.226-0.594,0.365-1.16,0.418-1.696
		c0.031-0.273-0.074-0.41-0.316-0.41h-3.234c-0.211,0-0.315-0.1-0.315-0.3V9.466c0-0.21,0.104-0.315,0.315-0.315h4.545
		c0.494,0,0.82,0.092,0.979,0.276c0.157,0.184,0.236,0.513,0.236,0.986c0,0.168-0.006,0.331-0.016,0.489
		c-0.012,0.158-0.027,0.315-0.048,0.473h1.263V8.487c0-0.115,0.023-0.194,0.07-0.236c0.048-0.042,0.129-0.063,0.245-0.063h1.452
		c0.199,0,0.299,0.1,0.299,0.3v13.775c0,0.126-0.021,0.208-0.063,0.245c-0.043,0.037-0.121,0.055-0.236,0.055h-1.452
		c-0.116,0-0.197-0.016-0.245-0.047c-0.047-0.031-0.07-0.116-0.07-0.252v-5.286H112.617z M119.308,23.099h-1.562
		c-0.116,0-0.195-0.021-0.237-0.063c-0.042-0.042-0.063-0.121-0.063-0.237V8.235c0-0.115,0.024-0.194,0.072-0.236
		c0.047-0.042,0.128-0.063,0.244-0.063h1.546c0.116,0,0.194,0.021,0.237,0.063c0.041,0.042,0.063,0.121,0.063,0.236v14.564
		c0,0.116-0.021,0.194-0.063,0.237C119.502,23.078,119.424,23.099,119.308,23.099z"/>
</g>
<circle fill="none" stroke="#ECECEC" stroke-width="8" stroke-miterlimit="10" cx="101.083" cy="150.781" r="81.613"/>
<path fill="#333333" d="M344.422,29.421h-66.354c-7.441,0-7.441-26.954,0-26.954h66.354c3.702,0,20.845,6.666,20.864,13.37
	C365.309,22.61,348.163,29.421,344.422,29.421z"/>
<g>
	<path fill="#FFFFFF" d="M306.672,20.479c-0.389,0.357-0.857,0.621-1.404,0.789c-0.547,0.168-1.119,0.252-1.719,0.252
		c-0.189,0-0.402-0.013-0.641-0.039c-0.236-0.026-0.473-0.063-0.709-0.111c-0.236-0.047-0.463-0.103-0.68-0.166
		c-0.215-0.063-0.396-0.131-0.543-0.205c-0.084-0.042-0.141-0.079-0.166-0.11c-0.027-0.032-0.039-0.105-0.039-0.221v-1.483
		c0-0.126,0.023-0.205,0.07-0.237c0.047-0.031,0.123-0.026,0.229,0.016c0.158,0.063,0.342,0.124,0.553,0.182
		c0.211,0.058,0.432,0.113,0.662,0.166c0.232,0.053,0.469,0.095,0.711,0.126s0.467,0.047,0.678,0.047
		c0.621,0,1.129-0.184,1.523-0.552s0.592-0.868,0.592-1.499c0-0.589-0.16-1.073-0.482-1.452c-0.32-0.379-0.865-0.568-1.633-0.568
		c-0.305,0-0.645,0.034-1.018,0.103s-0.717,0.16-1.033,0.276c-0.094,0.042-0.189,0.077-0.283,0.103
		c-0.096,0.026-0.18,0.032-0.254,0.016c-0.072-0.016-0.131-0.063-0.174-0.142c-0.041-0.079-0.063-0.203-0.063-0.371l0.08-5.854
		c0-0.158,0.031-0.257,0.094-0.3c0.063-0.042,0.184-0.063,0.363-0.063h5.727c0.127,0,0.209,0.024,0.246,0.071
		c0.035,0.047,0.055,0.129,0.055,0.245v1.31c0,0.116-0.016,0.2-0.047,0.252c-0.033,0.053-0.117,0.079-0.254,0.079h-4.102
		l-0.063,2.572c0.178-0.042,0.365-0.071,0.559-0.087c0.195-0.016,0.383-0.024,0.561-0.024c0.537,0,1.039,0.082,1.508,0.245
		c0.467,0.164,0.875,0.4,1.223,0.71c0.348,0.311,0.621,0.694,0.82,1.152c0.199,0.458,0.299,0.981,0.299,1.57
		C307.918,18.622,307.504,19.689,306.672,20.479z"/>
	<path fill="#FFFFFF" d="M318.158,15.918c-0.441,0.095-0.957,0.181-1.545,0.26c-0.59,0.079-1.195,0.145-1.814,0.197
		c-0.621,0.053-1.229,0.087-1.824,0.103c-0.594,0.016-1.117,0.013-1.568-0.008c-0.379-0.011-0.66-0.082-0.846-0.213
		c-0.184-0.131-0.275-0.418-0.275-0.86V9.843c0-0.21,0.016-0.381,0.047-0.513c0.031-0.131,0.09-0.231,0.174-0.3
		c0.084-0.068,0.195-0.113,0.332-0.134s0.314-0.032,0.535-0.032h5.461c0.209,0,0.314,0.089,0.314,0.268v1.247
		c0,0.179-0.105,0.269-0.314,0.269h-4.135c-0.105,0-0.168,0.021-0.189,0.063s-0.031,0.095-0.031,0.158v3.613
		c0,0.168,0.084,0.252,0.252,0.252c0.768,0,1.584-0.032,2.445-0.095c0.863-0.063,1.746-0.173,2.652-0.331
		c0.156-0.032,0.258-0.026,0.299,0.016c0.043,0.042,0.074,0.105,0.096,0.189l0.172,1.01c0.021,0.147,0.018,0.245-0.016,0.292
		C318.348,15.863,318.273,15.897,318.158,15.918z M321.598,22.813H313c-0.453,0-0.75-0.079-0.893-0.236
		c-0.143-0.158-0.213-0.458-0.213-0.899v-3.456c0-0.221,0.111-0.332,0.332-0.332h1.545c0.211,0,0.316,0.11,0.316,0.332v2.556
		c0,0.158,0.084,0.236,0.252,0.236h7.258c0.084,0,0.16,0.019,0.23,0.055c0.068,0.037,0.102,0.113,0.102,0.229v1.231
		c0,0.147-0.033,0.231-0.102,0.252C321.758,22.803,321.682,22.813,321.598,22.813z M323.24,14.23h-1.957v4.023
		c0,0.116-0.02,0.195-0.055,0.237c-0.037,0.042-0.113,0.063-0.23,0.063h-1.594c-0.115,0-0.195-0.021-0.244-0.063
		c-0.047-0.042-0.07-0.121-0.07-0.237V8.234c0-0.2,0.105-0.3,0.314-0.3h1.594c0.189,0,0.285,0.1,0.285,0.3v4.197h1.957
		c0.084,0,0.156,0.011,0.221,0.032c0.063,0.021,0.094,0.1,0.094,0.236v1.247c0,0.116-0.029,0.192-0.086,0.229
		C323.41,14.212,323.334,14.23,323.24,14.23z"/>
	<path fill="#FFFFFF" d="M330.418,16.976c-0.104,0-0.184-0.019-0.236-0.055c-0.053-0.037-0.078-0.129-0.078-0.276v-1.183
		c0-0.116,0.029-0.189,0.086-0.221c0.059-0.031,0.135-0.047,0.229-0.047h1.736v-2.035h-1.625c-0.389,1.252-1.02,2.422-1.893,3.511
		c-0.875,1.088-1.947,2.033-3.221,2.832c-0.125,0.084-0.221,0.119-0.283,0.103c-0.063-0.016-0.131-0.071-0.205-0.166l-0.727-1.01
		c-0.084-0.116-0.129-0.208-0.133-0.276c-0.006-0.068,0.049-0.139,0.166-0.213c0.672-0.442,1.275-0.931,1.807-1.467
		c0.529-0.537,0.988-1.094,1.371-1.673c0.385-0.578,0.689-1.165,0.916-1.759c0.227-0.594,0.365-1.16,0.418-1.696
		c0.031-0.273-0.074-0.41-0.314-0.41h-3.236c-0.209,0-0.314-0.1-0.314-0.3V9.465c0-0.21,0.105-0.315,0.314-0.315h4.545
		c0.494,0,0.82,0.092,0.979,0.276s0.236,0.513,0.236,0.986c0,0.168-0.006,0.331-0.016,0.489c-0.01,0.158-0.025,0.315-0.047,0.473
		h1.262V8.486c0-0.115,0.023-0.194,0.07-0.236c0.049-0.042,0.129-0.063,0.246-0.063h1.451c0.199,0,0.299,0.1,0.299,0.3v13.775
		c0,0.126-0.02,0.208-0.063,0.245c-0.041,0.037-0.121,0.055-0.236,0.055h-1.451c-0.117,0-0.197-0.016-0.246-0.047
		c-0.047-0.031-0.07-0.116-0.07-0.252v-5.286H330.418z M337.109,23.098h-1.563c-0.115,0-0.195-0.021-0.236-0.063
		c-0.043-0.042-0.063-0.121-0.063-0.237V8.234c0-0.115,0.023-0.194,0.07-0.236s0.129-0.063,0.244-0.063h1.547
		c0.115,0,0.193,0.021,0.236,0.063c0.041,0.042,0.063,0.121,0.063,0.236v14.564c0,0.116-0.021,0.194-0.063,0.237
		C337.303,23.077,337.225,23.098,337.109,23.098z"/>
</g>
<circle fill="none" stroke="#ECECEC" stroke-width="8" stroke-miterlimit="10" cx="318.887" cy="150.782" r="81.614"/>
<text transform="matrix(1 0 0 1 362.0566 -275.999)" fill="#333333" font-family="'NanumGothicExtraBold'" font-size="20.6616">사전 인터뷰</text>
<text transform="matrix(1 0 0 1 344.1455 -177.3906)" fill="#333333" font-family="'NanumGothicExtraBold'" font-size="20.6616">재무설계안 실행</text>
<text transform="matrix(1 0 0 1 333.2275 -140.3711)" fill="#333333" font-family="'NanumGothicExtraBold'" font-size="20.6616">지속적인 모니터링</text>
<text transform="matrix(1 0 0 1 372.8154 -242.8701)" fill="#333333" font-family="'NanumGothicExtraBold'" font-size="20.6616">1차미팅</text>
<text transform="matrix(1 0 0 1 372.8154 -209.6914)" fill="#333333" font-family="'NanumGothicExtraBold'" font-size="20.6616">2차미팅</text>
<g opacity="0.9">
	<path fill="#D9463A" d="M-593.225,132.047c2.039,4.811-0.21,10.367-5.021,12.406c-4.816,2.037-10.369-0.213-12.407-5.025
		c-2.038-4.814,0.213-10.368,5.022-12.406C-600.817,124.984-595.264,127.234-593.225,132.047z"/>
	<path fill="#D9463A" d="M-592.771,143.945c0.199,0.469-0.02,1.006-0.484,1.203l-8.167,3.457c-0.466,0.199-1.002-0.02-1.2-0.486l0,0
		c-0.197-0.465,0.021-1.002,0.486-1.199l8.166-3.459C-593.503,143.264-592.969,143.48-592.771,143.945L-592.771,143.945z"/>
	
		<rect x="-584.482" y="174.128" transform="matrix(0.9211 -0.3894 0.3894 0.9211 -115.6969 -213.23)" fill="#D9463A" width="1.304" height="9.301"/>
	<path fill="#D9463A" d="M-663.149,178.205h48.313c0-23.635-10.953-30.635-18.108-32.691c4.876-2.283,8.262-7.217,8.262-12.955
		c0-7.903-6.407-14.31-14.311-14.31s-14.311,6.407-14.311,14.31c0,5.717,3.361,10.637,8.208,12.93
		C-663.147,150.598-663.149,178.205-663.149,178.205z"/>
	<path fill="#D9463A" d="M-533.104,178.205c0-23.635-10.952-30.635-18.106-32.691c4.877-2.281,8.262-7.217,8.262-12.955
		c0-7.903-6.408-14.31-14.313-14.31c-7.901,0-14.309,6.407-14.309,14.31c0,5.717,3.361,10.637,8.207,12.928
		c-3.758,1.064-6.725,3.111-9.08,5.674h-18.223v0.002l-1.583-3.74c-0.964-2.273-9.201,1.217-8.237,3.49l9.546,22.545
		c0.964,2.275,3.589,3.338,5.862,2.375c2.276-0.963,3.338-3.588,2.375-5.863l-4.643-10.965h9.929
		c-3.99,9.111-3.999,19.201-3.999,19.201H-533.104z"/>
	<polygon fill="#FFFFFF" points="-554.478,150.91 -557.343,148.635 -553.938,147.291 -550.534,145.947 -551.072,149.566 
		-551.612,153.186 	"/>
	<polygon fill="#FFFFFF" points="-563.557,149.42 -563.14,153.055 -560.201,150.877 -557.26,148.699 -560.616,147.242 
		-563.974,145.783 	"/>
</g>
<g opacity="0.9">
	<path fill="#6C411A" d="M353.488,103.732L342.403,125.6l-7.435-3.768l-0.637-0.324l-3.605-1.828l-0.638-0.322l-7.433-3.769
		l11.084-21.868c0,0-35.58,4.382-17.245,38.76l-31.803,53.264c0,0-7.936,10.388-2.413,13.187l7.008,3.553l2.758,1.397l7.008,3.553
		c5.521,2.799,9.209-9.742,9.209-9.742l24.159-57.138C370.987,135.019,353.488,103.732,353.488,103.732z"/>
</g>
<circle fill="#FFFFFF" cx="297.272" cy="192.78" r="6.555"/>
<g opacity="0.9">
	<polygon fill="#0A74B6" points="114.047,141.518 104.209,130.586 104.209,136.887 81.243,136.887 81.243,164.674 104.209,164.674 
		104.209,170.977 114.047,160.045 122.215,150.783 	"/>
	<polygon fill="#0A74B6" points="163.965,141.518 154.127,130.586 154.127,136.887 131.16,136.887 131.16,164.674 154.127,164.674 
		154.127,170.977 163.965,160.045 172.131,150.783 	"/>
	<polygon fill="#0A74B6" points="62.84,141.518 53.002,130.586 53.002,136.887 30.035,136.887 30.035,164.674 53.002,164.674 
		53.002,170.977 62.84,160.045 71.006,150.783 	"/>
	<polygon fill="#FFFFFF" points="104.609,147.863 101.51,144.42 101.51,146.404 94.275,146.404 94.275,155.158 101.51,155.158 
		101.51,157.143 104.609,153.699 107.182,150.781 	"/>
	<polygon fill="#FFFFFF" points="53.401,147.863 50.302,144.42 50.302,146.404 43.067,146.404 43.067,155.158 50.302,155.158 
		50.302,157.143 53.401,153.699 55.974,150.781 	"/>
	<polygon fill="#FFFFFF" points="154.525,147.863 151.428,144.42 151.428,146.404 144.191,146.404 144.191,155.158 151.428,155.158 
		151.428,157.143 154.525,153.699 157.1,150.781 	"/>
</g>
<path opacity="0.9" fill="#F7B143" d="M-438.193,193.977h40.086c0-19.612-9.087-25.42-15.023-27.127
	c4.045-1.893,6.854-5.988,6.854-10.748c0-6.559-5.314-11.875-11.873-11.875c-6.558,0-11.874,5.316-11.874,11.875
	c0,4.743,2.789,8.824,6.809,10.727C-438.192,171.07-438.193,193.977-438.193,193.977z"/>
<path opacity="0.9" fill="#F7B143" d="M-357.691,167.546h48.313c0-23.639-10.953-30.638-18.107-32.694
	c4.875-2.28,8.262-7.216,8.262-12.955c0-7.902-6.41-14.31-14.311-14.31c-7.902,0-14.311,6.408-14.311,14.31
	c0,5.718,3.359,10.636,8.205,12.929C-357.691,139.938-357.691,167.546-357.691,167.546z"/>
<path opacity="0.9" fill="#F7B143" d="M-366.748,155.467c0,3.828-3.105,6.934-6.932,6.934h-17.799c-2.263,0-4.273-1.088-5.538-2.77
	c-0.338-0.449-5.497,1.299-5.72,0.773c-0.353-0.83,4.329-3.98,4.329-4.938v-1.765v-2.544c0-3.827,3.104-6.932,6.929-6.932h17.799
	c3.826,0,6.932,3.104,6.932,6.932V155.467z"/>
<path opacity="0.9" fill="#F7B143" d="M-399.314,124.872c0,4.866,3.946,8.811,8.812,8.811h22.614c2.879,0,5.436-1.382,7.043-3.519
	c0.43-0.572,6.984,1.65,7.266,0.982c0.449-1.053-5.498-5.059-5.498-6.274v-2.244v-3.23c0-4.867-3.945-8.811-8.811-8.811h-22.614
	c-4.865,0-8.812,3.944-8.812,8.811V124.872z"/>
<g>
	<path fill="#FFFFFF" d="M-386.027,126.236c-0.091,0-0.152-0.02-0.186-0.057s-0.05-0.105-0.05-0.205v-7.074l-0.756,0.727
		c-0.133,0.124-0.235,0.136-0.311,0.037l-0.731-0.831c-0.049-0.058-0.063-0.109-0.043-0.155c0.021-0.045,0.068-0.101,0.143-0.167
		l1.909-1.785c0.091-0.075,0.189-0.112,0.298-0.112h0.817c0.182,0,0.29,0.021,0.322,0.062c0.033,0.042,0.05,0.166,0.05,0.372v8.926
		c0,0.091-0.017,0.157-0.05,0.198c-0.032,0.041-0.095,0.063-0.186,0.063H-386.027z"/>
	<path fill="#FFFFFF" d="M-375.514,119.554c-0.239,0.703-0.595,1.376-1.065,2.021c0.347,0.372,0.715,0.708,1.103,1.01
		c0.389,0.302,0.736,0.547,1.042,0.738c0.091,0.066,0.13,0.134,0.117,0.204c-0.012,0.07-0.047,0.147-0.105,0.229l-0.532,0.769
		c-0.066,0.091-0.141,0.126-0.224,0.105c-0.083-0.021-0.178-0.064-0.285-0.13c-0.124-0.074-0.271-0.175-0.44-0.304
		c-0.169-0.128-0.349-0.271-0.539-0.427c-0.19-0.157-0.38-0.325-0.57-0.502c-0.189-0.177-0.367-0.353-0.533-0.527
		c-0.438,0.446-0.921,0.864-1.45,1.252c-0.528,0.388-1.104,0.735-1.723,1.041c-0.092,0.042-0.159,0.06-0.205,0.056
		c-0.045-0.004-0.093-0.047-0.143-0.13l-0.508-0.818c-0.066-0.091-0.087-0.165-0.063-0.223c0.025-0.058,0.07-0.107,0.137-0.148
		c1.024-0.579,1.88-1.211,2.566-1.897c0.686-0.686,1.182-1.359,1.487-2.021c0.024-0.058,0.037-0.114,0.037-0.167
		s-0.058-0.081-0.174-0.081h-3.087c-0.115,0-0.184-0.025-0.204-0.074c-0.021-0.05-0.031-0.116-0.031-0.199v-0.893
		c0-0.165,0.083-0.248,0.248-0.248h4.203c0.322,0,0.574,0.064,0.756,0.192c0.182,0.128,0.272,0.325,0.272,0.589
		c0,0.074-0.004,0.166-0.012,0.273C-375.448,119.352-375.472,119.455-375.514,119.554z M-376.494,117.496h-3.247
		c-0.066,0-0.127-0.017-0.181-0.05c-0.054-0.033-0.08-0.103-0.08-0.21v-0.855c0-0.107,0.026-0.178,0.08-0.211
		c0.054-0.033,0.114-0.049,0.181-0.049h3.247c0.183,0,0.273,0.091,0.273,0.272v0.831
		C-376.22,117.405-376.311,117.496-376.494,117.496z M-370.592,121.488h-1.537v5.801c0,0.1-0.015,0.164-0.043,0.193
		c-0.029,0.028-0.09,0.043-0.181,0.043h-1.252c-0.091,0-0.154-0.015-0.191-0.043c-0.038-0.029-0.057-0.094-0.057-0.193v-11.417
		c0-0.091,0.019-0.153,0.057-0.186c0.037-0.033,0.101-0.05,0.191-0.05h1.252c0.091,0,0.151,0.017,0.181,0.05
		c0.028,0.033,0.043,0.095,0.043,0.186v4.203h1.537c0.074,0,0.135,0.01,0.18,0.031c0.046,0.021,0.068,0.089,0.068,0.205v0.942
		c0,0.099-0.022,0.163-0.068,0.192C-370.458,121.474-370.518,121.488-370.592,121.488z"/>
</g>
<polygon fill="#FFFFFF" points="-330.76,140.331 -333.625,138.055 -330.221,136.712 -326.816,135.369 -327.354,138.988 
	-327.895,142.607 "/>
<polygon fill="#FFFFFF" points="-339.838,138.841 -339.422,142.477 -336.482,140.299 -333.541,138.12 -336.898,136.664 
	-340.256,135.205 "/>
<path fill="#90C141" d="M-189.541,193.976h40.088c0-19.612-9.088-25.42-15.024-27.127c4.045-1.893,6.854-5.988,6.854-10.748
	c0-6.559-5.316-11.874-11.874-11.874c-6.557,0-11.873,5.315-11.873,11.874c0,4.742,2.789,8.822,6.809,10.727
	C-189.539,171.069-189.541,193.976-189.541,193.976z"/>
<path fill="#90C141" d="M-112.21,167.546h48.313c0-23.639-10.952-30.639-18.107-32.694c4.875-2.28,8.261-7.216,8.261-12.955
	c0-7.902-6.407-14.31-14.31-14.31c-7.904,0-14.31,6.408-14.31,14.31c0,5.718,3.36,10.636,8.206,12.928
	C-112.207,139.938-112.21,167.546-112.21,167.546z"/>
<path fill="#90C141" d="M-118.267,155.467c0,3.826-3.102,6.932-6.932,6.932h-17.795c-2.264,0-4.274-1.087-5.541-2.769
	c-0.336-0.449-5.496,1.298-5.717,0.774c-0.353-0.83,4.326-3.98,4.326-4.938v-1.766v-2.543c0-3.828,3.104-6.932,6.932-6.932h17.795
	c3.83,0,6.932,3.104,6.932,6.932V155.467z"/>
<path fill="#90C141" d="M-152.83,124.873c0,4.866,3.944,8.81,8.809,8.81h22.615c2.879,0,5.436-1.381,7.046-3.518
	c0.428-0.572,6.983,1.649,7.265,0.981c0.448-1.054-5.498-5.059-5.498-6.274v-2.243v-3.231c0-4.866-3.945-8.811-8.813-8.811h-22.615
	c-4.864,0-8.809,3.945-8.809,8.811V124.873z"/>
<g>
	<g>
		<path fill="#FFFFFF" d="M-141.975,126.236c-0.115,0-0.198-0.012-0.248-0.037c-0.049-0.025-0.074-0.096-0.074-0.211v-0.88
			c0-0.091,0.021-0.167,0.063-0.229c0.041-0.062,0.091-0.126,0.148-0.192l1.81-2.182c0.67-0.81,1.153-1.471,1.451-1.983
			c0.297-0.513,0.446-0.921,0.446-1.228c0-0.339-0.089-0.607-0.267-0.806s-0.433-0.314-0.763-0.347
			c-0.314-0.033-0.632,0-0.955,0.099c-0.322,0.099-0.682,0.26-1.078,0.483c-0.116,0.066-0.196,0.089-0.242,0.068
			c-0.045-0.021-0.076-0.068-0.093-0.143l-0.223-1.091c-0.017-0.066-0.015-0.12,0.006-0.161c0.021-0.042,0.081-0.095,0.18-0.161
			c0.157-0.107,0.335-0.205,0.533-0.292s0.403-0.161,0.613-0.223c0.211-0.062,0.42-0.107,0.627-0.136
			c0.206-0.029,0.392-0.043,0.558-0.043c0.396,0,0.771,0.058,1.122,0.173c0.351,0.116,0.654,0.288,0.911,0.515
			c0.256,0.228,0.458,0.51,0.607,0.849c0.148,0.339,0.223,0.731,0.223,1.178c0,0.389-0.083,0.777-0.248,1.166
			c-0.165,0.388-0.367,0.767-0.607,1.134c-0.239,0.368-0.498,0.719-0.774,1.054c-0.277,0.334-0.527,0.638-0.75,0.911
			c-0.141,0.182-0.309,0.38-0.502,0.595c-0.194,0.215-0.37,0.414-0.527,0.595h3.273c0.123,0,0.2,0.021,0.229,0.062
			c0.029,0.042,0.044,0.12,0.044,0.235v0.93c0,0.124-0.017,0.205-0.05,0.242s-0.107,0.056-0.223,0.056H-141.975z"/>
		<path fill="#FFFFFF" d="M-129.032,119.554c-0.239,0.703-0.595,1.376-1.065,2.021c0.347,0.372,0.715,0.708,1.103,1.01
			c0.389,0.302,0.736,0.547,1.042,0.738c0.091,0.066,0.13,0.134,0.117,0.204c-0.012,0.07-0.047,0.147-0.105,0.229l-0.532,0.769
			c-0.066,0.091-0.141,0.126-0.224,0.105c-0.083-0.021-0.178-0.064-0.285-0.13c-0.124-0.074-0.271-0.175-0.44-0.304
			c-0.169-0.128-0.349-0.271-0.539-0.427c-0.19-0.157-0.38-0.325-0.57-0.502c-0.189-0.177-0.367-0.353-0.533-0.527
			c-0.438,0.446-0.921,0.864-1.45,1.252c-0.528,0.388-1.104,0.735-1.723,1.041c-0.092,0.042-0.159,0.06-0.205,0.056
			c-0.045-0.004-0.093-0.047-0.143-0.13l-0.508-0.818c-0.066-0.091-0.087-0.165-0.063-0.223c0.025-0.058,0.07-0.107,0.137-0.148
			c1.024-0.579,1.88-1.211,2.566-1.897c0.686-0.686,1.182-1.359,1.487-2.021c0.024-0.058,0.037-0.114,0.037-0.167
			s-0.058-0.081-0.174-0.081h-3.087c-0.115,0-0.184-0.025-0.204-0.074c-0.021-0.05-0.031-0.116-0.031-0.199v-0.893
			c0-0.165,0.083-0.248,0.248-0.248h4.203c0.322,0,0.574,0.064,0.756,0.192c0.182,0.128,0.272,0.325,0.272,0.589
			c0,0.074-0.004,0.166-0.012,0.273C-128.966,119.352-128.99,119.455-129.032,119.554z M-130.012,117.497h-3.247
			c-0.066,0-0.127-0.017-0.181-0.05c-0.054-0.033-0.08-0.103-0.08-0.21v-0.855c0-0.107,0.026-0.178,0.08-0.211
			c0.054-0.033,0.114-0.049,0.181-0.049h3.247c0.183,0,0.273,0.091,0.273,0.272v0.831
			C-129.738,117.406-129.829,117.497-130.012,117.497z M-124.11,121.488h-1.537v5.802c0,0.099-0.015,0.163-0.043,0.192
			c-0.029,0.029-0.09,0.043-0.181,0.043h-1.252c-0.091,0-0.154-0.014-0.191-0.043c-0.038-0.029-0.057-0.094-0.057-0.192v-11.417
			c0-0.091,0.019-0.153,0.057-0.186c0.037-0.033,0.101-0.05,0.191-0.05h1.252c0.091,0,0.151,0.017,0.181,0.05
			c0.028,0.033,0.043,0.095,0.043,0.186v4.203h1.537c0.074,0,0.135,0.01,0.18,0.031c0.046,0.021,0.068,0.089,0.068,0.205v0.942
			c0,0.099-0.022,0.163-0.068,0.192C-123.976,121.474-124.036,121.488-124.11,121.488z"/>
	</g>
</g>
<polygon fill="#FFFFFF" points="-85.276,140.413 -88.142,138.138 -84.737,136.794 -81.333,135.45 -81.871,139.07 -82.411,142.689 
	"/>
<polygon fill="#FFFFFF" points="-94.355,138.923 -93.938,142.559 -91,140.38 -88.059,138.202 -91.415,136.745 -94.772,135.287 "/>
<path opacity="0.9" fill="none" stroke="#D9463A" stroke-width="5" stroke-miterlimit="10" d="M-503.014,150.781
	c0,52.527-42.583,95.115-95.114,95.115c-52.529,0-95.112-42.588-95.112-95.115c0-52.531,42.583-95.114,95.112-95.114
	C-545.597,55.667-503.014,98.25-503.014,150.781z"/>
<path opacity="0.9" fill="none" stroke="#F7B143" stroke-width="4" stroke-miterlimit="10" d="M-278.673,150.78
	c0,52.528-42.583,95.116-95.114,95.116c-52.529,0-95.112-42.588-95.112-95.116c0-52.53,42.583-95.113,95.112-95.113
	C-321.256,55.667-278.673,98.25-278.673,150.78z"/>
<path fill="none" stroke="#90C141" stroke-width="4" stroke-miterlimit="10" d="M-31.605,150.78
	c0,52.528-42.583,95.116-95.114,95.116c-52.529,0-95.112-42.588-95.112-95.116c0-52.53,42.583-95.114,95.112-95.114
	C-74.188,55.667-31.605,98.25-31.605,150.78z"/>
<path opacity="0.9" fill="none" stroke="#0A74B6" stroke-width="4" stroke-miterlimit="10" d="M196.196,150.779
	c0,52.529-42.583,95.117-95.114,95.117c-52.529,0-95.112-42.588-95.112-95.117c0-52.529,42.583-95.113,95.112-95.113
	C153.613,55.667,196.196,98.25,196.196,150.779z"/>
<path opacity="0.9" fill="none" stroke="#6C411A" stroke-width="4" stroke-miterlimit="10" d="M414,150.78
	c0,52.528-42.583,95.116-95.114,95.116c-52.528,0-95.112-42.588-95.112-95.116c0-52.529,42.584-95.113,95.112-95.113
	C371.417,55.667,414,98.251,414,150.78z"/>
</svg>
