<?xml version="1.0" encoding="utf-8"?>
<!-- Generator: Adobe Illustrator 16.0.0, SVG Export Plug-In . SVG Version: 6.00 Build 0)  -->
<!DOCTYPE svg PUBLIC "-//W3C//DTD SVG 1.1//EN" "http://www.w3.org/Graphics/SVG/1.1/DTD/svg11.dtd">
<svg version="1.1" id="Layer_1" xmlns="http://www.w3.org/2000/svg" xmlns:xlink="http://www.w3.org/1999/xlink" x="0px" y="0px"
	 width="200px" height="250px" viewBox="0 0 200 250" enable-background="new 0 0 200 250" xml:space="preserve">
<path fill="#333333" d="M-791.591,29.422h-66.352c-7.445,0-7.445-26.956,0-26.956h66.352c3.705,0,20.843,6.667,20.864,13.37
	C-770.708,22.611-787.847,29.422-791.591,29.422z"/>
<g>
	<path fill="#FFFFFF" d="M-832.417,21.426c-0.116,0-0.195-0.024-0.236-0.071c-0.042-0.047-0.063-0.134-0.063-0.261v-9.003
		l-0.962,0.925c-0.168,0.158-0.3,0.173-0.395,0.047l-0.931-1.057c-0.063-0.074-0.082-0.14-0.055-0.197
		c0.026-0.058,0.086-0.129,0.181-0.213l2.43-2.272c0.115-0.095,0.242-0.142,0.378-0.142h1.042c0.231,0,0.368,0.026,0.41,0.079
		s0.063,0.21,0.063,0.473v11.361c0,0.116-0.021,0.2-0.063,0.252s-0.121,0.079-0.237,0.079H-832.417z"/>
	<path fill="#FFFFFF" d="M-817.853,15.919c-0.442,0.095-0.958,0.181-1.546,0.26c-0.589,0.079-1.194,0.145-1.814,0.197
		s-1.228,0.087-1.822,0.103c-0.595,0.016-1.118,0.013-1.57-0.008c-0.378-0.011-0.66-0.082-0.844-0.213
		c-0.184-0.131-0.276-0.418-0.276-0.86V9.844c0-0.21,0.016-0.381,0.047-0.513c0.032-0.131,0.089-0.231,0.173-0.3
		c0.084-0.068,0.195-0.113,0.332-0.134s0.315-0.032,0.537-0.032h5.459c0.21,0,0.315,0.089,0.315,0.268v1.247
		c0,0.179-0.105,0.269-0.315,0.269h-4.134c-0.105,0-0.168,0.021-0.189,0.063s-0.031,0.095-0.031,0.158v3.613
		c0,0.168,0.084,0.252,0.252,0.252c0.768,0,1.583-0.032,2.446-0.095c0.862-0.063,1.746-0.173,2.65-0.331
		c0.158-0.032,0.258-0.026,0.3,0.016s0.074,0.105,0.095,0.189l0.174,1.01c0.021,0.147,0.016,0.245-0.016,0.292
		C-817.664,15.864-817.737,15.898-817.853,15.919z M-814.413,22.814h-8.6c-0.452,0-0.75-0.079-0.892-0.236
		c-0.142-0.158-0.213-0.458-0.213-0.899v-3.456c0-0.221,0.11-0.332,0.332-0.332h1.546c0.21,0,0.315,0.11,0.315,0.332v2.556
		c0,0.158,0.084,0.236,0.252,0.236h7.258c0.084,0,0.16,0.019,0.229,0.055c0.068,0.037,0.103,0.113,0.103,0.229v1.231
		c0,0.147-0.034,0.231-0.103,0.252C-814.253,22.804-814.329,22.814-814.413,22.814z M-812.772,14.231h-1.957v4.023
		c0,0.116-0.018,0.195-0.055,0.237c-0.037,0.042-0.113,0.063-0.229,0.063h-1.594c-0.116,0-0.197-0.021-0.245-0.063
		s-0.071-0.121-0.071-0.237V8.235c0-0.2,0.105-0.3,0.315-0.3h1.594c0.189,0,0.284,0.1,0.284,0.3v4.197h1.957
		c0.084,0,0.158,0.011,0.221,0.032s0.095,0.1,0.095,0.236v1.247c0,0.116-0.029,0.192-0.087,0.229
		C-812.602,14.213-812.678,14.231-812.772,14.231z"/>
	<path fill="#FFFFFF" d="M-805.593,16.977c-0.105,0-0.184-0.019-0.237-0.055c-0.053-0.037-0.079-0.129-0.079-0.276v-1.183
		c0-0.116,0.029-0.189,0.087-0.221c0.058-0.031,0.134-0.047,0.229-0.047h1.735v-2.035h-1.625c-0.389,1.252-1.021,2.422-1.894,3.511
		c-0.873,1.088-1.946,2.033-3.219,2.832c-0.126,0.084-0.221,0.119-0.284,0.103c-0.063-0.016-0.131-0.071-0.205-0.166l-0.726-1.01
		c-0.084-0.116-0.129-0.208-0.134-0.276c-0.005-0.068,0.05-0.139,0.166-0.213c0.673-0.442,1.275-0.931,1.807-1.467
		c0.531-0.537,0.989-1.094,1.373-1.673c0.384-0.578,0.689-1.165,0.915-1.759c0.226-0.594,0.365-1.16,0.418-1.696
		c0.032-0.273-0.074-0.41-0.315-0.41h-3.234c-0.211,0-0.316-0.1-0.316-0.3V9.466c0-0.21,0.105-0.315,0.316-0.315h4.544
		c0.495,0,0.821,0.092,0.979,0.276s0.236,0.513,0.236,0.986c0,0.168-0.005,0.331-0.016,0.489c-0.011,0.158-0.026,0.315-0.047,0.473
		h1.262V8.487c0-0.115,0.024-0.194,0.071-0.236s0.128-0.063,0.245-0.063h1.452c0.2,0,0.3,0.1,0.3,0.3v13.775
		c0,0.126-0.021,0.208-0.063,0.245c-0.042,0.037-0.121,0.055-0.236,0.055h-1.452c-0.116,0-0.197-0.016-0.245-0.047
		c-0.047-0.031-0.071-0.116-0.071-0.252v-5.286H-805.593z M-798.903,23.099h-1.562c-0.116,0-0.195-0.021-0.237-0.063
		c-0.042-0.042-0.063-0.121-0.063-0.237V8.235c0-0.115,0.024-0.194,0.071-0.236c0.047-0.042,0.128-0.063,0.244-0.063h1.546
		c0.116,0,0.195,0.021,0.237,0.063s0.063,0.121,0.063,0.236v14.564c0,0.116-0.021,0.194-0.063,0.237
		C-798.708,23.078-798.787,23.099-798.903,23.099z"/>
</g>
<circle fill="none" stroke="#ECECEC" stroke-width="8" stroke-miterlimit="10" cx="-817.127" cy="150.781" r="81.613"/>
<path fill="#333333" d="M-567.251,29.422h-66.352c-7.441,0-7.441-26.957,0-26.957h66.352c3.704,0,20.841,6.668,20.864,13.371
	C-546.368,22.612-563.509,29.422-567.251,29.422z"/>
<g>
	<path fill="#FFFFFF" d="M-611.168,21.426c-0.147,0-0.252-0.016-0.316-0.047c-0.063-0.032-0.095-0.121-0.095-0.269v-1.12
		c0-0.116,0.026-0.213,0.079-0.292c0.052-0.079,0.116-0.16,0.189-0.245l2.304-2.777c0.852-1.031,1.467-1.873,1.846-2.525
		c0.378-0.652,0.568-1.172,0.568-1.562c0-0.431-0.113-0.773-0.339-1.025s-0.55-0.4-0.97-0.442c-0.4-0.042-0.805,0-1.215,0.126
		c-0.41,0.126-0.868,0.332-1.373,0.616c-0.147,0.084-0.25,0.113-0.308,0.086c-0.058-0.026-0.097-0.086-0.118-0.181l-0.284-1.389
		c-0.021-0.084-0.019-0.152,0.008-0.205c0.026-0.052,0.103-0.121,0.229-0.205c0.2-0.137,0.426-0.26,0.678-0.371
		c0.252-0.111,0.513-0.206,0.781-0.284c0.268-0.079,0.534-0.137,0.797-0.174c0.263-0.037,0.5-0.055,0.71-0.055
		c0.505,0,0.98,0.074,1.428,0.221s0.833,0.366,1.16,0.655c0.326,0.29,0.584,0.649,0.773,1.081c0.189,0.432,0.284,0.931,0.284,1.499
		c0,0.495-0.105,0.989-0.316,1.483c-0.21,0.495-0.468,0.976-0.773,1.444c-0.305,0.468-0.634,0.915-0.986,1.341
		c-0.353,0.426-0.67,0.813-0.955,1.16c-0.179,0.231-0.392,0.484-0.639,0.757s-0.471,0.526-0.67,0.757h4.166
		c0.158,0,0.255,0.026,0.292,0.079c0.037,0.053,0.055,0.153,0.055,0.3v1.184c0,0.158-0.021,0.26-0.063,0.308
		c-0.042,0.047-0.137,0.071-0.284,0.071H-611.168z"/>
	<path fill="#FFFFFF" d="M-593.512,15.919c-0.442,0.095-0.958,0.181-1.546,0.26c-0.589,0.079-1.194,0.145-1.814,0.197
		s-1.228,0.087-1.822,0.103c-0.595,0.016-1.118,0.013-1.57-0.008c-0.378-0.011-0.66-0.082-0.844-0.213
		c-0.184-0.131-0.276-0.418-0.276-0.86V9.844c0-0.21,0.016-0.381,0.047-0.513c0.032-0.131,0.089-0.231,0.173-0.3
		c0.084-0.068,0.195-0.113,0.332-0.134s0.315-0.032,0.537-0.032h5.459c0.21,0,0.315,0.089,0.315,0.268v1.247
		c0,0.179-0.105,0.269-0.315,0.269h-4.134c-0.105,0-0.168,0.021-0.189,0.063s-0.031,0.095-0.031,0.158v3.613
		c0,0.168,0.084,0.252,0.252,0.252c0.768,0,1.583-0.032,2.446-0.095c0.862-0.063,1.746-0.173,2.65-0.331
		c0.158-0.032,0.258-0.026,0.3,0.016s0.074,0.105,0.095,0.189l0.174,1.01c0.021,0.147,0.016,0.245-0.016,0.292
		C-593.323,15.864-593.396,15.898-593.512,15.919z M-590.072,22.814h-8.6c-0.452,0-0.75-0.079-0.892-0.236
		c-0.142-0.158-0.213-0.458-0.213-0.899v-3.456c0-0.221,0.11-0.332,0.332-0.332h1.546c0.21,0,0.315,0.11,0.315,0.332v2.556
		c0,0.158,0.084,0.236,0.252,0.236h7.258c0.084,0,0.16,0.019,0.229,0.055c0.068,0.037,0.103,0.113,0.103,0.229v1.231
		c0,0.147-0.034,0.231-0.103,0.252C-589.912,22.804-589.988,22.814-590.072,22.814z M-588.432,14.231h-1.957v4.023
		c0,0.116-0.018,0.195-0.055,0.237c-0.037,0.042-0.113,0.063-0.229,0.063h-1.594c-0.116,0-0.197-0.021-0.245-0.063
		s-0.071-0.121-0.071-0.237V8.235c0-0.2,0.105-0.3,0.315-0.3h1.594c0.189,0,0.284,0.1,0.284,0.3v4.197h1.957
		c0.084,0,0.158,0.011,0.221,0.032s0.095,0.1,0.095,0.236v1.247c0,0.116-0.029,0.192-0.087,0.229
		C-588.261,14.213-588.337,14.231-588.432,14.231z"/>
	<path fill="#FFFFFF" d="M-581.252,16.977c-0.105,0-0.184-0.019-0.237-0.055c-0.053-0.037-0.079-0.129-0.079-0.276v-1.183
		c0-0.116,0.029-0.189,0.087-0.221c0.058-0.031,0.134-0.047,0.229-0.047h1.735v-2.035h-1.625c-0.389,1.252-1.021,2.422-1.894,3.511
		c-0.873,1.088-1.946,2.033-3.219,2.832c-0.126,0.084-0.221,0.119-0.284,0.103c-0.063-0.016-0.131-0.071-0.205-0.166l-0.726-1.01
		c-0.084-0.116-0.129-0.208-0.134-0.276c-0.005-0.068,0.05-0.139,0.166-0.213c0.673-0.442,1.275-0.931,1.807-1.467
		c0.531-0.537,0.989-1.094,1.373-1.673c0.384-0.578,0.689-1.165,0.915-1.759c0.226-0.594,0.365-1.16,0.418-1.696
		c0.032-0.273-0.074-0.41-0.315-0.41h-3.234c-0.211,0-0.316-0.1-0.316-0.3V9.466c0-0.21,0.105-0.315,0.316-0.315h4.544
		c0.495,0,0.821,0.092,0.979,0.276s0.236,0.513,0.236,0.986c0,0.168-0.005,0.331-0.016,0.489c-0.011,0.158-0.026,0.315-0.047,0.473
		h1.262V8.487c0-0.115,0.024-0.194,0.071-0.236s0.128-0.063,0.245-0.063h1.452c0.2,0,0.3,0.1,0.3,0.3v13.775
		c0,0.126-0.021,0.208-0.063,0.245c-0.042,0.037-0.121,0.055-0.236,0.055h-1.452c-0.116,0-0.197-0.016-0.245-0.047
		c-0.047-0.031-0.071-0.116-0.071-0.252v-5.286H-581.252z M-574.562,23.099h-1.562c-0.116,0-0.195-0.021-0.237-0.063
		c-0.042-0.042-0.063-0.121-0.063-0.237V8.235c0-0.115,0.024-0.194,0.071-0.236c0.047-0.042,0.128-0.063,0.244-0.063h1.546
		c0.116,0,0.195,0.021,0.237,0.063s0.063,0.121,0.063,0.236v14.564c0,0.116-0.021,0.194-0.063,0.237
		C-574.367,23.078-574.446,23.099-574.562,23.099z"/>
</g>
<circle fill="none" stroke="#ECECEC" stroke-width="8" stroke-miterlimit="10" cx="-592.786" cy="150.782" r="81.612"/>
<path fill="#333333" d="M-320.184,29.422h-66.353c-7.442,0-7.442-26.956,0-26.956h66.353c3.704,0,20.842,6.667,20.864,13.372
	C-299.3,22.61-316.441,29.422-320.184,29.422z"/>
<g>
	<path fill="#FFFFFF" d="M-356.894,17.892c0,0.537-0.097,1.036-0.292,1.499c-0.195,0.463-0.484,0.865-0.868,1.207
		s-0.857,0.607-1.42,0.797c-0.563,0.189-1.212,0.284-1.949,0.284c-0.442,0-0.915-0.04-1.42-0.119
		c-0.505-0.079-0.947-0.192-1.326-0.339c-0.147-0.053-0.236-0.116-0.268-0.189c-0.032-0.074-0.037-0.168-0.016-0.284l0.158-1.262
		c0.021-0.147,0.06-0.237,0.118-0.269c0.058-0.031,0.171-0.021,0.339,0.032c0.252,0.084,0.542,0.168,0.868,0.252
		c0.326,0.084,0.616,0.137,0.868,0.158c0.357,0.032,0.715,0.026,1.073-0.016c0.357-0.042,0.679-0.134,0.962-0.276
		c0.284-0.142,0.513-0.339,0.687-0.591c0.173-0.252,0.26-0.568,0.26-0.947c0-0.221-0.053-0.439-0.158-0.655
		c-0.105-0.216-0.266-0.408-0.481-0.576c-0.215-0.168-0.484-0.305-0.805-0.41c-0.321-0.105-0.697-0.158-1.128-0.158h-0.852
		c-0.137,0-0.224-0.021-0.26-0.063c-0.037-0.042-0.056-0.126-0.056-0.252V14.42c0-0.147,0.019-0.239,0.056-0.276
		c0.037-0.037,0.124-0.055,0.26-0.055h0.82c0.221,0,0.465-0.031,0.734-0.095c0.268-0.063,0.521-0.163,0.757-0.3
		c0.237-0.136,0.437-0.308,0.6-0.513s0.245-0.45,0.245-0.734c0-0.399-0.14-0.736-0.418-1.01c-0.279-0.273-0.702-0.41-1.27-0.41
		c-0.368,0-0.763,0.053-1.184,0.158c-0.42,0.105-0.799,0.231-1.136,0.379c-0.147,0.063-0.263,0.087-0.347,0.071
		c-0.084-0.016-0.137-0.097-0.158-0.245l-0.158-1.31c-0.021-0.105-0.014-0.184,0.023-0.237c0.037-0.052,0.134-0.11,0.292-0.173
		c0.442-0.179,0.899-0.329,1.373-0.45c0.474-0.121,0.936-0.182,1.389-0.182c0.463,0,0.925,0.063,1.389,0.189
		c0.462,0.126,0.878,0.318,1.246,0.576s0.666,0.589,0.892,0.994c0.226,0.405,0.339,0.881,0.339,1.428c0,0.305-0.055,0.6-0.166,0.884
		c-0.11,0.284-0.263,0.55-0.458,0.797c-0.195,0.247-0.426,0.468-0.694,0.663c-0.269,0.195-0.56,0.355-0.876,0.481
		c0.799,0.305,1.402,0.721,1.807,1.247C-357.096,16.824-356.894,17.355-356.894,17.892z"/>
	<path fill="#FFFFFF" d="M-346.448,15.919c-0.442,0.095-0.958,0.181-1.546,0.26c-0.589,0.079-1.194,0.145-1.814,0.197
		s-1.228,0.087-1.822,0.103c-0.595,0.016-1.118,0.013-1.57-0.008c-0.378-0.011-0.66-0.082-0.844-0.213
		c-0.184-0.131-0.276-0.418-0.276-0.86V9.844c0-0.21,0.016-0.381,0.047-0.513c0.032-0.131,0.089-0.231,0.173-0.3
		c0.084-0.068,0.195-0.113,0.332-0.134s0.315-0.032,0.537-0.032h5.459c0.21,0,0.315,0.089,0.315,0.268v1.247
		c0,0.179-0.105,0.269-0.315,0.269h-4.134c-0.105,0-0.168,0.021-0.189,0.063s-0.031,0.095-0.031,0.158v3.613
		c0,0.168,0.084,0.252,0.252,0.252c0.768,0,1.583-0.032,2.446-0.095c0.862-0.063,1.746-0.173,2.65-0.331
		c0.158-0.032,0.258-0.026,0.3,0.016s0.074,0.105,0.095,0.189l0.174,1.01c0.021,0.147,0.016,0.245-0.016,0.292
		C-346.259,15.864-346.333,15.898-346.448,15.919z M-343.008,22.814h-8.6c-0.452,0-0.75-0.079-0.892-0.236
		c-0.142-0.158-0.213-0.458-0.213-0.899v-3.456c0-0.221,0.11-0.332,0.332-0.332h1.546c0.21,0,0.315,0.11,0.315,0.332v2.556
		c0,0.158,0.084,0.236,0.252,0.236h7.258c0.084,0,0.16,0.019,0.229,0.055c0.068,0.037,0.103,0.113,0.103,0.229v1.231
		c0,0.147-0.034,0.231-0.103,0.252C-342.848,22.804-342.924,22.814-343.008,22.814z M-341.368,14.231h-1.957v4.023
		c0,0.116-0.018,0.195-0.055,0.237c-0.037,0.042-0.113,0.063-0.229,0.063h-1.594c-0.116,0-0.197-0.021-0.245-0.063
		s-0.071-0.121-0.071-0.237V8.235c0-0.2,0.105-0.3,0.315-0.3h1.594c0.189,0,0.284,0.1,0.284,0.3v4.197h1.957
		c0.084,0,0.158,0.011,0.221,0.032s0.095,0.1,0.095,0.236v1.247c0,0.116-0.029,0.192-0.087,0.229
		C-341.197,14.213-341.273,14.231-341.368,14.231z"/>
	<path fill="#FFFFFF" d="M-334.188,16.977c-0.105,0-0.184-0.019-0.237-0.055c-0.053-0.037-0.079-0.129-0.079-0.276v-1.183
		c0-0.116,0.029-0.189,0.087-0.221c0.058-0.031,0.134-0.047,0.229-0.047h1.735v-2.035h-1.625c-0.389,1.252-1.021,2.422-1.894,3.511
		c-0.873,1.088-1.946,2.033-3.219,2.832c-0.126,0.084-0.221,0.119-0.284,0.103c-0.063-0.016-0.131-0.071-0.205-0.166l-0.726-1.01
		c-0.084-0.116-0.129-0.208-0.134-0.276c-0.005-0.068,0.05-0.139,0.166-0.213c0.673-0.442,1.275-0.931,1.807-1.467
		c0.531-0.537,0.989-1.094,1.373-1.673c0.384-0.578,0.689-1.165,0.915-1.759c0.226-0.594,0.365-1.16,0.418-1.696
		c0.032-0.273-0.074-0.41-0.315-0.41h-3.234c-0.211,0-0.316-0.1-0.316-0.3V9.466c0-0.21,0.105-0.315,0.316-0.315h4.544
		c0.495,0,0.821,0.092,0.979,0.276s0.236,0.513,0.236,0.986c0,0.168-0.005,0.331-0.016,0.489c-0.011,0.158-0.026,0.315-0.047,0.473
		h1.262V8.487c0-0.115,0.024-0.194,0.071-0.236s0.128-0.063,0.245-0.063h1.452c0.2,0,0.3,0.1,0.3,0.3v13.775
		c0,0.126-0.021,0.208-0.063,0.245c-0.042,0.037-0.121,0.055-0.236,0.055h-1.452c-0.116,0-0.197-0.016-0.245-0.047
		c-0.047-0.031-0.071-0.116-0.071-0.252v-5.286H-334.188z M-327.498,23.099h-1.562c-0.116,0-0.195-0.021-0.237-0.063
		c-0.042-0.042-0.063-0.121-0.063-0.237V8.235c0-0.115,0.024-0.194,0.071-0.236c0.047-0.042,0.128-0.063,0.244-0.063h1.546
		c0.116,0,0.195,0.021,0.237,0.063s0.063,0.121,0.063,0.236v14.564c0,0.116-0.021,0.194-0.063,0.237
		C-327.303,23.078-327.382,23.099-327.498,23.099z"/>
</g>
<circle fill="none" stroke="#ECECEC" stroke-width="8" stroke-miterlimit="10" cx="-345.719" cy="150.78" r="81.614"/>
<path fill="#333333" d="M-92.384,29.42h-66.35c-7.441,0-7.441-26.952,0-26.952h66.35c3.705,0,20.845,6.665,20.865,13.367
	C-71.496,22.609-88.641,29.42-92.384,29.42z"/>
<g>
	<path fill="#FFFFFF" d="M-129.924,18.775v2.304c0,0.179-0.019,0.292-0.055,0.339c-0.037,0.047-0.145,0.071-0.324,0.071h-1.31
		c-0.179,0-0.287-0.029-0.323-0.087c-0.037-0.058-0.055-0.166-0.055-0.323v-2.304h-4.813c-0.147,0-0.244-0.019-0.292-0.055
		c-0.047-0.037-0.071-0.124-0.071-0.261v-1.12c0-0.116,0.026-0.213,0.079-0.292c0.052-0.079,0.105-0.16,0.158-0.245
		c0.799-1.23,1.594-2.475,2.383-3.731c0.789-1.257,1.604-2.485,2.445-3.685c0.053-0.084,0.108-0.139,0.166-0.166
		c0.058-0.026,0.139-0.04,0.245-0.04h1.451c0.189,0,0.29,0.034,0.3,0.103c0.011,0.069,0.016,0.155,0.016,0.26v7.29h1.294
		c0.158,0,0.255,0.016,0.292,0.047c0.037,0.032,0.056,0.137,0.056,0.315v1.231c0,0.179-0.024,0.281-0.071,0.308
		s-0.14,0.04-0.276,0.04H-129.924z M-134.8,16.834h2.809v-4.339L-134.8,16.834z"/>
	<path fill="#FFFFFF" d="M-118.643,15.919c-0.442,0.095-0.958,0.181-1.546,0.26c-0.589,0.079-1.194,0.145-1.814,0.197
		s-1.228,0.087-1.822,0.103c-0.595,0.016-1.118,0.013-1.57-0.008c-0.378-0.011-0.66-0.082-0.844-0.213
		c-0.184-0.131-0.276-0.418-0.276-0.86V9.844c0-0.21,0.016-0.381,0.047-0.513c0.032-0.131,0.089-0.231,0.173-0.3
		c0.084-0.068,0.195-0.113,0.332-0.134s0.315-0.032,0.537-0.032h5.459c0.21,0,0.315,0.089,0.315,0.268v1.247
		c0,0.179-0.105,0.269-0.315,0.269h-4.134c-0.105,0-0.168,0.021-0.189,0.063s-0.031,0.095-0.031,0.158v3.613
		c0,0.168,0.084,0.252,0.252,0.252c0.768,0,1.583-0.032,2.446-0.095c0.862-0.063,1.746-0.173,2.65-0.331
		c0.158-0.032,0.258-0.026,0.3,0.016s0.074,0.105,0.095,0.189l0.174,1.01c0.021,0.147,0.016,0.245-0.016,0.292
		C-118.453,15.864-118.527,15.898-118.643,15.919z M-115.203,22.814h-8.6c-0.452,0-0.75-0.079-0.892-0.236
		c-0.142-0.158-0.213-0.458-0.213-0.899v-3.456c0-0.221,0.11-0.332,0.332-0.332h1.546c0.21,0,0.315,0.11,0.315,0.332v2.556
		c0,0.158,0.084,0.236,0.252,0.236h7.258c0.084,0,0.16,0.019,0.229,0.055c0.068,0.037,0.103,0.113,0.103,0.229v1.231
		c0,0.147-0.034,0.231-0.103,0.252C-115.042,22.804-115.119,22.814-115.203,22.814z M-113.562,14.231h-1.957v4.023
		c0,0.116-0.018,0.195-0.055,0.237c-0.037,0.042-0.113,0.063-0.229,0.063h-1.594c-0.116,0-0.197-0.021-0.245-0.063
		s-0.071-0.121-0.071-0.237V8.235c0-0.2,0.105-0.3,0.315-0.3h1.594c0.189,0,0.284,0.1,0.284,0.3v4.197h1.957
		c0.084,0,0.158,0.011,0.221,0.032s0.095,0.1,0.095,0.236v1.247c0,0.116-0.029,0.192-0.087,0.229
		C-113.391,14.213-113.467,14.231-113.562,14.231z"/>
	<path fill="#FFFFFF" d="M-106.382,16.977c-0.105,0-0.184-0.019-0.237-0.055c-0.053-0.037-0.079-0.129-0.079-0.276v-1.183
		c0-0.116,0.029-0.189,0.087-0.221c0.058-0.031,0.134-0.047,0.229-0.047h1.735v-2.035h-1.625c-0.389,1.252-1.021,2.422-1.894,3.511
		c-0.873,1.088-1.946,2.033-3.219,2.832c-0.126,0.084-0.221,0.119-0.284,0.103c-0.063-0.016-0.131-0.071-0.205-0.166l-0.726-1.01
		c-0.084-0.116-0.129-0.208-0.134-0.276c-0.005-0.068,0.05-0.139,0.166-0.213c0.673-0.442,1.275-0.931,1.807-1.467
		c0.531-0.537,0.989-1.094,1.373-1.673c0.384-0.578,0.689-1.165,0.915-1.759c0.226-0.594,0.365-1.16,0.418-1.696
		c0.032-0.273-0.074-0.41-0.315-0.41h-3.234c-0.211,0-0.316-0.1-0.316-0.3V9.466c0-0.21,0.105-0.315,0.316-0.315h4.544
		c0.495,0,0.821,0.092,0.979,0.276s0.236,0.513,0.236,0.986c0,0.168-0.005,0.331-0.016,0.489c-0.011,0.158-0.026,0.315-0.047,0.473
		h1.262V8.487c0-0.115,0.024-0.194,0.071-0.236s0.128-0.063,0.245-0.063h1.452c0.2,0,0.3,0.1,0.3,0.3v13.775
		c0,0.126-0.021,0.208-0.063,0.245c-0.042,0.037-0.121,0.055-0.236,0.055h-1.452c-0.116,0-0.197-0.016-0.245-0.047
		c-0.047-0.031-0.071-0.116-0.071-0.252v-5.286H-106.382z M-99.692,23.099h-1.562c-0.116,0-0.195-0.021-0.237-0.063
		c-0.042-0.042-0.063-0.121-0.063-0.237V8.235c0-0.115,0.024-0.194,0.071-0.236c0.047-0.042,0.128-0.063,0.244-0.063h1.546
		c0.116,0,0.195,0.021,0.237,0.063s0.063,0.121,0.063,0.236v14.564c0,0.116-0.021,0.194-0.063,0.237
		C-99.498,23.078-99.577,23.099-99.692,23.099z"/>
</g>
<circle fill="none" stroke="#ECECEC" stroke-width="8" stroke-miterlimit="10" cx="-117.917" cy="150.781" r="81.613"/>
<path fill="#333333" d="M125.422,29.421H59.069c-7.441,0-7.441-26.954,0-26.954h66.353c3.702,0,20.845,6.666,20.864,13.37
	C146.309,22.61,129.163,29.421,125.422,29.421z"/>
<g>
	<path fill="#FFFFFF" d="M87.672,20.479c-0.39,0.357-0.857,0.621-1.404,0.789c-0.547,0.168-1.12,0.252-1.72,0.252
		c-0.189,0-0.402-0.013-0.64-0.039c-0.236-0.026-0.473-0.063-0.71-0.111c-0.236-0.047-0.463-0.103-0.679-0.166
		c-0.215-0.063-0.396-0.131-0.544-0.205c-0.084-0.042-0.14-0.079-0.166-0.11s-0.039-0.105-0.039-0.221v-1.483
		c0-0.126,0.023-0.205,0.071-0.237c0.047-0.031,0.123-0.026,0.229,0.016c0.158,0.063,0.342,0.124,0.552,0.182
		c0.211,0.058,0.432,0.113,0.663,0.166c0.231,0.053,0.468,0.095,0.71,0.126s0.468,0.047,0.679,0.047c0.62,0,1.128-0.184,1.522-0.552
		s0.592-0.868,0.592-1.499c0-0.589-0.16-1.073-0.481-1.452c-0.32-0.379-0.865-0.568-1.633-0.568c-0.306,0-0.645,0.034-1.018,0.103
		c-0.374,0.068-0.718,0.16-1.034,0.276c-0.094,0.042-0.188,0.077-0.283,0.103c-0.095,0.026-0.18,0.032-0.253,0.016
		c-0.073-0.016-0.132-0.063-0.174-0.142c-0.042-0.079-0.063-0.203-0.063-0.371l0.079-5.854c0-0.158,0.031-0.257,0.094-0.3
		c0.063-0.042,0.185-0.063,0.363-0.063h5.728c0.127,0,0.208,0.024,0.245,0.071c0.036,0.047,0.055,0.129,0.055,0.245v1.31
		c0,0.116-0.016,0.2-0.047,0.252c-0.032,0.053-0.116,0.079-0.253,0.079h-4.103l-0.063,2.572c0.179-0.042,0.365-0.071,0.56-0.087
		s0.382-0.024,0.561-0.024c0.536,0,1.038,0.082,1.507,0.245c0.468,0.164,0.876,0.4,1.223,0.71c0.348,0.311,0.621,0.694,0.82,1.152
		c0.2,0.458,0.3,0.981,0.3,1.57C88.918,18.622,88.503,19.689,87.672,20.479z"/>
	<path fill="#FFFFFF" d="M99.159,15.918c-0.441,0.095-0.957,0.181-1.546,0.26c-0.59,0.079-1.194,0.145-1.814,0.197
		c-0.621,0.053-1.229,0.087-1.823,0.103c-0.594,0.016-1.117,0.013-1.569-0.008c-0.379-0.011-0.66-0.082-0.845-0.213
		c-0.184-0.131-0.276-0.418-0.276-0.86V9.843c0-0.21,0.017-0.381,0.048-0.513c0.031-0.131,0.089-0.231,0.174-0.3
		c0.084-0.068,0.194-0.113,0.331-0.134s0.315-0.032,0.536-0.032h5.46c0.21,0,0.315,0.089,0.315,0.268v1.247
		c0,0.179-0.105,0.269-0.315,0.269H93.7c-0.105,0-0.169,0.021-0.189,0.063c-0.021,0.042-0.032,0.095-0.032,0.158v3.613
		c0,0.168,0.084,0.252,0.253,0.252c0.768,0,1.583-0.032,2.445-0.095s1.746-0.173,2.651-0.331c0.157-0.032,0.258-0.026,0.3,0.016
		s0.073,0.105,0.095,0.189l0.173,1.01c0.021,0.147,0.017,0.245-0.016,0.292C99.348,15.863,99.274,15.897,99.159,15.918z
		 M102.598,22.813H94c-0.453,0-0.75-0.079-0.892-0.236c-0.143-0.158-0.213-0.458-0.213-0.899v-3.456c0-0.221,0.11-0.332,0.331-0.332
		h1.546c0.211,0,0.315,0.11,0.315,0.332v2.556c0,0.158,0.085,0.236,0.253,0.236h7.257c0.084,0,0.16,0.019,0.23,0.055
		c0.068,0.037,0.102,0.113,0.102,0.229v1.231c0,0.147-0.033,0.231-0.102,0.252C102.758,22.803,102.682,22.813,102.598,22.813z
		 M104.24,14.23h-1.957v4.023c0,0.116-0.02,0.195-0.055,0.237c-0.037,0.042-0.113,0.063-0.23,0.063h-1.593
		c-0.115,0-0.196-0.021-0.244-0.063c-0.047-0.042-0.071-0.121-0.071-0.237V8.234c0-0.2,0.105-0.3,0.315-0.3h1.593
		c0.189,0,0.285,0.1,0.285,0.3v4.197h1.957c0.084,0,0.156,0.011,0.221,0.032c0.063,0.021,0.094,0.1,0.094,0.236v1.247
		c0,0.116-0.029,0.192-0.086,0.229C104.41,14.212,104.334,14.23,104.24,14.23z"/>
	<path fill="#FFFFFF" d="M111.418,16.976c-0.104,0-0.184-0.019-0.236-0.055c-0.053-0.037-0.078-0.129-0.078-0.276v-1.183
		c0-0.116,0.029-0.189,0.086-0.221c0.059-0.031,0.135-0.047,0.229-0.047h1.736v-2.035h-1.625c-0.389,1.252-1.02,2.422-1.893,3.511
		c-0.875,1.088-1.947,2.033-3.221,2.832c-0.125,0.084-0.221,0.119-0.283,0.103c-0.063-0.016-0.131-0.071-0.205-0.166l-0.727-1.01
		c-0.084-0.116-0.129-0.208-0.133-0.276c-0.006-0.068,0.049-0.139,0.166-0.213c0.672-0.442,1.275-0.931,1.807-1.467
		c0.529-0.537,0.988-1.094,1.371-1.673c0.385-0.578,0.689-1.165,0.916-1.759c0.227-0.594,0.365-1.16,0.418-1.696
		c0.031-0.273-0.074-0.41-0.314-0.41h-3.236c-0.209,0-0.314-0.1-0.314-0.3V9.465c0-0.21,0.105-0.315,0.314-0.315h4.545
		c0.494,0,0.82,0.092,0.979,0.276s0.236,0.513,0.236,0.986c0,0.168-0.006,0.331-0.016,0.489c-0.01,0.158-0.025,0.315-0.047,0.473
		h1.262V8.486c0-0.115,0.023-0.194,0.07-0.236c0.049-0.042,0.129-0.063,0.246-0.063h1.451c0.199,0,0.299,0.1,0.299,0.3v13.775
		c0,0.126-0.02,0.208-0.063,0.245c-0.041,0.037-0.121,0.055-0.236,0.055h-1.451c-0.117,0-0.197-0.016-0.246-0.047
		c-0.047-0.031-0.07-0.116-0.07-0.252v-5.286H111.418z M118.109,23.098h-1.563c-0.115,0-0.195-0.021-0.236-0.063
		c-0.043-0.042-0.063-0.121-0.063-0.237V8.234c0-0.115,0.023-0.194,0.07-0.236s0.129-0.063,0.244-0.063h1.547
		c0.115,0,0.193,0.021,0.236,0.063c0.041,0.042,0.063,0.121,0.063,0.236v14.564c0,0.116-0.021,0.194-0.063,0.237
		C118.303,23.077,118.225,23.098,118.109,23.098z"/>
</g>
<circle fill="none" stroke="#ECECEC" stroke-width="8" stroke-miterlimit="10" cx="99.887" cy="150.782" r="81.614"/>
<text transform="matrix(1 0 0 1 362.0566 -275.999)" fill="#333333" font-family="'NanumGothicExtraBold'" font-size="20.6616">사전 인터뷰</text>
<text transform="matrix(1 0 0 1 344.1455 -177.3906)" fill="#333333" font-family="'NanumGothicExtraBold'" font-size="20.6616">재무설계안 실행</text>
<text transform="matrix(1 0 0 1 333.2275 -140.3711)" fill="#333333" font-family="'NanumGothicExtraBold'" font-size="20.6616">지속적인 모니터링</text>
<text transform="matrix(1 0 0 1 372.8154 -242.8701)" fill="#333333" font-family="'NanumGothicExtraBold'" font-size="20.6616">1차미팅</text>
<text transform="matrix(1 0 0 1 372.8154 -209.6914)" fill="#333333" font-family="'NanumGothicExtraBold'" font-size="20.6616">2차미팅</text>
<g opacity="0.9">
	<path fill="#D9463A" d="M-812.225,132.047c2.039,4.811-0.21,10.367-5.021,12.406c-4.816,2.037-10.369-0.213-12.407-5.025
		c-2.038-4.814,0.213-10.368,5.022-12.406C-819.817,124.984-814.264,127.234-812.225,132.047z"/>
	<path fill="#D9463A" d="M-811.771,143.945c0.199,0.469-0.02,1.006-0.484,1.203l-8.167,3.457c-0.466,0.199-1.002-0.02-1.2-0.486l0,0
		c-0.197-0.465,0.021-1.002,0.486-1.199l8.166-3.459C-812.503,143.264-811.969,143.48-811.771,143.945L-811.771,143.945z"/>
	
		<rect x="-803.482" y="174.128" transform="matrix(0.9211 -0.3894 0.3894 0.9211 -132.9824 -298.5077)" fill="#D9463A" width="1.304" height="9.301"/>
	<path fill="#D9463A" d="M-882.149,178.205h48.313c0-23.635-10.953-30.635-18.108-32.691c4.876-2.283,8.262-7.217,8.262-12.955
		c0-7.903-6.407-14.31-14.311-14.31s-14.311,6.407-14.311,14.31c0,5.717,3.361,10.637,8.208,12.93
		C-882.147,150.598-882.149,178.205-882.149,178.205z"/>
	<path fill="#D9463A" d="M-752.104,178.205c0-23.635-10.952-30.635-18.106-32.691c4.877-2.281,8.262-7.217,8.262-12.955
		c0-7.903-6.408-14.31-14.313-14.31c-7.901,0-14.309,6.407-14.309,14.31c0,5.717,3.361,10.637,8.207,12.928
		c-3.758,1.064-6.725,3.111-9.08,5.674h-18.223v0.002l-1.583-3.74c-0.964-2.273-9.201,1.217-8.237,3.49l9.546,22.545
		c0.964,2.275,3.589,3.338,5.862,2.375c2.276-0.963,3.338-3.588,2.375-5.863l-4.643-10.965h9.929
		c-3.99,9.111-3.999,19.201-3.999,19.201H-752.104z"/>
	<polygon fill="#FFFFFF" points="-773.478,150.91 -776.343,148.635 -772.938,147.291 -769.534,145.947 -770.072,149.566 
		-770.612,153.186 	"/>
	<polygon fill="#FFFFFF" points="-782.557,149.42 -782.14,153.055 -779.201,150.877 -776.26,148.699 -779.616,147.242 
		-782.974,145.783 	"/>
</g>
<g opacity="0.9">
	<path fill="#6C411A" d="M134.488,103.732L123.403,125.6l-7.435-3.768l-0.637-0.324l-3.605-1.828l-0.638-0.322l-7.433-3.769
		l11.084-21.868c0,0-35.58,4.382-17.245,38.76l-31.803,53.264c0,0-7.936,10.388-2.413,13.187l7.008,3.553l2.758,1.397l7.008,3.553
		c5.521,2.799,9.209-9.742,9.209-9.742l24.159-57.138C151.987,135.019,134.488,103.732,134.488,103.732z"/>
</g>
<circle fill="#FFFFFF" cx="78.273" cy="192.78" r="6.554"/>
<g opacity="0.9">
	<polygon fill="#0A74B6" points="-104.953,141.518 -114.791,130.586 -114.791,136.887 -137.757,136.887 -137.757,164.674 
		-114.791,164.674 -114.791,170.977 -104.953,160.045 -96.786,150.783 	"/>
	<polygon fill="#0A74B6" points="-55.036,141.518 -64.874,130.586 -64.874,136.887 -87.84,136.887 -87.84,164.674 -64.874,164.674 
		-64.874,170.977 -55.036,160.045 -46.869,150.783 	"/>
	<polygon fill="#0A74B6" points="-156.16,141.518 -165.998,130.586 -165.998,136.887 -188.965,136.887 -188.965,164.674 
		-165.998,164.674 -165.998,170.977 -156.16,160.045 -147.994,150.783 	"/>
	<polygon fill="#FFFFFF" points="-114.391,147.863 -117.49,144.42 -117.49,146.404 -124.725,146.404 -124.725,155.158 
		-117.49,155.158 -117.49,157.143 -114.391,153.699 -111.818,150.781 	"/>
	<polygon fill="#FFFFFF" points="-165.599,147.863 -168.698,144.42 -168.698,146.404 -175.933,146.404 -175.933,155.158 
		-168.698,155.158 -168.698,157.143 -165.599,153.699 -163.026,150.781 	"/>
	<polygon fill="#FFFFFF" points="-64.474,147.863 -67.573,144.42 -67.573,146.404 -74.808,146.404 -74.808,155.158 -67.573,155.158 
		-67.573,157.143 -64.474,153.699 -61.901,150.781 	"/>
</g>
<path opacity="0.9" fill="#F7B143" d="M-657.193,193.977h40.086c0-19.612-9.087-25.42-15.023-27.127
	c4.045-1.893,6.854-5.988,6.854-10.748c0-6.559-5.314-11.875-11.873-11.875c-6.558,0-11.874,5.316-11.874,11.875
	c0,4.743,2.789,8.824,6.809,10.727C-657.192,171.07-657.193,193.977-657.193,193.977z"/>
<path opacity="0.9" fill="#F7B143" d="M-576.691,167.546h48.313c0-23.639-10.953-30.638-18.107-32.694
	c4.875-2.28,8.262-7.216,8.262-12.955c0-7.902-6.41-14.31-14.311-14.31c-7.902,0-14.311,6.408-14.311,14.31
	c0,5.718,3.359,10.636,8.205,12.929C-576.691,139.938-576.691,167.546-576.691,167.546z"/>
<path opacity="0.9" fill="#F7B143" d="M-585.748,155.467c0,3.828-3.105,6.934-6.932,6.934h-17.799c-2.263,0-4.273-1.088-5.538-2.77
	c-0.338-0.449-5.497,1.299-5.72,0.773c-0.353-0.83,4.329-3.98,4.329-4.938v-1.765v-2.544c0-3.827,3.104-6.932,6.929-6.932h17.799
	c3.826,0,6.932,3.104,6.932,6.932V155.467z"/>
<path opacity="0.9" fill="#F7B143" d="M-618.314,124.872c0,4.866,3.946,8.811,8.812,8.811h22.614c2.879,0,5.436-1.382,7.043-3.519
	c0.43-0.572,6.984,1.65,7.266,0.982c0.449-1.053-5.498-5.059-5.498-6.274v-2.244v-3.23c0-4.867-3.945-8.811-8.811-8.811h-22.614
	c-4.865,0-8.812,3.944-8.812,8.811V124.872z"/>
<g>
	<path fill="#FFFFFF" d="M-605.027,126.236c-0.091,0-0.152-0.02-0.186-0.057s-0.05-0.105-0.05-0.205v-7.074l-0.756,0.727
		c-0.133,0.124-0.235,0.136-0.311,0.037l-0.731-0.831c-0.049-0.058-0.063-0.109-0.043-0.155c0.021-0.045,0.068-0.101,0.143-0.167
		l1.909-1.785c0.091-0.075,0.189-0.112,0.298-0.112h0.817c0.182,0,0.29,0.021,0.322,0.062c0.033,0.042,0.05,0.166,0.05,0.372v8.926
		c0,0.091-0.017,0.157-0.05,0.198c-0.032,0.041-0.095,0.063-0.186,0.063H-605.027z"/>
	<path fill="#FFFFFF" d="M-594.514,119.554c-0.239,0.703-0.595,1.376-1.065,2.021c0.347,0.372,0.715,0.708,1.103,1.01
		c0.389,0.302,0.736,0.547,1.042,0.738c0.091,0.066,0.13,0.134,0.117,0.204c-0.012,0.07-0.047,0.147-0.105,0.229l-0.532,0.769
		c-0.066,0.091-0.141,0.126-0.224,0.105c-0.083-0.021-0.178-0.064-0.285-0.13c-0.124-0.074-0.271-0.175-0.44-0.304
		c-0.169-0.128-0.349-0.271-0.539-0.427c-0.19-0.157-0.38-0.325-0.57-0.502c-0.189-0.177-0.367-0.353-0.533-0.527
		c-0.438,0.446-0.921,0.864-1.45,1.252c-0.528,0.388-1.104,0.735-1.723,1.041c-0.092,0.042-0.159,0.06-0.205,0.056
		c-0.045-0.004-0.093-0.047-0.143-0.13l-0.508-0.818c-0.066-0.091-0.087-0.165-0.063-0.223c0.025-0.058,0.07-0.107,0.137-0.148
		c1.024-0.579,1.88-1.211,2.566-1.897c0.686-0.686,1.182-1.359,1.487-2.021c0.024-0.058,0.037-0.114,0.037-0.167
		s-0.058-0.081-0.174-0.081h-3.087c-0.115,0-0.184-0.025-0.204-0.074c-0.021-0.05-0.031-0.116-0.031-0.199v-0.893
		c0-0.165,0.083-0.248,0.248-0.248h4.203c0.322,0,0.574,0.064,0.756,0.192c0.182,0.128,0.272,0.325,0.272,0.589
		c0,0.074-0.004,0.166-0.012,0.273C-594.448,119.352-594.472,119.455-594.514,119.554z M-595.494,117.496h-3.247
		c-0.066,0-0.127-0.017-0.181-0.05c-0.054-0.033-0.08-0.103-0.08-0.21v-0.855c0-0.107,0.026-0.178,0.08-0.211
		c0.054-0.033,0.114-0.049,0.181-0.049h3.247c0.183,0,0.273,0.091,0.273,0.272v0.831
		C-595.22,117.405-595.311,117.496-595.494,117.496z M-589.592,121.488h-1.537v5.801c0,0.1-0.015,0.164-0.043,0.193
		c-0.029,0.028-0.09,0.043-0.181,0.043h-1.252c-0.091,0-0.154-0.015-0.191-0.043c-0.038-0.029-0.057-0.094-0.057-0.193v-11.417
		c0-0.091,0.019-0.153,0.057-0.186c0.037-0.033,0.101-0.05,0.191-0.05h1.252c0.091,0,0.151,0.017,0.181,0.05
		c0.028,0.033,0.043,0.095,0.043,0.186v4.203h1.537c0.074,0,0.135,0.01,0.18,0.031c0.046,0.021,0.068,0.089,0.068,0.205v0.942
		c0,0.099-0.022,0.163-0.068,0.192C-589.458,121.474-589.518,121.488-589.592,121.488z"/>
</g>
<polygon fill="#FFFFFF" points="-549.76,140.331 -552.625,138.055 -549.221,136.712 -545.816,135.369 -546.354,138.988 
	-546.895,142.607 "/>
<polygon fill="#FFFFFF" points="-558.838,138.841 -558.422,142.477 -555.482,140.299 -552.541,138.12 -555.898,136.664 
	-559.256,135.205 "/>
<path fill="#90C141" d="M-408.541,193.976h40.088c0-19.612-9.088-25.42-15.024-27.127c4.045-1.893,6.854-5.988,6.854-10.748
	c0-6.559-5.316-11.874-11.874-11.874c-6.557,0-11.873,5.315-11.873,11.874c0,4.742,2.789,8.822,6.809,10.727
	C-408.539,171.069-408.541,193.976-408.541,193.976z"/>
<path fill="#90C141" d="M-331.21,167.546h48.313c0-23.639-10.952-30.639-18.107-32.694c4.875-2.28,8.261-7.216,8.261-12.955
	c0-7.902-6.407-14.31-14.31-14.31c-7.904,0-14.31,6.408-14.31,14.31c0,5.718,3.36,10.636,8.206,12.928
	C-331.207,139.938-331.21,167.546-331.21,167.546z"/>
<path fill="#90C141" d="M-337.267,155.467c0,3.826-3.102,6.932-6.932,6.932h-17.795c-2.264,0-4.274-1.087-5.541-2.769
	c-0.336-0.449-5.496,1.298-5.717,0.774c-0.353-0.83,4.326-3.98,4.326-4.938v-1.766v-2.543c0-3.828,3.104-6.932,6.932-6.932h17.795
	c3.83,0,6.932,3.104,6.932,6.932V155.467z"/>
<path fill="#90C141" d="M-371.83,124.873c0,4.866,3.944,8.81,8.809,8.81h22.615c2.879,0,5.436-1.381,7.046-3.518
	c0.428-0.572,6.983,1.649,7.265,0.981c0.448-1.054-5.498-5.059-5.498-6.274v-2.243v-3.231c0-4.866-3.945-8.811-8.813-8.811h-22.615
	c-4.864,0-8.809,3.945-8.809,8.811V124.873z"/>
<g>
	<g>
		<path fill="#FFFFFF" d="M-360.975,126.236c-0.115,0-0.198-0.012-0.248-0.037c-0.049-0.025-0.074-0.096-0.074-0.211v-0.88
			c0-0.091,0.021-0.167,0.063-0.229c0.041-0.062,0.091-0.126,0.148-0.192l1.81-2.182c0.67-0.81,1.153-1.471,1.451-1.983
			c0.297-0.513,0.446-0.921,0.446-1.228c0-0.339-0.089-0.607-0.267-0.806s-0.433-0.314-0.763-0.347
			c-0.314-0.033-0.632,0-0.955,0.099c-0.322,0.099-0.682,0.26-1.078,0.483c-0.116,0.066-0.196,0.089-0.242,0.068
			c-0.045-0.021-0.076-0.068-0.093-0.143l-0.223-1.091c-0.017-0.066-0.015-0.12,0.006-0.161c0.021-0.042,0.081-0.095,0.18-0.161
			c0.157-0.107,0.335-0.205,0.533-0.292s0.403-0.161,0.613-0.223c0.211-0.062,0.42-0.107,0.627-0.136
			c0.206-0.029,0.392-0.043,0.558-0.043c0.396,0,0.771,0.058,1.122,0.173c0.351,0.116,0.654,0.288,0.911,0.515
			c0.256,0.228,0.458,0.51,0.607,0.849c0.148,0.339,0.223,0.731,0.223,1.178c0,0.389-0.083,0.777-0.248,1.166
			c-0.165,0.388-0.367,0.767-0.607,1.134c-0.239,0.368-0.498,0.719-0.774,1.054c-0.277,0.334-0.527,0.638-0.75,0.911
			c-0.141,0.182-0.309,0.38-0.502,0.595c-0.194,0.215-0.37,0.414-0.527,0.595h3.273c0.123,0,0.2,0.021,0.229,0.062
			c0.029,0.042,0.044,0.12,0.044,0.235v0.93c0,0.124-0.017,0.205-0.05,0.242s-0.107,0.056-0.223,0.056H-360.975z"/>
		<path fill="#FFFFFF" d="M-348.032,119.554c-0.239,0.703-0.595,1.376-1.065,2.021c0.347,0.372,0.715,0.708,1.103,1.01
			c0.389,0.302,0.736,0.547,1.042,0.738c0.091,0.066,0.13,0.134,0.117,0.204c-0.012,0.07-0.047,0.147-0.105,0.229l-0.532,0.769
			c-0.066,0.091-0.141,0.126-0.224,0.105c-0.083-0.021-0.178-0.064-0.285-0.13c-0.124-0.074-0.271-0.175-0.44-0.304
			c-0.169-0.128-0.349-0.271-0.539-0.427c-0.19-0.157-0.38-0.325-0.57-0.502c-0.189-0.177-0.367-0.353-0.533-0.527
			c-0.438,0.446-0.921,0.864-1.45,1.252c-0.528,0.388-1.104,0.735-1.723,1.041c-0.092,0.042-0.159,0.06-0.205,0.056
			c-0.045-0.004-0.093-0.047-0.143-0.13l-0.508-0.818c-0.066-0.091-0.087-0.165-0.063-0.223c0.025-0.058,0.07-0.107,0.137-0.148
			c1.024-0.579,1.88-1.211,2.566-1.897c0.686-0.686,1.182-1.359,1.487-2.021c0.024-0.058,0.037-0.114,0.037-0.167
			s-0.058-0.081-0.174-0.081h-3.087c-0.115,0-0.184-0.025-0.204-0.074c-0.021-0.05-0.031-0.116-0.031-0.199v-0.893
			c0-0.165,0.083-0.248,0.248-0.248h4.203c0.322,0,0.574,0.064,0.756,0.192c0.182,0.128,0.272,0.325,0.272,0.589
			c0,0.074-0.004,0.166-0.012,0.273C-347.966,119.352-347.99,119.455-348.032,119.554z M-349.012,117.497h-3.247
			c-0.066,0-0.127-0.017-0.181-0.05c-0.054-0.033-0.08-0.103-0.08-0.21v-0.855c0-0.107,0.026-0.178,0.08-0.211
			c0.054-0.033,0.114-0.049,0.181-0.049h3.247c0.183,0,0.273,0.091,0.273,0.272v0.831
			C-348.738,117.406-348.829,117.497-349.012,117.497z M-343.11,121.488h-1.537v5.802c0,0.099-0.015,0.163-0.043,0.192
			c-0.029,0.029-0.09,0.043-0.181,0.043h-1.252c-0.091,0-0.154-0.014-0.191-0.043c-0.038-0.029-0.057-0.094-0.057-0.192v-11.417
			c0-0.091,0.019-0.153,0.057-0.186c0.037-0.033,0.101-0.05,0.191-0.05h1.252c0.091,0,0.151,0.017,0.181,0.05
			c0.028,0.033,0.043,0.095,0.043,0.186v4.203h1.537c0.074,0,0.135,0.01,0.18,0.031c0.046,0.021,0.068,0.089,0.068,0.205v0.942
			c0,0.099-0.022,0.163-0.068,0.192C-342.976,121.474-343.036,121.488-343.11,121.488z"/>
	</g>
</g>
<polygon fill="#FFFFFF" points="-304.276,140.413 -307.142,138.138 -303.737,136.794 -300.333,135.45 -300.871,139.07 
	-301.411,142.689 "/>
<polygon fill="#FFFFFF" points="-313.355,138.923 -312.938,142.559 -310,140.38 -307.059,138.202 -310.415,136.745 
	-313.772,135.287 "/>
<path opacity="0.9" fill="none" stroke="#D9463A" stroke-width="5" stroke-miterlimit="10" d="M-722.014,150.781
	c0,52.527-42.583,95.115-95.114,95.115c-52.529,0-95.112-42.588-95.112-95.115c0-52.531,42.583-95.114,95.112-95.114
	C-764.597,55.667-722.014,98.25-722.014,150.781z"/>
<path opacity="0.9" fill="none" stroke="#F7B143" stroke-width="4" stroke-miterlimit="10" d="M-497.673,150.78
	c0,52.528-42.583,95.116-95.114,95.116c-52.529,0-95.112-42.588-95.112-95.116c0-52.53,42.583-95.113,95.112-95.113
	C-540.256,55.667-497.673,98.25-497.673,150.78z"/>
<path fill="none" stroke="#90C141" stroke-width="4" stroke-miterlimit="10" d="M-250.605,150.78
	c0,52.528-42.583,95.116-95.114,95.116c-52.529,0-95.112-42.588-95.112-95.116c0-52.53,42.583-95.114,95.112-95.114
	C-293.188,55.667-250.605,98.25-250.605,150.78z"/>
<path opacity="0.9" fill="none" stroke="#0A74B6" stroke-width="4" stroke-miterlimit="10" d="M-22.804,150.779
	c0,52.529-42.583,95.117-95.114,95.117c-52.529,0-95.112-42.588-95.112-95.117c0-52.529,42.583-95.113,95.112-95.113
	C-65.387,55.667-22.804,98.25-22.804,150.779z"/>
<path opacity="0.9" fill="none" stroke="#6C411A" stroke-width="4" stroke-miterlimit="10" d="M195,150.78
	c0,52.528-42.583,95.116-95.114,95.116c-52.529,0-95.112-42.588-95.112-95.116c0-52.529,42.583-95.113,95.112-95.113
	C152.417,55.667,195,98.251,195,150.78z"/>
</svg>
