<?xml version="1.0" encoding="utf-8"?>
<!-- Generator: Adobe Illustrator 16.0.0, SVG Export Plug-In . SVG Version: 6.00 Build 0)  -->
<!DOCTYPE svg PUBLIC "-//W3C//DTD SVG 1.1//EN" "http://www.w3.org/Graphics/SVG/1.1/DTD/svg11.dtd">
<svg version="1.1" id="Layer_1" xmlns="http://www.w3.org/2000/svg" xmlns:xlink="http://www.w3.org/1999/xlink" x="0px" y="0px"
	 width="50px" height="30px" viewBox="0 0 50 30" enable-background="new 0 0 50 30" xml:space="preserve">
<g id="레이어_1" display="none">
</g>
<g id="레이어_3" display="none">
	<g display="inline">
		<g>
			<g>
				<g>
					<g>
						<defs>
							<rect id="SVGID_1_" width="50" height="50.125"/>
						</defs>
						<clipPath id="SVGID_2_">
							<use xlink:href="#SVGID_1_"  overflow="visible"/>
						</clipPath>
						<polygon clip-path="url(#SVGID_2_)" fill="#FFFFFF" stroke="#2378AF" stroke-width="4" stroke-miterlimit="10" points="
							15.81,-13.301 19.177,-9.178 23.494,-12.287 25.684,-7.431 30.656,-9.313 31.516,-4.055 36.805,-4.583 36.277,0.719 
							41.523,1.581 39.645,6.566 44.488,8.76 41.389,13.087 45.5,16.463 41.389,19.838 44.488,24.167 39.645,26.359 41.523,31.346 
							36.277,32.207 36.805,37.508 31.516,36.98 30.656,42.238 25.684,40.355 23.494,45.212 19.177,42.104 15.81,46.227 
							12.443,42.104 8.126,45.212 5.938,40.355 0.966,42.238 0.106,36.98 -5.184,37.508 -4.656,32.207 -9.901,31.346 -8.024,26.359 
							-12.868,24.167 -9.767,19.838 -13.879,16.463 -9.767,13.087 -12.868,8.76 -8.024,6.566 -9.901,1.581 -4.656,0.719 
							-5.184,-4.584 0.106,-4.055 0.966,-9.313 5.938,-7.431 8.126,-12.287 12.443,-9.178 						"/>
					</g>
				</g>
			</g>
		</g>
	</g>
</g>
<g id="레이어_4_1_" opacity="0.8">
	<path fill="#FFFFFF" d="M45.551,20.823c0,3.215-2.609,5.826-5.824,5.826H10.239c-3.216,0-5.825-2.611-5.825-5.826V9.174
		c0-3.216,2.611-5.823,5.825-5.823h29.486c3.217,0,5.824,2.607,5.824,5.823v11.649H45.551z"/>
</g>
<g id="레이어_4">
	<path fill="none" stroke="#2378AF" stroke-width="4" stroke-miterlimit="10" d="M47.021,21.239c0,3.445-2.795,6.243-6.24,6.243
		H9.185c-3.446,0-6.241-2.798-6.241-6.243V8.758c0-3.446,2.797-6.24,6.241-6.24h31.595c3.447,0,6.24,2.794,6.24,6.24v12.481H47.021z
		"/>
</g>
<g id="레이어_2">
	<g>
		<path d="M64.335,8.006c0.521,0.039,0.702,0.116,1.17,0.74c0.896,1.209,2.249,2.99,3.303,4.305
			c0.246,0.297,0.416,0.232,0.441-0.156c0.025-0.286,0.013-2.08-0.014-2.743c-0.025-0.793-0.155-0.949-0.717-1.054
			c-0.377-0.064-0.363-0.961,0.039-1.015c1.017-0.13,1.979-0.13,2.979-0.013c0.468,0.064,0.455,0.986,0.024,1.064
			c-0.508,0.078-0.586,0.195-0.586,0.715c-0.013,1.418-0.013,4.02,0,5.722c0.016,1.287,0.016,1.469-0.806,1.469
			c-0.754,0-0.856-0.117-1.417-0.767c-1.3-1.509-2.496-3.12-3.811-4.693c-0.193-0.232-0.323-0.169-0.338,0.145
			c-0.039,0.779-0.053,2.104-0.024,3.196c0.013,0.729,0.247,0.897,0.663,0.978c0.299,0.052,0.312,1.024-0.039,1.077
			c-0.717,0.104-2.354,0.117-3.146,0.023c-0.363-0.037-0.351-1.025-0.039-1.078c0.521-0.078,0.741-0.261,0.77-0.963
			c0.039-1.454,0.063-3.573,0.025-5.03c-0.015-0.377-0.155-0.61-0.769-0.793c-0.313-0.092-0.286-1.039,0.039-1.078
			C63.035,7.953,63.36,7.928,64.335,8.006z"/>
		<path d="M77.335,8.083c1.326,0,1.6,0.026,2.146-0.169c0.479-0.169,1.039,0.521,1.146,1.703c0.052,0.533,0,0.624-0.403,0.768
			c-0.361,0.144-0.479,0.078-0.715-0.261c-0.354-0.493-0.572-0.715-1.301-0.778c-0.65-0.054-1.508-0.026-2.186,0.052
			c-0.391,0.038-0.508,0.208-0.508,0.546v1.469c0,0.338,0.065,0.455,0.547,0.48c0.363,0.025,0.871,0.014,1.262-0.025
			c0.599-0.052,0.807-0.104,0.896-0.598c0.065-0.299,0.884-0.364,0.988,0c0.194,0.662,0.194,1.716,0,2.393
			c-0.104,0.377-0.923,0.338-0.988,0c-0.104-0.494-0.299-0.572-0.896-0.598c-0.391-0.014-0.938-0.014-1.262,0.025
			c-0.469,0.039-0.547,0.272-0.547,0.662v1.456c0,0.338,0.065,0.442,0.547,0.469c0.649,0.039,1.756,0.064,2.404,0
			c0.741-0.063,1-0.3,1.327-0.807c0.222-0.338,0.351-0.416,0.729-0.273c0.402,0.146,0.431,0.224,0.392,0.77
			c-0.104,1.287-0.662,2.003-1.146,1.85c-0.545-0.195-0.832-0.195-2.156-0.195h-5.03c-0.364,0-0.392-1.053-0.093-1.117
			c0.6-0.131,0.769-0.299,0.808-0.91c0.052-0.884,0.052-4.019,0-4.927c-0.026-0.6-0.221-0.794-0.754-0.896
			c-0.299-0.064-0.272-1.078,0.091-1.078h4.705V8.083H77.335z"/>
		<path d="M84.914,8.083c0.353,0.054,0.339,1.093,0.039,1.157c-0.479,0.091-0.562,0.352-0.416,0.871
			c0.271,0.977,0.793,2.443,1.17,3.51c0.093,0.271,0.233,0.262,0.339,0.014c0.561-1.326,0.938-2.858,1.104-3.588
			c0.115-0.546-0.014-0.715-0.547-0.817c-0.313-0.065-0.338-1.079,0.039-1.118c0.793-0.092,2.197-0.078,2.926,0.025
			c0.338,0.053,0.324,1.054,0.039,1.104c-0.647,0.104-0.678,0.403-0.479,1.026c0.286,0.949,0.702,2.406,1.025,3.395
			c0.078,0.234,0.262,0.247,0.361-0.013c0.471-1.183,0.988-2.729,1.235-3.511c0.208-0.662,0.169-0.937-0.325-1.026
			c-0.313-0.065-0.338-1.015,0.039-1.054c0.78-0.09,1.911-0.077,2.641,0.025c0.354,0.053,0.338,1.055,0.037,1.118
			c-0.492,0.104-0.646,0.299-0.896,1.054c-0.64,1.949-1.511,4.212-2.265,6.109c-0.183,0.455-0.479,0.778-0.961,0.778
			c-0.648,0-0.769-0.131-0.949-0.6c-0.562-1.508-0.986-2.978-1.117-3.38c-0.092-0.232-0.207-0.232-0.285,0.014
			c-0.207,0.649-0.754,2.105-1.195,3.249c-0.17,0.441-0.479,0.715-1.041,0.715c-0.57,0-0.715-0.075-0.986-0.777
			c-0.754-1.963-1.547-4.134-2.286-6.163c-0.146-0.402-0.339-0.857-0.978-0.986c-0.313-0.065-0.338-1.119,0.024-1.158
			C82.002,7.967,84.2,7.979,84.914,8.083z"/>
	</g>
</g>
<g>
	<path d="M15.522,20.396c-0.112,0-0.187-0.012-0.224-0.033c-0.037-0.023-0.084-0.088-0.14-0.189l-4.046-7.378v7.267
		c0,0.148-0.014,0.242-0.042,0.279c-0.028,0.037-0.117,0.057-0.266,0.057H9.531c-0.14,0-0.229-0.02-0.266-0.057
		c-0.038-0.037-0.056-0.131-0.056-0.279V9.966c0-0.158,0.016-0.261,0.049-0.308c0.033-0.047,0.133-0.07,0.301-0.07h1.386
		c0.112,0,0.187,0.014,0.224,0.042c0.037,0.029,0.089,0.104,0.154,0.225l3.99,7.322V9.924c0-0.14,0.016-0.231,0.049-0.273
		c0.033-0.042,0.119-0.063,0.259-0.063h1.26c0.168,0,0.266,0.023,0.294,0.07c0.028,0.046,0.042,0.135,0.042,0.266v10.081
		c0,0.178-0.019,0.287-0.056,0.328c-0.038,0.043-0.14,0.063-0.308,0.063H15.522z"/>
	<path d="M20.002,20.411c-0.224,0-0.359-0.029-0.406-0.084c-0.047-0.057-0.07-0.201-0.07-0.436v-9.785
		c0-0.214,0.021-0.35,0.063-0.406c0.042-0.056,0.17-0.084,0.385-0.084h4.984c0.159,0,0.247,0.028,0.268,0.084
		c0.019,0.056,0.026,0.14,0.026,0.252v1.092c0,0.131-0.013,0.217-0.042,0.259c-0.027,0.042-0.111,0.063-0.252,0.063h-3.528v2.66
		h3.346c0.148,0,0.234,0.028,0.259,0.084c0.022,0.056,0.035,0.14,0.035,0.252v1.091c0,0.131-0.017,0.217-0.05,0.26
		c-0.032,0.041-0.113,0.064-0.244,0.064h-3.346v2.885h3.668c0.148,0,0.234,0.023,0.258,0.068c0.022,0.047,0.035,0.131,0.035,0.254
		v1.092c0,0.121-0.013,0.207-0.035,0.258c-0.023,0.051-0.109,0.078-0.258,0.078h-5.097V20.411z"/>
	<path d="M37.643,20.159c-0.037,0.111-0.074,0.18-0.111,0.203c-0.037,0.021-0.111,0.033-0.225,0.033h-1.371
		c-0.113,0-0.189-0.014-0.23-0.041c-0.043-0.027-0.078-0.094-0.105-0.195l-2.043-7.742l-2.213,7.742
		c-0.027,0.102-0.063,0.168-0.105,0.195c-0.041,0.027-0.117,0.041-0.23,0.041H29.65c-0.104,0-0.174-0.012-0.217-0.033
		c-0.041-0.023-0.082-0.092-0.119-0.203l-2.955-10.22c-0.037-0.13-0.045-0.217-0.021-0.259s0.104-0.063,0.244-0.063h1.346
		c0.092,0,0.162,0.007,0.209,0.021c0.047,0.014,0.078,0.058,0.098,0.133l2.199,7.699l2.1-7.643c0.027-0.103,0.064-0.164,0.111-0.182
		s0.121-0.028,0.225-0.028h1.357c0.104,0,0.18,0.009,0.23,0.028s0.092,0.079,0.119,0.182l2.086,7.643l2.197-7.671
		c0.02-0.084,0.047-0.135,0.084-0.154s0.107-0.028,0.211-0.028h1.344c0.131,0,0.211,0.023,0.238,0.07s0.021,0.131-0.014,0.252
		L37.643,20.159z"/>
</g>
</svg>
