<?xml version="1.0" encoding="utf-8"?>
<!-- Generator: Adobe Illustrator 16.0.0, SVG Export Plug-In . SVG Version: 6.00 Build 0)  -->
<!DOCTYPE svg PUBLIC "-//W3C//DTD SVG 1.1//EN" "http://www.w3.org/Graphics/SVG/1.1/DTD/svg11.dtd">
<svg version="1.1" id="Layer_1" xmlns="http://www.w3.org/2000/svg" xmlns:xlink="http://www.w3.org/1999/xlink" x="0px" y="0px"
	 width="50px" height="30px" viewBox="0 0 50 30" enable-background="new 0 0 50 30" xml:space="preserve">
<g id="레이어_1" display="none">
</g>
<g id="레이어_3" display="none">
	<g display="inline">
		<g>
			<g>
				<g>
					<g>
						<g>
							<g>
								<defs>
									<rect id="SVGID_1_" width="50" height="50.125"/>
								</defs>
								<clipPath id="SVGID_2_">
									<use xlink:href="#SVGID_1_"  overflow="visible"/>
								</clipPath>
								<polygon clip-path="url(#SVGID_2_)" fill="#FFFFFF" stroke="#2378AF" stroke-width="4" stroke-miterlimit="10" points="
									15.81,-13.301 19.177,-9.178 23.494,-12.287 25.684,-7.431 30.656,-9.313 31.516,-4.055 36.805,-4.583 36.277,0.719 
									41.523,1.581 39.645,6.566 44.488,8.76 41.389,13.087 45.5,16.463 41.389,19.838 44.488,24.167 39.645,26.359 
									41.523,31.346 36.277,32.207 36.805,37.508 31.516,36.98 30.656,42.238 25.684,40.355 23.494,45.212 19.177,42.104 
									15.81,46.227 12.443,42.104 8.126,45.212 5.938,40.355 0.966,42.238 0.106,36.98 -5.184,37.508 -4.656,32.207 
									-9.901,31.346 -8.024,26.359 -12.868,24.167 -9.767,19.838 -13.879,16.463 -9.767,13.087 -12.868,8.76 -8.024,6.566 
									-9.901,1.581 -4.656,0.719 -5.184,-4.584 0.106,-4.055 0.966,-9.313 5.938,-7.431 8.126,-12.287 12.443,-9.178 								"/>
							</g>
						</g>
					</g>
				</g>
			</g>
		</g>
	</g>
</g>
<g id="레이어_4_1_" opacity="0.8">
	<path fill="#FFFFFF" d="M97.581-6.041c0,3.215-2.608,5.825-5.824,5.825H62.27c-3.217,0-5.824-2.61-5.824-5.825V-17.69
		c0-3.216,2.609-5.823,5.824-5.823h29.485c3.218,0,5.824,2.607,5.824,5.823v11.649H97.581z"/>
</g>
<g id="레이어_4">
	<path fill="none" stroke="#2378AF" stroke-width="4" stroke-miterlimit="10" d="M99.052-5.625c0,3.444-2.795,6.243-6.239,6.243
		H61.215c-3.445,0-6.24-2.799-6.24-6.243v-12.481c0-3.446,2.797-6.24,6.24-6.24h31.596c3.446,0,6.239,2.794,6.239,6.24v12.481
		H99.052z"/>
</g>
<g id="레이어_2">
	<g>
		<path d="M64.335,8.006c0.521,0.039,0.702,0.116,1.17,0.74c0.896,1.209,2.249,2.99,3.304,4.305c0.246,0.297,0.416,0.232,0.44-0.156
			c0.024-0.286,0.013-2.08-0.015-2.743c-0.024-0.793-0.154-0.949-0.717-1.054c-0.377-0.064-0.363-0.961,0.039-1.015
			c1.018-0.13,1.979-0.13,2.979-0.013c0.468,0.064,0.455,0.986,0.023,1.064c-0.509,0.078-0.586,0.195-0.586,0.715
			c-0.014,1.418-0.014,4.02,0,5.721c0.017,1.287,0.017,1.47-0.807,1.47c-0.754,0-0.855-0.117-1.417-0.767
			c-1.3-1.509-2.496-3.122-3.812-4.693c-0.192-0.232-0.322-0.169-0.338,0.145c-0.039,0.779-0.054,2.104-0.023,3.196
			c0.013,0.729,0.247,0.897,0.663,0.978c0.299,0.054,0.312,1.024-0.039,1.078c-0.718,0.104-2.354,0.116-3.146,0.022
			c-0.363-0.037-0.353-1.024-0.039-1.078c0.521-0.078,0.739-0.261,0.77-0.963c0.039-1.454,0.063-3.573,0.025-5.03
			c-0.017-0.377-0.156-0.61-0.771-0.793c-0.313-0.092-0.286-1.039,0.039-1.078C63.035,7.953,63.359,7.928,64.335,8.006z"/>
		<path d="M77.335,8.083c1.326,0,1.601,0.026,2.146-0.169c0.479-0.169,1.039,0.521,1.146,1.703c0.053,0.533,0,0.624-0.402,0.768
			c-0.36,0.144-0.479,0.078-0.716-0.261c-0.354-0.493-0.571-0.715-1.301-0.778C77.559,9.292,76.7,9.32,76.021,9.398
			c-0.392,0.038-0.508,0.208-0.508,0.546v1.469c0,0.338,0.064,0.455,0.547,0.48c0.362,0.025,0.871,0.014,1.263-0.025
			c0.599-0.052,0.807-0.104,0.896-0.598c0.065-0.299,0.885-0.364,0.988,0c0.193,0.662,0.193,1.716,0,2.393
			c-0.104,0.377-0.923,0.338-0.988,0c-0.104-0.494-0.299-0.572-0.896-0.598c-0.392-0.014-0.938-0.014-1.263,0.025
			c-0.47,0.039-0.547,0.272-0.547,0.662v1.456c0,0.338,0.064,0.442,0.547,0.469c0.648,0.039,1.756,0.064,2.403,0
			c0.741-0.063,1-0.3,1.327-0.807c0.223-0.338,0.352-0.416,0.729-0.273c0.401,0.146,0.432,0.224,0.393,0.77
			c-0.104,1.287-0.662,2.003-1.146,1.85c-0.545-0.195-0.832-0.195-2.156-0.195H72.58c-0.364,0-0.393-1.053-0.094-1.115
			c0.601-0.133,0.77-0.301,0.809-0.91c0.053-0.884,0.053-4.019,0-4.927c-0.025-0.6-0.221-0.794-0.754-0.896
			c-0.299-0.064-0.271-1.078,0.091-1.078h4.705V8.083H77.335z"/>
		<path d="M84.914,8.083c0.354,0.054,0.339,1.093,0.039,1.157c-0.479,0.091-0.563,0.352-0.416,0.871
			c0.271,0.977,0.793,2.443,1.17,3.51c0.093,0.271,0.232,0.262,0.339,0.014c0.562-1.326,0.938-2.858,1.104-3.588
			c0.115-0.546-0.016-0.715-0.547-0.817c-0.313-0.065-0.338-1.079,0.039-1.118c0.793-0.092,2.195-0.078,2.926,0.025
			c0.338,0.053,0.324,1.054,0.039,1.104c-0.647,0.104-0.678,0.403-0.479,1.026c0.286,0.949,0.702,2.406,1.024,3.395
			c0.078,0.234,0.263,0.247,0.361-0.013c0.471-1.183,0.987-2.729,1.234-3.511c0.208-0.662,0.169-0.937-0.325-1.026
			c-0.313-0.065-0.338-1.015,0.039-1.054c0.78-0.09,1.911-0.077,2.642,0.025c0.354,0.053,0.338,1.055,0.037,1.118
			c-0.492,0.104-0.646,0.299-0.896,1.054c-0.641,1.949-1.512,4.212-2.266,6.109c-0.184,0.454-0.479,0.778-0.961,0.778
			c-0.647,0-0.77-0.133-0.949-0.602c-0.563-1.508-0.985-2.978-1.116-3.38c-0.093-0.232-0.207-0.232-0.285,0.014
			c-0.207,0.649-0.754,2.105-1.194,3.249c-0.17,0.441-0.479,0.717-1.041,0.717c-0.57,0-0.716-0.076-0.986-0.777
			c-0.754-1.963-1.547-4.134-2.285-6.163c-0.146-0.402-0.34-0.857-0.979-0.986c-0.313-0.065-0.339-1.119,0.023-1.158
			C82.002,7.967,84.2,7.979,84.914,8.083z"/>
	</g>
</g>
<g>
	<path d="M67.553-6.468c-0.111,0-0.188-0.013-0.225-0.033c-0.037-0.023-0.084-0.088-0.141-0.189l-4.045-7.378v7.267
		c0,0.148-0.015,0.242-0.043,0.279c-0.027,0.037-0.117,0.057-0.267,0.057h-1.272c-0.14,0-0.229-0.02-0.267-0.057
		s-0.056-0.131-0.056-0.279v-10.097c0-0.158,0.017-0.261,0.049-0.308c0.033-0.047,0.134-0.07,0.302-0.07h1.386
		c0.112,0,0.188,0.014,0.225,0.042c0.037,0.029,0.089,0.104,0.154,0.225l3.989,7.322v-7.253c0-0.14,0.017-0.231,0.05-0.273
		c0.032-0.042,0.119-0.063,0.258-0.063h1.261c0.168,0,0.267,0.023,0.294,0.07c0.027,0.046,0.042,0.135,0.042,0.266v10.081
		c0,0.179-0.019,0.287-0.056,0.328c-0.039,0.043-0.142,0.063-0.31,0.063H67.553z"/>
	<path d="M72.032-6.453c-0.224,0-0.358-0.029-0.405-0.084c-0.048-0.058-0.07-0.201-0.07-0.437v-9.785
		c0-0.214,0.021-0.35,0.063-0.406s0.17-0.084,0.385-0.084h4.984c0.159,0,0.247,0.028,0.268,0.084s0.026,0.14,0.026,0.252v1.092
		c0,0.131-0.014,0.217-0.042,0.259c-0.027,0.042-0.111,0.063-0.252,0.063h-3.527v2.66h3.347c0.146,0,0.232,0.028,0.258,0.084
		c0.022,0.056,0.035,0.14,0.035,0.252v1.091c0,0.131-0.018,0.217-0.05,0.26c-0.032,0.041-0.112,0.064-0.243,0.064h-3.347v2.885
		h3.668c0.147,0,0.233,0.023,0.259,0.068c0.021,0.047,0.034,0.131,0.034,0.254v1.092c0,0.121-0.014,0.207-0.034,0.258
		c-0.023,0.051-0.109,0.078-0.259,0.078H72.032L72.032-6.453L72.032-6.453z"/>
	<path d="M89.673-6.705c-0.037,0.11-0.073,0.18-0.11,0.202c-0.037,0.021-0.11,0.033-0.226,0.033h-1.371
		c-0.112,0-0.188-0.014-0.229-0.041c-0.043-0.026-0.077-0.094-0.104-0.194l-2.043-7.742l-2.213,7.742
		c-0.027,0.102-0.063,0.168-0.105,0.194C83.23-6.484,83.154-6.47,83.042-6.47h-1.358c-0.104,0-0.175-0.012-0.218-0.033
		c-0.041-0.022-0.082-0.092-0.118-0.202l-2.955-10.22c-0.037-0.13-0.045-0.217-0.021-0.259s0.104-0.063,0.244-0.063h1.346
		c0.092,0,0.162,0.007,0.209,0.021s0.078,0.058,0.098,0.133l2.199,7.699l2.102-7.643c0.025-0.103,0.063-0.164,0.109-0.182
		c0.047-0.018,0.121-0.028,0.227-0.028h1.355c0.104,0,0.182,0.009,0.23,0.028c0.049,0.019,0.092,0.079,0.119,0.182l2.086,7.643
		l2.197-7.671c0.02-0.084,0.047-0.135,0.084-0.154c0.037-0.019,0.105-0.028,0.211-0.028h1.344c0.131,0,0.211,0.023,0.238,0.07
		c0.026,0.047,0.021,0.131-0.015,0.252L89.673-6.705z"/>
</g>
<path fill="#1B87C9" stroke="#FFFFFF" stroke-width="2" stroke-miterlimit="10" d="M48.143,25.261c0,1.791-1.379,3.239-3.086,3.239
	H4.942c-1.703,0-3.085-1.448-3.085-3.239V4.74c0-1.79,1.382-3.24,3.085-3.24h40.115c1.705,0,3.086,1.45,3.086,3.24V25.261
	L48.143,25.261z"/>
<text transform="matrix(1 0 0 1 9.0078 19.6152)" fill="#FFFFFF" font-family="'NanumGothicExtraBold'" font-size="16">new</text>
</svg>
