<?xml version="1.0" encoding="utf-8"?>
<!-- Generator: Adobe Illustrator 16.0.0, SVG Export Plug-In . SVG Version: 6.00 Build 0)  -->
<!DOCTYPE svg PUBLIC "-//W3C//DTD SVG 1.1//EN" "http://www.w3.org/Graphics/SVG/1.1/DTD/svg11.dtd">
<svg version="1.1" xmlns="http://www.w3.org/2000/svg" xmlns:xlink="http://www.w3.org/1999/xlink" x="0px" y="0px" width="138px"
	 height="100.914px" viewBox="0 0 138 100.914" enable-background="new 0 0 138 100.914" xml:space="preserve">
<g id="Layer_1">
	<rect x="-549.62" y="-116.95" fill="#1D87C9" width="177.027" height="177.027"/>
	<text transform="matrix(1 0 0 1 -521.9707 -49.2856)"><tspan x="0" y="0" fill="#FFFFFF" font-family="'BMDoHyeon'" font-size="34.583">사 이 다</tspan><tspan x="0" y="56.397" fill="#FFFFFF" font-family="'BMDoHyeon'" font-size="34.583">경     제</tspan></text>
	<g>
		<path fill="#FFFFFF" d="M-459.586-19.188l-1.619-0.242l0.944-6.353c0.002-0.186,0.051-0.461,0.256-0.752
			c0.373-0.539,1.092-0.898,2.197-1.095l4.523-0.352l0.125,1.634l-4.443,0.342c-0.67,0.123-0.938,0.3-1.024,0.373l-0.003,0.023
			L-459.586-19.188z"/>
		<path fill="#FFFFFF" d="M-461.02,13.138h8.229v-2.442c1.745-0.854,2.053-1.821,2.097-2.02l0.021-0.188l-0.069-24.425l-2.43-3.68
			h-15.093l0.024,0.803h13.753l2.108,3.373l0.064,23.775c-0.083,0.125-0.451,0.601-1.607,1.073l-0.51,0.209l-0.003,2.667h-6.589
			L-461.02,13.138z"/>
		<path fill="#FFFFFF" d="M-461.193,13.138h-8.23v-2.442c-1.741-0.854-2.048-1.821-2.096-2.02l-0.021-0.188l0.069-24.425l2.426-3.68
			h15.093l-0.017,0.803h-13.757l-2.108,3.373L-469.9,8.334c0.086,0.125,0.456,0.601,1.608,1.073l0.509,0.209l0.003,2.667h6.59
			L-461.193,13.138z"/>
		<rect x="-471.156" y="-20.047" fill="#FFFFFF" width="20.047" height="1.478"/>
		<rect x="-471.156" y="11.785" fill="#FFFFFF" width="20.047" height="1.476"/>
	</g>
	<g>
		<path fill="#1D87C9" d="M-281.294-71.557l-1.61-0.241l0.939-6.319c0.002-0.185,0.051-0.458,0.254-0.749
			c0.371-0.536,1.086-0.893,2.187-1.089l4.498-0.35l0.126,1.625l-4.421,0.34c-0.665,0.123-0.932,0.298-1.019,0.371l-0.003,0.023
			L-281.294-71.557z"/>
		<path fill="#1D87C9" d="M-282.719-39.405h8.185v-2.43c1.734-0.85,2.041-1.811,2.084-2.009l0.021-0.187l-0.068-24.294l-2.417-3.659
			h-15.013l0.025,0.798h13.679l2.098,3.355l0.064,23.647c-0.083,0.124-0.449,0.598-1.6,1.067l-0.507,0.208l-0.003,2.653h-6.553
			L-282.719-39.405z"/>
		<path fill="#1D87C9" d="M-282.893-39.405h-8.186v-2.43c-1.731-0.85-2.036-1.811-2.084-2.009l-0.021-0.187l0.069-24.294
			l2.412-3.659h15.013l-0.017,0.798h-13.684l-2.098,3.355l-0.064,23.647c0.085,0.124,0.454,0.598,1.6,1.067l0.506,0.208l0.003,2.653
			h6.554L-282.893-39.405z"/>
		<rect x="-292.801" y="-72.412" fill="#1D87C9" width="19.939" height="1.47"/>
		<rect x="-292.801" y="-40.751" fill="#1D87C9" width="19.939" height="1.468"/>
	</g>
	<g>
		<g>
			<path fill="#4AACC5" d="M-294.95,131.678l-4.012-18.138l-4.012,18.138h-4.305l6.34-27.604h3.953l6.369,27.604H-294.95z
				 M-283.862,112.772h3.008v4.013h-3.008v15.041h-4.07v-27.901h4.07V112.772z"/>
			<path fill="#4AACC5" d="M-260.091,103.925c0.963,0,1.861,0.191,2.697,0.576c0.836,0.383,1.564,0.904,2.184,1.563
				s1.105,1.42,1.459,2.285s0.531,1.779,0.531,2.742v13.567c0,0.965-0.182,1.879-0.545,2.744c-0.365,0.865-0.861,1.627-1.49,2.285
				s-1.371,1.18-2.227,1.563c-0.855,0.385-1.766,0.576-2.729,0.576h-1.445c-1.002,0-1.945-0.188-2.83-0.561
				s-1.652-0.885-2.301-1.533c-0.648-0.65-1.164-1.406-1.549-2.271c-0.383-0.865-0.574-1.799-0.574-2.803v-13.567
				c0-1.002,0.191-1.936,0.574-2.801c0.385-0.865,0.9-1.623,1.549-2.271s1.416-1.16,2.301-1.533s1.828-0.561,2.83-0.561H-260.091z
				 M-261.655,108.112c-0.412,0-0.807,0.08-1.18,0.236c-0.373,0.158-0.703,0.369-0.986,0.635c-0.287,0.266-0.508,0.58-0.664,0.943
				c-0.158,0.363-0.236,0.752-0.236,1.164v13.567c0,0.414,0.078,0.803,0.236,1.166c0.156,0.363,0.377,0.678,0.664,0.943
				c0.283,0.266,0.613,0.477,0.986,0.635c0.373,0.156,0.768,0.236,1.18,0.236h1.328c0.412,0,0.797-0.08,1.15-0.236
				c0.354-0.158,0.664-0.375,0.928-0.648c0.266-0.275,0.473-0.596,0.621-0.959c0.146-0.363,0.221-0.742,0.221-1.137v-13.567
				c0-0.393-0.074-0.766-0.221-1.119c-0.148-0.355-0.35-0.67-0.605-0.945c-0.256-0.273-0.561-0.496-0.914-0.662
				c-0.354-0.168-0.729-0.252-1.121-0.252H-261.655z M-245.315,131.826h-4.543v-27.901h4.543V131.826z"/>
			<path fill="#4AACC5" d="M-216.472,104.073v3.893h-9.822v19.761h9.969v3.98h-14.539v-27.634H-216.472z M-205.354,113.304v3.894
				h-3.008v14.629h-4.188v-27.901h4.188v9.379H-205.354z"/>
			<path fill="#4AACC5" d="M-181.437,104.073v4.01l-1.268,11.71h-4.307l1.268-11.71h-8.404v-4.01H-181.437z M-174.948,121.887
				c0.727,0,1.41,0.123,2.049,0.369s1.195,0.59,1.668,1.031c0.471,0.443,0.844,0.969,1.119,1.578s0.414,1.279,0.414,2.006
				s-0.139,1.391-0.414,1.99s-0.648,1.121-1.119,1.564c-0.473,0.441-1.029,0.785-1.668,1.031s-1.322,0.369-2.049,0.369h-12.033
				c-0.727,0-1.41-0.123-2.049-0.369c-0.641-0.246-1.195-0.59-1.668-1.031c-0.471-0.443-0.844-0.965-1.119-1.564
				s-0.414-1.264-0.414-1.99s0.139-1.396,0.414-2.006s0.648-1.135,1.119-1.578c0.473-0.441,1.027-0.785,1.668-1.031
				c0.639-0.246,1.322-0.369,2.049-0.369H-174.948z M-186.981,125.574c-0.354,0-0.654,0.127-0.898,0.383
				c-0.246,0.256-0.369,0.561-0.369,0.914c0,0.334,0.123,0.629,0.369,0.885c0.244,0.256,0.545,0.383,0.898,0.383h12.033
				c0.354,0,0.658-0.127,0.914-0.383s0.383-0.551,0.383-0.885c0-0.354-0.127-0.658-0.383-0.914s-0.561-0.383-0.914-0.383H-186.981z
				 M-174.122,113.362v-2.742h-4.926v-3.539h4.926v-3.156h4.305v15.868h-4.305v-2.861h-4.926v-3.569H-174.122z"/>
			<path fill="#4AACC5" d="M-147.108,117.699l4.689,13.979h-4.129l-2.684-7.963l-2.771,7.963h-4.453l8.375-23.653h-7.875v-3.951
				h12.24v3.951L-147.108,117.699z M-137.493,131.826h-3.805v-13.715h-3.361v-3.775h3.361v-10.411h3.805V131.826z M-131.507,131.826
				h-3.893v-27.901h3.893V131.826z"/>
		</g>
	</g>
	<g>
		
			<image overflow="visible" opacity="0.75" width="155" height="162" xlink:href="40F8EA8A.png"  transform="matrix(0.24 0 0 0.24 8.5342 4.4556)">
		</image>
		<g>
			<path fill="#FFFFFF" d="M24.99,38.999L20.287,17.73l-4.704,21.269h-5.049l7.436-32.37h4.635l7.469,32.37H24.99z M37.993,16.831
				h3.527v4.703h-3.527v17.638h-4.771V6.456h4.771V16.831z"/>
		</g>
	</g>
	<g>
		
			<image overflow="visible" opacity="0.75" width="141" height="162" xlink:href="40F8EA8D.png"  transform="matrix(0.24 0 0 0.24 53.5264 4.4556)">
		</image>
		<g>
			<path fill="#FFFFFF" d="M65.866,6.456c1.13,0,2.185,0.225,3.165,0.674c0.979,0.45,1.833,1.061,2.559,1.833
				c0.727,0.773,1.297,1.666,1.712,2.68c0.415,1.015,0.623,2.087,0.623,3.216v15.908c0,1.13-0.214,2.201-0.64,3.216
				c-0.428,1.014-1.009,1.907-1.747,2.68c-0.738,0.772-1.607,1.383-2.61,1.833c-1.003,0.449-2.07,0.674-3.199,0.674h-1.694
				c-1.176,0-2.283-0.22-3.32-0.657c-1.037-0.438-1.937-1.038-2.697-1.798s-1.366-1.648-1.815-2.663
				c-0.45-1.015-0.675-2.109-0.675-3.285V14.859c0-1.176,0.225-2.271,0.675-3.286c0.449-1.014,1.055-1.902,1.815-2.663
				s1.66-1.36,2.697-1.798c1.037-0.438,2.145-0.657,3.32-0.657H65.866z M64.034,11.367c-0.484,0-0.946,0.092-1.384,0.276
				c-0.438,0.185-0.824,0.432-1.158,0.744c-0.335,0.311-0.594,0.68-0.778,1.106c-0.185,0.427-0.276,0.882-0.276,1.366v15.908
				c0,0.484,0.092,0.939,0.276,1.366s0.443,0.795,0.778,1.106c0.334,0.311,0.72,0.559,1.158,0.744
				c0.438,0.184,0.899,0.276,1.384,0.276h1.556c0.484,0,0.934-0.092,1.349-0.276c0.415-0.185,0.778-0.438,1.09-0.761
				c0.312-0.323,0.553-0.697,0.726-1.124c0.174-0.426,0.26-0.87,0.26-1.332V14.859c0-0.461-0.086-0.899-0.26-1.314
				c-0.173-0.415-0.409-0.784-0.709-1.107c-0.3-0.323-0.656-0.582-1.071-0.778s-0.854-0.294-1.314-0.294H64.034z M83.192,39.171
				h-5.325V6.456h5.325V39.171z"/>
		</g>
	</g>
	<g>
		
			<image overflow="visible" opacity="0.75" width="150" height="162" xlink:href="40F8EA8E.png"  transform="matrix(0.24 0 0 0.24 98.1377 4.4556)">
		</image>
		<g>
			<path fill="#FFFFFF" d="M117.015,6.628v4.565h-11.517v23.171h11.689v4.668h-17.05V6.628H117.015z M130.052,17.453v4.565h-3.527
				v17.153h-4.91V6.456h4.91v10.998H130.052z"/>
		</g>
	</g>
	<g>
		
			<image overflow="visible" opacity="0.75" width="145" height="162" xlink:href="40F8EA8F.png"  transform="matrix(0.24 0 0 0.24 8.3955 60.8525)">
		</image>
		<g>
			<path fill="#FFFFFF" d="M25.302,63.025v4.704l-1.487,13.729h-5.05l1.488-13.729h-9.857v-4.704H25.302z M32.909,83.914
				c0.854,0,1.654,0.145,2.404,0.433c0.748,0.289,1.4,0.691,1.953,1.21c0.554,0.519,0.992,1.136,1.314,1.85
				c0.322,0.715,0.484,1.499,0.484,2.352s-0.162,1.631-0.484,2.334c-0.322,0.703-0.761,1.314-1.314,1.832
				c-0.553,0.52-1.205,0.922-1.953,1.211c-0.75,0.289-1.551,0.432-2.404,0.432H18.8c-0.854,0-1.654-0.143-2.403-0.432
				s-1.401-0.691-1.954-1.211c-0.553-0.518-0.992-1.129-1.314-1.832c-0.322-0.704-0.484-1.482-0.484-2.334s0.162-1.637,0.484-2.352
				c0.322-0.714,0.762-1.332,1.314-1.85c0.553-0.519,1.205-0.922,1.954-1.21c0.749-0.288,1.55-0.433,2.403-0.433H32.909z
				 M18.8,88.237c-0.415,0-0.767,0.15-1.055,0.449c-0.289,0.3-0.432,0.657-0.432,1.072c0,0.392,0.143,0.737,0.432,1.038
				c0.288,0.299,0.64,0.449,1.055,0.449h14.109c0.416,0,0.772-0.15,1.072-0.449c0.3-0.3,0.449-0.646,0.449-1.038
				c0-0.415-0.149-0.772-0.449-1.072c-0.3-0.299-0.656-0.449-1.072-0.449H18.8z M33.878,73.919v-3.216h-5.775v-4.15h5.775v-3.701
				h5.049v18.606h-5.049v-3.354h-5.775v-4.185H33.878z"/>
		</g>
	</g>
	<g>
		
			<image overflow="visible" opacity="0.75" width="147" height="162" xlink:href="40F8EA84.png"  transform="matrix(0.24 0 0 0.24 96.8584 60.8525)">
		</image>
		<g>
			<path fill="#FFFFFF" d="M109.821,79.003l5.498,16.393h-4.841l-3.147-9.337l-3.251,9.337h-5.222l9.821-27.736h-9.233v-4.634
				h14.352v4.634L109.821,79.003z M121.095,95.567h-4.461v-16.08h-3.942v-4.427h3.942V62.853h4.461V95.567z M128.115,95.567h-4.564
				V62.853h4.564V95.567z"/>
		</g>
	</g>
	<g>
		
			<image overflow="visible" opacity="0.75" width="59" height="62" xlink:href="40F8EA85.png"  transform="matrix(0.24 0 0 0.24 67.4316 52.2505)">
		</image>
		<g>
			<path fill="#FFFFFF" d="M71.051,63.044l-1.619-0.242l0.945-6.353c0.002-0.186,0.051-0.461,0.256-0.752
				c0.373-0.539,1.092-0.898,2.197-1.095l4.523-0.352l0.125,1.634l-4.443,0.342c-0.67,0.123-0.938,0.3-1.025,0.373l-0.002,0.023
				L71.051,63.044z"/>
		</g>
	</g>
	<g>
		
			<image overflow="visible" opacity="0.75" width="99" height="162" xlink:href="40F8EA86.png"  transform="matrix(0.24 0 0 0.24 60.373 60.6157)">
		</image>
		<g>
			<path fill="#FFFFFF" d="M69.617,95.37h8.229v-2.442c1.746-0.854,2.053-1.821,2.098-2.02l0.021-0.188l-0.07-24.425l-2.43-3.68
				H62.373l0.023,0.803H76.15l2.107,3.373l0.064,23.775c-0.082,0.125-0.451,0.601-1.607,1.073l-0.51,0.209l-0.002,2.667h-6.59
				L69.617,95.37z"/>
		</g>
	</g>
	<g>
		
			<image overflow="visible" opacity="0.75" width="99" height="162" xlink:href="40F8EA87.png"  transform="matrix(0.24 0 0 0.24 57.0977 60.6157)">
		</image>
		<g>
			<path fill="#FFFFFF" d="M69.445,95.37h-8.23v-2.442c-1.742-0.854-2.049-1.821-2.096-2.02l-0.021-0.188l0.068-24.425l2.426-3.68
				h15.094l-0.018,0.803H62.912l-2.109,3.373l-0.064,23.775c0.086,0.125,0.455,0.601,1.607,1.073l0.51,0.209l0.002,2.667h6.59
				L69.445,95.37z"/>
		</g>
	</g>
	<g>
		
			<image overflow="visible" opacity="0.75" width="109" height="32" xlink:href="40F8EA99.png"  transform="matrix(0.24 0 0 0.24 57.4824 60.1846)">
		</image>
		<g>
			<rect x="59.482" y="62.185" fill="#FFFFFF" width="20.047" height="1.478"/>
		</g>
	</g>
	<g>
		
			<image overflow="visible" opacity="0.75" width="109" height="32" xlink:href="63F9E5D2.png"  transform="matrix(0.24 0 0 0.24 57.4824 92.0166)">
		</image>
		<g>
			<rect x="59.482" y="94.017" fill="#FFFFFF" width="20.047" height="1.476"/>
		</g>
	</g>
</g>
<g id="Layer_2">
	<rect x="-573.333" y="-203.418" fill="#1D87C9" width="108" height="53"/>
	<text transform="matrix(1 0 0 1 -539.0352 -174.2539)" fill="#010101" font-family="'MyriadPro-Regular'" font-size="11.0882">#1b87c9</text>
	<rect x="-466.333" y="-203.418" fill="#C03F97" width="68" height="53"/>
	<text transform="matrix(1 0 0 1 -451.9551 -173.8389)" fill="#010101" font-family="'MyriadPro-Regular'" font-size="11.0882">#ce2ca8</text>
	<rect x="-399.333" y="-203.418" fill="#ECECEC" width="53" height="53"/>
	<text transform="matrix(1 0 0 1 -390.9727 -174.3545)" fill="#010101" font-family="'MyriadPro-Regular'" font-size="11.0882">#ececec</text>
	<rect x="-466.211" y="-252.418" fill="#D7117D" width="67" height="50"/>
	<text transform="matrix(1 0 0 1 -454.0767 -223.896)" font-family="'MyriadPro-Regular'" font-size="12">#d8027c</text>
</g>
<g id="Layer_3">
	<g>
		<path fill="#1D87C9" d="M-459.664,127.029l-3.212-0.479l1.873-12.605c0.004-0.368,0.101-0.915,0.508-1.493
			c0.74-1.068,2.166-1.781,4.359-2.172l8.974-0.699l0.248,3.242l-8.815,0.68c-1.329,0.244-1.859,0.595-2.032,0.739l-0.006,0.047
			L-459.664,127.029z"/>
		<path fill="#1D87C9" d="M-462.507,191.162h16.324v-4.846c3.463-1.695,4.073-3.611,4.16-4.006l0.043-0.373l-0.138-48.459
			l-4.82-7.299h-29.944l0.048,1.592h27.285l4.184,6.691l0.128,47.17c-0.165,0.248-0.896,1.191-3.189,2.129l-1.012,0.414
			l-0.006,5.291h-13.071L-462.507,191.162z"/>
		<path fill="#1D87C9" d="M-462.851,191.162h-16.329v-4.846c-3.455-1.695-4.063-3.611-4.158-4.006l-0.042-0.373l0.137-48.459
			l4.813-7.299h29.943l-0.032,1.592h-27.293l-4.183,6.691l-0.13,47.17c0.17,0.248,0.905,1.191,3.191,2.129l1.009,0.414l0.006,5.291
			h13.074L-462.851,191.162z"/>
		<rect x="-482.617" y="125.324" fill="#1D87C9" width="39.772" height="2.932"/>
		<rect x="-482.617" y="188.477" fill="#1D87C9" width="39.772" height="2.928"/>
		<polygon fill="#1D87C9" points="-448.487,189.352 -462.73,189.352 -462.73,127.771 -448.487,127.771 -444.118,134.602 
			-444.118,181.352 		"/>
		<polygon fill="#1D87C9" points="-476.362,189.352 -462.118,189.352 -462.118,127.771 -476.362,127.771 -480.731,134.602 
			-480.731,181.352 		"/>
	</g>
	<g>
		<g>
			<path fill="#4AACC5" d="M-330.666,96.826l-1.746-0.262l1.02-6.854c0.002-0.199,0.055-0.496,0.275-0.811
				c0.402-0.582,1.178-0.969,2.369-1.182l4.881-0.379l0.135,1.762l-4.793,0.369c-0.723,0.133-1.012,0.324-1.105,0.402l-0.004,0.025
				L-330.666,96.826z"/>
			<path fill="#4AACC5" d="M-332.211,131.695h8.875v-2.635c1.884-0.922,2.214-1.965,2.263-2.178l0.023-0.203l-0.076-26.349
				l-2.62-3.968h-16.281l0.027,0.865h14.834l2.275,3.638l0.068,25.647c-0.088,0.135-0.486,0.648-1.734,1.158l-0.549,0.225
				l-0.004,2.877h-7.105L-332.211,131.695z"/>
			<path fill="#4AACC5" d="M-332.398,131.695h-8.878v-2.635c-1.879-0.922-2.209-1.965-2.26-2.178l-0.023-0.203l0.074-26.349
				l2.616-3.968h16.281l-0.018,0.865h-14.84l-2.274,3.638l-0.07,25.647c0.092,0.135,0.492,0.648,1.733,1.158l0.551,0.225
				l0.002,2.877h7.109L-332.398,131.695z"/>
			<rect x="-343.146" y="95.898" fill="#4AACC5" width="21.625" height="1.594"/>
			<rect x="-343.146" y="130.234" fill="#4AACC5" width="21.625" height="1.592"/>
			<polygon fill="#4AACC5" points="-324.588,130.711 -332.332,130.711 -332.332,97.229 -324.588,97.229 -322.214,100.94 
				-322.214,126.361 			"/>
			<polygon fill="#4AACC5" points="-339.744,130.711 -332,130.711 -332,97.229 -339.744,97.229 -342.12,100.94 -342.12,126.361 			
				"/>
		</g>
	</g>
</g>
<g id="Layer_4">
	<g>
		<path fill="#1D87C9" d="M-322.832-39.483l-4.76-21.525l-4.76,21.525h-5.109l7.524-32.76h4.69l7.56,32.76H-322.832z
			 M-309.672-61.918h3.57v4.76h-3.57v17.85h-4.83v-33.11h4.83V-61.918z"/>
		<path fill="#1D87C9" d="M-283.317-67.448c-0.49,0-0.957,0.093-1.4,0.28c-0.443,0.187-0.834,0.438-1.172,0.752
			s-0.602,0.688-0.787,1.12c-0.188,0.432-0.28,0.893-0.28,1.382v16.1c0,0.49,0.093,0.951,0.28,1.383
			c0.186,0.432,0.449,0.805,0.787,1.12s0.729,0.565,1.172,0.752c0.443,0.187,0.91,0.28,1.4,0.28h1.575
			c0.489,0,0.944-0.094,1.364-0.28c0.421-0.187,0.788-0.443,1.104-0.77c0.314-0.326,0.56-0.705,0.734-1.137
			c0.176-0.432,0.263-0.88,0.263-1.348v-16.1c0-0.466-0.087-0.91-0.263-1.33c-0.175-0.42-0.414-0.793-0.717-1.12
			c-0.304-0.327-0.666-0.589-1.086-0.788c-0.42-0.198-0.863-0.297-1.33-0.297H-283.317z M-263.927-39.309h-5.391v-33.11h5.391
			V-39.309z"/>
		<path fill="#1D87C9" d="M-229.698-72.243v4.62h-11.654v23.45h11.83v4.725h-17.256v-32.795H-229.698z M-216.503-61.289v4.62h-3.57
			v17.36h-4.97v-33.11h4.97v11.13H-216.503z"/>
		<path fill="#1D87C9" d="M-188.118-72.243v4.76l-1.505,13.895h-5.11l1.505-13.895h-9.975v-4.76H-188.118z M-180.418-51.104
			c0.863,0,1.674,0.146,2.433,0.438c0.758,0.292,1.417,0.7,1.978,1.225c0.56,0.525,1.003,1.149,1.33,1.873
			c0.326,0.724,0.489,1.517,0.489,2.38c0,0.863-0.163,1.65-0.489,2.363c-0.327,0.711-0.771,1.33-1.33,1.855
			c-0.561,0.525-1.22,0.933-1.978,1.225c-0.759,0.292-1.569,0.438-2.433,0.438h-14.28c-0.863,0-1.675-0.146-2.433-0.438
			c-0.758-0.292-1.417-0.7-1.978-1.225c-0.56-0.525-1.003-1.144-1.33-1.855c-0.327-0.712-0.489-1.5-0.489-2.363
			c0-0.863,0.162-1.656,0.489-2.38c0.327-0.723,0.771-1.348,1.33-1.873c0.561-0.525,1.22-0.933,1.978-1.225
			c0.758-0.292,1.569-0.438,2.433-0.438H-180.418z M-194.698-46.729c-0.42,0-0.776,0.152-1.067,0.455
			c-0.292,0.304-0.438,0.665-0.438,1.085c0,0.396,0.146,0.747,0.438,1.05c0.291,0.303,0.647,0.455,1.067,0.455h14.28
			c0.42,0,0.781-0.152,1.085-0.455c0.303-0.304,0.455-0.654,0.455-1.05c0-0.42-0.152-0.781-0.455-1.085
			c-0.304-0.303-0.665-0.455-1.085-0.455H-194.698z M-179.438-61.218v-3.255h-5.845v-4.2h5.845v-3.745h5.11v18.83h-5.11v-3.395
			h-5.845v-4.235H-179.438z"/>
		<path fill="#1D87C9" d="M-147.379-56.073l5.564,16.59h-4.899l-3.186-9.45l-3.29,9.45h-5.285l9.94-28.07h-9.345v-4.69h14.524v4.69
			L-147.379-56.073z M-135.97-39.309h-4.515v-16.275h-3.99v-4.48h3.99v-12.355h4.515V-39.309z M-128.864-39.309h-4.62v-33.11h4.62
			V-39.309z"/>
	</g>
	<g>
		<path fill="#1D87C9" d="M-281.294,0.862l-1.61-0.241l0.939-6.319c0.002-0.185,0.051-0.458,0.254-0.749
			c0.371-0.536,1.086-0.893,2.187-1.089l4.498-0.35l0.126,1.625l-4.421,0.34c-0.665,0.123-0.932,0.298-1.019,0.371l-0.003,0.023
			L-281.294,0.862z"/>
		<path fill="#1D87C9" d="M-282.719,33.013h8.185v-2.43c1.734-0.85,2.041-1.811,2.084-2.008l0.021-0.187l-0.068-24.294l-2.417-3.659
			h-15.013l0.025,0.798h13.679l2.098,3.355l0.064,23.647c-0.083,0.124-0.449,0.598-1.6,1.067l-0.507,0.208l-0.003,2.652h-6.553
			L-282.719,33.013z"/>
		<path fill="#1D87C9" d="M-282.893,33.013h-8.186v-2.43c-1.731-0.85-2.036-1.811-2.084-2.008l-0.021-0.187l0.069-24.294
			l2.412-3.659h15.013l-0.017,0.798h-13.684l-2.098,3.355l-0.064,23.647c0.085,0.124,0.454,0.598,1.6,1.067l0.506,0.208l0.003,2.652
			h6.554L-282.893,33.013z"/>
		<rect x="-292.801" y="0.006" fill="#1D87C9" width="19.939" height="1.47"/>
		<rect x="-292.801" y="31.667" fill="#1D87C9" width="19.939" height="1.467"/>
	</g>
	<g>
		<path fill="#1D87C9" d="M-322.832,32.935l-4.76-21.525l-4.76,21.525h-5.109l7.524-32.76h4.69l7.56,32.76H-322.832z M-309.672,10.5
			h3.57v4.76h-3.57v17.85h-4.83V0h4.83V10.5z"/>
		<path fill="#1D87C9" d="M-263.927,33.11h-5.391V0h5.391V33.11z"/>
		<path fill="#1D87C9" d="M-229.698,0.175v4.62h-11.654v23.45h11.83v4.725h-17.256V0.175H-229.698z M-216.503,11.13v4.62h-3.57
			v17.36h-4.97V0h4.97v11.13H-216.503z"/>
		<path fill="#1D87C9" d="M-188.118,0.175v4.76l-1.505,13.895h-5.11l1.505-13.895h-9.975v-4.76H-188.118z M-180.418,21.315
			c0.863,0,1.674,0.146,2.433,0.438c0.758,0.292,1.417,0.7,1.978,1.225c0.56,0.525,1.003,1.149,1.33,1.873
			c0.326,0.724,0.489,1.517,0.489,2.38c0,0.863-0.163,1.65-0.489,2.363c-0.327,0.711-0.771,1.329-1.33,1.854
			c-0.561,0.524-1.22,0.933-1.978,1.225c-0.759,0.292-1.569,0.438-2.433,0.438h-14.28c-0.863,0-1.675-0.146-2.433-0.438
			s-1.417-0.7-1.978-1.225c-0.56-0.525-1.003-1.144-1.33-1.854c-0.327-0.713-0.489-1.5-0.489-2.363c0-0.863,0.162-1.656,0.489-2.38
			c0.327-0.723,0.771-1.348,1.33-1.873c0.561-0.525,1.22-0.933,1.978-1.225c0.758-0.292,1.569-0.438,2.433-0.438H-180.418z
			 M-194.698,25.69c-0.42,0-0.776,0.152-1.067,0.455c-0.292,0.304-0.438,0.665-0.438,1.085c0,0.396,0.146,0.747,0.438,1.05
			c0.291,0.303,0.647,0.455,1.067,0.455h14.28c0.42,0,0.781-0.151,1.085-0.455c0.303-0.304,0.455-0.654,0.455-1.05
			c0-0.42-0.152-0.781-0.455-1.085c-0.304-0.303-0.665-0.455-1.085-0.455H-194.698z M-179.438,11.2V7.945h-5.845v-4.2h5.845V0h5.11
			v18.83h-5.11v-3.395h-5.845V11.2H-179.438z"/>
		<path fill="#1D87C9" d="M-147.379,16.345l5.564,16.59h-4.899l-3.186-9.45l-3.29,9.45h-5.285l9.94-28.07h-9.345v-4.69h14.524v4.69
			L-147.379,16.345z M-135.97,33.11h-4.515V16.835h-3.99v-4.48h3.99V0h4.515V33.11z M-128.864,33.11h-4.62V0h4.62V33.11z"/>
	</g>
	<image overflow="visible" width="150" height="115" xlink:href="63F9E5D2.jpg"  transform="matrix(1 0 0 1 9.667 -167.418)">
	</image>
</g>
</svg>
