<?xml version="1.0" encoding="utf-8"?>
<!-- Generator: Adobe Illustrator 16.0.0, SVG Export Plug-In . SVG Version: 6.00 Build 0)  -->
<!DOCTYPE svg PUBLIC "-//W3C//DTD SVG 1.1//EN" "http://www.w3.org/Graphics/SVG/1.1/DTD/svg11.dtd">
<svg version="1.1" id="Layer_1" xmlns="http://www.w3.org/2000/svg" xmlns:xlink="http://www.w3.org/1999/xlink" x="0px" y="0px"
	 width="326.619px" height="648.202px" viewBox="0 0 326.619 648.202" enable-background="new 0 0 326.619 648.202"
	 xml:space="preserve">
<path fill="none" stroke="#FFFFFF" stroke-width="15" stroke-miterlimit="10" d="M36.941,128.004c0,0-12.743,29.803-28.743,52.555
	v397.686c0,0,4,16.344,34,28.521v31.548c0,0,118-0.21,240-0.21v-31.338c0,0,28-6.729,36-29.482V179.917
	c0,0-18.713-24.033-25.23-52.234L36.941,128.004z"/>
<rect x="19.698" y="118.647" fill="#FFFFFF" width="288" height="16"/>
<rect x="23.698" y="629.647" fill="#FFFFFF" width="276" height="16"/>
<path fill="none" stroke="#FFFFFF" stroke-width="28" stroke-miterlimit="10" d="M170.698,129.004l28.623-91.307
	c0,0,6.314-13.928,16.416-15.99L292.768,15"/>
</svg>
