<?xml version="1.0" encoding="utf-8"?>
<!-- Generator: Adobe Illustrator 16.0.0, SVG Export Plug-In . SVG Version: 6.00 Build 0)  -->
<!DOCTYPE svg PUBLIC "-//W3C//DTD SVG 1.1//EN" "http://www.w3.org/Graphics/SVG/1.1/DTD/svg11.dtd">
<svg version="1.1" xmlns="http://www.w3.org/2000/svg" xmlns:xlink="http://www.w3.org/1999/xlink" x="0px" y="0px" width="500px"
	 height="500px" viewBox="0 0 500 500" enable-background="new 0 0 500 500" xml:space="preserve">
<g id="환경설정">
	<path fill="none" stroke="#255CB7" stroke-width="20" stroke-miterlimit="10" d="M110.921,353.393
		c-1.604,2.611-3.038,5.371-4.281,8.273c-13.68,31.986,1.104,68.982,33.021,82.633c31.91,13.648,68.875-1.219,82.554-33.205
		c1.242-2.9,2.246-5.848,3.028-8.813L110.921,353.393z"/>
	<path fill="none" stroke="#255CB7" stroke-width="20" stroke-miterlimit="10" d="M314.514,372.969
		c-0.478-45.953,42.332-131.616,44.688-137.124c24.746-57.861-4.712-125.946-65.798-152.071
		c-61.085-26.124-130.664-0.396-155.41,57.466c-1.985,4.642-30.859,91.665-68.541,126.922c0,0-61.104,39.57,7.086,68.732
		c0,0,43.439,20.891,91.004,40.816c47.265,20.629,92.374,37.611,92.374,37.611C328.107,444.484,314.514,372.969,314.514,372.969z"/>
	<path fill="none" stroke="#CCCCCC" stroke-width="36" stroke-linejoin="round" stroke-miterlimit="10" d="M937.678,407.144
		c0-29.357,23.799-53.156,53.157-53.156c16.508,0,31.259,7.525,41.009,19.332c21.762-22.896,38.03-51.059,46.718-82.373
		c-25.198-4.17-44.419-26.051-44.419-52.43c0-26.38,19.221-48.26,44.419-52.43c-8.673-31.263-24.902-59.38-46.608-82.256
		c-9.749,11.886-24.547,19.471-41.118,19.471c-29.358,0-53.157-23.799-53.157-53.158c0-7.23,1.449-14.121,4.064-20.404
		c-16.495-4.514-33.854-6.938-51.781-6.938c-18.337,0-36.081,2.528-52.912,7.244c2.535,6.202,3.943,12.984,3.943,20.098
		c0,29.358-23.8,53.158-53.157,53.158c-16.24,0-30.771-7.292-40.521-18.769c-21.35,22.721-37.331,50.539-45.924,81.438
		c25.519,3.896,45.067,25.938,45.067,52.546c0,26.605-19.549,48.648-45.067,52.545c8.608,30.955,24.631,58.818,46.039,81.563
		c9.749-11.402,24.228-18.637,40.405-18.637c29.357,0,53.157,23.799,53.157,53.156c0,7.027-1.376,13.729-3.853,19.867
		c16.804,4.699,34.518,7.219,52.821,7.219c17.895,0,35.222-2.414,51.689-6.912C939.096,421.095,937.678,414.286,937.678,407.144z"/>
	<circle fill="none" stroke="#CCCCCC" stroke-width="36" stroke-miterlimit="10" cx="889.977" cy="238.517" r="70"/>
	
		<polyline fill="none" stroke="#CCCCCC" stroke-width="20" stroke-linecap="round" stroke-linejoin="round" stroke-miterlimit="10" points="
		661.992,-110.481 731.742,-40.731 801.992,-110.981 	"/>
	<g>
		<path fill="#CCCCCC" d="M404.871,216.431c0,21.6-17.51,39.112-39.111,39.112H184.981c-21.601,0-39.11-17.512-39.11-39.112l0,0
			c0-21.6,17.51-39.111,39.11-39.111H365.76C387.361,177.32,404.871,194.832,404.871,216.431L404.871,216.431z"/>
		<circle fill="#FFFFFF" cx="186.371" cy="216.431" r="29.5"/>
	</g>
	<path fill="none" stroke="#255CB7" stroke-width="30" stroke-miterlimit="10" d="M1681.232,407.583
		c-29.386-66.787-24.147-176.822-22.648-200.112c1.494-9.117,2.274-18.458,2.274-27.971c0-99.92-85.514-180.921-191-180.921
		s-191,81.001-191,180.921c0,8.015,0.558,15.907,1.624,23.646c-0.063-0.055-0.105-0.091-0.105-0.091s10.662,129.53-22.336,204.527
		c0,0-64.497,95.918,53.259,95.918c0,0,76.458,3.373,158.337,2.769c81.879,0.604,158.337-2.769,158.337-2.769
		C1745.729,503.501,1681.232,407.583,1681.232,407.583z"/>
	<ellipse fill="#FFFFFF" cx="1470.5" cy="520.5" rx="106.5" ry="91.5"/>
	<g>
		<path fill="#255CB7" d="M406.871,310.932c0,21.6-17.51,39.111-39.111,39.111H186.981c-21.601,0-39.11-17.512-39.11-39.111l0,0
			c0-21.6,17.51-39.111,39.11-39.111H367.76C389.361,271.82,406.871,289.332,406.871,310.932L406.871,310.932z"/>
		<circle fill="#FFFFFF" cx="366.371" cy="310.932" r="29.5"/>
	</g>
	<path fill="none" stroke="#255CB7" stroke-width="20" stroke-linecap="round" stroke-miterlimit="10" d="M373.205,96.932
		c0,0,29.333,18,32,66"/>
	<path fill="none" stroke="#255CB7" stroke-width="20" stroke-linecap="round" stroke-miterlimit="10" d="M379.872,51.599
		c0,0,65.333,17.332,73.333,124.666"/>
</g>
<g id="사이다콘텐츠">
	<path fill="none" stroke="#666666" stroke-width="20" stroke-linejoin="round" stroke-miterlimit="10" d="M-1464.284,330.665
		c0,27.614-22.386,50-50,50h-184.001l-37.333,58.666l-36.667-58.666h-30.667c-27.614,0-50-22.386-50-50V147.331
		c0-27.614,22.386-50,50-50h288.667c27.614,0,50,22.386,50,50V330.665z"/>
	
		<rect x="-1798.118" y="149.331" fill="none" stroke="#666666" stroke-width="20" stroke-linejoin="round" stroke-miterlimit="10" width="279" height="86"/>
	
		<line fill="none" stroke="#666666" stroke-width="20" stroke-linecap="round" stroke-linejoin="round" stroke-miterlimit="10" x1="-1797.618" y1="280.998" x2="-1519.618" y2="280.998"/>
	
		<line fill="none" stroke="#666666" stroke-width="20" stroke-linecap="round" stroke-linejoin="round" stroke-miterlimit="10" x1="-1797.618" y1="323.998" x2="-1519.618" y2="323.998"/>
</g>
<g id="사이다토론">
	<g>
		
			<circle fill="none" stroke="#666666" stroke-width="10" stroke-linecap="round" stroke-miterlimit="10" stroke-dasharray="0,29.7756" cx="-1186.764" cy="283" r="175.333"/>
	</g>
	<g>
		
			<circle fill="#FFFFFF" stroke="#666666" stroke-width="20" stroke-linejoin="round" stroke-miterlimit="10" cx="-1188.003" cy="99.465" r="34.27"/>
		<path fill="#FFFFFF" stroke="#666666" stroke-width="20" stroke-linejoin="round" stroke-miterlimit="10" d="M-1117.279,197.528
			c0.059-1.162,0.088-2.333,0.088-3.507c0-31.769-21.292-58.563-50.384-66.892c-5.669,4.151-12.657,6.607-20.22,6.607
			c-7.298,0-14.057-2.287-19.615-6.173c-28.343,8.794-48.928,35.223-48.928,66.458c0,1.175,0.03,2.345,0.087,3.507H-1117.279z"/>
	</g>
	<g>
		
			<circle fill="#FFFFFF" stroke="#666666" stroke-width="20" stroke-linejoin="round" stroke-miterlimit="10" cx="-1343.024" cy="306.132" r="34.27"/>
		<path fill="#FFFFFF" stroke="#666666" stroke-width="20" stroke-linejoin="round" stroke-miterlimit="10" d="M-1272.3,404.194
			c0.059-1.162,0.088-2.332,0.088-3.508c0-31.768-21.292-58.563-50.384-66.892c-5.669,4.151-12.657,6.606-20.221,6.606
			c-7.297,0-14.056-2.287-19.614-6.173c-28.343,8.794-48.928,35.223-48.928,66.458c0,1.176,0.03,2.346,0.087,3.508H-1272.3z"/>
	</g>
	<g>
		
			<circle fill="#FFFFFF" stroke="#666666" stroke-width="20" stroke-linejoin="round" stroke-miterlimit="10" cx="-1033.691" cy="306.132" r="34.27"/>
		<path fill="#FFFFFF" stroke="#666666" stroke-width="20" stroke-linejoin="round" stroke-miterlimit="10" d="M-962.967,404.194
			c0.059-1.162,0.088-2.332,0.088-3.508c0-31.768-21.292-58.563-50.384-66.892c-5.669,4.151-12.657,6.606-20.221,6.606
			c-7.297,0-14.057-2.287-19.614-6.173c-28.343,8.794-48.928,35.223-48.928,66.458c0,1.176,0.03,2.346,0.087,3.508H-962.967z"/>
	</g>
</g>
<g id="사이다강의">
	
		<rect x="-810.306" y="78.5" fill="none" stroke="#666666" stroke-width="20" stroke-linejoin="round" stroke-miterlimit="10" width="263.5" height="167"/>
	<g>
		
			<circle fill="#FFFFFF" stroke="#666666" stroke-width="20" stroke-linejoin="round" stroke-miterlimit="10" cx="-679.795" cy="183.132" r="34.27"/>
		<path fill="#FFFFFF" stroke="#666666" stroke-width="20" stroke-linejoin="round" stroke-miterlimit="10" d="M-609.07,281.194
			c0.059-1.162,0.088-2.332,0.088-3.508c0-31.768-21.293-58.563-50.385-66.892c-5.668,4.151-12.656,6.606-20.221,6.606
			c-7.297,0-14.057-2.287-19.613-6.173c-28.343,8.794-48.928,35.223-48.928,66.458c0,1.176,0.03,2.346,0.087,3.508H-609.07z"/>
	</g>
	<polygon fill="none" stroke="#666666" stroke-width="20" stroke-linejoin="round" stroke-miterlimit="10" points="
		-581.743,311.254 -581.743,281.121 -773.743,281.121 -773.743,311.254 -754.713,311.254 -729.774,402.747 -745.984,402.747 
		-745.984,432.88 -609.502,432.88 -609.502,402.747 -625.713,402.747 -600.772,311.254 	"/>
</g>
<g id="사이다재무">
	<g>
		
			<circle fill="none" stroke="#666666" stroke-width="20" stroke-linejoin="round" stroke-miterlimit="10" cx="-363.813" cy="119.121" r="34.27"/>
		<path fill="none" stroke="#666666" stroke-width="20" stroke-linejoin="round" stroke-miterlimit="10" d="M-293.088,217.183
			c0.059-1.162,0.088-2.332,0.088-3.508c0-31.768-21.293-58.563-50.385-66.892c-5.668,4.151-12.656,6.606-20.221,6.606
			c-7.297,0-14.057-2.287-19.613-6.173c-28.344,8.794-48.928,35.223-48.928,66.458c0,1.176,0.029,2.346,0.086,3.508H-293.088z"/>
	</g>
	<g>
		
			<circle fill="none" stroke="#666666" stroke-width="20" stroke-linejoin="round" stroke-miterlimit="10" cx="-150.813" cy="332.121" r="34.27"/>
		<path fill="none" stroke="#666666" stroke-width="20" stroke-linejoin="round" stroke-miterlimit="10" d="M-80.088,430.184
			c0.059-1.162,0.088-2.332,0.088-3.508c0-31.768-21.293-58.563-50.385-66.893c-5.668,4.152-12.656,6.607-20.221,6.607
			c-7.297,0-14.057-2.287-19.613-6.174c-28.344,8.795-48.928,35.223-48.928,66.459c0,1.176,0.029,2.346,0.086,3.508H-80.088z"/>
	</g>
	<g>
		
			<polyline fill="none" stroke="#666666" stroke-width="20" stroke-linecap="round" stroke-linejoin="round" stroke-miterlimit="10" points="
			-150.016,224.173 -125.9,248.287 -101.613,224 		"/>
		
			<polyline fill="none" stroke="#666666" stroke-width="20" stroke-linecap="round" stroke-linejoin="round" stroke-miterlimit="10" points="
			-242.807,134 -125.807,134 -125.807,238 		"/>
	</g>
	<g>
		
			<polyline fill="none" stroke="#666666" stroke-width="20" stroke-linecap="round" stroke-linejoin="round" stroke-miterlimit="10" points="
			-370.404,298.114 -394.52,274 -418.807,298.287 		"/>
		
			<polyline fill="none" stroke="#666666" stroke-width="20" stroke-linecap="round" stroke-linejoin="round" stroke-miterlimit="10" points="
			-277.613,388.287 -394.613,388.287 -394.613,284.287 		"/>
	</g>
</g>
</svg>
