<?xml version="1.0" encoding="utf-8"?>
<!-- Generator: Adobe Illustrator 16.0.0, SVG Export Plug-In . SVG Version: 6.00 Build 0)  -->
<!DOCTYPE svg PUBLIC "-//W3C//DTD SVG 1.1//EN" "http://www.w3.org/Graphics/SVG/1.1/DTD/svg11.dtd">
<svg version="1.1" id="Layer_1" xmlns="http://www.w3.org/2000/svg" xmlns:xlink="http://www.w3.org/1999/xlink" x="0px" y="0px"
	 width="100px" height="100px" viewBox="0 0 100 100" enable-background="new 0 0 100 100" xml:space="preserve">
<path fill="none" stroke="#1D87C9" stroke-width="6" stroke-miterlimit="10" d="M20.574,73.428c-0.341,0.555-0.646,1.142-0.91,1.759
	c-2.908,6.799,0.234,14.663,7.019,17.564c6.783,2.901,14.641-0.259,17.549-7.058c0.264-0.617,0.478-1.243,0.644-1.874L20.574,73.428
	z"/>
<path fill="none" stroke="#1D87C9" stroke-width="6" stroke-miterlimit="10" d="M63.853,77.589
	c-0.102-9.769,8.998-27.978,9.499-29.148c5.261-12.3-1.001-26.772-13.986-32.326C46.38,10.561,31.59,16.03,26.33,28.33
	c-0.422,0.986-6.56,19.485-14.57,26.979c0,0-12.989,8.412,1.506,14.611c0,0,9.234,4.44,19.345,8.676
	c10.046,4.386,19.636,7.995,19.636,7.995C66.742,92.791,63.853,77.589,63.853,77.589z"/>
<path fill="none" stroke="#1D87C9" stroke-width="6" stroke-linecap="round" stroke-miterlimit="10" d="M77.828,16.412
	c0,0,6.235,3.826,6.803,14.029"/>
<path fill="none" stroke="#1D87C9" stroke-width="6" stroke-linecap="round" stroke-miterlimit="10" d="M79.245,6.775
	c0,0,13.889,3.685,15.589,26.5"/>
</svg>
