<?xml version="1.0" encoding="utf-8"?>
<!-- Generator: Adobe Illustrator 16.0.0, SVG Export Plug-In . SVG Version: 6.00 Build 0)  -->
<!DOCTYPE svg PUBLIC "-//W3C//DTD SVG 1.1//EN" "http://www.w3.org/Graphics/SVG/1.1/DTD/svg11.dtd">
<svg version="1.1" id="레이어_1" xmlns="http://www.w3.org/2000/svg" xmlns:xlink="http://www.w3.org/1999/xlink" x="0px"
	 y="0px" width="35.063px" height="36.917px" viewBox="0 0 35.063 36.917" enable-background="new 0 0 35.063 36.917"
	 xml:space="preserve">
<path fill="#1B87C8" d="M31.929,31.928c-1.203,1.206-3.156,1.206-4.361,0l-5.441-5.441c-2.237,1.437-4.881,2.291-7.736,2.291
	C6.443,28.778,0,22.334,0,14.39C0,6.441,6.443,0,14.39,0s14.388,6.442,14.388,14.39c0,2.854-0.855,5.5-2.289,7.737l5.441,5.442
	C33.134,28.774,33.134,30.723,31.929,31.928L31.929,31.928z M14.389,4.11c-5.675,0-10.277,4.601-10.277,10.278
	c0,5.676,4.603,10.278,10.277,10.278c5.679,0,10.278-4.602,10.278-10.278C24.668,8.711,20.067,4.11,14.389,4.11z"/>
</svg>
