<?xml version="1.0" encoding="utf-8"?>
<!-- Generator: Adobe Illustrator 16.0.0, SVG Export Plug-In . SVG Version: 6.00 Build 0)  -->
<!DOCTYPE svg PUBLIC "-//W3C//DTD SVG 1.1//EN" "http://www.w3.org/Graphics/SVG/1.1/DTD/svg11.dtd">
<svg version="1.1" id="Layer_1" xmlns="http://www.w3.org/2000/svg" xmlns:xlink="http://www.w3.org/1999/xlink" x="0px" y="0px"
	 width="70px" height="70px" viewBox="0 0 70 70" enable-background="new 0 0 70 70" xml:space="preserve">
<rect x="0.102" y="0.107" fill="#1D87C9" width="70" height="70"/>
<g>
	<path fill="#FFFFFF" d="M14.478,30.183l-2.188-9.896l-2.189,9.896H7.751l3.459-15.063h2.157l3.476,15.063H14.478z M20.528,19.868
		h1.642v2.188h-1.642v8.207h-2.221V15.04h2.221V19.868z"/>
	<path fill="#FFFFFF" d="M33.499,15.04c0.525,0,1.017,0.105,1.472,0.314c0.456,0.208,0.853,0.494,1.191,0.853
		c0.337,0.36,0.603,0.775,0.796,1.247c0.192,0.472,0.291,0.971,0.291,1.497v7.402c0,0.525-0.101,1.024-0.3,1.496
		c-0.196,0.472-0.469,0.887-0.813,1.247c-0.343,0.36-0.748,0.644-1.214,0.853c-0.467,0.209-0.963,0.314-1.489,0.314h-0.788
		c-0.547,0-1.063-0.102-1.545-0.306c-0.483-0.204-0.901-0.483-1.256-0.837c-0.354-0.354-0.635-0.767-0.844-1.238
		c-0.209-0.473-0.314-0.982-0.314-1.529v-7.402c0-0.548,0.104-1.057,0.314-1.529c0.209-0.472,0.491-0.885,0.844-1.239
		c0.354-0.354,0.773-0.633,1.256-0.837c0.482-0.204,0.998-0.306,1.545-0.306H33.499z M32.646,17.325
		c-0.226,0-0.44,0.043-0.644,0.129s-0.384,0.201-0.539,0.346c-0.156,0.145-0.276,0.316-0.362,0.515
		c-0.086,0.199-0.129,0.41-0.129,0.636v7.402c0,0.225,0.043,0.437,0.129,0.635c0.085,0.199,0.206,0.37,0.362,0.515
		c0.155,0.145,0.335,0.26,0.539,0.346s0.418,0.129,0.644,0.129h0.724c0.225,0,0.435-0.043,0.627-0.129s0.362-0.204,0.507-0.354
		c0.145-0.15,0.258-0.325,0.338-0.523c0.081-0.198,0.121-0.405,0.121-0.619v-7.402c0-0.215-0.04-0.419-0.121-0.612
		c-0.08-0.193-0.191-0.365-0.33-0.515s-0.306-0.271-0.499-0.362c-0.193-0.091-0.396-0.137-0.611-0.137H32.646z M41.561,30.263
		h-2.478V15.04h2.478V30.263z"/>
	<path fill="#FFFFFF" d="M57.299,15.12v2.124h-5.359v10.782h5.439v2.173h-7.934V15.12H57.299z M63.365,20.157v2.124h-1.641v7.982
		h-2.286V15.04h2.286v5.118H63.365z"/>
	<path fill="#FFFFFF" d="M14.623,41.364v2.188l-0.692,6.388h-2.35l0.692-6.388H7.687v-2.188H14.623z M18.163,51.083
		c0.397,0,0.77,0.067,1.118,0.201s0.652,0.322,0.91,0.563c0.257,0.241,0.46,0.528,0.611,0.86c0.15,0.333,0.225,0.697,0.225,1.094
		c0,0.397-0.075,0.76-0.225,1.087c-0.151,0.327-0.354,0.612-0.611,0.853c-0.258,0.242-0.561,0.43-0.91,0.563
		s-0.721,0.201-1.118,0.201h-6.566c-0.396,0-0.77-0.067-1.118-0.201c-0.349-0.134-0.652-0.321-0.909-0.563
		c-0.258-0.24-0.461-0.525-0.612-0.853c-0.15-0.327-0.225-0.689-0.225-1.087c0-0.396,0.075-0.761,0.225-1.094
		c0.15-0.332,0.354-0.619,0.612-0.86c0.257-0.241,0.561-0.43,0.909-0.563c0.348-0.134,0.722-0.201,1.118-0.201H18.163z
		 M11.597,53.095c-0.193,0-0.357,0.069-0.491,0.209c-0.134,0.14-0.201,0.306-0.201,0.498c0,0.184,0.067,0.344,0.201,0.483
		c0.134,0.14,0.298,0.209,0.491,0.209h6.566c0.193,0,0.359-0.069,0.499-0.209c0.139-0.14,0.209-0.3,0.209-0.483
		c0-0.192-0.07-0.358-0.209-0.498c-0.14-0.14-0.306-0.209-0.499-0.209H11.597z M18.613,46.433v-1.497h-2.688v-1.931h2.688v-1.722
		h2.35v8.657h-2.35v-1.562h-2.688v-1.946H18.613z"/>
	<path fill="#FFFFFF" d="M53.952,48.798l2.558,7.627h-2.252l-1.465-4.344l-1.514,4.344h-2.429L53.42,43.52h-4.296v-2.155h6.678
		v2.155L53.952,48.798z M59.198,56.506h-2.077v-7.482h-1.834v-2.06h1.834v-5.681h2.077V56.506z M62.464,56.506H60.34V41.283h2.124
		V56.506z"/>
</g>
<g>
	<path fill="#FFFFFF" d="M35.913,41.372l-0.753-0.112l0.439-2.955c0.001-0.087,0.023-0.215,0.119-0.352
		c0.173-0.25,0.508-0.416,1.023-0.509l2.104-0.163l0.059,0.76L36.836,38.2c-0.313,0.057-0.438,0.14-0.478,0.174l-0.001,0.011
		L35.913,41.372z"/>
	<path fill="#FFFFFF" d="M35.245,56.414h3.829v-1.137c0.813-0.397,0.956-0.846,0.977-0.939l0.01-0.088l-0.034-11.363l-1.13-1.714
		h-7.022l0.011,0.375h6.4l0.98,1.569l0.03,11.062c-0.039,0.059-0.208,0.281-0.748,0.501l-0.237,0.097l-0.001,1.241h-3.066
		L35.245,56.414z"/>
	<path fill="#FFFFFF" d="M35.165,56.414h-3.831v-1.137c-0.81-0.397-0.953-0.846-0.975-0.939l-0.01-0.088l0.032-11.363l1.129-1.714
		h7.022l-0.008,0.375h-6.4l-0.981,1.569l-0.03,11.062c0.04,0.059,0.212,0.281,0.748,0.501l0.236,0.097l0.001,1.241h3.067
		L35.165,56.414z"/>
	<rect x="30.529" y="40.973" fill="#FFFFFF" width="9.329" height="0.688"/>
	<rect x="30.529" y="55.786" fill="#FFFFFF" width="9.329" height="0.686"/>
</g>
</svg>
