<?xml version="1.0" encoding="utf-8"?>
<!-- Generator: Adobe Illustrator 16.0.0, SVG Export Plug-In . SVG Version: 6.00 Build 0)  -->
<!DOCTYPE svg PUBLIC "-//W3C//DTD SVG 1.1//EN" "http://www.w3.org/Graphics/SVG/1.1/DTD/svg11.dtd">
<svg version="1.1" id="Layer_1" xmlns="http://www.w3.org/2000/svg" xmlns:xlink="http://www.w3.org/1999/xlink" x="0px" y="0px"
	 width="122px" height="100px" viewBox="0 0 122 100" enable-background="new 0 0 122 100" xml:space="preserve">
<g>
	<path fill="#1D87C9" d="M15.594,37.368L10.891,16.1L6.188,37.368H1.139l7.435-32.37h4.634l7.47,32.37H15.594z M28.598,15.2h3.527
		v4.703h-3.527v17.638h-4.772V4.825h4.772V15.2z"/>
	<path fill="#1D87C9" d="M56.47,4.825c1.13,0,2.185,0.225,3.165,0.674c0.979,0.45,1.833,1.061,2.559,1.833
		c0.727,0.773,1.297,1.666,1.711,2.68c0.416,1.015,0.623,2.087,0.623,3.216v15.908c0,1.13-0.213,2.201-0.639,3.216
		c-0.428,1.014-1.01,1.907-1.748,2.68c-0.738,0.772-1.607,1.383-2.61,1.833c-1.003,0.449-2.07,0.674-3.199,0.674h-1.694
		c-1.176,0-2.283-0.22-3.32-0.657c-1.037-0.438-1.937-1.038-2.697-1.798s-1.366-1.648-1.815-2.663
		c-0.45-1.015-0.675-2.109-0.675-3.285V13.229c0-1.176,0.225-2.271,0.675-3.286c0.449-1.014,1.055-1.902,1.815-2.663
		s1.66-1.36,2.697-1.798c1.037-0.438,2.145-0.657,3.32-0.657H56.47z M54.638,9.736c-0.484,0-0.946,0.092-1.384,0.276
		c-0.438,0.185-0.824,0.432-1.158,0.744c-0.335,0.311-0.594,0.68-0.778,1.106c-0.185,0.427-0.276,0.882-0.276,1.366v15.908
		c0,0.484,0.092,0.939,0.276,1.366s0.443,0.795,0.778,1.106c0.334,0.311,0.72,0.559,1.158,0.744
		c0.438,0.184,0.899,0.276,1.384,0.276h1.556c0.484,0,0.934-0.092,1.349-0.276c0.415-0.185,0.778-0.438,1.09-0.761
		c0.312-0.323,0.553-0.697,0.726-1.124c0.174-0.426,0.26-0.87,0.26-1.332V13.229c0-0.461-0.086-0.899-0.26-1.314
		c-0.173-0.415-0.409-0.784-0.709-1.107c-0.3-0.323-0.656-0.582-1.071-0.778s-0.854-0.294-1.314-0.294H54.638z M73.796,37.541
		h-5.324V4.825h5.324V37.541z"/>
	<path fill="#1D87C9" d="M107.618,4.998v4.565H96.103v23.171h11.689v4.668H90.741V4.998H107.618z M120.655,15.823v4.565h-3.527
		v17.153h-4.91V4.825h4.91v10.998H120.655z"/>
	<path fill="#1D87C9" d="M15.905,61.395v4.704l-1.487,13.729H9.369l1.487-13.729H1v-4.704H15.905z M23.514,82.283
		c0.853,0,1.654,0.145,2.403,0.433s1.401,0.691,1.954,1.21c0.553,0.52,0.991,1.137,1.314,1.851c0.322,0.715,0.484,1.499,0.484,2.352
		s-0.162,1.631-0.484,2.335c-0.323,0.703-0.761,1.314-1.314,1.832c-0.553,0.52-1.205,0.922-1.954,1.211s-1.551,0.432-2.403,0.432
		H9.404c-0.853,0-1.655-0.143-2.403-0.432c-0.75-0.289-1.401-0.691-1.954-1.211c-0.553-0.518-0.992-1.129-1.314-1.832
		c-0.323-0.704-0.484-1.482-0.484-2.335s0.161-1.637,0.484-2.352c0.322-0.714,0.761-1.331,1.314-1.851
		C5.6,83.407,6.251,83.004,7,82.716c0.749-0.288,1.55-0.433,2.403-0.433H23.514z M9.404,86.606c-0.415,0-0.767,0.149-1.055,0.449
		c-0.289,0.3-0.432,0.657-0.432,1.072c0,0.392,0.144,0.737,0.432,1.038c0.288,0.299,0.64,0.449,1.055,0.449h14.11
		c0.415,0,0.772-0.15,1.072-0.449c0.299-0.301,0.449-0.646,0.449-1.038c0-0.415-0.15-0.772-0.449-1.072
		c-0.3-0.3-0.657-0.449-1.072-0.449H9.404z M24.482,72.289v-3.217h-5.775v-4.149h5.775v-3.7h5.049v18.605h-5.049v-3.354h-5.775
		v-4.185H24.482z"/>
	<path fill="#1D87C9" d="M100.425,77.373l5.498,16.393h-4.84l-3.148-9.338l-3.25,9.338h-5.223l9.822-27.736H90.05v-4.635h14.352
		v4.635L100.425,77.373z M111.698,93.938h-4.461v-16.08h-3.941V73.43h3.941V61.223h4.461V93.938z M118.72,93.938h-4.564V61.223
		h4.564V93.938z"/>
</g>
<g>
	<path fill="#1D87C9" d="M61.655,61.414l-1.619-0.242l0.944-6.354c0.002-0.186,0.051-0.461,0.256-0.752
		c0.373-0.539,1.092-0.896,2.197-1.094l4.523-0.354l0.125,1.635l-4.443,0.342c-0.67,0.123-0.938,0.301-1.024,0.373l-0.003,0.023
		L61.655,61.414z"/>
	<path fill="#1D87C9" d="M60.222,93.74h8.229v-2.443c1.745-0.854,2.053-1.82,2.097-2.02l0.021-0.188l-0.069-24.426l-2.43-3.68
		H52.977l0.024,0.803h13.753l2.108,3.373l0.064,23.775c-0.083,0.125-0.451,0.602-1.607,1.074l-0.51,0.209l-0.003,2.666h-6.589
		L60.222,93.74z"/>
	<path fill="#1D87C9" d="M60.049,93.74h-8.23v-2.443c-1.741-0.854-2.048-1.82-2.096-2.02l-0.021-0.188l0.069-24.426l2.426-3.68
		h15.093l-0.017,0.803H53.516l-2.108,3.373l-0.065,23.775c0.086,0.125,0.456,0.602,1.608,1.074l0.509,0.209l0.003,2.666h6.59
		L60.049,93.74z"/>
	<rect x="50.086" y="60.555" fill="#1D87C9" width="20.047" height="1.477"/>
	<rect x="50.086" y="92.387" fill="#1D87C9" width="20.047" height="1.475"/>
</g>
</svg>
