<?xml version="1.0" encoding="utf-8"?>
<!-- Generator: Adobe Illustrator 16.0.0, SVG Export Plug-In . SVG Version: 6.00 Build 0)  -->
<!DOCTYPE svg PUBLIC "-//W3C//DTD SVG 1.1//EN" "http://www.w3.org/Graphics/SVG/1.1/DTD/svg11.dtd">
<svg version="1.1" id="Layer_1" xmlns="http://www.w3.org/2000/svg" xmlns:xlink="http://www.w3.org/1999/xlink" x="0px" y="0px"
	 width="21.199px" height="22.32px" viewBox="0 0 21.199 22.32" enable-background="new 0 0 21.199 22.32" xml:space="preserve">
<g id="레이어_1" display="none">
	<path display="inline" fill="#FFFFFF" d="M20.191,20.192c-0.761,0.763-1.995,0.763-2.758,0l-3.441-3.441
		C12.578,17.66,10.906,18.2,9.1,18.2C4.074,18.199,0,14.125,0,9.101C0,4.074,4.074,0,9.1,0c5.024,0,9.099,4.074,9.099,9.101
		c0,1.805-0.541,3.478-1.447,4.893l3.44,3.442C20.953,18.197,20.953,19.429,20.191,20.192L20.191,20.192z M9.099,2.6
		C5.511,2.6,2.6,5.51,2.6,9.1c0,3.589,2.911,6.5,6.499,6.5c3.591,0,6.5-2.91,6.5-6.5C15.599,5.51,12.69,2.6,9.099,2.6z"/>
</g>
<g id="레이어_2" display="none">
	<rect y="0" display="inline" fill="#DD0303" width="21.199" height="4.333"/>
	<rect y="8.993" display="inline" fill="#FFFFFF" width="21.199" height="4.333"/>
	<rect y="17.986" display="inline" fill="#FFFFFF" width="21.199" height="4.333"/>
</g>
<g id="레이어_3">
	<path fill="#1B87C9" d="M21.134,4.704c0,0.945-0.764,1.711-1.709,1.711H3.066c-0.945,0-1.711-0.766-1.711-1.711l0,0
		c0-0.945,0.766-1.711,1.711-1.711h16.361C20.371,2.993,21.134,3.758,21.134,4.704L21.134,4.704z"/>
	<path fill="#1B87C9" d="M21.134,11.352c0,0.944-0.764,1.711-1.709,1.711H3.066c-0.945,0-1.711-0.767-1.711-1.711l0,0
		c0-0.945,0.766-1.711,1.711-1.711h16.361C20.371,9.641,21.134,10.407,21.134,11.352L21.134,11.352z"/>
	<path fill="#1B87C9" d="M21.134,18.234c0,0.945-0.764,1.711-1.709,1.711H3.066c-0.945,0-1.711-0.768-1.711-1.711l0,0
		c0-0.945,0.766-1.711,1.711-1.711h16.361C20.371,16.523,21.134,17.289,21.134,18.234L21.134,18.234z"/>
</g>
</svg>
