<?xml version="1.0" encoding="utf-8"?>
<!-- Generator: Adobe Illustrator 16.0.0, SVG Export Plug-In . SVG Version: 6.00 Build 0)  -->
<!DOCTYPE svg PUBLIC "-//W3C//DTD SVG 1.1//EN" "http://www.w3.org/Graphics/SVG/1.1/DTD/svg11.dtd">
<svg version="1.1" id="Layer_1" xmlns="http://www.w3.org/2000/svg" xmlns:xlink="http://www.w3.org/1999/xlink" x="0px" y="0px"
	 width="50px" height="50px" viewBox="0 0 50 50" enable-background="new 0 0 50 50" xml:space="preserve">
<g>
	
		<circle fill="none" stroke="#343332" stroke-linecap="round" stroke-miterlimit="10" stroke-dasharray="0,4.0621" cx="24.798" cy="28.69" r="20.047"/>
</g>
<path fill="#343332" d="M27.879,34.222c0,3.117-3.043,3.044-3.043,3.044s-3.118,0.179-3.118-3.117"/>
<path fill="#343332" d="M28.892,34.369c0,0.392-0.317,0.711-0.709,0.711h-6.768c-0.392,0-0.709-0.319-0.709-0.711v-0.295
	c0-0.391,0.317-0.709,0.709-0.709h6.768c0.392,0,0.709,0.318,0.709,0.709V34.369z"/>
<path fill="#343332" d="M25.552,38.741c0,0.133-0.105,0.237-0.236,0.237h-1.034c-0.131,0-0.237-0.104-0.237-0.237v-2.155
	c0-0.131,0.105-0.236,0.237-0.236h1.034c0.131,0,0.236,0.105,0.236,0.236V38.741z"/>
<path fill="#1E87C9" d="M27.271,26.049"/>
<path fill="#1E87C9" d="M22.327,26.014"/>
<path fill="#343332" d="M27.779,28.355v-1.265c0-1.191-1.336-2.156-2.981-2.156c-1.646,0-2.98,0.965-2.98,2.156v1.265h1.812v0.323
	h-1.812v1.065h1.812v0.324h-1.812v1.098h1.812v0.323h-1.812v2.386c0,1.19,1.334,2.156,2.98,2.156c1.645,0,2.981-0.966,2.981-2.156
	v-2.386h-1.724v-0.323h1.724v-1.098h-1.724v-0.324h1.724v-1.065h-1.724v-0.323H27.779z"/>
<path fill="none" stroke="#343332" stroke-width="0.5" stroke-linecap="round" stroke-miterlimit="10" d="M23.25,23.946
	c0,0,1.461-1.179,3.115,0.002"/>
<path fill="none" stroke="#343332" stroke-width="0.5" stroke-linecap="round" stroke-miterlimit="10" d="M22.286,22.945
	c0,0,2.365-1.908,5.042,0.007"/>
<path fill="#FFFFFF" d="M26.304,7.86c1.176-0.554,1.992-1.75,1.992-3.136c0-1.915-1.553-3.466-3.466-3.466
	c-1.915,0-3.467,1.551-3.467,3.466c0,1.386,0.814,2.582,1.992,3.136c-4.407,1.838-4.404,7.991-4.404,7.996
	c0,0.1,0.082,0.18,0.182,0.18H30.53c0.1,0,0.181-0.081,0.181-0.18C30.711,15.852,30.711,9.542,26.304,7.86z"/>
<path fill="#FFFFFF" d="M8.353,36.793c1.177-0.554,1.992-1.75,1.992-3.137c0-1.915-1.552-3.466-3.466-3.466
	c-1.914,0-3.465,1.551-3.465,3.466c0,1.387,0.814,2.583,1.992,3.137C0.997,38.63,1,44.783,1,44.788c0,0.101,0.081,0.181,0.181,0.181
	h11.398c0.1,0,0.181-0.08,0.181-0.181C12.76,44.783,12.76,38.475,8.353,36.793z"/>
<path fill="#FFFFFF" d="M44.592,36.793c1.177-0.554,1.992-1.75,1.992-3.137c0-1.915-1.553-3.466-3.467-3.466
	c-1.913,0-3.466,1.551-3.466,3.466c0,1.387,0.814,2.583,1.991,3.137c-4.405,1.837-4.403,7.99-4.403,7.995
	c0,0.101,0.082,0.181,0.181,0.181h11.398c0.1,0,0.182-0.08,0.182-0.181C49,44.783,49,38.475,44.592,36.793z"/>
</svg>
