<?xml version="1.0" encoding="utf-8"?>
<!-- Generator: Adobe Illustrator 16.0.0, SVG Export Plug-In . SVG Version: 6.00 Build 0)  -->
<!DOCTYPE svg PUBLIC "-//W3C//DTD SVG 1.1//EN" "http://www.w3.org/Graphics/SVG/1.1/DTD/svg11.dtd">
<svg version="1.1" id="환경설정" xmlns="http://www.w3.org/2000/svg" xmlns:xlink="http://www.w3.org/1999/xlink" x="0px"
	 y="0px" width="500px" height="500px" viewBox="0 0 500 500" enable-background="new 0 0 500 500" xml:space="preserve">
<image overflow="visible" width="700" height="700" xlink:href="C:\Users\양희아\Downloads\noun_865835_cc.png"  transform="matrix(0.9999 0 0 0.9999 529.8574 -48.8564)">
</image>
<path fill="none" stroke="#CCCCCC" stroke-width="36" stroke-linejoin="round" stroke-miterlimit="10" d="M300.209,422.143
	c0-29.357,23.799-53.156,53.157-53.156c16.508,0,31.259,7.525,41.009,19.332c21.762-22.896,38.03-51.059,46.718-82.373
	c-25.198-4.17-44.419-26.051-44.419-52.43c0-26.38,19.221-48.26,44.419-52.43c-8.673-31.263-24.902-59.38-46.608-82.256
	c-9.749,11.886-24.547,19.471-41.118,19.471c-29.358,0-53.157-23.799-53.157-53.158c0-7.23,1.449-14.121,4.064-20.404
	c-16.495-4.514-33.854-6.938-51.781-6.938c-18.337,0-36.081,2.528-52.912,7.244c2.535,6.202,3.943,12.984,3.943,20.098
	c0,29.358-23.8,53.158-53.157,53.158c-16.24,0-30.771-7.292-40.521-18.769c-21.35,22.721-37.331,50.539-45.924,81.438
	c25.519,3.896,45.067,25.938,45.067,52.546c0,26.605-19.549,48.648-45.067,52.545c8.608,30.955,24.631,58.818,46.039,81.563
	c9.749-11.402,24.228-18.637,40.405-18.637c29.357,0,53.157,23.799,53.157,53.156c0,7.027-1.376,13.729-3.853,19.867
	c16.804,4.699,34.518,7.219,52.821,7.219c17.895,0,35.222-2.414,51.689-6.912C301.627,436.094,300.209,429.285,300.209,422.143z"/>
<circle fill="none" stroke="#CCCCCC" stroke-width="36" stroke-miterlimit="10" cx="252.508" cy="253.516" r="70"/>
<line fill="none" stroke="#666666" stroke-width="36" stroke-linejoin="round" stroke-miterlimit="10" x1="144.524" y1="-302.738" x2="66.035" y2="-381.227"/>
<line fill="none" stroke="#666666" stroke-width="36" stroke-linejoin="round" stroke-miterlimit="10" x1="119.78" y1="-302.738" x2="198.269" y2="-381.227"/>
<polygon fill="#666666" stroke="#666666" stroke-width="10" stroke-linecap="round" stroke-linejoin="round" stroke-miterlimit="10" points="
	173.331,-198.165 147.875,-223.621 94.486,-170.232 41.096,-223.622 15.641,-198.166 94.13,-119.677 94.486,-120.032 
	94.841,-119.677 "/>
<polyline fill="none" stroke="#CCCCCC" stroke-width="20" stroke-linecap="round" stroke-linejoin="round" stroke-miterlimit="10" points="
	24.524,-95.482 94.274,-25.732 164.524,-95.982 "/>
</svg>
